<svg xmlns="http://www.w3.org/2000/svg" version="1.1" xmlns:xlink="http://www.w3.org/1999/xlink" xmlns:svgjs="http://svgjs.dev/svgjs" viewBox="0 0 16.95116823569859 17.40889207223959"><g transform="matrix(1,0,0,1,1.4315167350367943,13.88219933400677)"><g><path d=" M 0.10693359375 0.010986328125 L 0.303955078125 0.010986328125 Q 0.3486328125 0.010986328125 0.3966064453125 0.0135498046875 Q 0.444580078125 0.01611328125 0.4903564453125 0.029296875 Q 0.5361328125 0.04248046875 0.5767822265625 0.0699462890625 Q 0.617431640625 0.097412109375 0.648193359375 0.1468505859375 Q 0.678955078125 0.1962890625 0.6968994140625 0.2713623046875 Q 0.71484375 0.346435546875 0.71484375 0.454833984375 L 0.71484375 0.818115234375 Q 0.71484375 0.926513671875 0.6968994140625 1.001953125 Q 0.678955078125 1.077392578125 0.648193359375 1.12646484375 Q 0.617431640625 1.175537109375 0.5767822265625 1.2030029296875 Q 0.5361328125 1.23046875 0.4903564453125 1.24365234375 Q 0.444580078125 1.2568359375 0.3966064453125 1.2593994140625 Q 0.3486328125 1.261962890625 0.303955078125 1.261962890625 L 0.10693359375 1.261962890625 L 0.10693359375 0.010986328125 Z M 0.344970703125 1.12939453125 Q 0.396240234375 1.12939453125 0.4295654296875 1.1162109375 Q 0.462890625 1.10302734375 0.4822998046875 1.0697021484375 Q 0.501708984375 1.036376953125 0.509033203125 0.9788818359375 Q 0.516357421875 0.92138671875 0.516357421875 0.83349609375 L 0.516357421875 0.4453125 Q 0.516357421875 0.357421875 0.509033203125 0.2999267578125 Q 0.501708984375 0.242431640625 0.4822998046875 0.2091064453125 Q 0.462890625 0.17578125 0.4295654296875 0.16259765625 Q 0.396240234375 0.1494140625 0.344970703125 0.1494140625 L 0.296630859375 0.1494140625 L 0.296630859375 1.12939453125 L 0.344970703125 1.12939453125 Z M 1.168212890625 1.27294921875 Q 1.13818359375 1.27294921875 1.10302734375 1.2681884765625 Q 1.06787109375 1.263427734375 1.033447265625 1.248046875 Q 0.9990234375 1.232666015625 0.9671630859375 1.2044677734375 Q 0.935302734375 1.17626953125 0.9107666015625 1.130126953125 Q 0.88623046875 1.083984375 0.87158203125 1.0162353515625 Q 0.85693359375 0.948486328125 0.85693359375 0.854736328125 L 0.85693359375 0.41162109375 Q 0.85693359375 0.317138671875 0.8719482421875 0.2501220703125 Q 0.886962890625 0.18310546875 0.911865234375 0.1373291015625 Q 0.936767578125 0.091552734375 0.9686279296875 0.064453125 Q 1.00048828125 0.037353515625 1.0352783203125 0.0230712890625 Q 1.070068359375 0.0087890625 1.1044921875 0.00439453125 Q 1.138916015625 0 1.168212890625 0 Q 1.196044921875 0 1.2301025390625 0.0040283203125 Q 1.26416015625 0.008056640625 1.2982177734375 0.0216064453125 Q 1.332275390625 0.03515625 1.364501953125 0.0618896484375 Q 1.396728515625 0.088623046875 1.421630859375 0.1343994140625 Q 1.446533203125 0.18017578125 1.4615478515625 0.2479248046875 Q 1.4765625 0.315673828125 1.4765625 0.41162109375 L 1.4765625 0.854736328125 Q 1.4765625 0.94775390625 1.461181640625 1.0147705078125 Q 1.44580078125 1.081787109375 1.4208984375 1.1282958984375 Q 1.39599609375 1.1748046875 1.3634033203125 1.2030029296875 Q 1.330810546875 1.231201171875 1.2967529296875 1.2469482421875 Q 1.2626953125 1.2626953125 1.22900390625 1.267822265625 Q 1.1953125 1.27294921875 1.168212890625 1.27294921875 Z M 1.168212890625 1.130126953125 Q 1.196044921875 1.130126953125 1.2169189453125 1.12060546875 Q 1.23779296875 1.111083984375 1.2513427734375 1.087646484375 Q 1.264892578125 1.064208984375 1.2718505859375 1.0257568359375 Q 1.27880859375 0.9873046875 1.27880859375 0.9287109375 L 1.27880859375 0.359619140625 Q 1.27880859375 0.299560546875 1.2718505859375 0.25927734375 Q 1.264892578125 0.218994140625 1.2513427734375 0.1944580078125 Q 1.23779296875 0.169921875 1.2169189453125 0.15966796875 Q 1.196044921875 0.1494140625 1.168212890625 0.1494140625 Q 1.1396484375 0.1494140625 1.118408203125 0.15966796875 Q 1.09716796875 0.169921875 1.083251953125 0.1944580078125 Q 1.0693359375 0.218994140625 1.0623779296875 0.25927734375 Q 1.055419921875 0.299560546875 1.055419921875 0.359619140625 L 1.055419921875 0.9287109375 Q 1.055419921875 0.9873046875 1.0623779296875 1.0257568359375 Q 1.0693359375 1.064208984375 1.083251953125 1.087646484375 Q 1.09716796875 1.111083984375 1.118408203125 1.12060546875 Q 1.1396484375 1.130126953125 1.168212890625 1.130126953125 Z M 1.58349609375 0.010986328125 L 1.76513671875 0.010986328125 L 1.849365234375 0.766845703125 L 1.85888671875 0.943359375 L 1.877197265625 0.943359375 L 1.894775390625 0.744873046875 L 2.029541015625 0.010986328125 L 2.18115234375 0.010986328125 L 2.31005859375 0.744873046875 L 2.32470703125 0.943359375 L 2.34375 0.943359375 L 2.3525390625 0.766845703125 L 2.429443359375 0.010986328125 L 2.61181640625 0.010986328125 L 2.436767578125 1.261962890625 L 2.244140625 1.261962890625 L 2.140869140625 0.66064453125 L 2.108642578125 0.399169921875 L 2.093994140625 0.399169921875 L 2.0625 0.66064453125 L 1.9541015625 1.261962890625 L 1.763671875 1.261962890625 L 1.58349609375 0.010986328125 Z M 2.75390625 0.010986328125 L 2.90771484375 0.010986328125 L 3.2109375 0.84814453125 L 3.21533203125 0.84814453125 Q 3.213134765625 0.81884765625 3.20947265625 0.782958984375 Q 3.205810546875 0.7470703125 3.202880859375 0.7012939453125 Q 3.199951171875 0.655517578125 3.19775390625 0.59765625 Q 3.195556640625 0.539794921875 3.195556640625 0.46728515625 L 3.195556640625 0.010986328125 L 3.365478515625 0.010986328125 L 3.365478515625 1.261962890625 L 3.210205078125 1.261962890625 L 2.908447265625 0.44677734375 L 2.902587890625 0.44677734375 Q 2.90478515625 0.479736328125 2.908447265625 0.5181884765625 Q 2.912109375 0.556640625 2.9150390625 0.608642578125 Q 2.91796875 0.66064453125 2.920166015625 0.7298583984375 Q 2.92236328125 0.799072265625 2.92236328125 0.894287109375 L 2.92236328125 1.261962890625 L 2.75390625 1.261962890625 L 2.75390625 0.010986328125 Z M 3.914794921875 0.010986328125 L 4.068603515625 0.010986328125 L 4.371826171875 0.84814453125 L 4.376220703125 0.84814453125 Q 4.3740234375 0.81884765625 4.370361328125 0.782958984375 Q 4.36669921875 0.7470703125 4.36376953125 0.7012939453125 Q 4.36083984375 0.655517578125 4.358642578125 0.59765625 Q 4.3564453125 0.539794921875 4.3564453125 0.46728515625 L 4.3564453125 0.010986328125 L 4.5263671875 0.010986328125 L 4.5263671875 1.261962890625 L 4.37109375 1.261962890625 L 4.0693359375 0.44677734375 L 4.0634765625 0.44677734375 Q 4.065673828125 0.479736328125 4.0693359375 0.5181884765625 Q 4.072998046875 0.556640625 4.075927734375 0.608642578125 Q 4.078857421875 0.66064453125 4.0810546875 0.7298583984375 Q 4.083251953125 0.799072265625 4.083251953125 0.894287109375 L 4.083251953125 1.261962890625 L 3.914794921875 1.261962890625 L 3.914794921875 0.010986328125 Z M 5.0244140625 1.27294921875 Q 4.994384765625 1.27294921875 4.959228515625 1.2681884765625 Q 4.924072265625 1.263427734375 4.8896484375 1.248046875 Q 4.855224609375 1.232666015625 4.8233642578125 1.2044677734375 Q 4.79150390625 1.17626953125 4.7669677734375 1.130126953125 Q 4.742431640625 1.083984375 4.727783203125 1.0162353515625 Q 4.713134765625 0.948486328125 4.713134765625 0.854736328125 L 4.713134765625 0.41162109375 Q 4.713134765625 0.317138671875 4.7281494140625 0.2501220703125 Q 4.7431640625 0.18310546875 4.76806640625 0.1373291015625 Q 4.79296875 0.091552734375 4.8248291015625 0.064453125 Q 4.856689453125 0.037353515625 4.8914794921875 0.0230712890625 Q 4.92626953125 0.0087890625 4.960693359375 0.00439453125 Q 4.9951171875 0 5.0244140625 0 Q 5.05224609375 0 5.0863037109375 0.0040283203125 Q 5.120361328125 0.008056640625 5.1544189453125 0.0216064453125 Q 5.1884765625 0.03515625 5.220703125 0.0618896484375 Q 5.2529296875 0.088623046875 5.27783203125 0.1343994140625 Q 5.302734375 0.18017578125 5.3177490234375 0.2479248046875 Q 5.332763671875 0.315673828125 5.332763671875 0.41162109375 L 5.332763671875 0.854736328125 Q 5.332763671875 0.94775390625 5.3173828125 1.0147705078125 Q 5.302001953125 1.081787109375 5.277099609375 1.1282958984375 Q 5.252197265625 1.1748046875 5.2196044921875 1.2030029296875 Q 5.18701171875 1.231201171875 5.1529541015625 1.2469482421875 Q 5.118896484375 1.2626953125 5.085205078125 1.267822265625 Q 5.051513671875 1.27294921875 5.0244140625 1.27294921875 Z M 5.0244140625 1.130126953125 Q 5.05224609375 1.130126953125 5.0731201171875 1.12060546875 Q 5.093994140625 1.111083984375 5.1075439453125 1.087646484375 Q 5.12109375 1.064208984375 5.1280517578125 1.0257568359375 Q 5.135009765625 0.9873046875 5.135009765625 0.9287109375 L 5.135009765625 0.359619140625 Q 5.135009765625 0.299560546875 5.1280517578125 0.25927734375 Q 5.12109375 0.218994140625 5.1075439453125 0.1944580078125 Q 5.093994140625 0.169921875 5.0731201171875 0.15966796875 Q 5.05224609375 0.1494140625 5.0244140625 0.1494140625 Q 4.995849609375 0.1494140625 4.974609375 0.15966796875 Q 4.953369140625 0.169921875 4.939453125 0.1944580078125 Q 4.925537109375 0.218994140625 4.9185791015625 0.25927734375 Q 4.91162109375 0.299560546875 4.91162109375 0.359619140625 L 4.91162109375 0.9287109375 Q 4.91162109375 0.9873046875 4.9185791015625 1.0257568359375 Q 4.925537109375 1.064208984375 4.939453125 1.087646484375 Q 4.953369140625 1.111083984375 4.974609375 1.12060546875 Q 4.995849609375 1.130126953125 5.0244140625 1.130126953125 Z M 5.51953125 0.010986328125 L 5.725341796875 0.010986328125 Q 5.760498046875 0.010986328125 5.8026123046875 0.013916015625 Q 5.8447265625 0.016845703125 5.8868408203125 0.0281982421875 Q 5.928955078125 0.03955078125 5.9681396484375 0.062255859375 Q 6.00732421875 0.0849609375 6.0377197265625 0.12451171875 Q 6.068115234375 0.1640625 6.08642578125 0.2237548828125 Q 6.104736328125 0.283447265625 6.104736328125 0.368408203125 L 6.104736328125 0.39990234375 Q 6.104736328125 0.542724609375 6.063720703125 0.6324462890625 Q 6.022705078125 0.72216796875 5.94287109375 0.76171875 L 6.1435546875 1.261962890625 L 5.94287109375 1.261962890625 L 5.776611328125 0.7939453125 L 5.70556640625 0.7939453125 L 5.70556640625 1.261962890625 L 5.51953125 1.261962890625 L 5.51953125 0.010986328125 Z M 5.734130859375 0.656982421875 Q 5.783935546875 0.656982421875 5.818359375 0.64599609375 Q 5.852783203125 0.635009765625 5.8740234375 0.6090087890625 Q 5.895263671875 0.5830078125 5.90478515625 0.5401611328125 Q 5.914306640625 0.497314453125 5.914306640625 0.434326171875 L 5.914306640625 0.33544921875 Q 5.914306640625 0.287109375 5.905517578125 0.251953125 Q 5.896728515625 0.216796875 5.8758544921875 0.194091796875 Q 5.85498046875 0.17138671875 5.820556640625 0.160400390625 Q 5.7861328125 0.1494140625 5.734130859375 0.1494140625 L 5.70556640625 0.1494140625 L 5.70556640625 0.656982421875 L 5.734130859375 0.656982421875 Z M 6.41015625 0.160400390625 L 6.208740234375 0.160400390625 L 6.208740234375 0.010986328125 L 6.800537109375 0.010986328125 L 6.800537109375 0.160400390625 L 6.599853515625 0.160400390625 L 6.599853515625 1.261962890625 L 6.41015625 1.261962890625 L 6.41015625 0.160400390625 Z M 6.93603515625 0.010986328125 L 7.125732421875 0.010986328125 L 7.125732421875 0.53466796875 L 7.3505859375 0.53466796875 L 7.3505859375 0.010986328125 L 7.540283203125 0.010986328125 L 7.540283203125 1.261962890625 L 7.3505859375 1.261962890625 L 7.3505859375 0.68408203125 L 7.125732421875 0.68408203125 L 7.125732421875 1.261962890625 L 6.93603515625 1.261962890625 L 6.93603515625 0.010986328125 Z M 8.34375 1.273681640625 Q 8.32177734375 1.273681640625 8.29248046875 1.2689208984375 Q 8.26318359375 1.26416015625 8.2320556640625 1.248779296875 Q 8.200927734375 1.2333984375 8.1708984375 1.2052001953125 Q 8.140869140625 1.177001953125 8.1170654296875 1.1304931640625 Q 8.09326171875 1.083984375 8.07861328125 1.0162353515625 Q 8.06396484375 0.948486328125 8.06396484375 0.854736328125 L 8.06396484375 0.41162109375 Q 8.06396484375 0.317138671875 8.079345703125 0.2501220703125 Q 8.0947265625 0.18310546875 8.120361328125 0.1373291015625 Q 8.14599609375 0.091552734375 8.1793212890625 0.064453125 Q 8.212646484375 0.037353515625 8.24853515625 0.0230712890625 Q 8.284423828125 0.0087890625 8.319580078125 0.00439453125 Q 8.354736328125 0 8.384765625 0 Q 8.4609375 0 8.5133056640625 0.0208740234375 Q 8.565673828125 0.041748046875 8.5982666015625 0.0780029296875 Q 8.630859375 0.1142578125 8.6451416015625 0.16259765625 Q 8.659423828125 0.2109375 8.659423828125 0.26513671875 Q 8.659423828125 0.305419921875 8.6546630859375 0.3394775390625 Q 8.64990234375 0.37353515625 8.641845703125 0.41455078125 L 8.490234375 0.41455078125 L 8.490234375 0.355224609375 Q 8.490234375 0.1494140625 8.379638671875 0.1494140625 Q 8.349609375 0.1494140625 8.32763671875 0.15966796875 Q 8.3056640625 0.169921875 8.291015625 0.1944580078125 Q 8.2763671875 0.218994140625 8.2694091796875 0.25927734375 Q 8.262451171875 0.299560546875 8.262451171875 0.359619140625 L 8.262451171875 0.926513671875 Q 8.262451171875 0.985107421875 8.2694091796875 1.02392578125 Q 8.2763671875 1.062744140625 8.2906494140625 1.086181640625 Q 8.304931640625 1.109619140625 8.3265380859375 1.1195068359375 Q 8.34814453125 1.12939453125 8.378173828125 1.12939453125 Q 8.40966796875 1.12939453125 8.432373046875 1.1129150390625 Q 8.455078125 1.096435546875 8.4697265625 1.06787109375 Q 8.484375 1.039306640625 8.4913330078125 1.00048828125 Q 8.498291015625 0.961669921875 8.498291015625 0.916259765625 L 8.498291015625 0.7529296875 L 8.40087890625 0.7529296875 L 8.40087890625 0.62841796875 L 8.682861328125 0.62841796875 L 8.682861328125 1.261962890625 L 8.556884765625 1.261962890625 L 8.536376953125 1.143310546875 Q 8.50048828125 1.212890625 8.4539794921875 1.2432861328125 Q 8.407470703125 1.273681640625 8.34375 1.273681640625 Z M 9.0029296875 0.010986328125 L 9.22119140625 0.010986328125 L 9.45263671875 1.261962890625 L 9.2607421875 1.261962890625 L 9.226318359375 1.037841796875 L 8.997802734375 1.037841796875 L 8.96484375 1.261962890625 L 8.772216796875 1.261962890625 L 9.0029296875 0.010986328125 Z M 9.204345703125 0.89501953125 L 9.116455078125 0.271728515625 L 9.1083984375 0.271728515625 L 9.019775390625 0.89501953125 L 9.204345703125 0.89501953125 Z M 9.580810546875 0.010986328125 L 9.78662109375 0.010986328125 Q 9.82177734375 0.010986328125 9.8638916015625 0.013916015625 Q 9.906005859375 0.016845703125 9.9481201171875 0.0281982421875 Q 9.990234375 0.03955078125 10.0294189453125 0.062255859375 Q 10.068603515625 0.0849609375 10.0989990234375 0.12451171875 Q 10.12939453125 0.1640625 10.147705078125 0.2237548828125 Q 10.166015625 0.283447265625 10.166015625 0.368408203125 L 10.166015625 0.39990234375 Q 10.166015625 0.542724609375 10.125 0.6324462890625 Q 10.083984375 0.72216796875 10.004150390625 0.76171875 L 10.204833984375 1.261962890625 L 10.004150390625 1.261962890625 L 9.837890625 0.7939453125 L 9.766845703125 0.7939453125 L 9.766845703125 1.261962890625 L 9.580810546875 1.261962890625 L 9.580810546875 0.010986328125 Z M 9.79541015625 0.656982421875 Q 9.84521484375 0.656982421875 9.879638671875 0.64599609375 Q 9.9140625 0.635009765625 9.935302734375 0.6090087890625 Q 9.95654296875 0.5830078125 9.966064453125 0.5401611328125 Q 9.9755859375 0.497314453125 9.9755859375 0.434326171875 L 9.9755859375 0.33544921875 Q 9.9755859375 0.287109375 9.966796875 0.251953125 Q 9.9580078125 0.216796875 9.9371337890625 0.194091796875 Q 9.916259765625 0.17138671875 9.8818359375 0.160400390625 Q 9.847412109375 0.1494140625 9.79541015625 0.1494140625 L 9.766845703125 0.1494140625 L 9.766845703125 0.656982421875 L 9.79541015625 0.656982421875 Z M 10.355712890625 0.010986328125 L 10.54541015625 0.010986328125 L 10.54541015625 1.112548828125 L 10.803955078125 1.112548828125 L 10.803955078125 1.261962890625 L 10.355712890625 1.261962890625 L 10.355712890625 0.010986328125 Z M 10.931396484375 0.010986328125 L 11.12109375 0.010986328125 L 11.12109375 1.261962890625 L 10.931396484375 1.261962890625 L 10.931396484375 0.010986328125 Z M 11.61181640625 1.27294921875 Q 11.58251953125 1.27294921875 11.5484619140625 1.2681884765625 Q 11.514404296875 1.263427734375 11.4803466796875 1.248046875 Q 11.4462890625 1.232666015625 11.4151611328125 1.2044677734375 Q 11.384033203125 1.17626953125 11.3602294921875 1.130126953125 Q 11.33642578125 1.083984375 11.3221435546875 1.0162353515625 Q 11.307861328125 0.948486328125 11.307861328125 0.854736328125 L 11.307861328125 0.41162109375 Q 11.307861328125 0.317138671875 11.322509765625 0.2501220703125 Q 11.337158203125 0.18310546875 11.361328125 0.1373291015625 Q 11.385498046875 0.091552734375 11.4169921875 0.064453125 Q 11.448486328125 0.037353515625 11.482177734375 0.0230712890625 Q 11.515869140625 0.0087890625 11.5491943359375 0.00439453125 Q 11.58251953125 0 11.611083984375 0 Q 11.685791015625 0 11.7359619140625 0.0208740234375 Q 11.7861328125 0.041748046875 11.8165283203125 0.0780029296875 Q 11.846923828125 0.1142578125 11.8597412109375 0.16259765625 Q 11.87255859375 0.2109375 11.87255859375 0.26513671875 Q 11.87255859375 0.305419921875 11.8685302734375 0.3394775390625 Q 11.864501953125 0.37353515625 11.8564453125 0.41455078125 L 11.70263671875 0.41455078125 L 11.70263671875 0.350830078125 Q 11.70263671875 0.24755859375 11.679931640625 0.1962890625 Q 11.6572265625 0.14501953125 11.61328125 0.14501953125 Q 11.5869140625 0.14501953125 11.567138671875 0.1552734375 Q 11.54736328125 0.16552734375 11.5341796875 0.1900634765625 Q 11.52099609375 0.214599609375 11.5140380859375 0.2548828125 Q 11.507080078125 0.295166015625 11.507080078125 0.355224609375 L 11.507080078125 0.926513671875 Q 11.507080078125 0.985107421875 11.5125732421875 1.02392578125 Q 11.51806640625 1.062744140625 11.530517578125 1.086181640625 Q 11.54296875 1.109619140625 11.5631103515625 1.1195068359375 Q 11.583251953125 1.12939453125 11.61181640625 1.12939453125 Q 11.630126953125 1.12939453125 11.64697265625 1.1209716796875 Q 11.663818359375 1.112548828125 11.6766357421875 1.0946044921875 Q 11.689453125 1.07666015625 11.6971435546875 1.0491943359375 Q 11.704833984375 1.021728515625 11.704833984375 0.984375 L 11.704833984375 0.862060546875 L 11.87841796875 0.862060546875 L 11.87841796875 0.977783203125 Q 11.87841796875 1.128662109375 11.8095703125 1.200439453125 Q 11.74072265625 1.272216796875 11.61181640625 1.27294921875 Z M 12.6328125 1.27294921875 Q 12.603515625 1.27294921875 12.5694580078125 1.2681884765625 Q 12.535400390625 1.263427734375 12.5013427734375 1.248046875 Q 12.46728515625 1.232666015625 12.4361572265625 1.2044677734375 Q 12.405029296875 1.17626953125 12.3812255859375 1.130126953125 Q 12.357421875 1.083984375 12.3431396484375 1.0162353515625 Q 12.328857421875 0.948486328125 12.328857421875 0.854736328125 L 12.328857421875 0.41162109375 Q 12.328857421875 0.317138671875 12.343505859375 0.2501220703125 Q 12.358154296875 0.18310546875 12.38232421875 0.1373291015625 Q 12.406494140625 0.091552734375 12.43798828125 0.064453125 Q 12.469482421875 0.037353515625 12.503173828125 0.0230712890625 Q 12.536865234375 0.0087890625 12.5701904296875 0.00439453125 Q 12.603515625 0 12.632080078125 0 Q 12.706787109375 0 12.7569580078125 0.0208740234375 Q 12.80712890625 0.041748046875 12.8375244140625 0.0780029296875 Q 12.867919921875 0.1142578125 12.8807373046875 0.16259765625 Q 12.8935546875 0.2109375 12.8935546875 0.26513671875 Q 12.8935546875 0.305419921875 12.8895263671875 0.3394775390625 Q 12.885498046875 0.37353515625 12.87744140625 0.41455078125 L 12.7236328125 0.41455078125 L 12.7236328125 0.350830078125 Q 12.7236328125 0.24755859375 12.700927734375 0.1962890625 Q 12.67822265625 0.14501953125 12.63427734375 0.14501953125 Q 12.60791015625 0.14501953125 12.588134765625 0.1552734375 Q 12.568359375 0.16552734375 12.55517578125 0.1900634765625 Q 12.5419921875 0.214599609375 12.5350341796875 0.2548828125 Q 12.528076171875 0.295166015625 12.528076171875 0.355224609375 L 12.528076171875 0.926513671875 Q 12.528076171875 0.985107421875 12.5335693359375 1.02392578125 Q 12.5390625 1.062744140625 12.551513671875 1.086181640625 Q 12.56396484375 1.109619140625 12.5841064453125 1.1195068359375 Q 12.604248046875 1.12939453125 12.6328125 1.12939453125 Q 12.651123046875 1.12939453125 12.66796875 1.1209716796875 Q 12.684814453125 1.112548828125 12.6976318359375 1.0946044921875 Q 12.71044921875 1.07666015625 12.7181396484375 1.0491943359375 Q 12.725830078125 1.021728515625 12.725830078125 0.984375 L 12.725830078125 0.862060546875 L 12.8994140625 0.862060546875 L 12.8994140625 0.977783203125 Q 12.8994140625 1.128662109375 12.83056640625 1.200439453125 Q 12.76171875 1.272216796875 12.6328125 1.27294921875 Z M 13.3330078125 1.27294921875 Q 13.302978515625 1.27294921875 13.267822265625 1.2681884765625 Q 13.232666015625 1.263427734375 13.1982421875 1.248046875 Q 13.163818359375 1.232666015625 13.1319580078125 1.2044677734375 Q 13.10009765625 1.17626953125 13.0755615234375 1.130126953125 Q 13.051025390625 1.083984375 13.036376953125 1.0162353515625 Q 13.021728515625 0.948486328125 13.021728515625 0.854736328125 L 13.021728515625 0.41162109375 Q 13.021728515625 0.317138671875 13.0367431640625 0.2501220703125 Q 13.0517578125 0.18310546875 13.07666015625 0.1373291015625 Q 13.1015625 0.091552734375 13.1334228515625 0.064453125 Q 13.165283203125 0.037353515625 13.2000732421875 0.0230712890625 Q 13.23486328125 0.0087890625 13.269287109375 0.00439453125 Q 13.3037109375 0 13.3330078125 0 Q 13.36083984375 0 13.3948974609375 0.0040283203125 Q 13.428955078125 0.008056640625 13.4630126953125 0.0216064453125 Q 13.4970703125 0.03515625 13.529296875 0.0618896484375 Q 13.5615234375 0.088623046875 13.58642578125 0.1343994140625 Q 13.611328125 0.18017578125 13.6263427734375 0.2479248046875 Q 13.641357421875 0.315673828125 13.641357421875 0.41162109375 L 13.641357421875 0.854736328125 Q 13.641357421875 0.94775390625 13.6259765625 1.0147705078125 Q 13.610595703125 1.081787109375 13.585693359375 1.1282958984375 Q 13.560791015625 1.1748046875 13.5281982421875 1.2030029296875 Q 13.49560546875 1.231201171875 13.4615478515625 1.2469482421875 Q 13.427490234375 1.2626953125 13.393798828125 1.267822265625 Q 13.360107421875 1.27294921875 13.3330078125 1.27294921875 Z M 13.3330078125 1.130126953125 Q 13.36083984375 1.130126953125 13.3817138671875 1.12060546875 Q 13.402587890625 1.111083984375 13.4161376953125 1.087646484375 Q 13.4296875 1.064208984375 13.4366455078125 1.0257568359375 Q 13.443603515625 0.9873046875 13.443603515625 0.9287109375 L 13.443603515625 0.359619140625 Q 13.443603515625 0.299560546875 13.4366455078125 0.25927734375 Q 13.4296875 0.218994140625 13.4161376953125 0.1944580078125 Q 13.402587890625 0.169921875 13.3817138671875 0.15966796875 Q 13.36083984375 0.1494140625 13.3330078125 0.1494140625 Q 13.304443359375 0.1494140625 13.283203125 0.15966796875 Q 13.261962890625 0.169921875 13.248046875 0.1944580078125 Q 13.234130859375 0.218994140625 13.2271728515625 0.25927734375 Q 13.22021484375 0.299560546875 13.22021484375 0.359619140625 L 13.22021484375 0.9287109375 Q 13.22021484375 0.9873046875 13.2271728515625 1.0257568359375 Q 13.234130859375 1.064208984375 13.248046875 1.087646484375 Q 13.261962890625 1.111083984375 13.283203125 1.12060546875 Q 13.304443359375 1.130126953125 13.3330078125 1.130126953125 Z M 13.787841796875 1.130859375 Q 13.787841796875 1.05322265625 13.818603515625 1.01953125 Q 13.849365234375 0.98583984375 13.902099609375 0.98583984375 Q 13.95703125 0.98583984375 13.987060546875 1.021728515625 Q 14.01708984375 1.0576171875 14.01708984375 1.130859375 Q 14.01708984375 1.1982421875 13.9866943359375 1.2352294921875 Q 13.956298828125 1.272216796875 13.9013671875 1.272216796875 Q 13.849365234375 1.272216796875 13.818603515625 1.236328125 Q 13.787841796875 1.200439453125 13.787841796875 1.130859375 Z" fill="#595959" fill-rule="nonzero"></path></g><g><path d=" M 5.562411221590909 1.9024158824573862 L 5.563077059659092 2.020602139559659 Q 5.563077059659092 2.0365822531960225 5.563077059659092 2.0479015003551138 Q 5.5634099786931825 2.052895285866477 5.5634099786931825 2.056557395241477 Q 5.647305575284092 2.056557395241477 5.674937855113637 2.05389404296875 Q 5.703568892045455 2.0508977716619317 5.7082297585227275 2.0522294477982954 Q 5.712890625000001 2.053561123934659 5.716219815340909 2.056557395241477 Q 5.7228781960227275 2.0625499378551138 5.7228781960227275 2.0697076970880683 Q 5.7228781960227275 2.0768654563210225 5.716552734375001 2.0820257013494317 Q 5.710227272727273 2.087185946377841 5.6989080255681825 2.086520108309659 Q 5.644309303977273 2.082192160866477 5.600363991477273 2.08502197265625 Q 5.556418678977273 2.0878517844460225 5.551091974431818 2.08868408203125 Q 5.545765269886364 2.089516379616477 5.5416037819602275 2.08868408203125 Q 5.537442294034092 2.0878517844460225 5.5341131036931825 2.0851884321732954 Q 5.526455965909092 2.07952880859375 5.527121803977273 2.06854248046875 Q 5.532115589488637 1.9723288796164773 5.532115589488637 1.8556407581676135 Q 5.532115589488637 1.73895263671875 5.5322820490056825 1.7088234641335227 Q 5.5324485085227275 1.6786942915482954 5.5324485085227275 1.6537253639914773 Q 5.531782670454546 1.6001253995028408 5.530118075284092 1.5779862837357954 Q 5.528453480113637 1.55584716796875 5.530950372869318 1.5515192205255683 Q 5.533447265625001 1.5471912730823862 5.537109375000001 1.5451937588778408 Q 5.542103160511364 1.5428633256392046 5.549760298295455 1.5441950017755683 Q 5.563742897727273 1.5465254350142046 5.586714311079546 1.5465254350142046 Q 5.630992542613637 1.5465254350142046 5.647139115767046 1.5446943803267046 Q 5.663285688920455 1.5428633256392046 5.6679465553977275 1.5443614612926138 Q 5.672607421875001 1.5458595969460227 5.675603693181818 1.54852294921875 Q 5.682262073863637 1.5538496537642046 5.682262073863637 1.5615067915482954 Q 5.682262073863637 1.5691639293323862 5.676269531250001 1.57415771484375 Q 5.670276988636364 1.5791515003551138 5.659956498579546 1.5786521218039773 Q 5.6496360085227275 1.5781527432528408 5.637983842329546 1.5773204456676138 Q 5.626331676136364 1.5764881480823862 5.6130149147727275 1.5758223100142046 Q 5.585049715909092 1.5748235529119317 5.564408735795455 1.5764881480823862 Q 5.564408735795455 1.6054521040482954 5.564075816761364 1.6340831409801138 Q 5.563742897727273 1.6680408824573862 5.5634099786931825 1.7029973810369319 Q 5.562411221590909 1.7968805486505681 5.562411221590909 1.84149169921875 Q 5.604026100852273 1.84149169921875 5.623668323863637 1.8394941850142046 Q 5.644975142045455 1.8371637517755681 5.650468306107955 1.84149169921875 Q 5.655961470170455 1.8458196466619319 5.655961470170455 1.8531438654119319 Q 5.655961470170455 1.8714544122869319 5.621670809659092 1.87078857421875 Q 5.6146795099431825 1.8704556551846592 5.609019886363637 1.8704556551846592 L 5.582053444602273 1.8701227361505681 L 5.562411221590909 1.8701227361505681 L 5.562411221590909 1.9024158824573862 Z M 5.778142755681818 1.9323785955255681 Q 5.789794921875001 1.9323785955255681 5.792791193181818 1.9413674094460227 Q 5.795787464488637 1.9503562233664773 5.795787464488637 1.9709972034801135 Q 5.795787464488637 1.99163818359375 5.8014470880681825 2.009615811434659 Q 5.8071067116477275 2.0275934392755683 5.817094282670455 2.0399114435369317 Q 5.837402343750001 2.064547452059659 5.873357599431818 2.064547452059659 Q 5.909312855113637 2.064547452059659 5.930619673295455 2.0380803888494317 Q 5.951926491477273 2.0116133256392046 5.951926491477273 1.9620083895596592 Q 5.951926491477273 1.8957575017755681 5.895663174715909 1.8441550514914773 Q 5.879683061079546 1.8295066139914773 5.862870649857955 1.8151910955255681 Q 5.846058238636364 1.8008755770596592 5.830078125000001 1.7855613014914773 Q 5.814098011363637 1.7702470259232954 5.8014470880681825 1.7516035600142046 Q 5.773814808238637 1.7106545188210227 5.773814808238637 1.65838623046875 Q 5.773814808238637 1.6047862659801138 5.805442116477273 1.5718272816051138 Q 5.836736505681818 1.5392012162642046 5.8840110085227275 1.5392012162642046 Q 5.924627130681818 1.5392012162642046 5.950594815340909 1.5665005770596592 Q 5.979558771306818 1.5977949662642046 5.9772283380681825 1.6530595259232954 Q 5.976895419034092 1.6557228781960227 5.977061878551137 1.6587191495028408 Q 5.9772283380681825 1.6617154208096592 5.976396040482955 1.6700383966619319 Q 5.9755637428977275 1.6783613725142046 5.969404740767046 1.6848532936789773 Q 5.963245738636364 1.69134521484375 5.956087979403409 1.69134521484375 Q 5.948930220170455 1.69134521484375 5.943936434659092 1.6848532936789773 Q 5.9389426491477275 1.6783613725142046 5.9406072443181825 1.6677079634232954 Q 5.944935191761364 1.6434048739346592 5.944935191761364 1.63092041015625 Q 5.944935191761364 1.6184359463778408 5.940440784801137 1.60711669921875 Q 5.935946377840909 1.5957974520596592 5.927623401988637 1.5871415571732954 Q 5.9096457741477275 1.5688310102982954 5.881014737215909 1.5688310102982954 Q 5.849387428977273 1.5688310102982954 5.829412286931818 1.5904707475142046 Q 5.807439630681818 1.61444091796875 5.807439630681818 1.6493974165482954 Q 5.807439630681818 1.6843539151278408 5.815096768465909 1.7058271928267046 Q 5.822753906250001 1.7273004705255681 5.835238370028409 1.7446122602982954 Q 5.847722833806818 1.7619240500710227 5.8637029474431825 1.7762395685369319 Q 5.879683061079546 1.7905550870028408 5.896162553267046 1.8045376864346592 Q 5.912642045454546 1.8185202858664773 5.928622159090909 1.8333351828835227 Q 5.944602272727273 1.8481500799005681 5.9572531960227275 1.8661277077414773 Q 5.984885475852273 1.9067438299005681 5.984885475852273 1.9596779563210227 Q 5.984885475852273 2.0216008966619317 5.952925248579546 2.0585549094460225 Q 5.921297940340909 2.0951760031960225 5.868363813920455 2.0951760031960225 Q 5.819091796875001 2.0951760031960225 5.788130326704546 2.057223233309659 Q 5.758833451704546 2.0216008966619317 5.758833451704546 1.97698974609375 Q 5.758833451704546 1.9323785955255681 5.778142755681818 1.9323785955255681 Z M 6.131702769886364 1.5468583540482954 Q 6.14102450284091 1.5468583540482954 6.251553622159092 1.5441950017755683 Q 6.266867897727273 1.5441950017755683 6.272527521306819 1.55584716796875 Q 6.2738591974431825 1.5591763583096592 6.2738591974431825 1.5635043057528408 Q 6.2738591974431825 1.5678322531960227 6.268865411931819 1.57232666015625 Q 6.263871626420455 1.5768210671164773 6.250221946022728 1.5764881480823862 Q 6.236572265625001 1.5761552290482954 6.223754882812501 1.5754893909801138 Q 6.210937500000001 1.5748235529119317 6.199951171875001 1.5744906338778408 Q 6.180308948863637 1.5738247958096592 6.166326349431819 1.57415771484375 Q 6.163662997159092 1.6507290926846592 6.163662997159092 1.7402843128551138 Q 6.163662997159092 1.8361649946732954 6.163829456676137 1.8716208718039773 Q 6.1639959161931825 1.9070767489346592 6.164661754261364 1.9393698952414773 Q 6.165660511363637 2.0219338156960225 6.16665926846591 2.0618840997869317 Q 6.166992187500001 2.0732033469460225 6.161499023437501 2.0786965110085225 Q 6.156005859375001 2.0841896750710225 6.149513938210228 2.0841896750710225 Q 6.143022017045455 2.0841896750710225 6.136863014914773 2.0790294300426138 Q 6.130704012784092 2.0738691850142046 6.130704012784092 2.0635486949573862 L 6.130371093750001 2.019936301491477 L 6.13370028409091 1.7019986239346592 Q 6.13370028409091 1.6131092418323862 6.131369850852273 1.57415771484375 Q 6.113725142045455 1.5738247958096592 6.089422052556819 1.5754893909801138 Q 6.060791015625001 1.5774869051846592 6.047973632812501 1.5783192027698862 Q 6.035156250000001 1.5791515003551138 6.029829545454546 1.57415771484375 Q 6.024502840909092 1.5691639293323862 6.024502840909092 1.5626720081676138 Q 6.024502840909092 1.5561800870028408 6.029829545454546 1.5498546253551138 Q 6.035156250000001 1.5435291637073862 6.046974875710228 1.5440285422585227 Q 6.058793501420455 1.5445279208096592 6.067449396306819 1.54486083984375 Q 6.0761052911931825 1.5451937588778408 6.082597212357955 1.5455266779119317 Q 6.089089133522728 1.5458595969460227 6.094082919034092 1.5461925159801138 Q 6.099076704545455 1.5465254350142046 6.104236949573864 1.54669189453125 Q 6.109397194602273 1.5468583540482954 6.116055575284092 1.5468583540482954 L 6.131702769886364 1.5468583540482954 Z M 7.613525390625001 1.6886818625710227 Q 7.613525390625001 1.5764881480823862 7.545942826704546 1.5764881480823862 Q 7.508988813920455 1.5764881480823862 7.491177645596592 1.6087812943892046 Q 7.473366477272728 1.6410744406960227 7.476029829545455 1.7036632191051138 Q 7.476029829545455 1.7179787375710227 7.4640447443181825 1.7223066850142046 Q 7.460715553977273 1.7233054421164773 7.455555308948864 1.7233054421164773 Q 7.450395063920455 1.7233054421164773 7.444901899857955 1.7178122780539773 Q 7.439408735795455 1.7123191139914773 7.439075816761364 1.7013327858664773 Q 7.436745383522728 1.6247614080255681 7.471036044034092 1.5831465287642046 Q 7.500998757102273 1.5461925159801138 7.550603693181819 1.5461925159801138 Q 7.625843394886364 1.5461925159801138 7.642156427556819 1.62542724609375 Q 7.647483132102273 1.65106201171875 7.647483132102273 1.6795265891335227 Q 7.647483132102273 1.7079911665482954 7.639992453835228 1.7307961203835227 Q 7.6325017755681825 1.75360107421875 7.620183771306819 1.7759066495028408 Q 7.607865767045455 1.7982122247869319 7.5922185724431825 1.8201848810369319 Q 7.57657137784091 1.8421575372869319 7.56009188565341 1.8639637340198862 Q 7.54361239346591 1.8857699307528408 7.527965198863638 1.9077425870028408 Q 7.512318004261364 1.9297152432528408 7.500000000000001 1.9520208185369319 Q 7.472700639204546 2.0012928355823862 7.472700639204546 2.0435735529119317 Q 7.472700639204546 2.0522294477982954 7.475696910511364 2.05389404296875 Q 7.4786931818181825 2.0555586381392046 7.491344105113638 2.0550592595880683 Q 7.503995028409092 2.0545598810369317 7.521972656250001 2.0532282049005683 Q 7.53995028409091 2.0518965287642046 7.55826083096591 2.050564852627841 Q 7.601540305397728 2.0479015003551138 7.618186257102273 2.049233176491477 Q 7.644486860795455 2.0508977716619317 7.644486860795455 2.0678766424005683 Q 7.644486860795455 2.0742021040482954 7.6398259943181825 2.0793623490767046 Q 7.63516512784091 2.0845225941051138 7.626176313920455 2.0845225941051138 L 7.546941583806819 2.083523837002841 Q 7.491677024147728 2.083523837002841 7.469704367897728 2.0856878107244317 Q 7.447731711647728 2.0878517844460225 7.440906871448864 2.08319091796875 Q 7.434082031250001 2.078530051491477 7.434082031250001 2.0665449662642046 Q 7.434082031250001 2.0012928355823862 7.480690696022728 1.9273848100142046 Q 7.5006658380681825 1.8957575017755681 7.523803710937501 1.8659612482244319 Q 7.546941583806819 1.8361649946732954 7.566916725852273 1.8068681196732954 Q 7.613525390625001 1.73895263671875 7.613525390625001 1.6886818625710227 Z M 7.85489169034091 2.0928455699573862 Q 7.761674360795456 2.0928455699573862 7.741699218750001 1.9227239435369319 Q 7.735373757102274 1.8687910600142046 7.735373757102274 1.8042047674005681 Q 7.735373757102274 1.7396184747869319 7.743030894886365 1.6915116743607954 Q 7.750688032670456 1.6434048739346592 7.766335227272728 1.6104458895596592 Q 7.798628373579547 1.5421974875710227 7.860884232954547 1.5421974875710227 Q 7.924804687500001 1.5421974875710227 7.954101562500001 1.6077825372869319 Q 7.981733842329547 1.6703713156960227 7.982399680397728 1.8008755770596592 Q 7.983398437500001 2.0116133256392046 7.912153764204547 2.072537508877841 Q 7.88785067471591 2.0928455699573862 7.85489169034091 2.0928455699573862 Z M 7.854558771306819 2.0628828568892046 Q 7.950772372159092 2.0628828568892046 7.950772372159092 1.8032060102982954 Q 7.950772372159092 1.6570545543323862 7.919145063920456 1.6057850230823862 Q 7.897838245738638 1.5714943625710227 7.860884232954547 1.5714943625710227 Q 7.767333984375001 1.5714943625710227 7.767333984375001 1.8065352006392046 Q 7.767333984375001 2.0079512162642046 7.817604758522728 2.049233176491477 Q 7.833917791193183 2.0628828568892046 7.854558771306819 2.0628828568892046 Z M 8.248069069602273 1.6886818625710227 Q 8.248069069602273 1.5764881480823862 8.18048650568182 1.5764881480823862 Q 8.143532492897728 1.5764881480823862 8.125721324573865 1.6087812943892046 Q 8.107910156250002 1.6410744406960227 8.110573508522728 1.7036632191051138 Q 8.110573508522728 1.7179787375710227 8.098588423295457 1.7223066850142046 Q 8.095259232954547 1.7233054421164773 8.090098987926138 1.7233054421164773 Q 8.084938742897728 1.7233054421164773 8.079445578835228 1.7178122780539773 Q 8.073952414772728 1.7123191139914773 8.073619495738638 1.7013327858664773 Q 8.071289062500002 1.6247614080255681 8.105579723011365 1.5831465287642046 Q 8.135542436079547 1.5461925159801138 8.185147372159092 1.5461925159801138 Q 8.260387073863638 1.5461925159801138 8.276700106534092 1.62542724609375 Q 8.282026811079547 1.65106201171875 8.282026811079547 1.6795265891335227 Q 8.282026811079547 1.7079911665482954 8.274536132812502 1.7307961203835227 Q 8.267045454545457 1.75360107421875 8.254727450284092 1.7759066495028408 Q 8.242409446022728 1.7982122247869319 8.226762251420457 1.8201848810369319 Q 8.211115056818183 1.8421575372869319 8.194635564630683 1.8639637340198862 Q 8.178156072443183 1.8857699307528408 8.16250887784091 1.9077425870028408 Q 8.146861683238638 1.9297152432528408 8.134543678977273 1.9520208185369319 Q 8.10724431818182 2.0012928355823862 8.10724431818182 2.0435735529119317 Q 8.10724431818182 2.0522294477982954 8.110240589488638 2.05389404296875 Q 8.113236860795457 2.0555586381392046 8.12588778409091 2.0550592595880683 Q 8.138538707386365 2.0545598810369317 8.156516335227273 2.0532282049005683 Q 8.174493963068183 2.0518965287642046 8.192804509943183 2.050564852627841 Q 8.236083984375002 2.0479015003551138 8.252729936079547 2.049233176491477 Q 8.279030539772728 2.0508977716619317 8.279030539772728 2.0678766424005683 Q 8.279030539772728 2.0742021040482954 8.274369673295457 2.0793623490767046 Q 8.269708806818183 2.0845225941051138 8.260719992897728 2.0845225941051138 L 8.181485262784092 2.083523837002841 Q 8.126220703125002 2.083523837002841 8.104248046875002 2.0856878107244317 Q 8.082275390625002 2.0878517844460225 8.075450550426138 2.08319091796875 Q 8.068625710227273 2.078530051491477 8.068625710227273 2.0665449662642046 Q 8.068625710227273 2.0012928355823862 8.115234375000002 1.9273848100142046 Q 8.135209517045457 1.8957575017755681 8.158347389914773 1.8659612482244319 Q 8.181485262784092 1.8361649946732954 8.201460404829547 1.8068681196732954 Q 8.248069069602273 1.73895263671875 8.248069069602273 1.6886818625710227 Z M 8.539373224431818 1.6886818625710227 Q 8.539373224431818 1.5764881480823862 8.471790660511365 1.5764881480823862 Q 8.434836647727273 1.5764881480823862 8.41702547940341 1.6087812943892046 Q 8.399214311079547 1.6410744406960227 8.401877663352273 1.7036632191051138 Q 8.401877663352273 1.7179787375710227 8.389892578125002 1.7223066850142046 Q 8.386563387784092 1.7233054421164773 8.381403142755683 1.7233054421164773 Q 8.376242897727273 1.7233054421164773 8.370749733664773 1.7178122780539773 Q 8.365256569602273 1.7123191139914773 8.364923650568183 1.7013327858664773 Q 8.362593217329547 1.6247614080255681 8.39688387784091 1.5831465287642046 Q 8.426846590909092 1.5461925159801138 8.476451526988637 1.5461925159801138 Q 8.551691228693183 1.5461925159801138 8.568004261363637 1.62542724609375 Q 8.573330965909092 1.65106201171875 8.573330965909092 1.6795265891335227 Q 8.573330965909092 1.7079911665482954 8.565840287642047 1.7307961203835227 Q 8.558349609375002 1.75360107421875 8.546031605113637 1.7759066495028408 Q 8.533713600852273 1.7982122247869319 8.518066406250002 1.8201848810369319 Q 8.502419211647728 1.8421575372869319 8.485939719460228 1.8639637340198862 Q 8.469460227272728 1.8857699307528408 8.453813032670455 1.9077425870028408 Q 8.438165838068183 1.9297152432528408 8.425847833806818 1.9520208185369319 Q 8.398548473011365 2.0012928355823862 8.398548473011365 2.0435735529119317 Q 8.398548473011365 2.0522294477982954 8.401544744318183 2.05389404296875 Q 8.404541015625002 2.0555586381392046 8.417191938920455 2.0550592595880683 Q 8.42984286221591 2.0545598810369317 8.447820490056818 2.0532282049005683 Q 8.465798117897728 2.0518965287642046 8.484108664772728 2.050564852627841 Q 8.527388139204547 2.0479015003551138 8.544034090909092 2.049233176491477 Q 8.570334694602273 2.0508977716619317 8.570334694602273 2.0678766424005683 Q 8.570334694602273 2.0742021040482954 8.565673828125002 2.0793623490767046 Q 8.561012961647728 2.0845225941051138 8.552024147727273 2.0845225941051138 L 8.472789417613637 2.083523837002841 Q 8.417524857954547 2.083523837002841 8.395552201704547 2.0856878107244317 Q 8.373579545454547 2.0878517844460225 8.366754705255683 2.08319091796875 Q 8.359929865056818 2.078530051491477 8.359929865056818 2.0665449662642046 Q 8.359929865056818 2.0012928355823862 8.406538529829547 1.9273848100142046 Q 8.426513671875002 1.8957575017755681 8.449651544744318 1.8659612482244319 Q 8.472789417613637 1.8361649946732954 8.492764559659092 1.8068681196732954 Q 8.539373224431818 1.73895263671875 8.539373224431818 1.6886818625710227 Z" fill="#595959" fill-rule="nonzero"></path></g><g clip-path="url(&quot;#SvgjsClipPath1022&quot;)"><path d=" M 7.793699710712074 -12.404551378791545 C 7.657014613887085 -12.421637015894666 7.518877237908325 -12.433895960516164 7.3792875827758015 -12.441328212656014 C 7.268230941605492 -12.447564470198657 7.156490874951063 -12.450682598969978 7.044067382812509 -12.450682598969978 C 7.0156197970358045 -12.450682598969978 6.9871722112591 -12.450682598969978 6.959109052317219 -12.449657460743788 C 6.819818395833999 -12.448119753404507 6.681424735298694 -12.441840781769114 6.544696924380945 -12.43043611900278 C 3.379934290201032 -12.170128194393204 0.9439765792365785 -9.52579129650396 0.9437260833275196 -6.350341299484998 C 0.9419333380408786 -5.253590245575014 1.2373458436319815 -4.176846867753371 1.7985632216895144 -3.2345618032666117 C 1.872629458531621 -3.1097512242281855 1.951436959669783 -2.9875034907553264 2.034857582825788 -2.86884374107413 C 3.0545780070417785 -1.3993569569140458 4.668630949840521 -0.45232031907784886 6.448846500232411 -0.27896015488981263 L 6.448846500232411 -0.27896015488981263 C 6.496515427750133 -0.27383446375886145 6.544696924380937 -0.2696057685758486 6.59287842101175 -0.2661459270624551 L 6.5939035592379405 -0.2661459270624551 C 6.742548602035122 -0.2552538334092187 6.891834356223665 -0.2496155731651779 7.0435548136994095 -0.2496155731651779 C 7.240552209498432 -0.2496155731651779 7.434858617453707 -0.2589272453863902 7.62647403756525 -0.27755058982879 C 7.697977428841825 -0.2838295614641826 7.768327539613941 -0.29151809816058893 7.838805792664325 -0.30138505358764256 C 8.692330918658243 -0.4122243865033557 9.512401080891888 -0.7038272169374924 10.244292640413182 -1.1567347610628147 L 10.244292640413182 -1.1567347610628076 L 10.245317778639365 -1.1567347610628076 C 10.302853661584141 -1.191973887587995 10.359748833137541 -1.2282381523393813 10.416259577856128 -1.2665526935431402 L 10.416259577856128 -1.2665526935431402 C 11.094099361887213 -1.7165771245787038 11.675193563406204 -2.297497058830789 12.125421285467162 -2.975201832041069 C 12.210422330055206 -3.1021481157172897 12.290212255326793 -3.232340670443099 12.364791061281931 -3.365779496218499 C 12.876659742817367 -4.27659075477766 13.144670797722544 -5.304143020619618 13.142870974958207 -6.348931734423985 C 13.143559050673872 -9.428165786874345 10.849479261910957 -12.02521754467445 7.793699710713132 -12.404551378791425 Z M 7.793699710712074 -11.986935693898435 C 10.584261091351085 -11.611812482980897 12.681780959983577 -9.253641160558217 12.728971416135025 -6.438375044658833 L 10.441631748954268 -6.438375044658833 L 10.441631748954268 -8.015422063369966 C 10.441631748954276 -8.070376528329065 10.419801172750034 -8.123080201475753 10.38094249792098 -8.16193887630481 C 10.342083823091922 -8.200797551133865 10.289380149945227 -8.222628127338107 10.234425684986128 -8.222628127338107 L 7.793699710712074 -8.222628127338107 Z M 6.959109052317219 -12.035117190529238 C 6.9871722112591 -12.03614232875542 7.0156197970358045 -12.03614232875542 7.044067382812509 -12.03614232875542 C 7.156576303136582 -12.03614232875542 7.26831636979101 -12.03289605770583 7.3792875827758015 -12.026403515606642 L 7.3792875827758015 -8.22262812733809 L 6.959109052317219 -8.22262812733809 Z M 10.027219621017995 -7.808215999401825 L 10.027219621017995 -7.44557335188801 L 4.224680976240462 -7.44557335188801 L 4.224680976240462 -7.808215999401825 Z M 10.027219621017995 -7.03103308167346 L 10.027219621017995 -6.437862475545742 L 9.751457438173574 -6.437862475545742 L 9.751457438173574 -7.03103308167346 Z M 9.336532741124202 -7.03103308167346 L 9.336532741124202 -6.437862475545742 L 9.059489135497035 -6.437862475545742 L 9.059489135497035 -7.03103308167346 Z M 8.645461434395585 -7.03103308167346 L 8.645461434395585 -6.437862475545742 L 8.36931482471634 -6.437862475545742 L 8.36931482471634 -7.03103308167346 Z M 7.95490269678006 -7.03103308167346 L 7.95490269678006 -6.437862475545742 L 7.678756087100816 -6.437862475545742 L 7.678756087100816 -7.03103308167346 Z M 7.264343959164535 -7.03103308167346 L 7.264343959164535 -6.437862475545742 L 6.9876847803721995 -6.437862475545742 L 6.9876847803721995 -7.03103308167346 Z M 6.573144510157642 -7.03103308167346 L 6.573144510157642 -6.437862475545742 L 6.296997900478406 -6.437862475545742 L 6.296997900478406 -7.03103308167346 Z M 5.882585772542116 -6.437862475545742 L 5.6064391628628805 -6.437862475545742 L 5.6064391628628805 -7.03103308167346 L 5.882585772542116 -7.03103308167346 Z M 5.192027034926591 -7.03103308167346 L 5.192027034926591 -6.437862475545742 L 4.915367856134256 -6.437862475545742 L 4.915367856134256 -7.03103308167346 Z M 4.500827585919706 -7.03103308167346 L 4.500827585919706 -6.437862475545742 L 4.224680976240462 -6.437862475545742 L 4.224680976240462 -7.03103308167346 Z M 6.544696924380937 -12.013973714614126 L 6.544696924380937 -8.222628127338107 L 4.017474912272322 -8.222628127338107 C 3.9625204473132136 -8.222628127338107 3.9098167741665297 -8.200797551133865 3.8709580993374693 -8.1619388763048 C 3.8320994245084132 -8.123080201475744 3.810268848304172 -8.070376528329065 3.810268848304172 -8.015422063369966 L 3.810268848304172 -6.43786247554575 L 1.359291491768251 -6.43786247554575 C 1.407267778056855 -9.349202256682972 3.6445010439938414 -11.755004796277914 6.5446969243809106 -12.013973714614126 Z M 1.3677488821343013 -6.02345034760947 L 3.633304362008575 -6.02345034760947 L 2.055488489627801 -3.6252676097221954 C 1.649913296313227 -4.363240955018314 1.4148241559373098 -5.182703287321423 1.3674925975777517 -6.023450347609461 Z M 2.292551704433655 -3.2314863885879372 L 4.12972754803984 -6.02345034760947 L 4.391265937995918 -6.02345034760947 L 2.8518927490971846 -2.512992634308807 C 2.6463173344127346 -2.7370312234361975 2.4591762502369594 -2.977310604927734 2.2922954198771004 -3.2314863885879372 Z M 3.1660976154236415 -2.1963530646951543 L 4.844761460805595 -6.02345034760947 L 5.125521192502681 -6.02345034760947 L 3.87856868262392 -1.6300923370048608 C 3.6261265150328934 -1.7993378040337262 3.387774901638795 -1.988707775193122 3.1658413308670834 -2.196353064695172 Z M 10.347575316701569 -1.725430192040296 L 9.705198075716865 -3.987397688122904 C 9.709762198397701 -3.7206000089083098 9.67522436686259 -3.454572361509147 9.602684253098122 -3.1977849694020204 L 9.602684253098122 -3.1977849694020204 C 9.586153899200845 -3.1398646596224307 9.568085837964293 -3.0824569189559394 9.547839357997084 -3.026330601072168 L 9.984548242352947 -1.48606041622552 C 9.746642605672832 -1.3411038212760733 9.498204699096561 -1.2141863183130521 9.241323028367034 -1.1063748457013354 L 9.241323028367042 -1.1063748457013354 L 9.058463997270845 -2.187639389772558 C 8.974660595590265 -2.092133536464736 8.8839475416968 -2.0029195179283406 8.78705865188773 -1.9207190241289922 C 8.75694521649346 -1.8950905684743145 8.726959923377482 -1.8709998201589073 8.695821349757038 -1.8466527872869563 L 8.84664481128487 -0.9577298029041614 C 8.54165611930739 -0.8553925526834334 8.228433576281525 -0.7794663107317739 7.910437326219177 -0.7307898280819121 L 7.880580175381469 -1.4114816102703838 C 7.779760488234261 -1.3777684386290918 7.677075178375432 -1.3499150483298799 7.573038707525235 -1.3280609871143838 C 7.538824719226229 -1.3208850195310688 7.504610730927222 -1.3146060478956674 7.470524884906485 -1.3089677876516426 L 7.496922194230818 -0.6826083314511084 C 7.347679154135026 -0.6706483854789234 7.196727550328918 -0.6645829843073088 7.044067382812509 -0.6644121279362807 C 6.9471918204377925 -0.6644121279362807 6.850316258063075 -0.6669749735017518 6.754465833914549 -0.671716237797872 L 6.780094289569236 -1.2739849456830008 L 6.780094289569236 -1.2796232059270256 C 6.774968598438294 -1.2796232059270256 6.769202195916001 -1.2796232059270256 6.7640765047850575 -1.2806483441532155 L 6.761001090106496 -1.2806483441532155 L 6.6816810198552385 -1.2833393319969542 L 6.678605605176677 -1.2900027304671777 C 6.608639921239383 -1.2993571167811329 6.539699375528271 -1.3117869177736594 6.471399541208536 -1.328445413949206 C 6.43667298379643 -1.3367746620369783 6.402458995497424 -1.3456164792378509 6.368885718589786 -1.355355292386628 L 6.367860580363604 -1.328445413949206 L 6.342232124708916 -0.7083649293840732 C 6.022649191234876 -0.7477370491480251 5.707031592178037 -0.8144445992882776 5.398848672059909 -0.907754314377522 L 5.538651897656227 -1.7341438669628921 L 5.551466125483575 -1.811798087596591 C 5.480561608256109 -1.8767180249096072 5.414278853103241 -1.946511882079614 5.3531018787162985 -2.02067000118228 C 5.329779984070528 -2.0491175869589853 5.306970658537858 -2.0785903109618715 5.285186471231386 -2.1087037463561327 C 5.256226316341591 -2.148555994899164 5.228291299677977 -2.1900740930597618 5.202919128579844 -2.231976618055173 L 5.181647510386454 -2.1087037463561327 L 5.001351324855737 -1.0451228366866463 C 4.740399014716472 -1.1455723560149256 4.487372935206709 -1.2655102301688643 4.24441488709458 -1.4039212158522556 L 4.788891427478394 -3.3218266947707065 L 4.788891427478394 -3.32746495501474 L 5.061450053365967 -4.283662635491087 L 5.061450053365967 -4.283662635491087 L 5.5551822515534965 -6.022937778496369 L 5.844271231338357 -6.022937778496369 L 5.554669682440406 -4.314288639998432 L 5.554669682440406 -4.312238363546051 C 5.693098736835225 -4.305727160373479 5.830498818321388 -4.2850742106250905 5.964724972915381 -4.250601927696531 L 5.968825525820133 -4.273411253229202 L 6.264706046353486 -6.022937778496369 L 6.564687119791591 -6.022937778496369 L 6.483316773087962 -4.096703051490145 C 6.517530761386968 -4.080172697592868 6.5516166074077065 -4.06197649407804 6.584805457480522 -4.043395863728399 C 6.604026799221531 -4.032503770075163 6.623248140962549 -4.021611676421909 6.64234134042529 -4.009694444542491 C 6.667969796079977 -3.995214367097594 6.692573113508475 -3.979068440035139 6.716920146380427 -3.9625380861378687 C 6.731400223825324 -3.987397688122911 6.7465210126615895 -4.011744720994864 6.762026228332678 -4.036091753866815 C 6.805733080923975 -4.105059983973497 6.853129180053283 -4.171619848815736 6.904007872659636 -4.235481138860283 L 6.909646132903661 -4.365545551307807 L 6.909646132903661 -4.365545551307807 L 6.979099247727864 -6.022425209383279 L 7.272288780417477 -6.022425209383279 L 7.3262366795705915 -4.740105430701049 L 7.329312094249153 -4.663220063736985 C 7.361988375208878 -4.689617373061318 7.395561652116517 -4.714476975046352 7.4297756404155235 -4.740105430701049 C 7.526435183055407 -4.810804234642607 7.627676071756108 -4.875016214791043 7.73283212853219 -4.9323188481112 L 7.73078185207981 -4.985241609038125 L 7.687341619745117 -6.022425209383279 L 7.987322693183223 -6.022425209383279 L 8.135455166867306 -5.1473415910540155 L 8.140580857998248 -5.11517787920739 L 8.140580857998248 -5.11517787920739 C 8.173257138957974 -5.126582541973725 8.205933419917699 -5.13696206651387 8.238481558599155 -5.1473415910540155 C 8.338065016284702 -5.178623581532285 8.439491933414153 -5.203702135725484 8.542178758107191 -5.222432966122243 L 8.53897520115035 -5.239604031410889 L 8.406860512250447 -6.022425209383279 L 8.695949492035307 -6.022425209383279 L 8.909947096751939 -5.267539048074494 C 8.927630731153668 -5.267539048074494 8.945698792390218 -5.267539048074494 8.963382426791956 -5.266513909848303 L 8.969020687035979 -5.266513909848303 C 8.983500764480876 -5.267539048074494 8.998493411038876 -5.267539048074494 9.01310163076204 -5.267539048074494 L 9.01310163076204 -5.267539048074494 C 9.046162338556588 -5.267539048074494 9.079308474536646 -5.2670264789613945 9.112540038702228 -5.266001340735213 L 9.343196139594408 -5.256646954421249 L 9.12535426652957 -6.022425209383279 L 9.406626567339753 -6.022425209383279 L 11.036083777864715 -2.306299139453765 C 10.822467327848582 -2.0944935517040992 10.592133981500215 -1.9002421918906727 10.347319032145013 -1.725430192040296 Z M 11.34708508723434 -2.6352403677816643 L 9.861787939766987 -6.022937778496378 L 10.123070045166521 -6.022937778496378 L 11.877209692451526 -3.3569376790176264 C 11.719243625494265 -3.103087540489902 11.541696790449205 -2.8619597442462705 11.346188091286425 -2.6357529368947468 Z M 12.107096939674058 -3.7614828515268535 L 10.619749515754336 -6.022937778496378 L 12.721282879438611 -6.022937778496378 C 12.676722374438047 -5.234553108112485 12.467177160237444 -4.464299824913456 12.106199943726146 -3.761995420639943 Z" fill="#595959" transform="matrix(1,0,0,1,0,0)" fill-rule="nonzero"></path><path d=" M 5.632323903074105 -10.592363279448676 C 5.699251667205245 -10.592329262789411 5.763448015028036 -10.61890114945618 5.810773097007514 -10.66622623143565 C 5.8580981789869835 -10.713551313415127 5.884670065653752 -10.777747661237917 5.884636048994479 -10.844675425369067 C 5.884636046918037 -10.984023579517713 5.7716720497032625 -11.096987573365892 5.632323899314357 -11.096987571289441 C 5.493005049045612 -11.096916868990059 5.380082459453104 -10.983994279397551 5.380011757153722 -10.844675425369058 C 5.380011759230173 -10.705327271220414 5.492975756444938 -10.592363277372234 5.632323906833853 -10.592363279448683 Z" fill="#595959" transform="matrix(1,0,0,1,0,0)" fill-rule="nonzero"></path><path d=" M 2.802045402848817 -7.238367287919871 C 2.802045402848817 -7.099019124872659 2.6890814199756417 -6.986055141999484 2.5497332569284303 -6.986055141999484 C 2.410385093881218 -6.986055141999484 2.2974211110080436 -7.099019124872659 2.2974211110080436 -7.238367287919871 C 2.2974211110080436 -7.377715450967083 2.410385093881218 -7.490679433840257 2.5497332569284303 -7.490679433840257 C 2.6890814199756417 -7.490679433840257 2.802045402848817 -7.377715450967083 2.802045402848817 -7.238367287919871 Z" fill="#595959" transform="matrix(1,0,0,1,0,0)" fill-rule="nonzero"></path><path d=" M 3.5858917190474027 -9.704849860126878 C 3.518986154823298 -9.704849868764255 3.4548227395632978 -9.678262969428156 3.4075253795331397 -9.630941576186608 C 3.3602280195029777 -9.583620182945042 3.333673718675493 -9.519443269793209 3.3337077154052794 -9.452537714206485 C 3.333636733628827 -9.313127157611945 3.446481431141164 -9.199995761172943 3.5858917190473463 -9.199712999173013 C 3.7253520731643204 -9.199925142187567 3.838274746663106 -9.31307721674983 3.8382038649677983 -9.452537714206485 C 3.8382378816270495 -9.519465478337661 3.8116659949602765 -9.58366182616046 3.7643409129807988 -9.63098690813992 C 3.717015831001325 -9.678311990119381 3.6528194831785217 -9.704883876786141 3.585891719047381 -9.704849860126878 Z" fill="#595959" transform="matrix(1,0,0,1,0,0)" fill-rule="nonzero"></path><path d=" M 8.619576694184342 -11.09698757128945 C 8.480228543795437 -11.096987571289441 8.36726454826397 -10.984023575757965 8.36726454826397 -10.844675425369058 C 8.367230531604704 -10.7777476612379 8.393802418271473 -10.713551313415092 8.44112750025096 -10.66622623143564 C 8.48845258223043 -10.618901149456171 8.552648930053229 -10.592329262789411 8.61957669418437 -10.592363279448683 C 8.68658280061657 -10.592227157062155 8.75089114094914 -10.618749862712495 8.79831976423619 -10.666082330655822 C 8.845748387523232 -10.713414798599157 8.872401547483467 -10.777669180671346 8.872401409217826 -10.844675425369067 C 8.872367478899662 -10.91167120551325 8.8457033949235 -10.97590577012733 8.79828217261625 -11.02323085209541 C 8.75086095030899 -11.070555934063469 8.686572405224243 -11.097089603925285 8.61957669418437 -11.09698757128945 Z" fill="#595959" transform="matrix(1,0,0,1,0,0)" fill-rule="nonzero"></path><path d=" M 11.702167340330018 -6.986055141999486 C 11.769140865350753 -6.985953117305896 11.833409991331195 -7.01246920579831 11.880827524906543 -7.059766573297705 C 11.928245058481895 -7.107063940797082 11.95492413956823 -7.171265577346448 11.954992055363501 -7.238239145641609 C 11.95495812504532 -7.305234925785783 11.928294041069158 -7.369469490399872 11.880872818761908 -7.416794572367942 C 11.833451596454655 -7.464119654336011 11.769163051369908 -7.490653324197819 11.702167340330028 -7.490551291561983 C 11.63523957619887 -7.490585308221248 11.57104322837607 -7.464013421554479 11.5237181463966 -7.41668833957501 C 11.476393064417124 -7.3693632575955315 11.449821177750362 -7.305166909772741 11.449855194409626 -7.238239145641592 C 11.449855185775611 -7.171333581404826 11.476442085114929 -7.107170166146165 11.523763478358859 -7.059872806118379 C 11.571084871602803 -7.012575446090591 11.635261784755969 -6.986021145266336 11.702167340342694 -6.986055141999495 Z" fill="#595959" transform="matrix(1,0,0,1,0,0)" fill-rule="nonzero"></path><path d=" M 10.666008878211056 -9.199456714616476 C 10.805610816307563 -9.199527417055032 10.918762890805983 -9.312679491553448 10.918833593244546 -9.45228142964995 C 10.918799662926364 -9.51927720979414 10.892135578950203 -9.583511774408223 10.844714356642953 -9.6308368563763 C 10.7972931343357 -9.678161938344369 10.733004589250957 -9.704695608206176 10.666008878211073 -9.70459357557034 C 10.599081114079915 -9.704627592229606 10.534884766257115 -9.678055705562837 10.487559684277645 -9.630730623583368 C 10.440234602298169 -9.58340554160389 10.413662715631407 -9.519209193781098 10.41369673229067 -9.45228142964995 C 10.41362585059537 -9.312820932193267 10.526548524094164 -9.199668857631012 10.66600887821108 -9.199456714616467 Z" fill="#595959" transform="matrix(1,0,0,1,0,0)" fill-rule="nonzero"></path><path d=" M 9.030400838328973 -4.84736051761591 C 9.02527514719803 -4.84736051761591 9.01950874467573 -4.84736051761591 9.013870484431695 -4.84736051761591 C 8.913479650537967 -4.84741604146163 8.813218964844271 -4.840135256938811 8.71388941099359 -4.8255763303094215 C 8.680187991807681 -4.820963208291578 8.646486572621757 -4.815837517160644 8.612785153435851 -4.809558545525243 C 8.509995204224335 -4.790193662837408 8.408718926744392 -4.763514964795123 8.309728665319184 -4.729725906160895 C 8.277180526637729 -4.718961954785927 8.244504245678012 -4.707557292019592 8.212340533831377 -4.694614921913975 C 8.08804419966279 -4.646945304019439 7.9682298126728135 -4.588324592847173 7.854311008335422 -4.519444427514192 C 7.820139734129166 -4.4991979475469925 7.786481029036009 -4.477840901168085 7.753334893055944 -4.455373288377477 C 7.646333012489552 -4.383964845111235 7.545631029531879 -4.303540443225929 7.4523286813916485 -4.214978374336521 L 7.4523286813916485 -4.214978374336521 C 7.418114693092651 -4.182302093376796 7.3850539852981125 -4.1491132433039795 7.352890273451469 -4.1143866858918745 C 7.265278280798524 -4.020351419579303 7.186362071922405 -3.918575243675493 7.117108481428356 -3.8103050595490338 C 7.092248879443313 -3.7718623760669896 7.068926984797551 -3.731625700689145 7.04727093976934 -3.6911327407547283 C 7.022923906897388 -3.6471799393069446 7.000114581364716 -3.6020738573546947 6.979355532284426 -3.5564552062893604 C 6.968463438631182 -3.534158449869782 6.958596483204127 -3.5113491243371104 6.949242096890164 -3.4880272296913493 C 6.917633394693716 -3.412756408017838 6.890337598994145 -3.3357463261068236 6.867487323351713 -3.2573711287991696 C 6.865949616012441 -3.251732868555136 6.863771197281792 -3.2459664660328347 6.86223348994251 -3.2398156366757096 C 6.761314829023724 -2.8856909206591865 6.745682160001542 -2.51270246370861 6.816614838877169 -2.151375125021172 C 6.838274947244014 -2.0413216817129314 6.868261022503839 -1.933071950024999 6.9063144336685705 -1.8275595878242061 C 6.922332218452749 -1.7824535058719722 6.940528421967577 -1.7378599930328136 6.959621621430318 -1.693907191585021 C 6.968463438631182 -1.693907191585021 6.977817824945145 -1.693907191585021 6.98665964214601 -1.693907191585021 L 6.991785333276952 -1.693907191585021 C 7.006265410721849 -1.693907191585021 7.020745488166748 -1.693907191585021 7.0353537078899135 -1.693907191585021 C 7.132898487413595 -1.6939587690383 7.230331486117577 -1.7005085268597941 7.327005533240245 -1.7135129601608607 C 7.3689080582356565 -1.7192793626831708 7.410426156396254 -1.7263271879882094 7.451816112278567 -1.7337594401280683 C 7.486542669690672 -1.7404228385982847 7.520756657989678 -1.7482395175729657 7.554970646288685 -1.7565687656607398 C 7.555995784514867 -1.7565687656607398 7.556508353627966 -1.7565687656607398 7.5570209227410565 -1.7565687656607398 L 7.5570209227410565 -1.7565687656607398 C 7.660638630683378 -1.7814658398517906 7.762412364807134 -1.8134922399883386 7.8616151181970135 -1.8524191898092663 C 7.8963416756091105 -1.865874129027974 7.930043094795018 -1.8803542064728713 7.964128940815755 -1.8953468530308601 C 8.203782297606974 -2.00214321168367 8.423184541161337 -2.1495385146050037 8.612657011157602 -2.331030599160531 C 8.642770446551847 -2.359606327215504 8.672243170554731 -2.3895916203314798 8.700818898609713 -2.4207301939519237 L 8.700818898609713 -2.4207301939519237 C 8.760936966360173 -2.4849221725588855 8.816838357370195 -2.5529369584049224 8.868172714034806 -2.624348274128403 C 8.900208283603163 -2.6692834997096266 8.930748859925007 -2.7153720057953006 8.959794443000312 -2.762613792385441 C 8.987729459663914 -2.809257581676963 9.014767480379607 -2.8574390783077863 9.039114513251569 -2.9061331440516884 C 9.201982289439151 -3.23049955272419 9.286097025521439 -3.58868960058191 9.28463511842346 -3.9516459924846163 L 9.28463511842346 -3.9516459924846163 C 9.28452886758091 -4.259667707750998 9.22051838634551 -4.564317455525453 9.096650396196154 -4.846335379390154 C 9.074994351168122 -4.84736051761591 9.052697594748544 -4.84787308672901 9.030400838328973 -4.84736051761591 Z" fill="#aabda0" transform="matrix(1,0,0,1,0,0)" fill-rule="nonzero"></path><path d=" M 5.793526889142082 -3.859383552127751 C 5.776868392966544 -3.863099678197681 5.760338039069266 -3.8661750928762437 5.7436795428937195 -3.868737938441715 C 5.727021046718173 -3.871300784007177 5.7121565424384615 -3.8743761986857397 5.696010615375997 -3.8765546174163887 C 5.692695603459143 -3.8776030446675733 5.689235959103456 -3.878121991320926 5.685759233114129 -3.878092324755679 C 5.678967692365637 -3.879117462981851 5.672176151617145 -3.8801426012080498 5.6655127531469205 -3.8806551703211323 C 5.663295644998703 -3.881255890950916 5.661016852134212 -3.8815998596851724 5.6587212123984285 -3.881680308547322 C 5.658230971186793 -3.881894267353136 5.657673746270783 -3.881894267353136 5.657183505059147 -3.881680308547322 C 5.654620659493685 -3.881680308547322 5.652570383041304 -3.881680308547322 5.650007537475842 -3.881680308547322 C 5.649122021999507 -3.8818832660452944 5.648202065108419 -3.8818832660452944 5.647316549632094 -3.881680308547322 L 5.631298764847915 -3.8832180158866034 L 5.631298764847915 -3.8832180158866034 C 5.625147935490791 -3.8832180158866034 5.618484537020575 -3.8847557232258847 5.612589992219997 -3.885268292338976 C 5.601826040845029 -3.8864215728434424 5.590933947191784 -3.887446711069625 5.580554422651639 -3.8879592801827236 C 5.57864098592041 -3.8882178737028497 5.576701456860566 -3.8882178737028497 5.574788020129337 -3.8879592801827236 C 5.572574155544831 -3.8882133960933434 5.57033848624361 -3.8882133960933434 5.568124621659114 -3.8879592801827236 C 5.565525276717129 -3.888213782158516 5.562907287626423 -3.888213782158516 5.560307942684431 -3.8879592801827236 C 5.556040511108295 -3.8882199745104877 5.551761146433227 -3.8882199745104877 5.547493714857091 -3.8879592801827236 C 5.5444183001785206 -3.8879592801827236 5.5408303163868675 -3.8879592801827236 5.537114190316937 -3.8889844184089064 L 5.533013637412185 -3.8889844184089064 C 5.528190581285089 -3.889249383048952 5.523356616094384 -3.889249383048952 5.518533559967287 -3.8889844184089064 L 5.516995852628007 -3.8889844184089064 C 5.506103758974771 -3.8889844184089064 5.495211665321526 -3.8900095566350963 5.48431957166829 -3.8900095566350963 L 5.464073091701082 -3.8900095566350963 C 5.4119763230148425 -3.8901069808994677 5.359913950242754 -3.887326328286333 5.308123939042316 -3.881680308547322 C 5.1804571530129 -3.5289357857478603 5.176796136760274 -3.143218345009114 5.297744414502171 -2.78811410576186 C 5.358760594118677 -2.6057609408118463 5.452369438218264 -2.435997220761129 5.574019166459692 -2.2870777977127386 C 5.589652524409057 -2.26785645597173 5.605670309193235 -2.24927582562208 5.6222006630905055 -2.231079622107252 C 5.827035118323917 -2.007356761461782 6.089690588012407 -1.844566244962298 6.381187377304043 -1.7606693185654834 L 6.368373149476695 -1.7991120020475186 C 6.3487673809008545 -1.8624142875145981 6.331083746499126 -1.9261009998164802 6.31711623816732 -1.991325419457663 C 6.308786990079547 -2.0265645459828505 6.301098453383141 -2.061803672508047 6.294819481747749 -2.097042799033243 C 6.291231497956087 -2.1135731529305133 6.288156083277524 -2.130744218219151 6.285465095433794 -2.1472745721164284 C 6.27982683518976 -2.1809759913023345 6.274573001780549 -2.2146774104882514 6.270472448875797 -2.2483788296741665 C 6.267909603310325 -2.264909183571435 6.265859326857953 -2.281439537468705 6.264321619518673 -2.2986106027573516 C 6.260092924335643 -2.332312021943258 6.25701750965708 -2.366397867963995 6.254967233204709 -2.400099287149903 C 6.2481756924562255 -2.483519910305912 6.246125416003845 -2.566684248905366 6.247663123343126 -2.6503611566179135 C 6.247663123343126 -2.6592029738187772 6.247663123343126 -2.6679166487413735 6.247663123343126 -2.676758465942237 L 6.247663123343126 -2.687137990482391 C 6.247663123343126 -2.6970049459094447 6.248688261569307 -2.7073844704495897 6.248688261569307 -2.7177639949897348 C 6.2524043876392374 -2.7954182156234335 6.258555216996362 -2.8725598671440427 6.2689347415365155 -2.9498296609429193 C 6.269959879762697 -2.9591840472568727 6.270985017988887 -2.968922860405659 6.2725227253281775 -2.978277246719614 C 6.2757262822850075 -3.0031368487046652 6.27982683518976 -3.028509019802799 6.2839273880945035 -3.0533686217878504 C 6.285977664546884 -3.066182849615199 6.288668652390624 -3.080406642503551 6.291231497956096 -3.0938615817222495 C 6.30472915126757 -3.1694655259035756 6.321814788370689 -3.244556900971803 6.342488409265462 -3.319135706926941 C 6.345563823944024 -3.331949934754288 6.348767380900863 -3.343482739798892 6.352867933805616 -3.3559125407914188 C 6.356968486710368 -3.3683423417839347 6.359659474554108 -3.380772142776461 6.363760027458851 -3.392817516934164 C 6.367860580363604 -3.4048628910918666 6.3720892755466245 -3.4207525335977778 6.3765742552862 -3.434720041929575 C 6.381059235025774 -3.448687550261374 6.3854160724870725 -3.462655058593189 6.390541763618007 -3.4761099978118963 C 6.395667454748932 -3.489564937030595 6.4004087190450525 -3.5062234332061504 6.406046979289085 -3.521216079764139 C 6.412838520037578 -3.5409499906182464 6.420142629899161 -3.560555759194079 6.427831166595575 -3.5797771009350967 C 6.266323415722305 -3.6958565576202496 6.085482792598665 -3.7823285734276926 5.893734150751905 -3.8351646615340425 C 5.860801585235635 -3.844390905569762 5.827100166049728 -3.852207584544436 5.793526889142082 -3.859383552127751 Z" fill="#aabda0" transform="matrix(1,0,0,1,0,0)" fill-rule="nonzero"></path></g></g><defs><clipPath id="SvgjsClipPath1022"><path d=" M 0.943726083327511 -12.450682598969978 h 12.200682598969978 v 12.200682598969978 h -12.200682598969978 Z"></path></clipPath></defs></svg>