<svg xmlns="http://www.w3.org/2000/svg" version="1.1" xmlns:xlink="http://www.w3.org/1999/xlink" xmlns:svgjs="http://svgjs.dev/svgjs" viewBox="0 0 16.721630971403407 14.940487836017821"><g transform="matrix(1,0,0,1,1.3167481028892034,11.528563729932593)"><rect width="16.721630971403407" height="14.940487836017821" x="-1.316748102889204" y="-11.528563729932593" fill="#f2eedf"></rect><g><path d=" M 0.10693359375 0.010986328125 L 0.303955078125 0.010986328125 Q 0.3486328125 0.010986328125 0.3966064453125 0.0135498046875 Q 0.444580078125 0.01611328125 0.4903564453125 0.029296875 Q 0.5361328125 0.04248046875 0.5767822265625 0.0699462890625 Q 0.617431640625 0.097412109375 0.648193359375 0.1468505859375 Q 0.678955078125 0.1962890625 0.6968994140625 0.2713623046875 Q 0.71484375 0.346435546875 0.71484375 0.454833984375 L 0.71484375 0.818115234375 Q 0.71484375 0.926513671875 0.6968994140625 1.001953125 Q 0.678955078125 1.077392578125 0.648193359375 1.12646484375 Q 0.617431640625 1.175537109375 0.5767822265625 1.2030029296875 Q 0.5361328125 1.23046875 0.4903564453125 1.24365234375 Q 0.444580078125 1.2568359375 0.3966064453125 1.2593994140625 Q 0.3486328125 1.261962890625 0.303955078125 1.261962890625 L 0.10693359375 1.261962890625 L 0.10693359375 0.010986328125 Z M 0.344970703125 1.12939453125 Q 0.396240234375 1.12939453125 0.4295654296875 1.1162109375 Q 0.462890625 1.10302734375 0.4822998046875 1.0697021484375 Q 0.501708984375 1.036376953125 0.509033203125 0.9788818359375 Q 0.516357421875 0.92138671875 0.516357421875 0.83349609375 L 0.516357421875 0.4453125 Q 0.516357421875 0.357421875 0.509033203125 0.2999267578125 Q 0.501708984375 0.242431640625 0.4822998046875 0.2091064453125 Q 0.462890625 0.17578125 0.4295654296875 0.16259765625 Q 0.396240234375 0.1494140625 0.344970703125 0.1494140625 L 0.296630859375 0.1494140625 L 0.296630859375 1.12939453125 L 0.344970703125 1.12939453125 Z M 1.168212890625 1.27294921875 Q 1.13818359375 1.27294921875 1.10302734375 1.2681884765625 Q 1.06787109375 1.263427734375 1.033447265625 1.248046875 Q 0.9990234375 1.232666015625 0.9671630859375 1.2044677734375 Q 0.935302734375 1.17626953125 0.9107666015625 1.130126953125 Q 0.88623046875 1.083984375 0.87158203125 1.0162353515625 Q 0.85693359375 0.948486328125 0.85693359375 0.854736328125 L 0.85693359375 0.41162109375 Q 0.85693359375 0.317138671875 0.8719482421875 0.2501220703125 Q 0.886962890625 0.18310546875 0.911865234375 0.1373291015625 Q 0.936767578125 0.091552734375 0.9686279296875 0.064453125 Q 1.00048828125 0.037353515625 1.0352783203125 0.0230712890625 Q 1.070068359375 0.0087890625 1.1044921875 0.00439453125 Q 1.138916015625 0 1.168212890625 0 Q 1.196044921875 0 1.2301025390625 0.0040283203125 Q 1.26416015625 0.008056640625 1.2982177734375 0.0216064453125 Q 1.332275390625 0.03515625 1.364501953125 0.0618896484375 Q 1.396728515625 0.088623046875 1.421630859375 0.1343994140625 Q 1.446533203125 0.18017578125 1.4615478515625 0.2479248046875 Q 1.4765625 0.315673828125 1.4765625 0.41162109375 L 1.4765625 0.854736328125 Q 1.4765625 0.94775390625 1.461181640625 1.0147705078125 Q 1.44580078125 1.081787109375 1.4208984375 1.1282958984375 Q 1.39599609375 1.1748046875 1.3634033203125 1.2030029296875 Q 1.330810546875 1.231201171875 1.2967529296875 1.2469482421875 Q 1.2626953125 1.2626953125 1.22900390625 1.267822265625 Q 1.1953125 1.27294921875 1.168212890625 1.27294921875 Z M 1.168212890625 1.130126953125 Q 1.196044921875 1.130126953125 1.2169189453125 1.12060546875 Q 1.23779296875 1.111083984375 1.2513427734375 1.087646484375 Q 1.264892578125 1.064208984375 1.2718505859375 1.0257568359375 Q 1.27880859375 0.9873046875 1.27880859375 0.9287109375 L 1.27880859375 0.359619140625 Q 1.27880859375 0.299560546875 1.2718505859375 0.25927734375 Q 1.264892578125 0.218994140625 1.2513427734375 0.1944580078125 Q 1.23779296875 0.169921875 1.2169189453125 0.15966796875 Q 1.196044921875 0.1494140625 1.168212890625 0.1494140625 Q 1.1396484375 0.1494140625 1.118408203125 0.15966796875 Q 1.09716796875 0.169921875 1.083251953125 0.1944580078125 Q 1.0693359375 0.218994140625 1.0623779296875 0.25927734375 Q 1.055419921875 0.299560546875 1.055419921875 0.359619140625 L 1.055419921875 0.9287109375 Q 1.055419921875 0.9873046875 1.0623779296875 1.0257568359375 Q 1.0693359375 1.064208984375 1.083251953125 1.087646484375 Q 1.09716796875 1.111083984375 1.118408203125 1.12060546875 Q 1.1396484375 1.130126953125 1.168212890625 1.130126953125 Z M 1.58349609375 0.010986328125 L 1.76513671875 0.010986328125 L 1.849365234375 0.766845703125 L 1.85888671875 0.943359375 L 1.877197265625 0.943359375 L 1.894775390625 0.744873046875 L 2.029541015625 0.010986328125 L 2.18115234375 0.010986328125 L 2.31005859375 0.744873046875 L 2.32470703125 0.943359375 L 2.34375 0.943359375 L 2.3525390625 0.766845703125 L 2.429443359375 0.010986328125 L 2.61181640625 0.010986328125 L 2.436767578125 1.261962890625 L 2.244140625 1.261962890625 L 2.140869140625 0.66064453125 L 2.108642578125 0.399169921875 L 2.093994140625 0.399169921875 L 2.0625 0.66064453125 L 1.9541015625 1.261962890625 L 1.763671875 1.261962890625 L 1.58349609375 0.010986328125 Z M 2.75390625 0.010986328125 L 2.90771484375 0.010986328125 L 3.2109375 0.84814453125 L 3.21533203125 0.84814453125 Q 3.213134765625 0.81884765625 3.20947265625 0.782958984375 Q 3.205810546875 0.7470703125 3.202880859375 0.7012939453125 Q 3.199951171875 0.655517578125 3.19775390625 0.59765625 Q 3.195556640625 0.539794921875 3.195556640625 0.46728515625 L 3.195556640625 0.010986328125 L 3.365478515625 0.010986328125 L 3.365478515625 1.261962890625 L 3.210205078125 1.261962890625 L 2.908447265625 0.44677734375 L 2.902587890625 0.44677734375 Q 2.90478515625 0.479736328125 2.908447265625 0.5181884765625 Q 2.912109375 0.556640625 2.9150390625 0.608642578125 Q 2.91796875 0.66064453125 2.920166015625 0.7298583984375 Q 2.92236328125 0.799072265625 2.92236328125 0.894287109375 L 2.92236328125 1.261962890625 L 2.75390625 1.261962890625 L 2.75390625 0.010986328125 Z M 3.914794921875 0.010986328125 L 4.068603515625 0.010986328125 L 4.371826171875 0.84814453125 L 4.376220703125 0.84814453125 Q 4.3740234375 0.81884765625 4.370361328125 0.782958984375 Q 4.36669921875 0.7470703125 4.36376953125 0.7012939453125 Q 4.36083984375 0.655517578125 4.358642578125 0.59765625 Q 4.3564453125 0.539794921875 4.3564453125 0.46728515625 L 4.3564453125 0.010986328125 L 4.5263671875 0.010986328125 L 4.5263671875 1.261962890625 L 4.37109375 1.261962890625 L 4.0693359375 0.44677734375 L 4.0634765625 0.44677734375 Q 4.065673828125 0.479736328125 4.0693359375 0.5181884765625 Q 4.072998046875 0.556640625 4.075927734375 0.608642578125 Q 4.078857421875 0.66064453125 4.0810546875 0.7298583984375 Q 4.083251953125 0.799072265625 4.083251953125 0.894287109375 L 4.083251953125 1.261962890625 L 3.914794921875 1.261962890625 L 3.914794921875 0.010986328125 Z M 5.0244140625 1.27294921875 Q 4.994384765625 1.27294921875 4.959228515625 1.2681884765625 Q 4.924072265625 1.263427734375 4.8896484375 1.248046875 Q 4.855224609375 1.232666015625 4.8233642578125 1.2044677734375 Q 4.79150390625 1.17626953125 4.7669677734375 1.130126953125 Q 4.742431640625 1.083984375 4.727783203125 1.0162353515625 Q 4.713134765625 0.948486328125 4.713134765625 0.854736328125 L 4.713134765625 0.41162109375 Q 4.713134765625 0.317138671875 4.7281494140625 0.2501220703125 Q 4.7431640625 0.18310546875 4.76806640625 0.1373291015625 Q 4.79296875 0.091552734375 4.8248291015625 0.064453125 Q 4.856689453125 0.037353515625 4.8914794921875 0.0230712890625 Q 4.92626953125 0.0087890625 4.960693359375 0.00439453125 Q 4.9951171875 0 5.0244140625 0 Q 5.05224609375 0 5.0863037109375 0.0040283203125 Q 5.120361328125 0.008056640625 5.1544189453125 0.0216064453125 Q 5.1884765625 0.03515625 5.220703125 0.0618896484375 Q 5.2529296875 0.088623046875 5.27783203125 0.1343994140625 Q 5.302734375 0.18017578125 5.3177490234375 0.2479248046875 Q 5.332763671875 0.315673828125 5.332763671875 0.41162109375 L 5.332763671875 0.854736328125 Q 5.332763671875 0.94775390625 5.3173828125 1.0147705078125 Q 5.302001953125 1.081787109375 5.277099609375 1.1282958984375 Q 5.252197265625 1.1748046875 5.2196044921875 1.2030029296875 Q 5.18701171875 1.231201171875 5.1529541015625 1.2469482421875 Q 5.118896484375 1.2626953125 5.085205078125 1.267822265625 Q 5.051513671875 1.27294921875 5.0244140625 1.27294921875 Z M 5.0244140625 1.130126953125 Q 5.05224609375 1.130126953125 5.0731201171875 1.12060546875 Q 5.093994140625 1.111083984375 5.1075439453125 1.087646484375 Q 5.12109375 1.064208984375 5.1280517578125 1.0257568359375 Q 5.135009765625 0.9873046875 5.135009765625 0.9287109375 L 5.135009765625 0.359619140625 Q 5.135009765625 0.299560546875 5.1280517578125 0.25927734375 Q 5.12109375 0.218994140625 5.1075439453125 0.1944580078125 Q 5.093994140625 0.169921875 5.0731201171875 0.15966796875 Q 5.05224609375 0.1494140625 5.0244140625 0.1494140625 Q 4.995849609375 0.1494140625 4.974609375 0.15966796875 Q 4.953369140625 0.169921875 4.939453125 0.1944580078125 Q 4.925537109375 0.218994140625 4.9185791015625 0.25927734375 Q 4.91162109375 0.299560546875 4.91162109375 0.359619140625 L 4.91162109375 0.9287109375 Q 4.91162109375 0.9873046875 4.9185791015625 1.0257568359375 Q 4.925537109375 1.064208984375 4.939453125 1.087646484375 Q 4.953369140625 1.111083984375 4.974609375 1.12060546875 Q 4.995849609375 1.130126953125 5.0244140625 1.130126953125 Z M 5.51953125 0.010986328125 L 5.725341796875 0.010986328125 Q 5.760498046875 0.010986328125 5.8026123046875 0.013916015625 Q 5.8447265625 0.016845703125 5.8868408203125 0.0281982421875 Q 5.928955078125 0.03955078125 5.9681396484375 0.062255859375 Q 6.00732421875 0.0849609375 6.0377197265625 0.12451171875 Q 6.068115234375 0.1640625 6.08642578125 0.2237548828125 Q 6.104736328125 0.283447265625 6.104736328125 0.368408203125 L 6.104736328125 0.39990234375 Q 6.104736328125 0.542724609375 6.063720703125 0.6324462890625 Q 6.022705078125 0.72216796875 5.94287109375 0.76171875 L 6.1435546875 1.261962890625 L 5.94287109375 1.261962890625 L 5.776611328125 0.7939453125 L 5.70556640625 0.7939453125 L 5.70556640625 1.261962890625 L 5.51953125 1.261962890625 L 5.51953125 0.010986328125 Z M 5.734130859375 0.656982421875 Q 5.783935546875 0.656982421875 5.818359375 0.64599609375 Q 5.852783203125 0.635009765625 5.8740234375 0.6090087890625 Q 5.895263671875 0.5830078125 5.90478515625 0.5401611328125 Q 5.914306640625 0.497314453125 5.914306640625 0.434326171875 L 5.914306640625 0.33544921875 Q 5.914306640625 0.287109375 5.905517578125 0.251953125 Q 5.896728515625 0.216796875 5.8758544921875 0.194091796875 Q 5.85498046875 0.17138671875 5.820556640625 0.160400390625 Q 5.7861328125 0.1494140625 5.734130859375 0.1494140625 L 5.70556640625 0.1494140625 L 5.70556640625 0.656982421875 L 5.734130859375 0.656982421875 Z M 6.41015625 0.160400390625 L 6.208740234375 0.160400390625 L 6.208740234375 0.010986328125 L 6.800537109375 0.010986328125 L 6.800537109375 0.160400390625 L 6.599853515625 0.160400390625 L 6.599853515625 1.261962890625 L 6.41015625 1.261962890625 L 6.41015625 0.160400390625 Z M 6.93603515625 0.010986328125 L 7.125732421875 0.010986328125 L 7.125732421875 0.53466796875 L 7.3505859375 0.53466796875 L 7.3505859375 0.010986328125 L 7.540283203125 0.010986328125 L 7.540283203125 1.261962890625 L 7.3505859375 1.261962890625 L 7.3505859375 0.68408203125 L 7.125732421875 0.68408203125 L 7.125732421875 1.261962890625 L 6.93603515625 1.261962890625 L 6.93603515625 0.010986328125 Z M 8.34375 1.273681640625 Q 8.32177734375 1.273681640625 8.29248046875 1.2689208984375 Q 8.26318359375 1.26416015625 8.2320556640625 1.248779296875 Q 8.200927734375 1.2333984375 8.1708984375 1.2052001953125 Q 8.140869140625 1.177001953125 8.1170654296875 1.1304931640625 Q 8.09326171875 1.083984375 8.07861328125 1.0162353515625 Q 8.06396484375 0.948486328125 8.06396484375 0.854736328125 L 8.06396484375 0.41162109375 Q 8.06396484375 0.317138671875 8.079345703125 0.2501220703125 Q 8.0947265625 0.18310546875 8.120361328125 0.1373291015625 Q 8.14599609375 0.091552734375 8.1793212890625 0.064453125 Q 8.212646484375 0.037353515625 8.24853515625 0.0230712890625 Q 8.284423828125 0.0087890625 8.319580078125 0.00439453125 Q 8.354736328125 0 8.384765625 0 Q 8.4609375 0 8.5133056640625 0.0208740234375 Q 8.565673828125 0.041748046875 8.5982666015625 0.0780029296875 Q 8.630859375 0.1142578125 8.6451416015625 0.16259765625 Q 8.659423828125 0.2109375 8.659423828125 0.26513671875 Q 8.659423828125 0.305419921875 8.6546630859375 0.3394775390625 Q 8.64990234375 0.37353515625 8.641845703125 0.41455078125 L 8.490234375 0.41455078125 L 8.490234375 0.355224609375 Q 8.490234375 0.1494140625 8.379638671875 0.1494140625 Q 8.349609375 0.1494140625 8.32763671875 0.15966796875 Q 8.3056640625 0.169921875 8.291015625 0.1944580078125 Q 8.2763671875 0.218994140625 8.2694091796875 0.25927734375 Q 8.262451171875 0.299560546875 8.262451171875 0.359619140625 L 8.262451171875 0.926513671875 Q 8.262451171875 0.985107421875 8.2694091796875 1.02392578125 Q 8.2763671875 1.062744140625 8.2906494140625 1.086181640625 Q 8.304931640625 1.109619140625 8.3265380859375 1.1195068359375 Q 8.34814453125 1.12939453125 8.378173828125 1.12939453125 Q 8.40966796875 1.12939453125 8.432373046875 1.1129150390625 Q 8.455078125 1.096435546875 8.4697265625 1.06787109375 Q 8.484375 1.039306640625 8.4913330078125 1.00048828125 Q 8.498291015625 0.961669921875 8.498291015625 0.916259765625 L 8.498291015625 0.7529296875 L 8.40087890625 0.7529296875 L 8.40087890625 0.62841796875 L 8.682861328125 0.62841796875 L 8.682861328125 1.261962890625 L 8.556884765625 1.261962890625 L 8.536376953125 1.143310546875 Q 8.50048828125 1.212890625 8.4539794921875 1.2432861328125 Q 8.407470703125 1.273681640625 8.34375 1.273681640625 Z M 9.0029296875 0.010986328125 L 9.22119140625 0.010986328125 L 9.45263671875 1.261962890625 L 9.2607421875 1.261962890625 L 9.226318359375 1.037841796875 L 8.997802734375 1.037841796875 L 8.96484375 1.261962890625 L 8.772216796875 1.261962890625 L 9.0029296875 0.010986328125 Z M 9.204345703125 0.89501953125 L 9.116455078125 0.271728515625 L 9.1083984375 0.271728515625 L 9.019775390625 0.89501953125 L 9.204345703125 0.89501953125 Z M 9.580810546875 0.010986328125 L 9.78662109375 0.010986328125 Q 9.82177734375 0.010986328125 9.8638916015625 0.013916015625 Q 9.906005859375 0.016845703125 9.9481201171875 0.0281982421875 Q 9.990234375 0.03955078125 10.0294189453125 0.062255859375 Q 10.068603515625 0.0849609375 10.0989990234375 0.12451171875 Q 10.12939453125 0.1640625 10.147705078125 0.2237548828125 Q 10.166015625 0.283447265625 10.166015625 0.368408203125 L 10.166015625 0.39990234375 Q 10.166015625 0.542724609375 10.125 0.6324462890625 Q 10.083984375 0.72216796875 10.004150390625 0.76171875 L 10.204833984375 1.261962890625 L 10.004150390625 1.261962890625 L 9.837890625 0.7939453125 L 9.766845703125 0.7939453125 L 9.766845703125 1.261962890625 L 9.580810546875 1.261962890625 L 9.580810546875 0.010986328125 Z M 9.79541015625 0.656982421875 Q 9.84521484375 0.656982421875 9.879638671875 0.64599609375 Q 9.9140625 0.635009765625 9.935302734375 0.6090087890625 Q 9.95654296875 0.5830078125 9.966064453125 0.5401611328125 Q 9.9755859375 0.497314453125 9.9755859375 0.434326171875 L 9.9755859375 0.33544921875 Q 9.9755859375 0.287109375 9.966796875 0.251953125 Q 9.9580078125 0.216796875 9.9371337890625 0.194091796875 Q 9.916259765625 0.17138671875 9.8818359375 0.160400390625 Q 9.847412109375 0.1494140625 9.79541015625 0.1494140625 L 9.766845703125 0.1494140625 L 9.766845703125 0.656982421875 L 9.79541015625 0.656982421875 Z M 10.355712890625 0.010986328125 L 10.54541015625 0.010986328125 L 10.54541015625 1.112548828125 L 10.803955078125 1.112548828125 L 10.803955078125 1.261962890625 L 10.355712890625 1.261962890625 L 10.355712890625 0.010986328125 Z M 10.931396484375 0.010986328125 L 11.12109375 0.010986328125 L 11.12109375 1.261962890625 L 10.931396484375 1.261962890625 L 10.931396484375 0.010986328125 Z M 11.61181640625 1.27294921875 Q 11.58251953125 1.27294921875 11.5484619140625 1.2681884765625 Q 11.514404296875 1.263427734375 11.4803466796875 1.248046875 Q 11.4462890625 1.232666015625 11.4151611328125 1.2044677734375 Q 11.384033203125 1.17626953125 11.3602294921875 1.130126953125 Q 11.33642578125 1.083984375 11.3221435546875 1.0162353515625 Q 11.307861328125 0.948486328125 11.307861328125 0.854736328125 L 11.307861328125 0.41162109375 Q 11.307861328125 0.317138671875 11.322509765625 0.2501220703125 Q 11.337158203125 0.18310546875 11.361328125 0.1373291015625 Q 11.385498046875 0.091552734375 11.4169921875 0.064453125 Q 11.448486328125 0.037353515625 11.482177734375 0.0230712890625 Q 11.515869140625 0.0087890625 11.5491943359375 0.00439453125 Q 11.58251953125 0 11.611083984375 0 Q 11.685791015625 0 11.7359619140625 0.0208740234375 Q 11.7861328125 0.041748046875 11.8165283203125 0.0780029296875 Q 11.846923828125 0.1142578125 11.8597412109375 0.16259765625 Q 11.87255859375 0.2109375 11.87255859375 0.26513671875 Q 11.87255859375 0.305419921875 11.8685302734375 0.3394775390625 Q 11.864501953125 0.37353515625 11.8564453125 0.41455078125 L 11.70263671875 0.41455078125 L 11.70263671875 0.350830078125 Q 11.70263671875 0.24755859375 11.679931640625 0.1962890625 Q 11.6572265625 0.14501953125 11.61328125 0.14501953125 Q 11.5869140625 0.14501953125 11.567138671875 0.1552734375 Q 11.54736328125 0.16552734375 11.5341796875 0.1900634765625 Q 11.52099609375 0.214599609375 11.5140380859375 0.2548828125 Q 11.507080078125 0.295166015625 11.507080078125 0.355224609375 L 11.507080078125 0.926513671875 Q 11.507080078125 0.985107421875 11.5125732421875 1.02392578125 Q 11.51806640625 1.062744140625 11.530517578125 1.086181640625 Q 11.54296875 1.109619140625 11.5631103515625 1.1195068359375 Q 11.583251953125 1.12939453125 11.61181640625 1.12939453125 Q 11.630126953125 1.12939453125 11.64697265625 1.1209716796875 Q 11.663818359375 1.112548828125 11.6766357421875 1.0946044921875 Q 11.689453125 1.07666015625 11.6971435546875 1.0491943359375 Q 11.704833984375 1.021728515625 11.704833984375 0.984375 L 11.704833984375 0.862060546875 L 11.87841796875 0.862060546875 L 11.87841796875 0.977783203125 Q 11.87841796875 1.128662109375 11.8095703125 1.200439453125 Q 11.74072265625 1.272216796875 11.61181640625 1.27294921875 Z M 12.6328125 1.27294921875 Q 12.603515625 1.27294921875 12.5694580078125 1.2681884765625 Q 12.535400390625 1.263427734375 12.5013427734375 1.248046875 Q 12.46728515625 1.232666015625 12.4361572265625 1.2044677734375 Q 12.405029296875 1.17626953125 12.3812255859375 1.130126953125 Q 12.357421875 1.083984375 12.3431396484375 1.0162353515625 Q 12.328857421875 0.948486328125 12.328857421875 0.854736328125 L 12.328857421875 0.41162109375 Q 12.328857421875 0.317138671875 12.343505859375 0.2501220703125 Q 12.358154296875 0.18310546875 12.38232421875 0.1373291015625 Q 12.406494140625 0.091552734375 12.43798828125 0.064453125 Q 12.469482421875 0.037353515625 12.503173828125 0.0230712890625 Q 12.536865234375 0.0087890625 12.5701904296875 0.00439453125 Q 12.603515625 0 12.632080078125 0 Q 12.706787109375 0 12.7569580078125 0.0208740234375 Q 12.80712890625 0.041748046875 12.8375244140625 0.0780029296875 Q 12.867919921875 0.1142578125 12.8807373046875 0.16259765625 Q 12.8935546875 0.2109375 12.8935546875 0.26513671875 Q 12.8935546875 0.305419921875 12.8895263671875 0.3394775390625 Q 12.885498046875 0.37353515625 12.87744140625 0.41455078125 L 12.7236328125 0.41455078125 L 12.7236328125 0.350830078125 Q 12.7236328125 0.24755859375 12.700927734375 0.1962890625 Q 12.67822265625 0.14501953125 12.63427734375 0.14501953125 Q 12.60791015625 0.14501953125 12.588134765625 0.1552734375 Q 12.568359375 0.16552734375 12.55517578125 0.1900634765625 Q 12.5419921875 0.214599609375 12.5350341796875 0.2548828125 Q 12.528076171875 0.295166015625 12.528076171875 0.355224609375 L 12.528076171875 0.926513671875 Q 12.528076171875 0.985107421875 12.5335693359375 1.02392578125 Q 12.5390625 1.062744140625 12.551513671875 1.086181640625 Q 12.56396484375 1.109619140625 12.5841064453125 1.1195068359375 Q 12.604248046875 1.12939453125 12.6328125 1.12939453125 Q 12.651123046875 1.12939453125 12.66796875 1.1209716796875 Q 12.684814453125 1.112548828125 12.6976318359375 1.0946044921875 Q 12.71044921875 1.07666015625 12.7181396484375 1.0491943359375 Q 12.725830078125 1.021728515625 12.725830078125 0.984375 L 12.725830078125 0.862060546875 L 12.8994140625 0.862060546875 L 12.8994140625 0.977783203125 Q 12.8994140625 1.128662109375 12.83056640625 1.200439453125 Q 12.76171875 1.272216796875 12.6328125 1.27294921875 Z M 13.3330078125 1.27294921875 Q 13.302978515625 1.27294921875 13.267822265625 1.2681884765625 Q 13.232666015625 1.263427734375 13.1982421875 1.248046875 Q 13.163818359375 1.232666015625 13.1319580078125 1.2044677734375 Q 13.10009765625 1.17626953125 13.0755615234375 1.130126953125 Q 13.051025390625 1.083984375 13.036376953125 1.0162353515625 Q 13.021728515625 0.948486328125 13.021728515625 0.854736328125 L 13.021728515625 0.41162109375 Q 13.021728515625 0.317138671875 13.0367431640625 0.2501220703125 Q 13.0517578125 0.18310546875 13.07666015625 0.1373291015625 Q 13.1015625 0.091552734375 13.1334228515625 0.064453125 Q 13.165283203125 0.037353515625 13.2000732421875 0.0230712890625 Q 13.23486328125 0.0087890625 13.269287109375 0.00439453125 Q 13.3037109375 0 13.3330078125 0 Q 13.36083984375 0 13.3948974609375 0.0040283203125 Q 13.428955078125 0.008056640625 13.4630126953125 0.0216064453125 Q 13.4970703125 0.03515625 13.529296875 0.0618896484375 Q 13.5615234375 0.088623046875 13.58642578125 0.1343994140625 Q 13.611328125 0.18017578125 13.6263427734375 0.2479248046875 Q 13.641357421875 0.315673828125 13.641357421875 0.41162109375 L 13.641357421875 0.854736328125 Q 13.641357421875 0.94775390625 13.6259765625 1.0147705078125 Q 13.610595703125 1.081787109375 13.585693359375 1.1282958984375 Q 13.560791015625 1.1748046875 13.5281982421875 1.2030029296875 Q 13.49560546875 1.231201171875 13.4615478515625 1.2469482421875 Q 13.427490234375 1.2626953125 13.393798828125 1.267822265625 Q 13.360107421875 1.27294921875 13.3330078125 1.27294921875 Z M 13.3330078125 1.130126953125 Q 13.36083984375 1.130126953125 13.3817138671875 1.12060546875 Q 13.402587890625 1.111083984375 13.4161376953125 1.087646484375 Q 13.4296875 1.064208984375 13.4366455078125 1.0257568359375 Q 13.443603515625 0.9873046875 13.443603515625 0.9287109375 L 13.443603515625 0.359619140625 Q 13.443603515625 0.299560546875 13.4366455078125 0.25927734375 Q 13.4296875 0.218994140625 13.4161376953125 0.1944580078125 Q 13.402587890625 0.169921875 13.3817138671875 0.15966796875 Q 13.36083984375 0.1494140625 13.3330078125 0.1494140625 Q 13.304443359375 0.1494140625 13.283203125 0.15966796875 Q 13.261962890625 0.169921875 13.248046875 0.1944580078125 Q 13.234130859375 0.218994140625 13.2271728515625 0.25927734375 Q 13.22021484375 0.299560546875 13.22021484375 0.359619140625 L 13.22021484375 0.9287109375 Q 13.22021484375 0.9873046875 13.2271728515625 1.0257568359375 Q 13.234130859375 1.064208984375 13.248046875 1.087646484375 Q 13.261962890625 1.111083984375 13.283203125 1.12060546875 Q 13.304443359375 1.130126953125 13.3330078125 1.130126953125 Z M 13.787841796875 1.130859375 Q 13.787841796875 1.05322265625 13.818603515625 1.01953125 Q 13.849365234375 0.98583984375 13.902099609375 0.98583984375 Q 13.95703125 0.98583984375 13.987060546875 1.021728515625 Q 14.01708984375 1.0576171875 14.01708984375 1.130859375 Q 14.01708984375 1.1982421875 13.9866943359375 1.2352294921875 Q 13.956298828125 1.272216796875 13.9013671875 1.272216796875 Q 13.849365234375 1.272216796875 13.818603515625 1.236328125 Q 13.787841796875 1.200439453125 13.787841796875 1.130859375 Z" fill="#595959" fill-rule="nonzero"></path></g><g><path d=" M 0.08589311079545454 1.9024158824573862 L 0.08655894886363635 2.020602139559659 Q 0.08655894886363635 2.0365822531960225 0.08655894886363635 2.0479015003551138 Q 0.08689186789772727 2.052895285866477 0.08689186789772727 2.056557395241477 Q 0.17078746448863635 2.056557395241477 0.1984197443181818 2.05389404296875 Q 0.22705078124999997 2.0508977716619317 0.2317116477272727 2.0522294477982954 Q 0.23637251420454544 2.053561123934659 0.23970170454545453 2.056557395241477 Q 0.2463600852272727 2.0625499378551138 0.2463600852272727 2.0697076970880683 Q 0.2463600852272727 2.0768654563210225 0.24003462357954544 2.0820257013494317 Q 0.23370916193181818 2.087185946377841 0.22238991477272727 2.086520108309659 Q 0.16779119318181818 2.082192160866477 0.12384588068181818 2.08502197265625 Q 0.07990056818181818 2.0878517844460225 0.07457386363636363 2.08868408203125 Q 0.06924715909090909 2.089516379616477 0.06508567116477272 2.08868408203125 Q 0.06092418323863636 2.0878517844460225 0.057594992897727265 2.0851884321732954 Q 0.04993785511363636 2.07952880859375 0.05060369318181818 2.06854248046875 Q 0.055597478693181816 1.9723288796164773 0.055597478693181816 1.8556407581676135 Q 0.055597478693181816 1.73895263671875 0.055763938210227265 1.7088234641335227 Q 0.05593039772727272 1.6786942915482954 0.05593039772727272 1.6537253639914773 Q 0.055264559659090905 1.6001253995028408 0.05359996448863636 1.5779862837357954 Q 0.051935369318181816 1.55584716796875 0.05443226207386363 1.5515192205255683 Q 0.05692915482954545 1.5471912730823862 0.06059126420454545 1.5451937588778408 Q 0.06558504971590909 1.5428633256392046 0.0732421875 1.5441950017755683 Q 0.08722478693181818 1.5465254350142046 0.1101962002840909 1.5465254350142046 Q 0.1544744318181818 1.5465254350142046 0.17062100497159088 1.5446943803267046 Q 0.186767578125 1.5428633256392046 0.1914284446022727 1.5443614612926138 Q 0.19608931107954544 1.5458595969460227 0.19908558238636362 1.54852294921875 Q 0.2057439630681818 1.5538496537642046 0.2057439630681818 1.5615067915482954 Q 0.2057439630681818 1.5691639293323862 0.19975142045454544 1.57415771484375 Q 0.1937588778409091 1.5791515003551138 0.18343838778409088 1.5786521218039773 Q 0.1731178977272727 1.5781527432528408 0.16146573153409088 1.5773204456676138 Q 0.1498135653409091 1.5764881480823862 0.1364968039772727 1.5758223100142046 Q 0.10853160511363635 1.5748235529119317 0.087890625 1.5764881480823862 Q 0.087890625 1.6054521040482954 0.08755770596590909 1.6340831409801138 Q 0.08722478693181818 1.6680408824573862 0.08689186789772727 1.7029973810369319 Q 0.08589311079545454 1.7968805486505681 0.08589311079545454 1.84149169921875 Q 0.12750799005681818 1.84149169921875 0.1471502130681818 1.8394941850142046 Q 0.16845703125 1.8371637517755681 0.1739501953125 1.84149169921875 Q 0.179443359375 1.8458196466619319 0.179443359375 1.8531438654119319 Q 0.179443359375 1.8714544122869319 0.14515269886363635 1.87078857421875 Q 0.13816139914772727 1.8704556551846592 0.1325017755681818 1.8704556551846592 L 0.10553533380681818 1.8701227361505681 L 0.08589311079545454 1.8701227361505681 L 0.08589311079545454 1.9024158824573862 Z M 0.30162464488636365 1.9323785955255681 Q 0.31327681107954547 1.9323785955255681 0.31627308238636365 1.9413674094460227 Q 0.3192693536931818 1.9503562233664773 0.3192693536931818 1.9709972034801135 Q 0.3192693536931818 1.99163818359375 0.3249289772727273 2.009615811434659 Q 0.3305886008522727 2.0275934392755683 0.340576171875 2.0399114435369317 Q 0.3608842329545454 2.064547452059659 0.39683948863636365 2.064547452059659 Q 0.43279474431818177 2.064547452059659 0.4541015625 2.0380803888494317 Q 0.4754083806818182 2.0116133256392046 0.4754083806818182 1.9620083895596592 Q 0.4754083806818182 1.8957575017755681 0.41914506392045453 1.8441550514914773 Q 0.40316495028409094 1.8295066139914773 0.3863525390625 1.8151910955255681 Q 0.36954012784090906 1.8008755770596592 0.3535600142045454 1.7855613014914773 Q 0.3375799005681818 1.7702470259232954 0.3249289772727273 1.7516035600142046 Q 0.2972966974431818 1.7106545188210227 0.2972966974431818 1.65838623046875 Q 0.2972966974431818 1.6047862659801138 0.3289240056818182 1.5718272816051138 Q 0.36021839488636365 1.5392012162642046 0.4074928977272727 1.5392012162642046 Q 0.44810901988636365 1.5392012162642046 0.47407670454545453 1.5665005770596592 Q 0.5030406605113636 1.5977949662642046 0.5007102272727273 1.6530595259232954 Q 0.5003773082386364 1.6557228781960227 0.5005437677556818 1.6587191495028408 Q 0.5007102272727273 1.6617154208096592 0.4998779296875 1.6700383966619319 Q 0.4990456321022727 1.6783613725142046 0.4928866299715909 1.6848532936789773 Q 0.48672762784090906 1.69134521484375 0.47956986860795453 1.69134521484375 Q 0.472412109375 1.69134521484375 0.46741832386363635 1.6848532936789773 Q 0.4624245383522727 1.6783613725142046 0.4640891335227273 1.6677079634232954 Q 0.46841708096590906 1.6434048739346592 0.46841708096590906 1.63092041015625 Q 0.46841708096590906 1.6184359463778408 0.46392267400568177 1.60711669921875 Q 0.45942826704545453 1.5957974520596592 0.45110529119318177 1.5871415571732954 Q 0.4331276633522727 1.5688310102982954 0.40449662642045453 1.5688310102982954 Q 0.3728693181818182 1.5688310102982954 0.35289417613636365 1.5904707475142046 Q 0.33092151988636365 1.61444091796875 0.33092151988636365 1.6493974165482954 Q 0.33092151988636365 1.6843539151278408 0.33857865767045453 1.7058271928267046 Q 0.3462357954545454 1.7273004705255681 0.35872025923295453 1.7446122602982954 Q 0.37120472301136365 1.7619240500710227 0.3871848366477273 1.7762395685369319 Q 0.40316495028409094 1.7905550870028408 0.4196444424715909 1.8045376864346592 Q 0.4361239346590909 1.8185202858664773 0.45210404829545453 1.8333351828835227 Q 0.4680841619318182 1.8481500799005681 0.4807350852272727 1.8661277077414773 Q 0.5083673650568181 1.9067438299005681 0.5083673650568181 1.9596779563210227 Q 0.5083673650568181 2.0216008966619317 0.4764071377840909 2.0585549094460225 Q 0.44477982954545453 2.0951760031960225 0.391845703125 2.0951760031960225 Q 0.3425736860795454 2.0951760031960225 0.3116122159090909 2.057223233309659 Q 0.2823153409090909 2.0216008966619317 0.2823153409090909 1.97698974609375 Q 0.2823153409090909 1.9323785955255681 0.30162464488636365 1.9323785955255681 Z M 0.6551846590909091 1.5468583540482954 Q 0.6645063920454546 1.5468583540482954 0.7750355113636364 1.5441950017755683 Q 0.7903497869318181 1.5441950017755683 0.7960094105113636 1.55584716796875 Q 0.7973410866477273 1.5591763583096592 0.7973410866477273 1.5635043057528408 Q 0.7973410866477273 1.5678322531960227 0.7923473011363636 1.57232666015625 Q 0.787353515625 1.5768210671164773 0.7737038352272727 1.5764881480823862 Q 0.7600541548295454 1.5761552290482954 0.7472367720170454 1.5754893909801138 Q 0.7344193892045454 1.5748235529119317 0.7234330610795454 1.5744906338778408 Q 0.7037908380681819 1.5738247958096592 0.6898082386363636 1.57415771484375 Q 0.6871448863636364 1.6507290926846592 0.6871448863636364 1.7402843128551138 Q 0.6871448863636364 1.8361649946732954 0.6873113458806819 1.8716208718039773 Q 0.6874778053977273 1.9070767489346592 0.6881436434659091 1.9393698952414773 Q 0.6891424005681819 2.0219338156960225 0.6901411576704546 2.0618840997869317 Q 0.6904740767045454 2.0732033469460225 0.6849809126420454 2.0786965110085225 Q 0.6794877485795454 2.0841896750710225 0.6729958274147727 2.0841896750710225 Q 0.66650390625 2.0841896750710225 0.6603449041193182 2.0790294300426138 Q 0.6541859019886364 2.0738691850142046 0.6541859019886364 2.0635486949573862 L 0.6538529829545454 2.019936301491477 L 0.6571821732954546 1.7019986239346592 Q 0.6571821732954546 1.6131092418323862 0.6548517400568182 1.57415771484375 Q 0.63720703125 1.5738247958096592 0.6129039417613636 1.5754893909801138 Q 0.5842729048295454 1.5774869051846592 0.5714555220170455 1.5783192027698862 Q 0.5586381392045455 1.5791515003551138 0.5533114346590909 1.57415771484375 Q 0.5479847301136364 1.5691639293323862 0.5479847301136364 1.5626720081676138 Q 0.5479847301136364 1.5561800870028408 0.5533114346590909 1.5498546253551138 Q 0.5586381392045455 1.5435291637073862 0.5704567649147727 1.5440285422585227 Q 0.582275390625 1.5445279208096592 0.5909312855113636 1.54486083984375 Q 0.5995871803977273 1.5451937588778408 0.6060791015625 1.5455266779119317 Q 0.6125710227272727 1.5458595969460227 0.6175648082386364 1.5461925159801138 Q 0.62255859375 1.5465254350142046 0.6277188387784091 1.54669189453125 Q 0.6328790838068182 1.5468583540482954 0.6395374644886364 1.5468583540482954 L 0.6551846590909091 1.5468583540482954 Z M 2.1370072798295454 1.6886818625710227 Q 2.1370072798295454 1.5764881480823862 2.069424715909091 1.5764881480823862 Q 2.032470703125 1.5764881480823862 2.0146595348011367 1.6087812943892046 Q 1.996848366477273 1.6410744406960227 1.99951171875 1.7036632191051138 Q 1.99951171875 1.7179787375710227 1.9875266335227273 1.7223066850142046 Q 1.9841974431818183 1.7233054421164773 1.9790371981534092 1.7233054421164773 Q 1.973876953125 1.7233054421164773 1.9683837890625 1.7178122780539773 Q 1.962890625 1.7123191139914773 1.9625577059659092 1.7013327858664773 Q 1.960227272727273 1.6247614080255681 1.9945179332386365 1.5831465287642046 Q 2.0244806463068183 1.5461925159801138 2.0740855823863638 1.5461925159801138 Q 2.149325284090909 1.5461925159801138 2.1656383167613638 1.62542724609375 Q 2.1709650213068183 1.65106201171875 2.1709650213068183 1.6795265891335227 Q 2.1709650213068183 1.7079911665482954 2.163474343039773 1.7307961203835227 Q 2.1559836647727275 1.75360107421875 2.1436656605113638 1.7759066495028408 Q 2.13134765625 1.7982122247869319 2.1157004616477275 1.8201848810369319 Q 2.1000532670454546 1.8421575372869319 2.0835737748579546 1.8639637340198862 Q 2.0670942826704546 1.8857699307528408 2.051447088068182 1.9077425870028408 Q 2.035799893465909 1.9297152432528408 2.0234818892045454 1.9520208185369319 Q 1.996182528409091 2.0012928355823862 1.996182528409091 2.0435735529119317 Q 1.996182528409091 2.0522294477982954 1.9991787997159092 2.05389404296875 Q 2.0021750710227275 2.0555586381392046 2.014825994318182 2.0550592595880683 Q 2.0274769176136362 2.0545598810369317 2.0454545454545454 2.0532282049005683 Q 2.0634321732954546 2.0518965287642046 2.0817427201704546 2.050564852627841 Q 2.125022194602273 2.0479015003551138 2.1416681463068183 2.049233176491477 Q 2.16796875 2.0508977716619317 2.16796875 2.0678766424005683 Q 2.16796875 2.0742021040482954 2.1633078835227275 2.0793623490767046 Q 2.1586470170454546 2.0845225941051138 2.149658203125 2.0845225941051138 L 2.0704234730113638 2.083523837002841 Q 2.015158913352273 2.083523837002841 1.993186257102273 2.0856878107244317 Q 1.971213600852273 2.0878517844460225 1.9643887606534092 2.08319091796875 Q 1.9575639204545456 2.078530051491477 1.9575639204545456 2.0665449662642046 Q 1.9575639204545456 2.0012928355823862 2.004172585227273 1.9273848100142046 Q 2.0241477272727275 1.8957575017755681 2.0472856001420454 1.8659612482244319 Q 2.0704234730113638 1.8361649946732954 2.0903986150568183 1.8068681196732954 Q 2.1370072798295454 1.73895263671875 2.1370072798295454 1.6886818625710227 Z M 2.378373579545455 2.0928455699573862 Q 2.2851562500000004 2.0928455699573862 2.265181107954546 1.9227239435369319 Q 2.2588556463068183 1.8687910600142046 2.2588556463068183 1.8042047674005681 Q 2.2588556463068183 1.7396184747869319 2.266512784090909 1.6915116743607954 Q 2.2741699218750004 1.6434048739346592 2.289817116477273 1.6104458895596592 Q 2.3221102627840913 1.5421974875710227 2.3843661221590913 1.5421974875710227 Q 2.448286576704546 1.5421974875710227 2.477583451704546 1.6077825372869319 Q 2.5052157315340913 1.6703713156960227 2.505881569602273 1.8008755770596592 Q 2.506880326704546 2.0116133256392046 2.4356356534090913 2.072537508877841 Q 2.411332563920455 2.0928455699573862 2.378373579545455 2.0928455699573862 Z M 2.3780406605113638 2.0628828568892046 Q 2.4742542613636367 2.0628828568892046 2.4742542613636367 1.8032060102982954 Q 2.4742542613636367 1.6570545543323862 2.4426269531250004 1.6057850230823862 Q 2.421320134943182 1.5714943625710227 2.3843661221590913 1.5714943625710227 Q 2.290815873579546 1.5714943625710227 2.290815873579546 1.8065352006392046 Q 2.290815873579546 2.0079512162642046 2.341086647727273 2.049233176491477 Q 2.3573996803977275 2.0628828568892046 2.3780406605113638 2.0628828568892046 Z M 2.7715509588068183 1.6886818625710227 Q 2.7715509588068183 1.5764881480823862 2.7039683948863638 1.5764881480823862 Q 2.667014382102273 1.5764881480823862 2.649203213778409 1.6087812943892046 Q 2.6313920454545454 1.6410744406960227 2.634055397727273 1.7036632191051138 Q 2.634055397727273 1.7179787375710227 2.6220703125 1.7223066850142046 Q 2.618741122159091 1.7233054421164773 2.613580877130682 1.7233054421164773 Q 2.608420632102273 1.7233054421164773 2.602927468039773 1.7178122780539773 Q 2.597434303977273 1.7123191139914773 2.597101384943182 1.7013327858664773 Q 2.5947709517045454 1.6247614080255681 2.629061612215909 1.5831465287642046 Q 2.659024325284091 1.5461925159801138 2.7086292613636362 1.5461925159801138 Q 2.7838689630681817 1.5461925159801138 2.8001819957386362 1.62542724609375 Q 2.805508700284091 1.65106201171875 2.805508700284091 1.6795265891335227 Q 2.805508700284091 1.7079911665482954 2.7980180220170454 1.7307961203835227 Q 2.79052734375 1.75360107421875 2.7782093394886362 1.7759066495028408 Q 2.765891335227273 1.7982122247869319 2.750244140625 1.8201848810369319 Q 2.7345969460227275 1.8421575372869319 2.7181174538352275 1.8639637340198862 Q 2.7016379616477275 1.8857699307528408 2.6859907670454546 1.9077425870028408 Q 2.670343572443182 1.9297152432528408 2.6580255681818183 1.9520208185369319 Q 2.6307262073863638 2.0012928355823862 2.6307262073863638 2.0435735529119317 Q 2.6307262073863638 2.0522294477982954 2.633722478693182 2.05389404296875 Q 2.63671875 2.0555586381392046 2.6493696732954546 2.0550592595880683 Q 2.662020596590909 2.0545598810369317 2.6799982244318183 2.0532282049005683 Q 2.6979758522727275 2.0518965287642046 2.7162863991477275 2.050564852627841 Q 2.7595658735795454 2.0479015003551138 2.776211825284091 2.049233176491477 Q 2.802512428977273 2.0508977716619317 2.802512428977273 2.0678766424005683 Q 2.802512428977273 2.0742021040482954 2.7978515625 2.0793623490767046 Q 2.7931906960227275 2.0845225941051138 2.784201882102273 2.0845225941051138 L 2.7049671519886362 2.083523837002841 Q 2.6497025923295454 2.083523837002841 2.6277299360795454 2.0856878107244317 Q 2.6057572798295454 2.0878517844460225 2.598932439630682 2.08319091796875 Q 2.5921075994318183 2.078530051491477 2.5921075994318183 2.0665449662642046 Q 2.5921075994318183 2.0012928355823862 2.6387162642045454 1.9273848100142046 Q 2.65869140625 1.8957575017755681 2.6818292791193183 1.8659612482244319 Q 2.7049671519886362 1.8361649946732954 2.724942294034091 1.8068681196732954 Q 2.7715509588068183 1.73895263671875 2.7715509588068183 1.6886818625710227 Z M 3.0628551136363638 1.6886818625710227 Q 3.0628551136363638 1.5764881480823862 2.995272549715909 1.5764881480823862 Q 2.9583185369318183 1.5764881480823862 2.9405073686079546 1.6087812943892046 Q 2.922696200284091 1.6410744406960227 2.9253595525568183 1.7036632191051138 Q 2.9253595525568183 1.7179787375710227 2.9133744673295454 1.7223066850142046 Q 2.9100452769886362 1.7233054421164773 2.9048850319602275 1.7233054421164773 Q 2.8997247869318183 1.7233054421164773 2.8942316228693183 1.7178122780539773 Q 2.8887384588068183 1.7123191139914773 2.8884055397727275 1.7013327858664773 Q 2.886075106534091 1.6247614080255681 2.9203657670454546 1.5831465287642046 Q 2.9503284801136362 1.5461925159801138 2.9999334161931817 1.5461925159801138 Q 3.0751731178977275 1.5461925159801138 3.0914861505681817 1.62542724609375 Q 3.0968128551136362 1.65106201171875 3.0968128551136362 1.6795265891335227 Q 3.0968128551136362 1.7079911665482954 3.089322176846591 1.7307961203835227 Q 3.0818314985795454 1.75360107421875 3.0695134943181817 1.7759066495028408 Q 3.0571954900568183 1.7982122247869319 3.0415482954545454 1.8201848810369319 Q 3.025901100852273 1.8421575372869319 3.009421608664773 1.8639637340198862 Q 2.992942116477273 1.8857699307528408 2.977294921875 1.9077425870028408 Q 2.9616477272727275 1.9297152432528408 2.9493297230113638 1.9520208185369319 Q 2.922030362215909 2.0012928355823862 2.922030362215909 2.0435735529119317 Q 2.922030362215909 2.0522294477982954 2.9250266335227275 2.05389404296875 Q 2.9280229048295454 2.0555586381392046 2.940673828125 2.0550592595880683 Q 2.9533247514204546 2.0545598810369317 2.9713023792613638 2.0532282049005683 Q 2.989280007102273 2.0518965287642046 3.007590553977273 2.050564852627841 Q 3.050870028409091 2.0479015003551138 3.0675159801136362 2.049233176491477 Q 3.0938165838068183 2.0508977716619317 3.0938165838068183 2.0678766424005683 Q 3.0938165838068183 2.0742021040482954 3.0891557173295454 2.0793623490767046 Q 3.084494850852273 2.0845225941051138 3.0755060369318183 2.0845225941051138 L 2.9962713068181817 2.083523837002841 Q 2.941006747159091 2.083523837002841 2.919034090909091 2.0856878107244317 Q 2.897061434659091 2.0878517844460225 2.8902365944602275 2.08319091796875 Q 2.8834117542613638 2.078530051491477 2.8834117542613638 2.0665449662642046 Q 2.8834117542613638 2.0012928355823862 2.930020419034091 1.9273848100142046 Q 2.9499955610795454 1.8957575017755681 2.9731334339488638 1.8659612482244319 Q 2.9962713068181817 1.8361649946732954 3.0162464488636362 1.8068681196732954 Q 3.0628551136363638 1.73895263671875 3.0628551136363638 1.6886818625710227 Z" fill="#595959" fill-rule="nonzero"></path></g><g clip-path="url(&quot;#SvgjsClipPath1023&quot;)"><path d=" M 5.592980046204588 -10.174149643493674 C 5.48137713198321 -10.188100007771343 5.368588436798224 -10.19810939414058 5.254613960649639 -10.204177802601361 C 5.163936592844763 -10.209269685562713 5.072701210468787 -10.21181562704339 4.980907813521702 -10.21181562704339 C 4.957680456999374 -10.21181562704339 4.934453100477047 -10.21181562704339 4.911539627150969 -10.210978605186726 C 4.7978092823772425 -10.209723072401736 4.684811331728093 -10.204596313529695 4.573173541596019 -10.19528444537435 C 1.989155671340296 -9.982743914942239 0.0002045290532900306 -7.823651878994642 7.078295728777127e-15 -5.230907813521702 C -0.001463770397009581 -4.33541432787532 0.23973953038141857 -3.4562570413473788 0.6979716007226173 -2.6868845079346775 C 0.7584464298663806 -2.5849770968861927 0.8227924850971475 -2.48516224047944 0.890905138682886 -2.3882769605710026 C 1.7235033785574123 -1.1884460255858134 3.0413720877889205 -0.41519384877927124 4.494911997998268 -0.27364586745066966 L 4.494911997998268 -0.27364586745066966 C 4.533833514332979 -0.26946075816735693 4.573173541596012 -0.26600804300864134 4.612513568859051 -0.2631830942424038 L 4.613350590715714 -0.2631830942424038 C 4.734718759931469 -0.2542897370153927 4.8566100678076305 -0.2496861168037512 4.980489302593367 -0.2496861168037512 C 5.141337002714935 -0.2496861168037512 5.299987520462764 -0.2572890653350921 5.4564408558368696 -0.27249496239775084 C 5.51482313033893 -0.27762172126979046 5.57226375525225 -0.28389938519474356 5.629809007897648 -0.2919557205650989 C 6.326709355007587 -0.3824556569230886 6.996293838592204 -0.6205483709614086 7.593880794551202 -0.990345832216109 L 7.593880794551202 -0.9903458322161018 L 7.594717816407857 -0.9903458322161018 C 7.641695668112925 -1.019118458538797 7.688150381157572 -1.048728106718162 7.734291211005978 -1.0800117986108457 L 7.734291211005978 -1.0800117986108457 C 8.287745077084148 -1.4474552078853282 8.762206505821332 -1.9217743479949156 9.129815901522983 -2.475117978199509 C 9.199218963804404 -2.578769184782624 9.264367164981135 -2.6850709605784937 9.325260505053176 -2.7940233055871175 C 9.743199533410845 -3.537697584071151 9.962029643391755 -4.376690495855647 9.960560094258398 -5.22975690846879 C 9.961121905727657 -7.743940984170735 8.088013601827338 -9.86442486490686 5.592980046205453 -10.174149643493577 Z M 5.592980046204588 -9.833167864636659 C 7.871463872365294 -9.526881045495859 9.5840816735317 -7.601442223495928 9.622612519631776 -5.302787065462401 L 7.755007501958324 -5.302787065462401 L 7.755007501958324 -6.590440564202305 C 7.755007501958331 -6.635310696948122 7.737182911127886 -6.678343065874725 7.70545493599058 -6.710071041012032 C 7.673726960853273 -6.741799016149338 7.630694591926662 -6.759623606979783 7.585824459180846 -6.759623606979783 L 5.592980046204588 -6.759623606979783 Z M 4.911539627150969 -9.87250789189969 C 4.934453100477047 -9.873344913756346 4.957680456999374 -9.873344913756346 4.980907813521702 -9.873344913756346 C 5.072770962290177 -9.873344913756346 5.164006344666154 -9.870694344543592 5.254613960649639 -9.865393206118076 L 5.254613960649639 -6.759623606979769 L 4.911539627150969 -6.759623606979769 Z M 7.416641416403374 -6.421257521424826 L 7.416641416403374 -6.125161039631218 L 2.6788884522415177 -6.125161039631218 L 2.6788884522415177 -6.421257521424826 Z M 7.416641416403374 -5.786690326344182 L 7.416641416403374 -5.302368554534073 L 7.191482536961738 -5.302368554534073 L 7.191482536961738 -5.786690326344182 Z M 6.8526979404784525 -5.786690326344182 L 6.8526979404784525 -5.302368554534073 L 6.626492783715983 -5.302368554534073 L 6.626492783715983 -5.786690326344182 Z M 6.288440581357282 -5.786690326344182 L 6.288440581357282 -5.302368554534073 L 6.062967818719396 -5.302368554534073 L 6.062967818719396 -5.786690326344182 Z M 5.724601733164438 -5.786690326344182 L 5.724601733164438 -5.302368554534073 L 5.499128970526553 -5.302368554534073 L 5.499128970526553 -5.786690326344182 Z M 5.160762884971596 -5.786690326344182 L 5.160762884971596 -5.302368554534073 L 4.934871611405382 -5.302368554534073 L 4.934871611405382 -5.786690326344182 Z M 4.596400898118339 -5.786690326344182 L 4.596400898118339 -5.302368554534073 L 4.37092813548046 -5.302368554534073 L 4.37092813548046 -5.786690326344182 Z M 4.032562049925496 -5.302368554534073 L 3.807089287287617 -5.302368554534073 L 3.807089287287617 -5.786690326344182 L 4.032562049925496 -5.786690326344182 Z M 3.468723201732653 -5.786690326344182 L 3.468723201732653 -5.302368554534073 L 3.242831928166439 -5.302368554534073 L 3.242831928166439 -5.786690326344182 Z M 2.904361214879404 -5.786690326344182 L 2.904361214879404 -5.302368554534073 L 2.6788884522415177 -5.302368554534073 L 2.6788884522415177 -5.786690326344182 Z M 4.573173541596012 -9.855244316106074 L 4.573173541596012 -6.759623606979783 L 2.509705409464039 -6.759623606979783 C 2.4648352767182153 -6.759623606979783 2.4218029077916157 -6.741799016149338 2.3900749326543056 -6.710071041012025 C 2.358346957516999 -6.678343065874718 2.3405223666865536 -6.635310696948122 2.3405223666865536 -6.590440564202305 L 2.3405223666865536 -5.30236855453408 L 0.3393077351436982 -5.30236855453408 C 0.3784802088639532 -7.679467531751495 2.2051735212392725 -9.643797079718006 4.573173541595991 -9.855244316106074 Z M 0.3462131654611494 -4.964002468979123 L 2.1960314686805673 -4.964002468979123 L 0.9077502035481684 -3.005894463054272 C 0.5765994448977169 -3.608447176304349 0.38464996556754233 -4.277535368828897 0.34600390999698194 -4.964002468979117 Z M 1.1013115079008826 -2.6843734423646044 L 2.6013593027683437 -4.964002468979123 L 2.814904503948824 -4.964002468979123 L 1.5580115584411973 -2.097725748577769 C 1.3901599352285448 -2.2806524905961547 1.2373598798479164 -2.476839784051423 1.1011022524367118 -2.6843734423646044 Z M 1.8145587575076028 -1.8391906226017962 L 3.185182047788956 -4.964002468979123 L 3.414421408781813 -4.964002468979123 L 2.3962889478865583 -1.3768406745290243 C 2.190170781166501 -1.5150290196956089 1.9955575037716122 -1.6696489536776369 1.8143495020434282 -1.8391906226018104 Z M 7.678210746609734 -1.4546837071984395 L 7.1537119256799375 -3.3015724339195387 C 7.157438516243777 -3.083733041041371 7.129238494882698 -2.8665223765077075 7.070009740013904 -2.656856348826892 L 7.070009740013904 -2.656856348826892 C 7.0565127625752515 -2.609564613925582 7.041760252351615 -2.562691389952607 7.025229070682568 -2.5168644433004435 L 7.3818003816198905 -1.259239103668241 C 7.1875512426871415 -1.1408825395090911 6.9847025413947765 -1.037254832279901 6.7749595355411145 -0.9492271335076499 L 6.774959535541122 -0.9492271335076499 L 6.62565576185932 -1.8320759368201802 C 6.557230570917015 -1.754095734135758 6.483163672567486 -1.6812527930299694 6.4040542253084975 -1.614136370892231 C 6.379466708269088 -1.5932108244757277 6.354983818961776 -1.5735408108442073 6.329559280065718 -1.5536615417485233 L 6.4527061207268765 -0.8278589642919023 C 6.203683896505646 -0.7443009493851314 5.947938761055539 -0.6823074324289102 5.688295910131793 -0.642563250773712 L 5.663917648556561 -1.1983457635961994 C 5.581598718710663 -1.1708190742188531 5.497756514299425 -1.1480768762723024 5.412811091558452 -1.1302331100104634 C 5.384875487092413 -1.1243739570138391 5.3569398826263726 -1.1192471981417924 5.3291089058924115 -1.114643577930165 L 5.35066221870142 -0.60322322351068 C 5.228805786735947 -0.5934579685163097 5.105554318342703 -0.588505589197732 4.980907813521702 -0.5883660855549575 C 4.901809248067295 -0.5883660855549575 4.822710682612888 -0.5904586401966103 4.744449139015144 -0.5943298662836671 L 4.765374685431654 -1.0860802070716336 L 4.765374685431654 -1.0906838272832609 C 4.761189576148348 -1.0906838272832609 4.756481328204642 -1.0906838272832609 4.752296218921336 -1.0915208491399238 L 4.749785153351355 -1.0915208491399238 L 4.685020587192256 -1.0937180315136548 L 4.682509521622276 -1.099158673581952 C 4.625382779905205 -1.1067964980239733 4.569093060044791 -1.1169453880359814 4.513326478844797 -1.130546993206714 C 4.484972363450423 -1.1373477957920795 4.4570367589843825 -1.144567109305779 4.429624293178756 -1.1525188169440508 L 4.428787271322101 -1.130546993206714 L 4.40786172490559 -0.6242533976592757 C 4.146923352401184 -0.6564005988304178 3.8892226618906567 -0.7108670854420005 3.637592361313882 -0.787054148779708 L 3.751741217015944 -1.4617983929800555 L 3.7622039902242026 -1.525202798622077 C 3.7043106943356454 -1.5782097054721973 3.6501910513788585 -1.6351961512212672 3.6002402609604176 -1.6957460019166248 C 3.5811980137213895 -1.7189733584389533 3.5625742774106963 -1.7430377368179357 3.5447875629566727 -1.7676252538573394 C 3.5211416955060177 -1.800164478535006 3.498332849912018 -1.8340638637297548 3.477616558959679 -1.8682771321207472 L 3.460248355433976 -1.7676252538573394 L 3.3130371363938345 -0.8992150775722028 C 3.099970467379933 -0.981231766659576 2.893375538574665 -1.0791606308300068 2.6950011229822373 -1.1921727274033316 L 3.139564356600978 -2.7581359934827994 L 3.139564356600978 -2.7627396136944338 L 3.3621075427405414 -3.543471750494393 L 3.3621075427405414 -3.543471750494393 L 3.76523819445459 -4.963583958050789 L 4.001278358032812 -4.963583958050789 L 3.764819683526262 -3.5684777784621176 L 3.764819683526262 -3.5668037347487918 C 3.8778465331406897 -3.5614873596206618 3.990033229893333 -3.54462429676503 4.099628426190405 -3.516477795617088 L 4.102976513617048 -3.535101531927781 L 4.344561946995646 -4.963583958050789 L 4.589495467800888 -4.963583958050789 L 4.523056857928472 -3.3908198893859547 C 4.550992462394511 -3.377322911947302 4.578823439128473 -3.3624657739915804 4.605922021737849 -3.347294752839616 C 4.621616181550227 -3.338401395612604 4.637310341362611 -3.329508038385579 4.652899873442911 -3.319777659301911 C 4.673825419859421 -3.3079547255765833 4.693913944419268 -3.2947716313341804 4.713793213514952 -3.281274653895535 C 4.725616147240279 -3.301572433919546 4.73796221962602 -3.3214517030152297 4.750622175208011 -3.341330972110913 C 4.786308670911917 -3.397643296185656 4.825007423800309 -3.4519891982563546 4.866549702355469 -3.504131723231361 L 4.871153322567096 -3.6103288712951382 L 4.871153322567096 -3.6103288712951382 L 4.9278615533558385 -4.963165447122461 L 5.167249804360705 -4.963165447122461 L 5.211298079567457 -3.916155732172421 L 5.2138091451374375 -3.85337909292289 C 5.240489216818487 -3.8749324057319 5.267901682624114 -3.8952301857559037 5.295837287090153 -3.916155732172421 C 5.3747594731696555 -3.973881063866383 5.457422312643862 -4.026309926112181 5.543281873465376 -4.073097330296244 L 5.541607829752051 -4.116308583646334 L 5.506139028576068 -4.963165447122461 L 5.75107254938131 -4.963165447122461 L 5.8720222076687305 -4.2486626647307535 L 5.876207316952036 -4.222401103978039 L 5.876207316952036 -4.222401103978039 C 5.9028873886330855 -4.231712972133386 5.929567460314135 -4.24018781843207 5.956142904263106 -4.2486626647307535 C 6.037452456980315 -4.274204303000875 6.120267188030554 -4.2946808567542325 6.204110629298742 -4.309974515731123 L 6.201494935996676 -4.323994631830189 L 6.093623744219573 -4.963165447122461 L 6.329663907797796 -4.963165447122461 L 6.50439222037565 -4.3468034774241815 C 6.518830847403037 -4.3468034774241815 6.533583357626673 -4.3468034774241815 6.548021984654067 -4.345966455567519 L 6.552625604865694 -4.345966455567519 C 6.564448538591022 -4.3468034774241815 6.576689983244684 -4.3468034774241815 6.58861754470209 -4.3468034774241815 L 6.58861754470209 -4.3468034774241815 C 6.615611499579389 -4.3468034774241815 6.642675206278071 -4.3463849664958465 6.6698086647981505 -4.345547944639192 L 6.858138582546736 -4.337910120197162 L 6.680271438006402 -4.963165447122461 L 6.909929309927594 -4.963165447122461 L 8.240375551089253 -1.9289612167286254 C 8.065958450021162 -1.7560226785096358 7.877892060254081 -1.5974171073814123 7.678001491145563 -1.4546837071984395 Z M 8.494307056853598 -2.197540604984521 L 7.281567014284803 -4.963583958050796 L 7.494902960001118 -4.963583958050796 L 8.92715198447909 -2.786803992073417 C 8.798173230905887 -2.5795362218975004 8.653206847137056 -2.382656200697939 8.49357466272902 -2.197959115912843 Z M 9.114854135835177 -3.1171137422580175 L 7.900440049553062 -4.963583958050796 L 9.616334855706816 -4.963583958050796 C 9.579951355729444 -4.319870570226515 9.408858404784882 -3.690961398046152 9.1141217417106 -3.1175322531863454 Z" fill="#595959" transform="matrix(1,0,0,1,0,0)" fill-rule="nonzero"></path><path d=" M 3.8282240891682844 -8.694504256382308 C 3.8828703797504978 -8.694476481896324 3.9352864782558536 -8.716172336508539 3.9739272458842216 -8.7548131041369 C 4.012568013512582 -8.79345387176527 4.034263868124798 -8.845869970270623 4.034236093638807 -8.900516260852845 C 4.0342360919433995 -9.014293552273804 3.942001374449607 -9.106528267018783 3.8282240860984627 -9.106528265323368 C 3.7144707211952506 -9.106470537137659 3.6222698128834634 -9.014269628825872 3.6222120846977544 -8.900516260852838 C 3.622212086393169 -8.786738969431878 3.7144468038869545 -8.6945042546869 3.8282240922381057 -8.694504256382315 Z" fill="#595959" transform="matrix(1,0,0,1,0,0)" fill-rule="nonzero"></path><path d=" M 1.5173113706610848 -5.955977996853741 C 1.5173113706610848 -5.842200698167132 1.4250766648771591 -5.749965992383207 1.3112993661905514 -5.749965992383207 C 1.1975220675039435 -5.749965992383207 1.105287361720018 -5.842200698167132 1.105287361720018 -5.955977996853741 C 1.105287361720018 -6.0697552955403475 1.1975220675039435 -6.161990001324273 1.3112993661905514 -6.161990001324273 C 1.4250766648771591 -6.161990001324273 1.5173113706610848 -6.0697552955403475 1.5173113706610848 -5.955977996853741 Z" fill="#595959" transform="matrix(1,0,0,1,0,0)" fill-rule="nonzero"></path><path d=" M 2.1573192078100227 -7.969852583978584 C 2.1026910433760015 -7.969852591030973 2.050301834195565 -7.948144478625579 2.0116837014440336 -7.909506722839119 C 1.9730655686924983 -7.870868967052643 1.951384072857931 -7.818468736889676 1.9514118310715642 -7.763840579508047 C 1.9513538746937824 -7.650012336703373 2.043491184388429 -7.557640938315349 2.157319207809977 -7.55741006410919 C 2.2711881101214564 -7.55758327815524 2.363389086942433 -7.649971560160207 2.3633312122805634 -7.763840579508047 C 2.3633589867665368 -7.81848687009029 2.3416631321543173 -7.870902968595652 2.3030223645259493 -7.9095437362240055 C 2.264381596897585 -7.948184503852359 2.211965498392219 -7.969880358464568 2.1573192078100054 -7.969852583978584 Z" fill="#595959" transform="matrix(1,0,0,1,0,0)" fill-rule="nonzero"></path><path d=" M 6.267305779476601 -9.106528265323375 C 6.153528491125456 -9.106528265323368 6.061293775006077 -9.014293549203982 6.061293775006077 -8.900516260852838 C 6.061266000520094 -8.84586997027061 6.08296185513231 -8.79345387176524 6.121602622760685 -8.754813104136893 C 6.160243390389046 -8.716172336508533 6.212659488894408 -8.694476481896324 6.267305779476621 -8.694504256382315 C 6.322016036279794 -8.694393112919126 6.374523576286472 -8.71604881139958 6.413248885038458 -8.754695609642178 C 6.451974193790437 -8.793342407884783 6.473736407768889 -8.845805891156349 6.473736294875465 -8.900516260852845 C 6.473708590886695 -8.955218086277155 6.451937457486589 -9.007665388661934 6.413218191609305 -9.046306156280993 C 6.374498925732014 -9.08494692390004 6.322007548477501 -9.106611574621677 6.267305779476621 -9.106528265323375 Z" fill="#595959" transform="matrix(1,0,0,1,0,0)" fill-rule="nonzero"></path><path d=" M 8.784230502454333 -5.749965992383209 C 8.838914156646439 -5.749882689569723 8.891389678268684 -5.771532985163355 8.930105932308981 -5.810151124013493 C 8.968822186349284 -5.848769262863617 8.990605564838571 -5.901189679596139 8.990661017853197 -5.955873369121668 C 8.990633313864414 -6.010575194545971 8.968862180464308 -6.063022496930756 8.930142914587023 -6.101663264549809 C 8.89142364870974 -6.140304032168862 8.838932271455226 -6.1619686828904925 8.78423050245434 -6.161885373592191 C 8.729584211872112 -6.161913148078175 8.67716811336675 -6.140217293465959 8.638527345738389 -6.101576525837598 C 8.599886578110022 -6.06293575820923 8.578190723497812 -6.010519659703874 8.578218497983796 -5.955873369121654 C 8.578218490934153 -5.901245204677294 8.599926603342174 -5.848855995497951 8.638564359130582 -5.810237862748355 C 8.677202114918996 -5.7716197299987595 8.729602345083054 -5.749938234166829 8.784230502464682 -5.749965992383216 Z" fill="#595959" transform="matrix(1,0,0,1,0,0)" fill-rule="nonzero"></path><path d=" M 7.938210660834869 -7.557200808645033 C 8.052195165981553 -7.557258536944376 8.144583447934389 -7.649646818897212 8.14464117623374 -7.763631324043891 C 8.144613472244956 -7.818333149468208 8.122842338844851 -7.870780451852986 8.084123072967566 -7.909421219472046 C 8.045403807090283 -7.9480619870911 7.992912429835769 -7.96972663781273 7.9382106608348835 -7.969643328514428 C 7.883564370252655 -7.969671103000412 7.831148271747293 -7.947975248388195 7.792507504118932 -7.909334480759835 C 7.753866736490564 -7.870693713131466 7.732170881878355 -7.818277614626111 7.732198656364339 -7.763631324043891 C 7.732140781702473 -7.649762304696029 7.824341758523457 -7.557374022691069 7.938210660834891 -7.5572008086450255 Z" fill="#595959" transform="matrix(1,0,0,1,0,0)" fill-rule="nonzero"></path><path d=" M 6.602742288533249 -4.003729143925512 C 6.5985571792499425 -4.003729143925512 6.59384893130623 -4.003729143925512 6.589245311094596 -4.003729143925512 C 6.507276538463885 -4.003774478955702 6.4254140313935135 -3.9978297432863483 6.344311790289354 -3.985942429471474 C 6.316794696751649 -3.9821758311165025 6.289277603213931 -3.977990721833204 6.261760509676225 -3.9728639629611564 C 6.177832867591288 -3.957052602456473 6.095141133299826 -3.9352695367213437 6.014315923301003 -3.90768088587373 C 5.9877404793520315 -3.898892156378797 5.961060407670989 -3.88958028822345 5.934798846918268 -3.879012887283113 C 5.833311315047767 -3.8400908072580933 5.7354832777245 -3.7922271970143866 5.6424689634796446 -3.7359867775262705 C 5.614568234924293 -3.719455595857231 5.587086017297276 -3.702017640510138 5.560022310598587 -3.683672911484998 C 5.472655640963292 -3.6253681617087397 5.390432816185709 -3.55970191254623 5.314251767936683 -3.487391286098143 L 5.314251767936683 -3.487391286098143 C 5.28631616347065 -3.4607112144170937 5.259322208593359 -3.4336126318077165 5.23306064784063 -3.405258516413342 C 5.161525755391235 -3.3284790429825 5.0970909406641045 -3.2453791433371393 5.040545620808746 -3.1569769081814707 C 5.020247840784734 -3.1255885885566945 5.001205593545713 -3.0927354806827854 4.983523506823761 -3.0596731173446914 C 4.963644237728078 -3.023785805240381 4.945020501417384 -2.986956843547322 4.928070808820016 -2.9497093709259428 C 4.919177451592997 -2.9315041455435775 4.911121116222641 -2.9128804092328844 4.903483291780613 -2.8938381619938633 C 4.87767489450965 -2.832379793453822 4.855387970647248 -2.769501324876514 4.8367307987119466 -2.7055082442452782 C 4.835475265926964 -2.700904624033644 4.83369659448156 -2.696196376089932 4.832441061696569 -2.69117424494997 C 4.750041320104575 -2.4020326251004773 4.737277299297189 -2.097488825274823 4.795193589075183 -1.8024662886408152 C 4.812878993499236 -1.7126080284603145 4.837362521424325 -1.6242224926507731 4.868433001532965 -1.5380720096682179 C 4.881511468043283 -1.5012430479751728 4.896368605999005 -1.4648325972104423 4.911958138079304 -1.4289452851061242 C 4.919177451592997 -1.4289452851061242 4.9268152760350254 -1.4289452851061242 4.934034589548719 -1.4289452851061242 L 4.938219698832025 -1.4289452851061242 C 4.950042632557353 -1.4289452851061242 4.961865566282681 -1.4289452851061242 4.973793127740087 -1.4289452851061242 C 5.053438106708522 -1.4289873979203804 5.132991817019858 -1.4343352527875357 5.2119258459599624 -1.4449533281147584 C 5.246139114350955 -1.4496615760584781 5.280038499545705 -1.4554161013230171 5.313833257008362 -1.4614845097838067 C 5.342187372402736 -1.4669251518520952 5.370122976868776 -1.4733074435091336 5.3980585813348165 -1.480108246094499 C 5.398895603191471 -1.480108246094499 5.399314114119806 -1.480108246094499 5.399732625048134 -1.480108246094499 L 5.399732625048134 -1.480108246094499 C 5.484336129306608 -1.5004366220465961 5.567434035246902 -1.5265860682575116 5.648432744208355 -1.558369789692243 C 5.676786859602722 -1.5693557015609088 5.704303953140427 -1.5811786352862356 5.732134929874388 -1.5934200799398912 C 5.927811076302272 -1.6806189416354425 6.106952258012282 -1.8009667025155167 6.2616558819441615 -1.949154369020551 C 6.28624339898355 -1.972486353274956 6.310307777362533 -1.9969692425822672 6.333639761616946 -2.0223937814783266 L 6.333639761616946 -2.0223937814783266 C 6.382725958387178 -2.0748063125338962 6.428369253015964 -2.130340152629717 6.470283579716743 -2.1886472477574888 C 6.496440512737379 -2.2253367058077735 6.521376788883727 -2.262967813446793 6.5450924081557655 -2.30154057067456 C 6.567901253749758 -2.3396250651526023 6.589977705219173 -2.3789650924156485 6.609856974314864 -2.4187236306070163 C 6.742837956715329 -2.6835676942559186 6.811517351132155 -2.976028643654085 6.810323708985019 -3.2723812966685086 L 6.810323708985019 -3.2723812966685086 C 6.810236955535356 -3.523879974035003 6.757972616463114 -3.7726254514733393 6.656834826019776 -4.002892122069203 C 6.639152739297972 -4.003729143925512 6.620947513915607 -4.004147654853847 6.602742288533249 -4.003729143925512 Z" fill="#aabda0" transform="matrix(1,0,0,1,0,0)" fill-rule="nonzero"></path><path d=" M 3.959845776128127 -3.1970493295690803 C 3.946244170957403 -3.200083533799474 3.93274719351875 -3.202594599369456 3.9191455883480186 -3.2046871540111086 C 3.9055439831772873 -3.2067797086527543 3.8934071662557175 -3.209290774222736 3.880224072013307 -3.211069445668139 C 3.8775173761174604 -3.2119254829340838 3.874692588329817 -3.2123492011022288 3.8718538534467086 -3.212324978453137 C 3.866308583646333 -3.2131620003097856 3.860763313845958 -3.2139990221664547 3.855322671777661 -3.2144175330947755 C 3.8535124105550946 -3.2149080194350868 3.8516517839725952 -3.2151888687305528 3.849777401977286 -3.2152545549514384 C 3.8493771217041557 -3.215429251584844 3.848922149465426 -3.215429251584844 3.8485218691922958 -3.2152545549514384 C 3.8464293145506496 -3.2152545549514384 3.8447552708373243 -3.2152545549514384 3.842662716195678 -3.2152545549514384 C 3.8419396958368925 -3.215420269054606 3.841188554180718 -3.215420269054606 3.8404655338219396 -3.2152545549514384 L 3.8273870673116215 -3.216510087736429 L 3.8273870673116215 -3.216510087736429 C 3.8223649361716596 -3.216510087736429 3.81692429410337 -3.217765620521419 3.812111418427572 -3.218184131449747 C 3.8033226889326386 -3.2191257810384952 3.79442933170562 -3.219962802895151 3.785954485406936 -3.220381313823486 C 3.7843921708580663 -3.2205924545485187 3.7828085520120935 -3.2205924545485187 3.7812462374632236 -3.220381313823486 C 3.7794386245993374 -3.2205887985956654 3.777613208258806 -3.2205887985956654 3.7758055953949268 -3.220381313823486 C 3.773683239137145 -3.220589113816559 3.771545659995678 -3.220589113816559 3.769423303737889 -3.220381313823486 C 3.7659389604466305 -3.220594169850772 3.7624448738208955 -3.220594169850772 3.758960530529637 -3.220381313823486 C 3.7564494649596494 -3.220381313823486 3.7535198884613403 -3.220381313823486 3.7504856842309464 -3.221218335680142 L 3.747137596804303 -3.221218335680142 C 3.743199587966906 -3.2214346784028054 3.739252671916372 -3.2214346784028054 3.735314663078975 -3.221218335680142 L 3.7340591302939847 -3.221218335680142 C 3.725165773066973 -3.221218335680142 3.716272415839954 -3.222055357536804 3.7073790586129425 -3.222055357536804 L 3.6908478769438955 -3.222055357536804 C 3.648311043434198 -3.2221349041155625 3.6058022940708034 -3.2198645107641912 3.5635159269994374 -3.2152545549514384 C 3.459276432708387 -2.927239858144696 3.456287225455397 -2.612302886577316 3.5550410807007533 -2.3223614893589923 C 3.6048605827389024 -2.1734707536559554 3.6812918838908115 -2.034859256668975 3.7806184710707247 -1.9132670569162329 C 3.7933830543848006 -1.8975728971038563 3.8064615208951182 -1.882401875951885 3.819958498333764 -1.8675447379961625 C 3.9872051306880385 -1.684875787203767 4.201662423650657 -1.5519578870744795 4.439668555458687 -1.4834563335211364 L 4.4292057822504285 -1.5148446531459054 C 4.413197739241794 -1.5665307527946855 4.398759112214408 -1.6185307356397 4.387354689417408 -1.6717862512697206 C 4.380553886832042 -1.7005588775924156 4.37427622290709 -1.7293315039151178 4.36914946403505 -1.7581041302378217 C 4.366219887536734 -1.7716011076764673 4.363708821966752 -1.7856212237755251 4.3615116395930285 -1.7991182012141795 C 4.356908019381394 -1.826635294751883 4.352618282366009 -1.8541523882895952 4.349270194939366 -1.8816694818273074 C 4.347177640297713 -1.895166459265953 4.345503596584394 -1.9086634367046003 4.344248063799404 -1.9226835528036652 C 4.3407953486406745 -1.9502006463413704 4.338284283070694 -1.9780316230753314 4.336610239357376 -2.0055487166130366 C 4.331064969557008 -2.0736613701987796 4.329390925843682 -2.1415647683203503 4.330646458628673 -2.209886677370248 C 4.330646458628673 -2.217105990883942 4.330646458628673 -2.2242206766655572 4.330646458628673 -2.2314399901792505 L 4.330646458628673 -2.2399148364779418 C 4.330646458628673 -2.247971171848298 4.331483480485328 -2.256446018146981 4.331483480485328 -2.2649208644456653 C 4.334517684715722 -2.3283252700876877 4.339539815855685 -2.3913111648013823 4.348014662154375 -2.454401687247156 C 4.348851684011031 -2.462039511689177 4.349688705867694 -2.4699912193274542 4.3509442386526915 -2.4776290437694755 C 4.35355993195475 -2.4979268237934944 4.356908019381394 -2.5186431147458332 4.3602561068080306 -2.538940894769852 C 4.361930150521356 -2.549403667978111 4.364127332895087 -2.5610173462392742 4.366219887536741 -2.572003258107932 C 4.3772406753161075 -2.6337336200366366 4.391191039593776 -2.6950454710370053 4.408070980369754 -2.755938811109047 C 4.410582045939735 -2.7664015843173058 4.413197739241801 -2.775818080204731 4.416545826668445 -2.78596697021674 C 4.419893914095089 -2.796115860228742 4.4220910964688205 -2.806264750240751 4.425439183895457 -2.816099757056511 C 4.428787271322101 -2.8259347638722714 4.432239986480822 -2.838908602650511 4.435901957103716 -2.8503130254475035 C 4.439563927726608 -2.8617174482444963 4.443121270617416 -2.873121871041503 4.4473063799007155 -2.884107782910168 C 4.451491489184007 -2.8950936947788257 4.455362715271065 -2.9086952999495637 4.459966335482698 -2.9209367446032193 C 4.465511605283074 -2.9370494153439317 4.471475386011776 -2.953057458352558 4.477753049936736 -2.9687516181649425 C 4.345882523555384 -3.0635300976643185 4.198226773082093 -3.134134202917023 4.041664662616679 -3.177274688205454 C 4.014775335471466 -3.1848078849154247 3.9872582419337608 -3.191190176572456 3.959845776128127 -3.1970493295690803 Z" fill="#aabda0" transform="matrix(1,0,0,1,0,0)" fill-rule="nonzero"></path></g></g><defs><clipPath id="SvgjsClipPath1023"><path d=" M 0 -10.21181562704339 h 9.96181562704339 v 9.96181562704339 h -9.96181562704339 Z"></path></clipPath></defs></svg>