<svg xmlns="http://www.w3.org/2000/svg" version="1.1" xmlns:xlink="http://www.w3.org/1999/xlink" xmlns:svgjs="http://svgjs.dev/svgjs" viewBox="0 0 6.415002387829707 5.787782679249975"><g transform="matrix(1,0,0,1,3.209166525563116,4.88836288618425)"><rect width="6.415002387829707" height="5.787782679249975" x="-3.2091665255631154" y="-4.888362886184249" fill="#f2eedf"></rect><g><path d=" M -2.5140058880711043 -0.7205248352953093 L -2.547191423359042 -0.8256563884175715 Q -2.5547167677923657 -0.849496629088419 -2.561429377924083 -0.8755273580959133 Q -2.5681419880558005 -0.9015580871034076 -2.5688175568264153 -0.928205156639929 Q -2.56949312559703 -0.9548522261764504 -2.561684069710025 -0.9811691732827077 Q -2.55387501382302 -1.007486120388965 -2.532675804329863 -1.0322279377238004 Q -2.5114765948367053 -1.056969755058636 -2.4744396484408786 -1.0791899796627586 Q -2.437402702045052 -1.1014102042668814 -2.37956080664693 -1.1196684169903561 L -2.1857122923397103 -1.180858102874434 Q -2.1278703969415886 -1.1991163155979088 -2.084593089929888 -1.2022478660929352 Q -2.041315782918187 -1.2053794165879617 -2.0099492158502135 -1.1972303668970947 Q -1.9785826487822398 -1.1890813172062278 -1.957079933352629 -1.1720168427638935 Q -1.935577217923018 -1.1549523683215595 -1.9208319989204277 -1.132746485663721 Q -1.9060867799178374 -1.1105406030058826 -1.8966384044632358 -1.085373438113688 Q -1.8871900290086343 -1.0602062732214932 -1.8796646845753102 -1.0363660325506456 L -1.846479149287373 -0.9312344794283834 L -2.5140058880711043 -0.7205248352953093 Z M -1.9573122722751388 -1.0359228544381178 Q -1.9659479134281337 -1.0632805076669594 -1.9785959052935682 -1.0788423888263647 Q -1.9912438971590027 -1.0944042699857701 -2.012295578765669 -1.0991479291015278 Q -2.0333472603723353 -1.1038915882172853 -2.06526057737225 -1.0981155696712614 Q -2.097173894372164 -1.0923395511252374 -2.1440727284787493 -1.0775355948629604 L -2.351209245782835 -1.012151454704571 Q -2.39810807988942 -0.9973474984422941 -2.4275540708456216 -0.9837550075451725 Q -2.457000061801823 -0.970162516648051 -2.471513329392651 -0.9541925240334 Q -2.486026596983478 -0.9382225314187491 -2.487448255350019 -0.9182194633806606 Q -2.4888699137165604 -0.8982163953425721 -2.4802342725635658 -0.8708587421137307 L -2.4720920966193134 -0.8450643833551088 L -1.9491700963308867 -1.010128495679496 L -1.9573122722751388 -1.0359228544381178 Z M -1.9734856420323879 -1.5203343533562124 Q -1.9721292914681365 -1.5035860694339256 -1.9731965846001074 -1.4837632912159404 Q -1.9742638777320782 -1.4639405129979552 -1.9812874261674005 -1.4440465445541322 Q -1.9883109746027225 -1.424152576110309 -2.00259896683353 -1.4051094091019398 Q -2.0168869590643372 -1.3860662420935705 -2.0415138893863287 -1.370297520216877 Q -2.0661408197083198 -1.3545287983401835 -2.1032649477943317 -1.343298844544111 Q -2.1403890758803437 -1.3320688907480385 -2.192676401296263 -1.3278344304498881 L -2.4398157128324436 -1.3078199891969122 Q -2.4925115329781744 -1.3035524471776827 -2.5305669760380862 -1.30889961166007 Q -2.5686224190979976 -1.3142467761424574 -2.595278118227936 -1.326067989388605 Q -2.6219338173578737 -1.3378892026347522 -2.638487177227862 -1.3544346997016343 Q -2.655040537097851 -1.3709801967685167 -2.664577566080449 -1.3897386028735341 Q -2.674114595063047 -1.4084970089785513 -2.6781204043326454 -1.4274977709532335 Q -2.6821262136022437 -1.4464985329279156 -2.683449482445416 -1.4628383221203902 Q -2.684706587846429 -1.4783611218532413 -2.6839981668626516 -1.4975380762554293 Q -2.6832897458788736 -1.5167150306576174 -2.6772708934075413 -1.5363220474338364 Q -2.671252040936209 -1.5559290642100554 -2.6577975790255652 -1.5751103151411718 Q -2.644343117114921 -1.5942915660722885 -2.6199369750183754 -1.6102479944533483 Q -2.59553083292183 -1.626204422834408 -2.558423245696358 -1.6376386239953864 Q -2.5213156584708853 -1.6490728251563649 -2.4678028488655306 -1.6534065306177532 L -2.22066353732935 -1.6734209718707291 Q -2.1687847066432426 -1.6776223504478 -2.1307127227227913 -1.6720709386005068 Q -2.09264073880234 -1.6665195267532136 -2.0655765449425902 -1.6547313952281453 Q -2.0385123510828405 -1.6429432637030774 -2.0213131673970546 -1.6260388944880022 Q -2.0041139837112687 -1.609134525272927 -1.9937930469901262 -1.5908507773398801 Q -1.9834721102689836 -1.5725670294068332 -1.9790908879906528 -1.5540078438830423 Q -1.974709665712322 -1.5354486583592515 -1.9734856420323879 -1.5203343533562124 Z M -2.0531421143457025 -1.513883417745749 Q -2.0543992197467156 -1.5294062174785998 -2.06065248028503 -1.5406182549042073 Q -2.066905740823344 -1.5518302923298146 -2.080589584017291 -1.5583288297567965 Q -2.094273427211238 -1.5648273671837787 -2.1160336768766146 -1.566971276760328 Q -2.137793926541991 -1.5691151863368777 -2.1704735049269406 -1.5664686486505337 L -2.4878739099907623 -1.5407641513719184 Q -2.521370477835336 -1.538051450243416 -2.543523411624735 -1.5323512556508416 Q -2.5656763454141345 -1.5266510610582675 -2.5787489070228653 -1.5179856709005912 Q -2.5918214686315957 -1.5093202807429154 -2.596597565798202 -1.4972150368481667 Q -2.601373662964808 -1.4851097929534183 -2.6001165575637946 -1.4695869932205674 Q -2.598826370441702 -1.4536556987579043 -2.592148074313036 -1.4422724956884705 Q -2.58546977818437 -1.4308892926190364 -2.571156652035166 -1.4242361304087674 Q -2.5568435258859616 -1.4175829681984984 -2.534062039396056 -1.4155217629246473 Q -2.5112805529061495 -1.413460557650796 -2.4777839850615764 -1.4161732587792983 L -2.160383579997754 -1.441877756057914 Q -2.1277040016128046 -1.4445242937442577 -2.1065723046479348 -1.4501417840341337 Q -2.085440607683065 -1.4557592743240098 -2.072997329029592 -1.4645792892649727 Q -2.060554050376119 -1.473399304205936 -2.056202988799864 -1.485675713744511 Q -2.0518519272236095 -1.4979521232830861 -2.0531421143457025 -1.513883417745749 Z M -2.6926604629665256 -1.8965396899039566 L -2.673737587585946 -1.9964009978603325 L -2.249410972748258 -1.9639640745628528 L -2.1513764058231204 -1.9508099779366963 L -2.149468857901691 -1.960876642045202 L -2.25676025083332 -1.991218459057662 L -2.6461925956005055 -2.141763627587154 L -2.63039809881107 -2.2251156064055806 L -2.2134970639753013 -2.2195304010385697 L -2.1028483867019565 -2.2069059128570796 L -2.10086453686367 -2.2173752435299257 L -2.196991555867378 -2.240596004264588 L -2.604531748996487 -2.3616195717169166 L -2.5855325716990505 -2.461883546237633 L -1.9160142379348106 -2.2353225633682627 L -1.9360816420682478 -2.129421256946783 L -2.2774294616684347 -2.135289145114553 L -2.424538709479611 -2.144811600601595 L -2.4260647478167545 -2.1367582693147904 L -2.2855937667721524 -2.092203822730149 L -1.9662972011436897 -1.9699652974680542 L -1.9861356995265553 -1.8652719907395956 L -2.6926604629665256 -1.8965396899039566 Z M -2.4786909492204887 -2.728178938508478 L -2.440181099336784 -2.8051473142010313 L -1.9453338075822963 -2.7472813576279 L -1.9442335261570476 -2.7494804540762585 Q -1.9594443098587297 -2.7557161153537373 -1.9783204987080327 -2.762869166619636 Q -1.997196687557336 -2.770022217885535 -2.0208374631779047 -2.78001741843297 Q -2.0444782387984732 -2.7900126189804046 -2.0739831494144867 -2.8034001095220002 Q -2.1034880600305 -2.8167876000635954 -2.139773151428418 -2.8349422435801994 L -2.368112665982993 -2.9491881315685236 L -2.3255684508733765 -3.034219860905059 L -1.6995589952406087 -2.7210064151842595 L -1.7384356055993964 -2.643305007342253 L -2.2219206546370076 -2.6964025889385934 L -2.2233876965373396 -2.693470460340782 Q -2.206344332462025 -2.686317897875596 -2.1861853373511795 -2.678523015778302 Q -2.166026342240334 -2.670728133681008 -2.1392701799845906 -2.6591742011144706 Q -2.112514017728847 -2.6476202685479335 -2.077328107954574 -2.6313903843244457 Q -2.0421421981803003 -2.6151605001009575 -1.9944951084658624 -2.591321069220569 L -1.810504038953187 -2.49926418997476 L -1.852681493587721 -2.414965492787678 L -2.4786909492204887 -2.728178938508478 Z M -1.9898001816298712 -3.49170240558032 L -1.9279184513188325 -3.551517042990635 L -1.4803605136580718 -3.3326239103351747 L -1.4785924642206134 -3.3343328999754696 Q -1.490869753207974 -3.345265401405044 -1.5062998764682627 -3.3582803137773736 Q -1.5217299997285514 -3.371295226149704 -1.54071067477326 -3.3885730813630306 Q -1.5596913498179688 -3.405850936576358 -1.5830770714672449 -3.4282757593494106 Q -1.606462793116521 -3.4507005821224634 -1.6346611221813836 -3.4798733978405245 L -1.8121112131653176 -3.6634558644299386 L -1.7437466349169324 -3.7295367971880005 L -1.2572542506463718 -3.2262320573248875 L -1.3197253307698962 -3.165847756701141 L -1.7581489704166975 -3.3764703053827416 L -1.7605063696666419 -3.3741916525290154 Q -1.7468049226457025 -3.361785776568226 -1.7303778887619086 -3.3477395020240452 Q -1.7139508548781146 -3.3336932274798645 -1.6925491111763216 -3.313910635563472 Q -1.6711473674745287 -3.294128043647079 -1.643346755921158 -3.267135759827259 Q -1.6155461443677872 -3.2401434760074395 -1.5785180354947352 -3.201835738195844 L -1.435532568923411 -3.0539089352618376 L -1.5033077973593103 -2.988397665717207 L -1.9898001816298712 -3.49170240558032 Z M -1.0115351926057805 -3.381309833548795 Q -1.0259761981642666 -3.372719021034577 -1.0442446993386507 -3.364950912143058 Q -1.0625132005130349 -3.3571828032515385 -1.0834676962215086 -3.3547314112651963 Q -1.1044221919299824 -3.352280019278854 -1.1278107290907515 -3.356725833172348 Q -1.1511992662515205 -3.3611716470658415 -1.1761991412418866 -3.376342162455069 Q -1.2011990162322528 -3.3915126778442968 -1.2276251203477373 -3.4199023550119945 Q -1.254051224463222 -3.448292032179692 -1.280871322068585 -3.493376147093991 L -1.4076381896564334 -3.7064690339936033 Q -1.4346678192743383 -3.7519053685556694 -1.4466194956426788 -3.7884288725835464 Q -1.4585711720110193 -3.824952376611423 -1.4596914547707776 -3.8540901930233447 Q -1.4608117375305356 -3.8832280094352662 -1.4532428673166797 -3.9053747789482536 Q -1.445673997102824 -3.92752154846124 -1.4330294380784132 -3.9443426021884553 Q -1.4203848790540023 -3.9611636559156707 -1.40508774768416 -3.9731249783917475 Q -1.3897906163143174 -3.985086300867825 -1.375701830403599 -3.9934675813695004 Q -1.3623174837884169 -4.001429797846093 -1.3447868440982265 -4.009235828366567 Q -1.3272562044080363 -4.017041858887041 -1.3070016485548013 -4.020269033986533 Q -1.2867470927015663 -4.023496209086024 -1.263601509741997 -4.019859600494337 Q -1.2404559267824276 -4.01622299190265 -1.2153847079744486 -4.001333352343577 Q -1.1903134891664695 -3.9864437127845047 -1.1637112752271008 -3.958158801623078 Q -1.1371090612877321 -3.929873890461651 -1.1096603676447436 -3.883733116604049 L -0.9828935000568952 -3.6706402297044365 Q -0.9562829344640742 -3.625908334437906 -0.9445073679196175 -3.5892800644037584 Q -0.9327318013751609 -3.5526517943696105 -0.9314019866028609 -3.523161758309921 Q -0.9300721718305608 -3.493671722250231 -0.9376789636733718 -3.4707870912530505 Q -0.9452857555161827 -3.44790246025587 -0.9571590308677418 -3.4305864992456607 Q -0.9690323062193008 -3.413270538235451 -0.9837676859288335 -3.4011665281241483 Q -0.9985030656383661 -3.389062518012845 -1.0115351926057805 -3.381309833548795 Z M -1.0523939350514504 -3.4499926648635464 Q -1.0390095884362682 -3.457954881340138 -1.0316952446379262 -3.4685053991185657 Q -1.024380900839584 -3.4790559168969932 -1.0245698617572176 -3.494203287857593 Q -1.0247588226748512 -3.509350658818193 -1.0324131666795053 -3.5298327444451583 Q -1.0400675106841595 -3.550314830072124 -1.0568300716875112 -3.5784924018935604 L -1.219636445432566 -3.852167068209261 Q -1.2368180704610017 -3.8810490793262336 -1.2516884178046017 -3.898430605834323 Q -1.2665587651482015 -3.9158121323424124 -1.2800941510520625 -3.923735148310614 Q -1.2936295369559232 -3.931658164278815 -1.3066012450928963 -3.9306175769901226 Q -1.3195729532298697 -3.92957698970143 -1.332957299845052 -3.921614773224838 Q -1.3466938661080023 -3.9134430247357037 -1.3539747877176864 -3.9024355213032376 Q -1.3612557093273705 -3.891428017870771 -1.360928560214808 -3.875647551432248 Q -1.3606014111022455 -3.8598670849937258 -1.3524232370662368 -3.83850445024734 Q -1.3442450630302278 -3.8171418155009547 -1.3270634380017923 -3.7882598043839826 L -1.1642570642567376 -3.5145851380682815 Q -1.1474945032533856 -3.4864075662468452 -1.1331479859411404 -3.4699065888581755 Q -1.1188014686288952 -3.4534056114695058 -1.1054042709199634 -3.4461156909792274 Q -1.0920070732110314 -3.438825770488949 -1.079068787262716 -3.4403233434316807 Q -1.0661305013144007 -3.4418209163744122 -1.0523939350514504 -3.4499926648635464 Z M -0.9745658122779377 -4.187107363695535 L -0.8649998644570677 -4.222572526410717 Q -0.8462839730143568 -4.228630632497297 -0.8233590525497277 -4.234328081126619 Q -0.8004341320850987 -4.2400255297559415 -0.7760577903705601 -4.241238962727114 Q -0.7516814486560214 -4.242452395698287 -0.7269085011379175 -4.237117313217202 Q -0.7021355536198135 -4.231782230736117 -0.6791387364625682 -4.215964590417089 Q -0.6561419193053227 -4.200146950098062 -0.6361078998860732 -4.171524189672718 Q -0.6160738804668235 -4.142901429247376 -0.6014334574242571 -4.097671358260825 L -0.5960064040550299 -4.080905038843396 Q -0.5713953480783018 -4.004871729857383 -0.5777697631863405 -3.950039424803622 Q -0.5841441782943791 -3.8952071197498612 -0.6198294790981336 -3.860394792638538 L -0.4267911309223753 -3.6286649428958535 L -0.5336276779078499 -3.5940832539849636 L -0.7027867851332562 -3.8145887654482715 L -0.7406084824237344 -3.802346342731643 L -0.6599599451461485 -3.5531910379005542 L -0.7589982040304937 -3.5211335598590723 L -0.9745658122779377 -4.187107363695535 Z M -0.7490031922554967 -3.8801825476725496 Q -0.7224890127116563 -3.888764864628537 -0.7060561938260579 -3.900545476247493 Q -0.6896233749404594 -3.912326087866449 -0.6827963314870209 -3.9298281550065957 Q -0.6759692880335822 -3.947330222146742 -0.6782837175608665 -3.971780951907661 Q -0.6805981470881507 -3.99623168166858 -0.6914522538266051 -4.029764320503437 L -0.7084906771951092 -4.082402765186062 Q -0.7168205730641556 -4.1081371159197895 -0.7275576520114125 -4.125338480840855 Q -0.7382947309586695 -4.142539845761921 -0.7533198183503615 -4.151030191829766 Q -0.7683449057420535 -4.15952053789761 -0.788564040931764 -4.159437358430348 Q -0.8087831761214743 -4.159354178963087 -0.8364670988804842 -4.150393230376689 L -0.8516737606776869 -4.145471019181342 L -0.7642098540526994 -3.8752603364772042 L -0.7490031922554967 -3.8801825476725496 Z M -0.3325620173158776 -4.260953743528752 L -0.44461160502248287 -4.248827647633997 L -0.45360696343168333 -4.331948069059988 L -0.12438490209736658 -4.367576743543488 L -0.11538954368816612 -4.284456322117497 L -0.22703167834856564 -4.272374321116904 L -0.1607129575277938 -3.6595649396233245 L -0.2662432964951057 -3.648144362035173 L -0.3325620173158776 -4.260953743528752 Z M 0.11235761276458262 -4.368348848594906 L 0.21792210998432812 -4.357248444920035 L 0.18727813844945285 -4.065825219004521 L 0.31240671237401607 -4.052667597660177 L 0.34305068390889126 -4.34409082357569 L 0.44861518112863674 -4.332990419900819 L 0.3754125190565152 -3.6368353571543897 L 0.2698480218367697 -3.6479357608292604 L 0.30366353727875095 -3.969520271664701 L 0.17853496335418775 -3.982677893009046 L 0.14471944791220653 -3.6610933821736054 L 0.039154950692461034 -3.672193785848476 L 0.11235761276458262 -4.368348848594906 Z M 0.8205701102985652 -3.480762288556003 Q 0.8094158076218647 -3.485934100800742 0.7956639633726242 -3.4952466160403453 Q 0.7819121191233838 -3.5045591312799487 0.7697304589027085 -3.5196938771670188 Q 0.7575487986820335 -3.5348286230540893 0.748941744071291 -3.556211454890331 Q 0.7403346894605485 -3.577594286726573 0.7391978641454867 -3.6068070239907226 Q 0.738061038830425 -3.636019761254872 0.7465712581339026 -3.6738600693378576 Q 0.7550814774373801 -3.711700377420843 0.7771478763482655 -3.7592920688414315 L 0.8814460899504972 -3.984237172821557 Q 0.903684882602874 -4.032200674331369 0.9272669218230175 -4.062601028923988 Q 0.9508489610431611 -4.093001383516607 0.974636923009184 -4.110205733140871 Q 0.9984248849752069 -4.127410082765135 1.021720812470047 -4.133323140828545 Q 1.045016739964887 -4.139236198891956 1.0665971122959115 -4.138039202298737 Q 1.0881774846269356 -4.136842205705519 1.1070587313586042 -4.130798166649277 Q 1.1259399780902726 -4.124754127593035 1.1411841917484298 -4.117685984191892 Q 1.1798524410276579 -4.099757035076798 1.2015236407746255 -4.076834295017305 Q 1.223194840521593 -4.053911554957812 1.231206899288213 -4.027835434044894 Q 1.239218958054833 -4.001759313131976 1.235091267856263 -3.9738581692841546 Q 1.230963577657693 -3.9459570254363334 1.2182064407873374 -3.918443078833806 Q 1.2087247850053164 -3.8979935239265218 1.1982917104460196 -3.8818249140973293 Q 1.1878586358867227 -3.8656563042681373 1.1741146753817535 -3.846731270428034 L 1.0971499869125205 -3.8824167749167313 L 1.1111138799733151 -3.9125333921438226 Q 1.1595565213323682 -4.017012027215583 1.1034131978596426 -4.043043482180768 Q 1.0881689842014857 -4.050111625581911 1.074601169143907 -4.050078096577523 Q 1.0610333540863284 -4.050044567573135 1.0478219619619034 -4.041036804413979 Q 1.034610569837478 -4.032029041254822 1.0215967182078352 -4.0132172268917055 Q 1.0085828665781922 -3.994405412528589 0.9944465797759062 -3.9639169852122746 L 0.861013823861646 -3.6761359761534034 Q 0.8472223245423427 -3.6463911690155353 0.841617652090926 -3.6250474937425308 Q 0.8360129796395094 -3.6037038184695263 0.8377466766516433 -3.5884442176552986 Q 0.8394803736637773 -3.5731846168410715 0.8481214557857335 -3.563079565262563 Q 0.8567625379076899 -3.5529745136840547 0.8720067515658471 -3.545906370282912 Q 0.887994585402451 -3.538493439398786 0.9033995573519289 -3.5415149604200815 Q 0.9188045293014068 -3.544536481441377 0.9329640870040341 -3.5555892000912617 Q 0.9471236447066614 -3.566641918741146 0.9597927088533217 -3.5847101129258165 Q 0.972461772999982 -3.6027783071104866 0.9831501849724421 -3.625830532642334 L 1.0215939893250003 -3.7087441825391405 L 0.9721432474582951 -3.7316725501574823 L 1.0014501835118148 -3.7948802653254514 L 1.1445970678628035 -3.728508674851304 L 0.9954764814728359 -3.4068929476731085 L 0.93152514612642 -3.4365446712096106 L 0.9490422497497557 -3.501604930425549 Q 0.9144461499361388 -3.4747302652824046 0.8836818689985676 -3.4702471491643325 Q 0.8529175880609965 -3.4657640330462605 0.8205701102985652 -3.480762288556003 Z M 1.576152098072127 -3.855156931096378 L 1.6733986822342168 -3.781273036271138 L 1.3530504548305617 -3.1455533164267595 L 1.2675517801645635 -3.2105116400650577 L 1.3280815867447822 -3.3220216998314527 L 1.2262663711119903 -3.3993766501182807 L 1.1357141291528716 -3.3106763833851813 L 1.0498891236675374 -3.37588263955645 L 1.576152098072127 -3.855156931096378 Z M 1.3666385060939736 -3.3930941855910657 L 1.5384693933316522 -3.7005536168023645 L 1.5348797543189578 -3.703280874665041 L 1.284403139621334 -3.4555731838996575 L 1.3666385060939736 -3.3930941855910657 Z M 1.9445424526045045 -3.538758874296877 L 2.019208222089956 -3.45108049865359 Q 2.031962517233379 -3.4361034095757335 2.045993009200782 -3.4170992470225987 Q 2.0600235011681853 -3.398095084469464 2.0704657322106854 -3.376035205371551 Q 2.0809079632531855 -3.3539753262736385 2.085450984685676 -3.329044963458817 Q 2.089994006118166 -3.304114600643995 2.0841719319149945 -3.276817077009081 Q 2.0783498577118227 -3.249519553374167 2.0595628706022437 -3.2200632558505142 Q 2.0407758834926653 -3.1906069583268613 2.004581251554511 -3.1597840783969238 L 1.9911642759222643 -3.148358355664275 Q 1.9303198515434707 -3.0965440316441213 1.8772170611253642 -3.081467278171012 Q 1.8241142707072573 -3.0663905246979026 1.7783021669398136 -3.0860524157758524 L 1.6379964383798442 -2.819075207644805 L 1.565190670269475 -2.9045694244642384 L 1.704255981169343 -3.1451901289917465 L 1.6784816764003438 -3.1754563298365825 L 1.479099178051374 -3.0056647757397723 L 1.4116076995840974 -3.084918538776765 L 1.9445424526045045 -3.538758874296877 Z M 1.7471927840701917 -3.21297605312374 Q 1.7652613688567067 -3.1917585102634427 1.7824302898548048 -3.1810791611070273 Q 1.7995992108529029 -3.170399811950612 1.8183817362992187 -3.170784018082563 Q 1.8371642617455348 -3.171168224214514 1.858871877327183 -3.1826562264619738 Q 1.8805794929088315 -3.1941442287094333 1.9074134441733248 -3.216995674174732 L 1.9495365072047974 -3.2528671292656073 Q 1.9701300046868506 -3.270404285087813 1.9819185199788518 -3.2869028525006994 Q 1.9937070352708532 -3.303401419913586 1.9958068758922287 -3.3205312155003575 Q 1.9979067165136042 -3.3376610110871283 1.990098476189167 -3.3563117947081826 Q 1.9822902358647294 -3.374962578329237 1.9634245076317505 -3.3971161892569004 L 1.9530616428277199 -3.409285074132659 L 1.7368299192661611 -3.2251449379994988 L 1.7471927840701917 -3.21297605312374 Z M 2.296550945474769 -3.0759003973495203 L 2.348318988193944 -2.983233511203344 L 1.8102070315767649 -2.682619085529062 L 1.8807634759005822 -2.556320202094312 L 1.8077748860402734 -2.515545373079981 L 1.685450398997281 -2.7345111426609074 L 2.296550945474769 -3.0759003973495203 Z M 2.4903532097886076 -2.6871362274553126 L 2.528220324173667 -2.5879739176639833 L 1.8742850920362522 -2.3382556498273757 L 1.8364179776511929 -2.437417959618705 L 2.4903532097886076 -2.6871362274553126 Z M 1.9427999549721962 -2.0611836634489995 Q 1.9394853892191883 -2.077238363855884 1.9382410953474356 -2.0964405700137507 Q 1.9369968014756829 -2.1156427761716174 1.9415723365014257 -2.1360465124149495 Q 1.9461478715271685 -2.156450248658282 1.9580787945562241 -2.1766986373778665 Q 1.9700097175852795 -2.196947026097451 1.9926027860518036 -2.2152119112390314 Q 2.015195854518328 -2.233476796380612 2.0507064984046566 -2.2489683961327986 Q 2.086217142290985 -2.264459995884985 2.137592183593015 -2.27506660629461 L 2.3804195272471413 -2.3251994133088516 Q 2.4321959360593435 -2.335888887862301 2.470578346116595 -2.335443606818864 Q 2.508960756173847 -2.334998325775427 2.5367807423058353 -2.3269322069288223 Q 2.5646007284378234 -2.3188660880822174 2.5830144844986744 -2.3046732584663485 Q 2.601428240559526 -2.29048042885048 2.613066657623841 -2.2736333741871544 Q 2.6247050746881557 -2.2567863195238287 2.630883598293235 -2.239021282673949 Q 2.637062121898314 -2.221256245824069 2.640293823507496 -2.2056029129273567 Q 2.648745966177666 -2.1646634268898017 2.6429831859897863 -2.1348081243439943 Q 2.637220405801907 -2.1049528217981868 2.620791576017133 -2.0841942950066974 Q 2.6043627462323595 -2.0634357682152076 2.579322613077941 -2.050942803294733 Q 2.554282479923523 -2.0384498383742584 2.524581284170787 -2.032317891731194 Q 2.5025060711113207 -2.0277603638208084 2.483386729097279 -2.0261147024388837 Q 2.4642673870832374 -2.0244690410569586 2.440879300931522 -2.0242436916146413 L 2.4234778307282316 -2.108530868750784 L 2.4583968041132054 -2.115740049263576 Q 2.5149896230474726 -2.127423893542928 2.540516560300939 -2.145666776426027 Q 2.566043497554406 -2.163909659309126 2.5610716489248944 -2.1879917099194524 Q 2.5580885397471875 -2.202440940285648 2.5502320627214976 -2.2121177650467425 Q 2.542375585695808 -2.221794589807837 2.527438219516189 -2.2262432561727907 Q 2.5125008533365696 -2.2306919225377446 2.489638430910764 -2.2299473859739942 Q 2.466776008484959 -2.2292028494102434 2.4338638726508464 -2.2224079896165776 L 2.120797214716601 -2.1577739574329273 Q 2.0886878139028324 -2.151144825926912 2.0680368169423997 -2.143742769977886 Q 2.0473858199819666 -2.1363407140288597 2.0359507501014873 -2.1268658137535277 Q 2.0245156802210085 -2.1173909134781956 2.0213759827888778 -2.1052346410068226 Q 2.018236285356747 -2.0930783685354495 2.0214679869659293 -2.077425035638737 Q 2.023539590561559 -2.0673908478844347 2.030061192236518 -2.059112332804466 Q 2.0365827939114767 -2.050833817724497 2.047866420427634 -2.0458400578202025 Q 2.059150046943792 -2.0408462979159077 2.0750714020854106 -2.039739344452545 Q 2.090992757227029 -2.038632390989183 2.1114625002458065 -2.0428584623242676 L 2.178490874444549 -2.056696774343075 L 2.1981296765311193 -1.961572674432285 L 2.134713609923926 -1.9484801397079046 Q 2.052031902828472 -1.9314101260799148 2.004908657312037 -1.9610179859412242 Q 1.9577854117956022 -1.9906258458025334 1.9427999549721962 -2.0611836634489995 Z M 1.9690693270569395 -1.4718557551637226 Q 1.9706318460333647 -1.488174403567746 1.9751000547091129 -1.506890923003754 Q 1.979568263384861 -1.525607442439762 1.9899519821070675 -1.543757548746816 Q 2.000335700829274 -1.5619076550538702 2.0177025763305982 -1.5777422944683357 Q 2.0350694518319226 -1.5935769338828014 2.062040869736605 -1.6043748683232006 Q 2.089012287641287 -1.6151728027636 2.1275108900765987 -1.6195148187275783 Q 2.16600949251191 -1.6238568346915563 2.218229167404785 -1.6188567739669957 L 2.465048724515639 -1.5952236744485648 Q 2.5176763656186143 -1.5901845507495935 2.5542240143546056 -1.5784509643890092 Q 2.5907716630905964 -1.566717378028425 2.614980473066332 -1.5508130571944414 Q 2.639189283042068 -1.5349087363604577 2.6526043249161324 -1.5159208592729392 Q 2.666019366790197 -1.4969329821854207 2.6721778110642695 -1.4774048085197866 Q 2.678336255338342 -1.4578766348541523 2.6790066872632616 -1.439079794448112 Q 2.679677119188182 -1.4202829540420714 2.6781536631861673 -1.4043722718481488 Q 2.674169239796283 -1.362759718417889 2.659866389061288 -1.3359273277967019 Q 2.6455635383262934 -1.3090949371755147 2.6237480974882734 -1.2940979566896667 Q 2.601932656650253 -1.2791009762038186 2.5743232847314284 -1.27453972383816 Q 2.5467139128126037 -1.269978471472501 2.5165244132651607 -1.2728691315788878 Q 2.4940862717096284 -1.2750175951714724 2.4753306892992097 -1.27907783763712 Q 2.456575106888791 -1.2831380801027674 2.434158691841675 -1.289813234980869 L 2.4423619164679073 -1.375486139101992 L 2.477854976746658 -1.3720876603282672 Q 2.5353782123708406 -1.3665797809363684 2.5651467992846113 -1.3764923252407424 Q 2.5949153861983816 -1.3864048695451165 2.5972591646630194 -1.4108828421511517 Q 2.598665431741802 -1.4255696257147727 2.594008605109481 -1.4371315950292374 Q 2.58935177847716 -1.448693564343702 2.5763880439781817 -1.4573455657682686 Q 2.563424309479203 -1.4659975671928351 2.541357266180572 -1.4720217097813753 Q 2.5192902228819407 -1.4780458523699156 2.4858369936536926 -1.4812490162715872 L 2.167623349775236 -1.5117181363118783 Q 2.13498605296719 -1.5148431742647288 2.113070871523779 -1.5138537653327377 Q 2.091155690080368 -1.5128643564007467 2.077436700792169 -1.507178946010177 Q 2.063717711503969 -1.501493535619607 2.057135935871319 -1.4908018149963844 Q 2.050554160238669 -1.480110094373162 2.0490307042366545 -1.464199412179239 Q 2.0480541298763884 -1.4540002569267245 2.0518472928811007 -1.4441678098886888 Q 2.055640455885813 -1.434335362850653 2.0649520259810914 -1.4262389113008325 Q 2.07426359607637 -1.4181424597510117 2.08915216772383 -1.4123939530045568 Q 2.1040407393712903 -1.4066454462581022 2.12484701608642 -1.4046532345631602 L 2.192977373173218 -1.398129717836585 L 2.1837194482378988 -1.3014417260427462 L 2.1192607870420064 -1.3076136759996257 Q 2.0352197477612854 -1.3156606487282154 1.9989109787660275 -1.3578376439699122 Q 1.9626022097707694 -1.4000146392116088 1.9690693270569395 -1.4718557551637226 Z M 1.8867547633163408 -1.079264642220514 Q 1.8918408802473796 -1.0952795139264777 1.9003343016810046 -1.1132222964102458 Q 1.9088277231146298 -1.131165078894014 1.9228608890069239 -1.1469185060800742 Q 1.936894054899218 -1.1626719332661344 1.9573286560499443 -1.1748873336896566 Q 1.977763257200671 -1.187102734113179 2.006527204387634 -1.1923728032715772 Q 2.0352911515745977 -1.1976428724299755 2.0739032972190463 -1.1939802289665162 Q 2.112515442863495 -1.1903175855030572 2.162513091116259 -1.1744389765476189 L 2.398830100435964 -1.0993877389066797 Q 2.4492183553157028 -1.083385078318777 2.48241580321837 -1.0640269180953061 Q 2.5156132511210374 -1.0446687578718352 2.535808409803169 -1.0236349055256722 Q 2.5560035684853 -1.002601053179509 2.5650597676711655 -0.9810197545049275 Q 2.57411596685703 -0.9594384558303458 2.57584034354098 -0.9384656342159916 Q 2.57756472022493 -0.9174928126016374 2.574077933260953 -0.8983899913390394 Q 2.5705911462969766 -0.8792871700764415 2.565629080998402 -0.8636629049974527 Q 2.5609151189647563 -0.8488198531724134 2.5529983816068023 -0.831338928996643 Q 2.5450816442488486 -0.8138580048208726 2.5320870207402235 -0.7979897518671388 Q 2.5190923972315984 -0.7821214989134051 2.499376983518589 -0.7694626919114668 Q 2.4796615698055797 -0.7568038849095283 2.451030900115872 -0.7512764866214106 Q 2.4224002304261636 -0.7457490883332927 2.3837260589654825 -0.7492164284832645 Q 2.345051887504802 -0.7526837686332362 2.2938824193711134 -0.7689345324860677 L 2.0575654100514087 -0.8439857701270068 Q 2.0079583684256193 -0.8597403274499807 1.9748229463391842 -0.879293790986939 Q 1.9416875242527492 -0.8988472545238972 1.9211017589436428 -0.9200051585025247 Q 1.9005159936345364 -0.9411630624811521 1.890997936140674 -0.963321045231405 Q 1.8814798786468114 -0.985479027981658 1.8788502370764477 -1.0063093462339663 Q 1.8762205955060842 -1.0271396644862745 1.8791927242106217 -1.045975930754362 Q 1.8821648529151593 -1.0648121970224496 1.8867547633163408 -1.079264642220514 Z M 1.962923055576411 -1.0550745738899636 Q 1.9582090935427652 -1.0402315220649243 1.9597515081682022 -1.027486561974108 Q 1.9612939227936392 -1.014741601883292 1.9714983796562395 -1.0035457270454 Q 1.9817028365188398 -0.992349852207508 2.0010311939266012 -0.9821263785468692 Q 2.020359551334362 -0.9719029048862304 2.05160808149234 -0.9619787742890814 L 2.355109430651696 -0.8655906558642721 Q 2.3871391740636234 -0.8554184220021943 2.4098010290556444 -0.8523063451729143 Q 2.4324628840476654 -0.8491942683436342 2.447843161251909 -0.8522647612551103 Q 2.4632234384561524 -0.8553352541665865 2.4722274027590334 -0.8647308201808649 Q 2.4812313670619135 -0.8741263861951434 2.4859453290955593 -0.8889694380201827 Q 2.4907833427616692 -0.9042030964721967 2.48891234732549 -0.9172674115089645 Q 2.48704135188931 -0.9303317265457325 2.47631301090248 -0.9419089821458083 Q 2.46558466991565 -0.953486237745884 2.445279795940452 -0.9640198404876839 Q 2.4249749219652537 -0.9745534432294836 2.392945178553327 -0.9847256770915612 L 2.0894438293939706 -1.0811137955163708 Q 2.058195299235993 -1.0910379261135197 2.036509960811409 -1.0938398738616388 Q 2.0148246223868247 -1.096641821609758 1.9999682293068106 -1.0931899479360978 Q 1.9851118362267968 -1.0897380742624379 1.976436452734659 -1.0800231533022078 Q 1.9677610692425211 -1.0703082323419775 1.962923055576411 -1.0550745738899636 Z" fill="#595959" fill-rule="nonzero"></path></g><g><path d=" M -1.0440737082741478 0.25594526811079543 L -1.0436045143821022 0.3392271839488636 Q -1.0436045143821022 0.3504878373579545 -1.0436045143821022 0.35846413352272727 Q -1.0433699174360795 0.36198308771306814 -1.0433699174360795 0.3645636541193181 Q -0.9842514870383523 0.3645636541193181 -0.9647799405184659 0.36268687855113635 Q -0.9446046031605113 0.3605755060369318 -0.9413202459161931 0.3615138938210227 Q -0.938035888671875 0.3624522816051136 -0.9356899192116477 0.3645636541193181 Q -0.9309979802911932 0.36878639914772726 -0.9309979802911932 0.3738302334872159 Q -0.9309979802911932 0.3788740678267045 -0.935455322265625 0.3825103204900568 Q -0.9399126642400568 0.38614657315340906 -0.9478889604048295 0.3856773792613636 Q -0.9863628595525569 0.38262761896306813 -1.017329656427557 0.38462169300426136 Q -1.0482964533025567 0.38661576704545453 -1.0520500044389205 0.38720225941051134 Q -1.055803555575284 0.38778875177556815 -1.0587360174005682 0.38720225941051134 Q -1.0616684792258522 0.38661576704545453 -1.0640144486860796 0.3847389914772727 Q -1.0694101784446022 0.38075084339488635 -1.0689409845525568 0.37300914417613634 Q -1.065422030362216 0.30521062677556815 -1.065422030362216 0.22298439719460225 Q -1.065422030362216 0.14075816761363635 -1.0653047318892046 0.11952714399857955 Q -1.0651874334161933 0.0982961203835227 -1.0651874334161933 0.08070134943181817 Q -1.0656566273082386 0.04293124112215907 -1.0668296120383522 0.02733054421164771 Q -1.0680025967684659 0.011729847301136354 -1.0662431196732955 0.008680087002840897 Q -1.064483642578125 0.005630326704545441 -1.061903076171875 0.004222745028409081 Q -1.058384121981534 0.0025805664062499845 -1.0529883922230114 0.0035189541903409283 Q -1.0431353204900569 0.005161132812500024 -1.0269481312144886 0.005161132812500024 Q -0.9957467373934659 0.005161132812500024 -0.9843687855113636 0.0038708496093750044 Q -0.9729908336292614 0.0025805664062499845 -0.9697064763849432 0.0036362526633522685 Q -0.966422119140625 0.0046919389204545525 -0.9643107466264205 0.006568714488636385 Q -0.959618807705966 0.010322265624999993 -0.959618807705966 0.015717995383522754 Q -0.959618807705966 0.02111372514204546 -0.963841552734375 0.024632679332386387 Q -0.968064297762784 0.02815163352272726 -0.9753368030894887 0.027799738103693183 Q -0.9826093084161932 0.027447842684659107 -0.9908202015269887 0.026861350319602295 Q -0.9990310946377841 0.026274857954545427 -1.0084149724786933 0.02580566406250001 Q -1.0281211159446022 0.025101873224431803 -1.0426661265980113 0.026274857954545427 Q -1.0426661265980113 0.046684792258522734 -1.0429007235440342 0.06686012961647725 Q -1.0431353204900569 0.09078901811079543 -1.0433699174360795 0.11542169744318181 Q -1.0440737082741478 0.18157803622159088 -1.0440737082741478 0.21301402698863633 Q -1.0147490900213068 0.21301402698863633 -1.000907870205966 0.21160644531249997 Q -0.9858936656605114 0.2099642666903409 -0.9820228160511364 0.21301402698863633 Q -0.9781519664417614 0.2160637872869318 -0.9781519664417614 0.2212249200994318 Q -0.9781519664417614 0.2341277521306818 -1.0023154518821022 0.23365855823863635 Q -1.0072419877485794 0.2334239612926136 -1.0112301358309659 0.2334239612926136 L -1.0302324884588068 0.2331893643465909 L -1.0440737082741478 0.2331893643465909 L -1.0440737082741478 0.25594526811079543 Z M -0.8920548872514205 0.2770589932528409 Q -0.883843994140625 0.2770589932528409 -0.8817326216264204 0.28339311079545454 Q -0.8796212491122158 0.2897272283380682 -0.8796212491122158 0.30427223899147726 Q -0.8796212491122158 0.31881724964488634 -0.8756331010298295 0.33148548473011363 Q -0.8716449529474432 0.3441537198153409 -0.8646070445667613 0.35283380681818177 Q -0.850296630859375 0.3701939808238636 -0.8249601606889204 0.3701939808238636 Q -0.7996236905184659 0.3701939808238636 -0.7846094859730113 0.3515435236150568 Q -0.7695952814275568 0.33289306640625 -0.7695952814275568 0.2979381214488636 Q -0.7695952814275568 0.2512533291903409 -0.8092421653053977 0.21489080255681817 Q -0.8205028187144886 0.20456853693181817 -0.8323499644886363 0.1944808682528409 Q -0.8441971102627841 0.18439319957386363 -0.855457763671875 0.17360174005681817 Q -0.8667184170809659 0.16281028053977273 -0.8756331010298295 0.1496728515625 Q -0.8951046475497159 0.12081742720170452 -0.8951046475497159 0.08398570667613636 Q -0.8951046475497159 0.04621559836647726 -0.8728179376775568 0.02299050071022729 Q -0.8507658247514205 0 -0.8174530584161932 0 Q -0.7888322310014204 0 -0.7705336692116477 0.019236949573863626 Q -0.7501237349076704 0.04128906249999997 -0.7517659135298296 0.0802321555397727 Q -0.7520005104758523 0.08210893110795453 -0.7518832120028409 0.0842203036221591 Q -0.7517659135298296 0.08633167613636361 -0.7523524058948863 0.09219659978693179 Q -0.7529388982599432 0.09806152343750002 -0.7572789417613637 0.10263616388494318 Q -0.761618985262784 0.10721080433238633 -0.7666628196022727 0.10721080433238633 Q -0.7717066539417613 0.10721080433238633 -0.7752256081321023 0.10263616388494318 Q -0.7787445623224432 0.09806152343750002 -0.7775715775923295 0.09055442116477275 Q -0.774521817294034 0.07342884410511363 -0.774521817294034 0.06463145862926134 Q -0.774521817294034 0.0558340731534091 -0.7776888760653409 0.04785777698863636 Q -0.7808559348366477 0.03988148082386361 -0.7867208584872158 0.0337819602272727 Q -0.7993890935724431 0.020879128196022723 -0.8195644309303977 0.020879128196022723 Q -0.8418511408025567 0.020879128196022723 -0.8559269575639205 0.036127929687500004 Q -0.8714103560014205 0.05301890980113638 -0.8714103560014205 0.07765158913352271 Q -0.8714103560014205 0.1022842684659091 -0.8660146262428977 0.11741577148437499 Q -0.860618896484375 0.13254727450284087 -0.8518215110085227 0.14474631569602273 Q -0.8430241255326705 0.15694535688920452 -0.8317634721235795 0.1670330255681818 Q -0.8205028187144886 0.17712069424715907 -0.8088902698863636 0.18697376598011362 Q -0.7972777210582386 0.19682683771306816 -0.7860170676491477 0.20726640181107953 Q -0.7747564142400568 0.2177059659090909 -0.7658417302911932 0.23037420099431816 Q -0.7463701837713068 0.2589950284090909 -0.7463701837713068 0.2962959428267045 Q -0.7463701837713068 0.3399309747869318 -0.7688914905894886 0.36597123579545454 Q -0.7911782004616477 0.3917768998579545 -0.8284791148792613 0.3917768998579545 Q -0.863199462890625 0.3917768998579545 -0.8850169788707386 0.3650328480113636 Q -0.9056615101207386 0.3399309747869318 -0.9056615101207386 0.30849498401988634 Q -0.9056615101207386 0.2770589932528409 -0.8920548872514205 0.2770589932528409 Z M -0.6429129305752841 0.005395729758522705 Q -0.6363442160866477 0.005395729758522705 -0.5584580300071023 0.0035189541903409283 Q -0.5476665704900567 0.0035189541903409283 -0.5436784224076704 0.011729847301136354 Q -0.5427400346235796 0.014075816761363658 -0.5427400346235796 0.017125577059659114 Q -0.5427400346235796 0.02017533735795457 -0.5462589888139204 0.023342396129261367 Q -0.5497779430042613 0.026509454900568163 -0.5593964177911932 0.026274857954545427 Q -0.569014892578125 0.026040261008522747 -0.578046875 0.025571067116477275 Q -0.5870788574218749 0.025101873224431803 -0.5948205566406249 0.024867276278409067 Q -0.6086617764559659 0.02439808238636365 -0.6185148481889204 0.024632679332386387 Q -0.6203916237571022 0.07858997691761366 -0.6203916237571022 0.14169655539772727 Q -0.6203916237571022 0.2092604758522727 -0.6202743252840909 0.23424505060369316 Q -0.6201570268110795 0.2592296253551136 -0.6196878329190341 0.2819855291193182 Q -0.6189840420809659 0.34016557173295453 -0.6182802512428976 0.3683172052556818 Q -0.618045654296875 0.37629350142045453 -0.62191650390625 0.38016435102982954 Q -0.625787353515625 0.3840352006392045 -0.6303619939630681 0.3840352006392045 Q -0.6349366344105113 0.3840352006392045 -0.6392766779119318 0.3803989479758522 Q -0.6436167214133522 0.37676269531249995 -0.6436167214133522 0.3694901899857954 L -0.6438513183593749 0.33875799005681817 L -0.6415053488991477 0.1147179066051136 Q -0.6415053488991477 0.05208052201704544 -0.6431475275213068 0.024632679332386387 Q -0.6555811656605113 0.02439808238636365 -0.6727067427201704 0.025571067116477275 Q -0.6928820800781249 0.026978648792613635 -0.7019140625 0.027565141157670447 Q -0.710946044921875 0.02815163352272726 -0.7146995960582386 0.024632679332386387 Q -0.7184531471946022 0.02111372514204546 -0.7184531471946022 0.016539084694602302 Q -0.7184531471946022 0.01196444424715909 -0.7146995960582386 0.007507102272727273 Q -0.710946044921875 0.0030497602982954564 -0.7026178533380681 0.0034016557173295325 Q -0.6942896617542613 0.0037535511363636642 -0.6881901411576704 0.003988148082386345 Q -0.6820906205610795 0.004222745028409081 -0.6775159801136363 0.004457341974431817 Q -0.6729413396661932 0.0046919389204545525 -0.6694223854758522 0.0049265358664772885 Q -0.6659034312855113 0.005161132812500024 -0.662267178622159 0.005278431285511365 Q -0.6586309259588068 0.005395729758522705 -0.6539389870383523 0.005395729758522705 L -0.6429129305752841 0.005395729758522705 Z M 0.40127807617187516 0.10533402876420456 Q 0.40127807617187516 0.026274857954545427 0.3536548961292615 0.026274857954545427 Q 0.3276146351207388 0.026274857954545427 0.3150636985085229 0.04903076171874998 Q 0.30251276189630694 0.07178666548295454 0.30438953746448877 0.11589089133522729 Q 0.30438953746448877 0.12597856001420454 0.2959440474076706 0.1290283203125 Q 0.2935980779474433 0.12973211115056815 0.28996182528409103 0.12973211115056815 Q 0.28632557262073877 0.12973211115056815 0.28245472301136376 0.12586126154119315 Q 0.27858387340198876 0.1219904119318182 0.2783492764559661 0.11424871271306819 Q 0.276707097833807 0.06029141512784092 0.30087058327414784 0.03096679687499998 Q 0.3219843084161933 0.0049265358664772885 0.3569392533735797 0.0049265358664772885 Q 0.409958163174716 0.0049265358664772885 0.4214534135298297 0.060760609019886336 Q 0.42520696466619334 0.07882457386363634 0.42520696466619334 0.09888261274857951 Q 0.42520696466619334 0.11894065163352274 0.4199285333806819 0.13501054243607954 Q 0.4146501020951706 0.15108043323863635 0.40597001509232966 0.16679842862215907 Q 0.39728992808948876 0.1825164240056818 0.3862638716264206 0.19799982244318182 Q 0.3752378151633524 0.2134832208806818 0.3636252663352274 0.22884932084517043 Q 0.3520127175071024 0.24421542080965908 0.34098666104403424 0.2596988192471591 Q 0.32996060458096604 0.27518221768465906 0.32128051757812515 0.2909002130681818 Q 0.3020435680042615 0.3256205610795454 0.3020435680042615 0.3554143732244318 Q 0.3020435680042615 0.3615138938210227 0.30415494051846603 0.36268687855113635 Q 0.3062663130326706 0.36385986328125 0.31518099698153423 0.3635079678622159 Q 0.32409568093039787 0.36315607244318177 0.33676391601562516 0.3622176846590909 Q 0.3494321511008524 0.361279296875 0.36233498313210244 0.36034090909090905 Q 0.39283258611505695 0.35846413352272727 0.4045624334161933 0.35940252130681816 Q 0.4230955921519888 0.3605755060369318 0.4230955921519888 0.37253995028409087 Q 0.4230955921519888 0.3769972922585227 0.4198112349076706 0.38063354492187496 Q 0.4165268776633524 0.3842697975852272 0.4101927601207388 0.3842697975852272 L 0.3543586869673297 0.38356600674715907 Q 0.31541559392755697 0.38356600674715907 0.29993219549005695 0.38509088689630677 Q 0.284448797052557 0.38661576704545453 0.27963955965909104 0.38333140980113634 Q 0.27483032226562515 0.38004705255681814 0.27483032226562515 0.3716015625 Q 0.27483032226562515 0.3256205610795454 0.30767389470880696 0.27354003906249996 Q 0.3217497114701706 0.2512533291903409 0.33805419921875013 0.2302569025213068 Q 0.3543586869673297 0.2092604758522727 0.36843450372869335 0.1886159446022727 Q 0.40127807617187516 0.14075816761363635 0.40127807617187516 0.10533402876420456 Z M 0.5713608620383525 0.3901347212357954 Q 0.5056737171519888 0.3901347212357954 0.4915979003906252 0.2702556818181818 Q 0.48714055841619336 0.2322509765625 0.48714055841619336 0.1867391690340909 Q 0.48714055841619336 0.1412273615056818 0.4925362881747161 0.10732810280539773 Q 0.4979320179332388 0.07342884410511363 0.508958074396307 0.05020374644886366 Q 0.5317139781605116 0.002111372514204568 0.5755836070667615 0.002111372514204568 Q 0.6206262207031252 0.002111372514204568 0.6412707519531251 0.04832697088068183 Q 0.6607422984730116 0.09243119673295452 0.6612114923650569 0.18439319957386363 Q 0.6619152832031252 0.33289306640625 0.6117115367542616 0.37582430752840906 Q 0.5945859596946025 0.3901347212357954 0.5713608620383525 0.3901347212357954 Z M 0.5711262650923297 0.36902099609374994 Q 0.6389247824928979 0.36902099609374994 0.6389247824928979 0.18603537819602273 Q 0.6389247824928979 0.08304731889204547 0.6166380726207388 0.04691938920454547 Q 0.6016238680752842 0.022755903764204555 0.5755836070667615 0.022755903764204555 Q 0.5096618652343752 0.022755903764204555 0.5096618652343752 0.18838134765624998 Q 0.5096618652343752 0.33031249999999995 0.545086004083807 0.35940252130681816 Q 0.5565812544389206 0.36902099609374994 0.5711262650923297 0.36902099609374994 Z M 0.8484198552911933 0.10533402876420456 Q 0.8484198552911933 0.026274857954545427 0.8007966752485798 0.026274857954545427 Q 0.774756414240057 0.026274857954545427 0.7622054776278411 0.04903076171874998 Q 0.7496545410156252 0.07178666548295454 0.751531316583807 0.11589089133522729 Q 0.751531316583807 0.12597856001420454 0.7430858265269888 0.1290283203125 Q 0.7407398570667616 0.12973211115056815 0.7371036044034093 0.12973211115056815 Q 0.7334673517400571 0.12973211115056815 0.7295965021306821 0.12586126154119315 Q 0.725725652521307 0.1219904119318182 0.7254910555752843 0.11424871271306819 Q 0.7238488769531252 0.06029141512784092 0.7480123623934661 0.03096679687499998 Q 0.7691260875355116 0.0049265358664772885 0.804081032492898 0.0049265358664772885 Q 0.8570999422940343 0.0049265358664772885 0.868595192649148 0.060760609019886336 Q 0.8723487437855115 0.07882457386363634 0.8723487437855115 0.09888261274857951 Q 0.8723487437855115 0.11894065163352274 0.8670703125000002 0.13501054243607954 Q 0.8617918812144888 0.15108043323863635 0.853111794211648 0.16679842862215907 Q 0.844431707208807 0.1825164240056818 0.8334056507457388 0.19799982244318182 Q 0.8223795942826706 0.2134832208806818 0.8107670454545457 0.22884932084517043 Q 0.7991544966264207 0.24421542080965908 0.7881284401633525 0.2596988192471591 Q 0.7771023837002843 0.27518221768465906 0.7684222966974434 0.2909002130681818 Q 0.7491853471235798 0.3256205610795454 0.7491853471235798 0.3554143732244318 Q 0.7491853471235798 0.3615138938210227 0.7512967196377843 0.36268687855113635 Q 0.7534080921519888 0.36385986328125 0.7623227761008524 0.3635079678622159 Q 0.771237460049716 0.36315607244318177 0.7839056951349433 0.3622176846590909 Q 0.7965739302201706 0.361279296875 0.8094767622514206 0.36034090909090905 Q 0.8399743652343752 0.35846413352272727 0.8517042125355115 0.35940252130681816 Q 0.870237371271307 0.3605755060369318 0.870237371271307 0.37253995028409087 Q 0.870237371271307 0.3769972922585227 0.8669530140269888 0.38063354492187496 Q 0.8636686567826706 0.3842697975852272 0.857334539240057 0.3842697975852272 L 0.8015004660866479 0.38356600674715907 Q 0.7625573730468752 0.38356600674715907 0.7470739746093752 0.38509088689630677 Q 0.7315905761718752 0.38661576704545453 0.7267813387784093 0.38333140980113634 Q 0.7219721013849434 0.38004705255681814 0.7219721013849434 0.3716015625 Q 0.7219721013849434 0.3256205610795454 0.7548156738281252 0.27354003906249996 Q 0.7688914905894888 0.2512533291903409 0.7851959783380684 0.2302569025213068 Q 0.8015004660866479 0.2092604758522727 0.8155762828480115 0.1886159446022727 Q 0.8484198552911933 0.14075816761363635 0.8484198552911933 0.10533402876420456 Z M 1.0536921830610797 0.10533402876420456 Q 1.0536921830610797 0.026274857954545427 1.006069003018466 0.026274857954545427 Q 0.9800287420099434 0.026274857954545427 0.9674778053977274 0.04903076171874998 Q 0.9549268687855116 0.07178666548295454 0.9568036443536934 0.11589089133522729 Q 0.9568036443536934 0.12597856001420454 0.9483581542968752 0.1290283203125 Q 0.946012184836648 0.12973211115056815 0.9423759321732956 0.12973211115056815 Q 0.9387396795099434 0.12973211115056815 0.9348688299005684 0.12586126154119315 Q 0.9309979802911934 0.1219904119318182 0.9307633833451706 0.11424871271306819 Q 0.9291212047230115 0.06029141512784092 0.9532846901633525 0.03096679687499998 Q 0.974398415305398 0.0049265358664772885 1.0093533602627842 0.0049265358664772885 Q 1.0623722700639207 0.0049265358664772885 1.0738675204190342 0.060760609019886336 Q 1.077621071555398 0.07882457386363634 1.077621071555398 0.09888261274857951 Q 1.077621071555398 0.11894065163352274 1.0723426402698866 0.13501054243607954 Q 1.0670642089843752 0.15108043323863635 1.0583841219815342 0.16679842862215907 Q 1.0497040349786935 0.1825164240056818 1.0386779785156253 0.19799982244318182 Q 1.027651922052557 0.2134832208806818 1.016039373224432 0.22884932084517043 Q 1.004426824396307 0.24421542080965908 0.9934007679332388 0.2596988192471591 Q 0.9823747114701706 0.27518221768465906 0.9736946244673297 0.2909002130681818 Q 0.9544576748934661 0.3256205610795454 0.9544576748934661 0.3554143732244318 Q 0.9544576748934661 0.3615138938210227 0.9565690474076707 0.36268687855113635 Q 0.9586804199218751 0.36385986328125 0.9675951038707389 0.3635079678622159 Q 0.9765097878196025 0.36315607244318177 0.9891780229048297 0.3622176846590909 Q 1.0018462579900569 0.361279296875 1.014749090021307 0.36034090909090905 Q 1.0452466930042617 0.35846413352272727 1.056976540305398 0.35940252130681816 Q 1.0755096990411934 0.3605755060369318 1.0755096990411934 0.37253995028409087 Q 1.0755096990411934 0.3769972922585227 1.0722253417968752 0.38063354492187496 Q 1.068940984552557 0.3842697975852272 1.0626068670099433 0.3842697975852272 L 1.0067727938565343 0.38356600674715907 Q 0.9678297008167616 0.38356600674715907 0.9523463023792615 0.38509088689630677 Q 0.9368629039417615 0.38661576704545453 0.9320536665482957 0.38333140980113634 Q 0.9272444291548297 0.38004705255681814 0.9272444291548297 0.3716015625 Q 0.9272444291548297 0.3256205610795454 0.9600880015980116 0.27354003906249996 Q 0.9741638183593752 0.2512533291903409 0.9904683061079548 0.2302569025213068 Q 1.0067727938565343 0.2092604758522727 1.020848610617898 0.1886159446022727 Q 1.0536921830610797 0.14075816761363635 1.0536921830610797 0.10533402876420456 Z" fill="#595959" fill-rule="nonzero"></path></g><g clip-path="url(&quot;#SvgjsClipPath1023&quot;)"><path d=" M 0.17256967364021447 -2.973047638311392 C 0.14110397816165787 -2.9769808502462105 0.10930395966864026 -2.9798029298094453 0.07716961816116363 -2.98151387700109 C 0.05160374058483508 -2.9829494993572996 0.02588053453111505 -2.9836673105354046 1.9984014443252818e-15 -2.9836673105354046 C -0.006548797871473333 -2.9836673105354046 -0.013097595742948664 -2.9836673105354046 -0.019557896345890224 -2.983431317819315 C -0.0516234066445076 -2.983077328745181 -0.0834824233165472 -2.981631873359136 -0.11495795182494084 -2.979006454392644 C -0.8435045133899028 -2.919082072900583 -1.4042759896686252 -2.3103405092301097 -1.4043336552677004 -1.5793336552677042 C -1.4047463555442512 -1.3268552543319825 -1.3367406975946596 -1.0789827355125492 -1.207545229138849 -0.8620632938041695 C -1.190494755401391 -0.8333311806202879 -1.1723528153520348 -0.8051890492266516 -1.1531489080802775 -0.777872892339329 C -0.9184034011672018 -0.439588582387469 -0.5468391299767505 -0.22157530116380686 -0.13702327077928134 -0.18166679422952292 L -0.13702327077928134 -0.18166679422952292 C -0.1260496094811332 -0.18048683064907367 -0.11495795182494284 -0.1795133606952084 -0.1038662941687507 -0.1787168852784049 L -0.10363030145266094 -0.1787168852784049 C -0.06941135761972905 -0.17620946266995885 -0.03504491833924317 -0.1749115027314656 -0.0001179963580437704 -0.1749115027314656 C 0.04523193725042751 -0.1749115027314656 0.08996238997916328 -0.17705510323594487 0.13407336182816754 -0.18134230424489717 C 0.15053385377538797 -0.1827877596309424 0.16672885391700865 -0.18455770500161117 0.1829533531481391 -0.18682913489396924 C 0.37943974648338674 -0.21234498686016945 0.5682246147337549 -0.2794736356760237 0.7367102614514047 -0.3837355573808847 L 0.7367102614514047 -0.3837355573808825 L 0.7369462541674927 -0.3837355573808825 C 0.7501913453579994 -0.39184780699644683 0.7632889411009482 -0.40019604932810315 0.7762980395753651 -0.4090162770919368 L 0.7762980395753651 -0.4090162770919368 C 0.9323406566785442 -0.5126144895803586 1.0661118842232924 -0.6463455997979097 1.1697568954750557 -0.8023571366335798 C 1.1893246248507834 -0.8315809013092919 1.2076927245863909 -0.8615519762526187 1.224861194681879 -0.8922703614635603 C 1.342696309352989 -1.1019443520154244 1.4043939957461935 -1.3384927939182196 1.4039796661935686 -1.5790091652830804 C 1.404138065181009 -2.287866555388035 0.8760277026507743 -2.8857228078338992 0.17256967364045783 -2.973047638311364 Z M 0.17256967364021447 -2.8769101055945616 C 0.8149729542980542 -2.790554584796397 1.2978340926350158 -2.2476899825740757 1.3086976070725618 -1.59959952976186 L 0.7821388592985727 -1.59959952976186 L 0.7821388592985727 -1.962644824375558 C 0.782138859298575 -1.9752956582978842 0.777113335090595 -1.9874283469988216 0.7681678446364535 -1.996373837452963 C 0.759222354182312 -2.005319327907104 0.7470896654813728 -2.010344852115084 0.7344388315590467 -2.010344852115084 L 0.17256967364021447 -2.010344852115084 Z M -0.019557896345890224 -2.888001763250752 C -0.013097595742948664 -2.88823775596684 -0.006548797871473333 -2.88823775596684 1.9984014443252818e-15 -2.88823775596684 C 0.02590020059078979 -2.88823775596684 0.051623406644509595 -2.887490445699225 0.07716961816116363 -2.8859958251639934 L 0.07716961816116363 -2.0103448521150806 L -0.019557896345890224 -2.0103448521150806 Z M 0.6867388038195223 -1.9149447966360316 L 0.6867388038195223 -1.8314623733194826 L -0.6490389674242726 -1.8314623733194826 L -0.6490389674242726 -1.9149447966360316 Z M 0.6867388038195223 -1.7360328187509197 L 0.6867388038195223 -1.599481533403816 L 0.6232567631915329 -1.599481533403816 L 0.6232567631915329 -1.7360328187509197 Z M 0.5277387113544363 -1.7360328187509197 L 0.5277387113544363 -1.599481533403816 L 0.4639616798313331 -1.599481533403816 L 0.4639616798313331 -1.7360328187509197 Z M 0.36865012162081623 -1.7360328187509197 L 0.36865012162081623 -1.599481533403816 L 0.305079583724293 -1.599481533403816 L 0.305079583724293 -1.7360328187509197 Z M 0.2096795282452404 -1.7360328187509197 L 0.2096795282452404 -1.599481533403816 L 0.14610899034871716 -1.599481533403816 L 0.14610899034871716 -1.7360328187509197 Z M 0.050708934869664324 -1.7360328187509197 L 0.050708934869664324 -1.599481533403816 L -0.012979599384902896 -1.599481533403816 L -0.012979599384902896 -1.7360328187509197 Z M -0.10840915395346751 -1.7360328187509197 L -0.10840915395346751 -1.599481533403816 L -0.17197969184998874 -1.599481533403816 L -0.17197969184998874 -1.7360328187509197 Z M -0.26737974732904357 -1.599481533403816 L -0.3309502852255648 -1.599481533403816 L -0.3309502852255648 -1.7360328187509197 L -0.26737974732904357 -1.7360328187509197 Z M -0.4263503407046195 -1.7360328187509197 L -0.4263503407046195 -1.599481533403816 L -0.49003887495918663 -1.599481533403816 L -0.49003887495918663 -1.7360328187509197 Z M -0.5854684295277494 -1.7360328187509197 L -0.5854684295277494 -1.599481533403816 L -0.6490389674242726 -1.599481533403816 L -0.6490389674242726 -1.7360328187509197 Z M -0.11495795182494284 -2.8831344134814136 L -0.11495795182494284 -2.010344852115084 L -0.696738995163799 -2.010344852115084 C -0.7093898290861272 -2.010344852115084 -0.7215225177870636 -2.005319327907104 -0.730468008241206 -1.996373837452961 C -0.7394134986953472 -1.9874283469988194 -0.7444390229033274 -1.9752956582978842 -0.7444390229033274 -1.962644824375558 L -0.7444390229033274 -1.599481533403818 L -1.3086681079830498 -1.599481533403818 C -1.297623690927969 -2.2696886965531764 -0.7825997249237997 -2.823518278935217 -0.11495795182494883 -2.8831344134814136 Z M -1.3067211680753132 -1.504081477924765 L -0.7851772655182196 -1.504081477924765 L -1.1483995546689847 -0.952006017723634 C -1.2417652969695747 -1.1218917265080468 -1.2958841692768872 -1.3105366688122708 -1.3067801662543361 -1.504081477924763 Z M -1.0938262390733602 -0.8613553156558762 L -0.6708977927520352 -1.504081477924765 L -0.6106901510597816 -1.504081477924765 L -0.9650627133571998 -0.6959539207668706 C -1.012387356252403 -0.7475288926158798 -1.0554683102333737 -0.802842588281393 -1.0938852372523842 -0.8613553156558762 Z M -0.8927309458758649 -0.623061670584824 L -0.5062928732798292 -1.504081477924765 L -0.4416603681609047 -1.504081477924765 L -0.7287160081938835 -0.49270519403506174 C -0.7868296471777773 -0.5316664740162658 -0.8416995595390655 -0.575260530601045 -0.8927899440548899 -0.623061670584828 Z M 0.7604865275973902 -0.5146525166313562 L 0.6126075918780083 -1.0353704446821355 C 0.6136582791711949 -0.973952084352034 0.6057074716960755 -0.9127109897749359 0.589008320269091 -0.8535970551144434 L 0.589008320269091 -0.8535970551144434 C 0.5852029377221517 -0.8402634666554047 0.5810435661010807 -0.8270478745544123 0.5763827099583179 -0.8141272733485274 L 0.676915607012311 -0.4595482174245311 C 0.6221483610557639 -0.42617837550147275 0.5649565259892961 -0.39696123631148117 0.5058208878476516 -0.37214241520299884 L 0.5058208878476536 -0.37214241520299884 L 0.4637256871152433 -0.6210557324980654 C 0.4444336620254521 -0.59906973573317 0.4235509952531089 -0.5785321555222209 0.40124661553063534 -0.5596091290463425 C 0.39431432949551226 -0.5537093111441149 0.38741154254990495 -0.5481634823160189 0.3802432637986961 -0.5425586553089006 L 0.41496369215331774 -0.33792347137006873 C 0.3447535410169855 -0.3143648477427883 0.27264791000960353 -0.2968861901306781 0.19944334418487153 -0.2856805838458256 L 0.19257005632877444 -0.4423797473290434 C 0.1693607844497833 -0.4346187813047848 0.1457220354918325 -0.4282067706499397 0.12177224150202015 -0.4231758400572869 C 0.1138959846025438 -0.42152389104466215 0.10601972770306745 -0.42007843565861513 0.09817296989310087 -0.4187804757201259 L 0.10424978233239868 -0.2745889261896357 C 0.06989317608174805 -0.27183567783526197 0.035143248637614644 -0.2704393875983997 1.9984014443252818e-15 -0.27040005547905244 C -0.02230131167042626 -0.27040005547905244 -0.04460262334085452 -0.27099003726927595 -0.06666794229519302 -0.2720815035811892 L -0.060768124392963196 -0.41072722428358377 L -0.060768124392963196 -0.41202518422207257 C -0.061948087973410226 -0.41202518422207257 -0.06327554700140947 -0.41202518422207257 -0.0644555105818565 -0.41226117693816233 L -0.06516348873012401 -0.41226117693816233 L -0.08342342513752521 -0.41288065781789607 L -0.08413140328579272 -0.41441461047247685 C -0.1002379061588794 -0.4165680440067896 -0.1161084163158781 -0.4194294556893716 -0.13183143102531902 -0.4232643373258207 C -0.13982568428284137 -0.42518177814404545 -0.14770194118231794 -0.427217215320316 -0.15543070263423853 -0.4294591461231625 L -0.1556666953503263 -0.4232643373258207 L -0.1615665132525561 -0.2805182431813775 C -0.23513634272499284 -0.28958193161277945 -0.3077933294066604 -0.3049383933455556 -0.3787388102336271 -0.32641882646072107 L -0.34655530357696374 -0.5166584547181148 L -0.3436053946258477 -0.5345349029618705 C -0.3599280223223418 -0.5494798459397714 -0.3751866938056734 -0.5655467933027105 -0.3892699851891057 -0.5826184188650405 C -0.3946388194801358 -0.5891672167365161 -0.3998896574131201 -0.5959520073240792 -0.40490450263001265 -0.6028842933592 C -0.411571296859532 -0.6120585101971656 -0.4180020983729634 -0.6216162151987792 -0.42384291809616925 -0.6312624174689243 L -0.4287397669550198 -0.6028842933592 L -0.47024498589720454 -0.3580418504166727 C -0.5303177086445963 -0.38116590753460367 -0.5885657675107452 -0.4087762960271064 -0.6444961076395538 -0.4406393010478866 L -0.5191544763066861 -0.8821521737612352 L -0.5191544763066861 -0.8834501336997267 L -0.45640991291647837 -1.1035723396319115 L -0.45640991291647837 -1.1035723396319115 L -0.34274992103002644 -1.5039634815667193 L -0.2761999750928774 -1.5039634815667193 L -0.34286791738807043 -1.1106226220250743 L -0.34286791738807043 -1.1101506365928948 C -0.3110007528459915 -1.108651720171235 -0.2793704637859622 -1.1038972923468993 -0.24847083095239886 -1.0959615745380327 L -0.2475268600880416 -1.101212412471017 L -0.17941346240680156 -1.5039634815667193 L -0.11035609386120426 -1.5039634815667193 L -0.129088015700783 -1.0605331680351457 C -0.12121175880130663 -1.0567277854882065 -0.11336500099134006 -1.0525389147776234 -0.10572473680795347 -1.0482615467985084 C -0.10129987338128266 -1.045754124190062 -0.09687500995460963 -1.0432467015816118 -0.09247964561744881 -1.0405032862570778 C -0.086579827715219 -1.0371698891423182 -0.08091600252907893 -1.0334530038639127 -0.07531117552196087 -1.0296476213169754 C -0.07197777840720132 -1.0353704446821375 -0.06849688584488578 -1.0409752716892555 -0.06492749601403625 -1.0465800986963736 C -0.05486592715313243 -1.0624569819604686 -0.04395507251925945 -1.0777794456881808 -0.03224250483568514 -1.0924806819757211 L -0.030944544897196113 -1.1224222578295342 L -0.030944544897196113 -1.1224222578295342 L -0.014956038382153425 -1.5038454852086753 L 0.05253787841935309 -1.5038454852086753 L 0.06495699510354624 -1.2086480964706194 L 0.06566497325181375 -1.1909486427639298 C 0.07318724107715657 -1.1970254552032276 0.08091600252907694 -1.2027482785683874 0.08879225942855351 -1.2086480964706194 C 0.11104384211351426 -1.2249233677854694 0.13435007701279922 -1.239705334952035 0.15855760612241832 -1.2528967307373422 L 0.15808562069023857 -1.2650798547054456 L 0.1480854293459597 -1.5038454852086753 L 0.217142797891557 -1.5038454852086753 L 0.2512437453664431 -1.3023962029370473 L 0.25242370894689015 -1.2949919314697504 L 0.25242370894689015 -1.2949919314697504 C 0.25994597677223297 -1.2976173504362427 0.26746824459757557 -1.300006776686645 0.2749610133334084 -1.3023962029370473 C 0.29788569807974286 -1.309597497073837 0.32123475779333055 -1.3153707244966926 0.34487385547482896 -1.3196826693905792 L 0.34413637823704946 -1.3236355473850743 L 0.3137228169510571 -1.5038454852086753 L 0.3802727628882061 -1.5038454852086753 L 0.4295362423718234 -1.3300663488985038 C 0.4336071167243605 -1.3300663488985038 0.4377664883454315 -1.3300663488985038 0.4418373626979708 -1.3298303561824139 L 0.4431353226364598 -1.3298303561824139 C 0.4464687197512194 -1.3300663488985038 0.4499201132240249 -1.3300663488985038 0.4532830094282947 -1.3300663488985038 L 0.4532830094282947 -1.3300663488985038 C 0.4608937745221713 -1.3300663488985038 0.4685242056757206 -1.3299483525404578 0.47617430288894647 -1.32971235982437 L 0.5292726640090131 -1.3275589262900556 L 0.4791242118400605 -1.5038454852086753 L 0.5438747133170307 -1.5038454852086753 L 0.9189851355407865 -0.6483718893853903 C 0.8698094000615619 -0.5996130248156777 0.8167853388939104 -0.5548952444858228 0.7604275294183662 -0.5146525166313562 Z M 0.9905794257843439 -0.7240960521605069 L 0.6486554792606289 -1.5039634815667213 L 0.7088041227738604 -1.5039634815667213 L 1.1126171590919622 -0.8902349242872898 C 1.0762524618844338 -0.8317971622953588 1.035380159237844 -0.7762881566739761 0.9903729321577661 -0.7242140485185486 Z M 1.1655385256749609 -0.9833635498739839 L 0.8231425937190682 -1.5039634815667213 L 1.3069276617018912 -1.5039634815667213 C 1.2966695771463106 -1.3224727957897295 1.2484310635688767 -1.1451560596313508 1.165332032048383 -0.9834815462320279 Z" fill="#595959" transform="matrix(1,0,0,1,0,0)" fill-rule="nonzero"></path><path d=" M -0.324991469144315 -2.55587151444474 C -0.3095843128842031 -2.5558636836141195 -0.2948059443689157 -2.561980684761785 -0.2839114382914123 -2.5728751908392864 C -0.2730169322139111 -2.58376969691679 -0.2668999310662452 -2.598548065432077 -0.2669077618968678 -2.613955221692191 C -0.2669077623748768 -2.6460339682841063 -0.29291272428342885 -2.672038929417649 -0.32499147000983064 -2.6720389289396382 C -0.35706347068004196 -2.672022652863653 -0.3830589003157787 -2.6460272232279163 -0.3830751763917639 -2.613955221692189 C -0.3830751759137532 -2.5818764751002736 -0.3570702140052029 -2.555871513966731 -0.3249914682787993 -2.555871514444742 Z" fill="#595959" transform="matrix(1,0,0,1,0,0)" fill-rule="nonzero"></path><path d=" M -0.976537859177037 -1.7837623455799565 C -0.976537859177037 -1.75168359693954 -1.0025428177840705 -1.7256786383325065 -1.0346215664244869 -1.7256786383325065 C -1.0667003150649035 -1.7256786383325065 -1.092705273671937 -1.75168359693954 -1.092705273671937 -1.7837623455799565 C -1.092705273671937 -1.8158410942203729 -1.0667003150649035 -1.8418460528274063 -1.0346215664244869 -1.8418460528274063 C -1.0025428177840705 -1.8418460528274063 -0.976537859177037 -1.8158410942203729 -0.976537859177037 -1.7837623455799565 Z" fill="#595959" transform="matrix(1,0,0,1,0,0)" fill-rule="nonzero"></path><path d=" M -0.796091928637345 -2.351560820490528 C -0.811493974351167 -2.351560822478902 -0.8262647616010776 -2.345440365328406 -0.8371528859263956 -2.334546708419591 C -0.8480410102517145 -2.323653051510772 -0.8541539630380263 -2.308879156968524 -0.8541461367952861 -2.293477113243077 C -0.8541624772085006 -2.261384001249188 -0.8281849787776411 -2.235340503076367 -0.7960919286373579 -2.235275409637584 C -0.7639873529673782 -2.2353242461797445 -0.7379919040159335 -2.261372504575478 -0.7380082213898929 -2.293477113243077 C -0.7380003905592752 -2.3088842695031966 -0.744117391706942 -2.323662638018486 -0.7550118977844453 -2.3345571440959856 C -0.7659064038619476 -2.345451650173485 -0.7806847723772381 -2.3515686513211485 -0.79609192863735 -2.351560820490528 Z" fill="#595959" transform="matrix(1,0,0,1,0,0)" fill-rule="nonzero"></path><path d=" M 0.3626913055395624 -2.67203892893964 C 0.33061255981316084 -2.6720389289396382 0.3046075982921155 -2.6460339674185906 0.3046075982921155 -2.613955221692189 C 0.30459976746149464 -2.598548065432073 0.31071676860916053 -2.583769696916782 0.32161127468666595 -2.5728751908392846 C 0.33250578076416715 -2.561980684761783 0.3472841492794565 -2.5558636836141195 0.3626913055395684 -2.555871514444742 C 0.3781164966479962 -2.55584017828841 0.39292064648319625 -2.561945857683213 0.4038389883652549 -2.572842064052077 C 0.4147573302473113 -2.5837382704209437 0.4208930409746032 -2.5985299987542456 0.42089300914505756 -2.613955221692191 C 0.42088519819065473 -2.629378035629722 0.4147469726920636 -2.6441652018701807 0.403830334558124 -2.6550597079450595 C 0.3929136964241824 -2.665954214019935 0.37811410356888997 -2.672062417439284 0.3626913055395684 -2.67203892893964 Z" fill="#595959" transform="matrix(1,0,0,1,0,0)" fill-rule="nonzero"></path><path d=" M 1.0723214028197343 -1.7256786383325071 C 1.0877390934998397 -1.725655151661214 1.102534215965626 -1.7317593077482014 1.1134500049322644 -1.7426474337929807 C 1.1243657938989047 -1.753535559837756 1.1305074718185188 -1.7683151458483208 1.1305231064252295 -1.783732846490448 C 1.1305152954708226 -1.7991556604279768 1.1243770699722313 -1.8139428266684376 1.113460431838292 -1.8248373327433147 C 1.1025437937043525 -1.8357318388181918 1.08774420084906 -1.8418400422375387 1.0723214028197365 -1.8418165537378952 C 1.0569142465596204 -1.8418243845685158 1.0421358780443313 -1.8357073834208502 1.0312413719668296 -1.8248128773433487 C 1.0203468658893267 -1.8139183712658453 1.0142298647416628 -1.799140002750558 1.0142376955722832 -1.783732846490444 C 1.0142376935846837 -1.7683308007737073 1.0203581507359198 -1.7535600135241052 1.031251807645284 -1.742671889199333 C 1.0421454645546497 -1.7317837648745609 1.0569193590972052 -1.7256708120889925 1.072321402822652 -1.7256786383325091 Z" fill="#595959" transform="matrix(1,0,0,1,0,0)" fill-rule="nonzero"></path><path d=" M 0.8337917650325946 -2.235216411458564 C 0.8659289341490306 -2.235232687566588 0.8919771925300657 -2.261280945947623 0.8919934686380915 -2.293418115064057 C 0.8919856576836847 -2.3088409290015894 0.8858474321850938 -2.3236280952420487 0.8749307940511539 -2.3345226013169276 C 0.8640141559172145 -2.3454171073918046 0.8492145630619221 -2.3515253108111516 0.8337917650325986 -2.351501822311508 C 0.8183846087724824 -2.351509653142129 0.8036062402571933 -2.345392651994463 0.7927117341796921 -2.3344981459169616 C 0.7818172281021887 -2.323603639839458 0.7757002269545248 -2.308825271324171 0.7757080577851456 -2.293418115064057 C 0.7756917404111869 -2.261313506396452 0.8016871893626336 -2.235265248000721 0.8337917650326003 -2.2352164114585618 Z" fill="#595959" transform="matrix(1,0,0,1,0,0)" fill-rule="nonzero"></path><path d=" M 0.45726538651230375 -1.23333883439145 C 0.4560854229318567 -1.23333883439145 0.4547579639038557 -1.23333883439145 0.45346000396536446 -1.23333883439145 C 0.43034945657201584 -1.2333516163000984 0.4072688700429048 -1.2316755378251103 0.38440263541976716 -1.2283239891745534 C 0.3766443748783366 -1.2272620219521522 0.3688861143369022 -1.2260820583717071 0.36112785379547163 -1.2246366029856601 C 0.33746501625666436 -1.220178695607407 0.31415063465684745 -1.2140371058667363 0.2913625071016068 -1.206258670220215 C 0.283869738365774 -1.2037807467012789 0.2763474705404334 -1.2011553277347866 0.2689431990731346 -1.1981759196941608 C 0.24032946801613875 -1.187202099467299 0.21274750697905742 -1.1737072745790766 0.18652274297899063 -1.1578506643324211 C 0.17865631910934954 -1.1531898081896603 0.1709078915977542 -1.1482732932711353 0.1632774604442031 -1.1431011195768475 C 0.13864501208119018 -1.1266624852077303 0.11546283638364452 -1.1081483253062432 0.09398409918251582 -1.0877608276539346 L 0.09398409918251582 -1.0877608276539346 C 0.08610784228304147 -1.0802385598285917 0.07849707718916665 -1.0725982956452051 0.07109280572186605 -1.0646040423876828 C 0.050924021083868176 -1.0429565832076608 0.032757055887965514 -1.019527122115339 0.01681448102135419 -0.9946027029777322 C 0.011091657656192133 -0.9857529761243844 0.005722823365164054 -0.976490262017887 0.0007374772377795047 -0.9671685497323614 C -0.004867349769338558 -0.9570503620300386 -0.010118187702322867 -0.946666682522114 -0.014897040203127432 -0.9361650066561475 C -0.017404462811575705 -0.931032165081207 -0.019675892703933995 -0.9257813271482225 -0.021829326238248514 -0.9204124928571944 C -0.02910583129175337 -0.9030847167629803 -0.035389480462572065 -0.8853565529581631 -0.04064974534636123 -0.8673141317371278 C -0.04100373442049299 -0.8660161717986368 -0.04150521894218273 -0.8646887127706355 -0.041859208016316485 -0.8632727564741005 C -0.06509126422680533 -0.7817512099819224 -0.0686899945521664 -0.6958871218256935 -0.0523608838822851 -0.6127074901664091 C -0.04737460235097557 -0.5873725545081525 -0.04047163535135567 -0.5624528436395333 -0.03171152122448162 -0.5381632909717378 C -0.028024135035588094 -0.5277796114638171 -0.023835264325005046 -0.5175139283139365 -0.019439899987844234 -0.5073957406116114 C -0.017404462811575705 -0.5073957406116114 -0.015251029277261186 -0.5073957406116114 -0.013215592100992657 -0.5073957406116114 L -0.012035628520545405 -0.5073957406116114 C -0.008702231405785854 -0.5073957406116114 -0.005368834291026081 -0.5073957406116114 -0.0020059380867565313 -0.5073957406116114 C 0.020449431220586956 -0.507407614038021 0.04287906794029084 -0.508915405961623 0.06513398964061623 -0.5119091013068182 C 0.07478019191076135 -0.5132365603348212 0.0843378969123747 -0.514859010257934 0.09386610282447383 -0.516569957449581 C 0.10186035608199617 -0.51810391010416 0.10973661298147275 -0.5199033545643408 0.1176128698809491 -0.5218207953825655 C 0.11784886259703709 -0.5218207953825655 0.11796685895508285 -0.5218207953825655 0.11808485531312685 -0.5218207953825655 L 0.11808485531312685 -0.5218207953825655 C 0.1419382476728932 -0.5275522450650838 0.16536714665340146 -0.5349249065869275 0.1882041910811274 -0.5438861143369036 C 0.19619844433864775 -0.5469835187355736 0.20395670488007833 -0.5503169158503334 0.2118034626900449 -0.5537683093231367 C 0.2669730438687572 -0.5783534453595163 0.31748070229938397 -0.612284691884736 0.36109835470596563 -0.6540652136610401 C 0.3680306407410827 -0.6606435106220254 0.37481543132864603 -0.6675462975676325 0.38139372828963336 -0.6747145763188418 L 0.38139372828963336 -0.6747145763188418 C 0.3952332532746965 -0.6894919390155141 0.40810207502050244 -0.7051493339267592 0.41991953919119007 -0.7215886295520546 C 0.4272943115689769 -0.731932976940632 0.43432492790246924 -0.7425428161348071 0.4410113881916613 -0.753418147134584 C 0.44744218970509086 -0.7641558157166406 0.45366649759194244 -0.775247473372835 0.4592713245990625 -0.7864571273870706 C 0.49676442346520977 -0.8611281403639297 0.5161281195250169 -0.9435855496290491 0.5157915801024207 -1.0271401987085254 L 0.5157915801024207 -1.0271401987085254 C 0.5157671205473289 -1.098048569251397 0.501031539589532 -1.1681806934826433 0.4725164157895252 -1.23310284167546 C 0.4675310696621826 -1.23333883439145 0.4623982280872423 -1.233456830749496 0.45726538651230375 -1.23333883439145 Z" fill="#aabda0" transform="matrix(1,0,0,1,0,0)" fill-rule="nonzero"></path><path d=" M -0.28788161453929106 -1.0059008542605001 C -0.29171649617573836 -1.0067563278563236 -0.29552187872267766 -1.0074643060045911 -0.29935676035912695 -1.0080542877948147 C -0.30319164199557624 -1.0086442695850364 -0.3066135363788678 -1.0093522477333037 -0.3103304216572753 -1.0098537322549934 C -0.31109355646792025 -1.0100950862385916 -0.31188998649788546 -1.0102145507430862 -0.3126903488181656 -1.0102077213291292 C -0.3142538005622566 -1.010443714045215 -0.3158172523063474 -1.010679706761307 -0.3173512049609284 -1.0107977031193487 C -0.31786159600907715 -1.010935992463568 -0.31838618723371237 -1.0110151760446433 -0.3189146567050192 -1.0110336958354387 C -0.31902751305172194 -1.0110829503831915 -0.3191557894324504 -1.0110829503831915 -0.3192686457791529 -1.0110336958354387 C -0.31985862756937467 -1.0110336958354387 -0.3203306130015542 -1.0110336958354387 -0.3209205947917757 -1.0110336958354387 C -0.3211244455477624 -1.0110804178188488 -0.3213362249155267 -1.0110804178188488 -0.32154007567151144 -1.0110336958354387 L -0.32522746186040474 -1.0113876849095724 L -0.32522746186040474 -1.0113876849095724 C -0.32664341815693976 -1.0113876849095724 -0.32817737081151876 -1.0117416739837062 -0.3295343289290318 -1.01185967034175 C -0.33201225244796806 -1.012125162147352 -0.33451967505641633 -1.0123611548634397 -0.3369091013068186 -1.0124791512214857 C -0.33734958544811033 -1.0125386809372043 -0.3377960761935279 -1.0125386809372043 -0.33823656033481964 -1.0124791512214857 C -0.33874620469594574 -1.0125376501657415 -0.33926086862827654 -1.0125376501657415 -0.3397705129894004 -1.0124791512214857 C -0.34036889714603547 -1.0125377390401649 -0.34097157329294414 -1.0125377390401649 -0.3415699574495812 -1.0124791512214857 C -0.3425523447439489 -1.0125391645552062 -0.3435374791063275 -1.0125391645552062 -0.3445198664006952 -1.0124791512214857 C -0.3452278445489647 -1.0124791512214857 -0.346053819055276 -1.0124791512214857 -0.3469092926510995 -1.0127151439375734 L -0.34785326351545676 -1.0127151439375734 C -0.34896355877731344 -1.0127761403217437 -0.35007636536835984 -1.0127761403217437 -0.35118666063021653 -1.0127151439375734 L -0.3515406497043503 -1.0127151439375734 C -0.35404807231279656 -1.0127151439375734 -0.3565554949212446 -1.0129511366536632 -0.3590629175296909 -1.0129511366536632 L -0.3637237736724537 -1.0129511366536632 C -0.3757167494757845 -1.0129735642796893 -0.3877018071418381 -1.0123334420543046 -0.39962416560752034 -1.0110336958354387 C -0.4290137940691453 -0.9298298777604646 -0.42985658106804303 -0.8410355043212476 -0.4020135918579226 -0.759288465947304 C -0.38796731635550885 -0.7173097185114012 -0.36641802202162377 -0.6782291337036637 -0.3384135548718874 -0.6439470259587154 C -0.3348146659515261 -0.6395221625320442 -0.33112727976263256 -0.6352447945529276 -0.32732189721569527 -0.6310559238423443 C -0.28016782744799373 -0.5795536345058898 -0.21970302757608628 -0.5420783212643276 -0.1525987900411665 -0.5227647662469206 L -0.1555486989922823 -0.5316144931002662 C -0.1600620596874891 -0.5461870433187741 -0.16413293404002638 -0.5608480908058118 -0.16734833479674194 -0.5758631273669872 C -0.1692657756149667 -0.5839753769825515 -0.17103572098563546 -0.5920876265981176 -0.17248117637168048 -0.6001998762136842 C -0.17330715087799375 -0.6040052587606213 -0.17401512902626126 -0.6079581367551148 -0.174634609905993 -0.6117635193020541 C -0.17593256984448402 -0.6195217798434847 -0.17714203251444105 -0.627280040384917 -0.17808600337879854 -0.6350383009263494 C -0.17867598516902206 -0.6388436834732869 -0.1791479706011998 -0.642649066020224 -0.17950195967533356 -0.6466019440147193 C -0.18047542962920282 -0.6543602045561498 -0.18118340777747033 -0.6622069623661164 -0.18165539320964785 -0.669965222907547 C -0.18321884495373686 -0.6891691301793053 -0.1836908303859166 -0.70831403927204 -0.18333684131178285 -0.7275769447228182 C -0.18333684131178285 -0.729612381899087 -0.18333684131178285 -0.7316183199858455 -0.18333684131178285 -0.7336537571621142 L -0.18333684131178285 -0.7360431834125185 C -0.18333684131178285 -0.7383146133048766 -0.18310084859569487 -0.7407040395552791 -0.18310084859569487 -0.7430934658056816 C -0.1822453749998716 -0.7609699140494368 -0.18082941870333658 -0.7787283659351485 -0.1784399924529323 -0.79651631691037 C -0.1782039997368443 -0.7986697504446822 -0.17796800702075455 -0.8009116812475305 -0.1776140179466188 -0.8030651147818433 C -0.1768765407088413 -0.8087879381470073 -0.17593256984448402 -0.8146287578702132 -0.17498859898012853 -0.8203515812353768 C -0.174516613547949 -0.823301490186493 -0.1738971326682155 -0.8265758891222306 -0.17330715087799176 -0.8296732935208984 C -0.1701999134494827 -0.8470777563324763 -0.16626670151466416 -0.864364222786008 -0.1615075150735341 -0.8815326928814957 C -0.1607995369252666 -0.884482601832612 -0.1600620596874871 -0.887137519888614 -0.15911808882312983 -0.889998931571196 C -0.15817411795877256 -0.8928603432537758 -0.15755463707903883 -0.8957217549363579 -0.15661066621468356 -0.8984946693504061 C -0.1556666953503263 -0.9012675837644539 -0.15469322539645902 -0.9049254708638372 -0.15366075726356776 -0.9081408716205512 C -0.1526282891306765 -0.9113562723772648 -0.151625320087297 -0.9145716731339828 -0.15044535650685198 -0.9176690775326524 C -0.14926539292640872 -0.9207664819313202 -0.14817392661449547 -0.9246013635677715 -0.14687596667600444 -0.9280527570405752 C -0.14531251493191366 -0.9325956168252918 -0.14363106682977866 -0.9371089775204968 -0.1418611214591079 -0.9415338409471694 C -0.1790411346752656 -0.9682559995453963 -0.22067168628285372 -0.9881623549566063 -0.2648133265415733 -1.000325526342886 C -0.2723945925459379 -1.0024494607876966 -0.2801528530873685 -1.0042489052478754 -0.28788161453929106 -1.0059008542605001 Z" fill="#aabda0" transform="matrix(1,0,0,1,0,0)" fill-rule="nonzero"></path></g></g><defs><clipPath id="SvgjsClipPath1023"><path d=" M -1.4043336552677024 -2.9836673105354046 h 2.8086673105354047 v 2.8086673105354047 h -2.8086673105354047 Z"></path></clipPath></defs></svg>