<?xml version="1.0" encoding="UTF-8"?>
<!DOCTYPE svg PUBLIC "-//W3C//DTD SVG 1.1//EN" "http://www.w3.org/Graphics/SVG/1.1/DTD/svg11.dtd">
<!-- Creator: CorelDRAW -->
<svg xmlns="http://www.w3.org/2000/svg" xml:space="preserve" width="406.4mm" height="304.8mm" version="1.1" style="shape-rendering:geometricPrecision; text-rendering:geometricPrecision; image-rendering:optimizeQuality; fill-rule:evenodd; clip-rule:evenodd"
viewBox="0 0 40640 30480"
 xmlns:xlink="http://www.w3.org/1999/xlink"
 xmlns:xodm="http://www.corel.com/coreldraw/odm/2003">
 <defs>
  <style type="text/css">
   <![CDATA[
    .fil2 {fill:#96989B}
    .fil0 {fill:black}
    .fil1 {fill:black;fill-rule:nonzero}
   ]]>
  </style>
 </defs>
 <g id="Layer_x0020_1">
  <metadata id="CorelCorpID_0Corel-Layer"/>
  <path class="fil0" d="M19473.05 11767.76c-1.49,-7.91 5.27,-14.86 2.65,-2.65 -0.06,0.29 0.12,17.21 -2.65,2.65zm-367.41 -4642.75c0,16.39 16.06,34.52 24.22,46.75 203.61,305.01 306.78,719.28 233.57,1091.99 -7.32,37.29 -14.69,71.55 -24.8,108.79 -4.41,16.22 -10.65,33.03 -16.4,50.4 -4.19,12.63 -15.08,37.45 -16.18,50.63 -14.11,-10.34 -9.03,-46 -11.37,-63.78 -9.38,-71.1 -9.48,-123.17 -23.16,-202.29 -29.68,-171.56 -106.92,-332.66 -238.08,-442.47 -72.13,-60.39 -146.81,-109.42 -234.94,-144.98 -36.44,-14.71 -73.6,-26.67 -113.69,-36.62 -38.63,-9.59 -82.34,-19.39 -123.13,-27.55 -19.36,-3.87 -40.91,-4.49 -51.56,13.52 -14.69,24.77 23.19,83.53 36.82,105.96 10.19,16.82 18.97,30.07 28.71,46.45l54.07 96.24c92.39,185.69 163.84,442.04 175.34,655.51 1.41,26.21 -1.86,52.81 0.75,78.9 7.3,72.89 -6.86,204.33 -13.41,280.05 -20.67,238.89 -103.34,579.74 -178.88,806.46l-61.97 167.67c-127.2,319.49 -386.77,777.66 -553.71,1112.16 -9.6,19.26 -16.83,30.79 -26.45,48.69 -5.24,9.76 -7.24,15.49 -12.56,25.02 -5.79,10.36 -8.68,13.59 -13.92,23.66 -9.15,17.6 -16.36,31.01 -26.33,48.82l-157.27 297.83c-8.76,16.81 -16.96,29.52 -26.5,48.66l-102.98 201.79c-16.71,33.4 -33.29,66.85 -50.12,100.19 -45.5,90.11 -103.49,220.16 -143.15,311.95 -30.96,71.71 -57.71,141.68 -86.51,214.09 -14.37,36.13 -25.77,72.33 -40.49,109.82 -57.72,146.94 -140.98,428.36 -177.44,582.42 -18.45,77.98 -36.95,173.49 -48.05,256.74 -21.27,159.58 -21.51,286.79 -22.15,445.65 -0.2,45.12 8.44,103.76 8.44,150.21 -17.15,-19.73 -26.36,-52.65 -37.51,-75.22 -12.55,-25.39 -23.67,-50.24 -33.95,-78.78 -41.97,-116.41 -73.14,-236.64 -87.2,-363.72 -16.09,-145.46 -16.7,-222.02 -16.7,-367.41 0,-167.94 36.84,-363.72 77.68,-527.71 41.29,-165.74 92.88,-306.36 154.93,-450.46 15.64,-36.32 31.18,-67.28 47.9,-102.41 79.38,-166.84 182.09,-323.93 279.78,-480.11 19.96,-31.9 40.17,-59.34 58.96,-91.33 53.16,-90.5 182.51,-261.71 246.69,-358.72l331.01 -508.17c122.21,-203.81 314.45,-593.5 314.45,-825.36 0,-21.62 -29.55,-17 -40.17,9.92 -6.63,16.77 -9.29,22.29 -16.88,37.4 -13.93,27.7 -21.87,41.84 -38.15,66.23l-89.5 119.25c-67.52,72.56 -136.27,145.9 -208.75,212.95 -10.73,9.91 -16.41,12.01 -27.27,22.82l-54.11 50.26c-11.02,10.64 -17.78,13.99 -29.32,24.98l-56.38 47.99c-61.18,56.91 -230.1,188.06 -293.02,237.22 -156.5,122.29 -301.69,259.46 -461.04,378.17l-394.29 311.3c-7.73,6.53 -8.6,5.8 -16.45,12.77 -18.75,16.67 -38.57,36.69 -57.45,51.11 -50.52,38.58 -169.24,154.62 -216.06,201.45l-257.49 268.57c-27.22,35.19 -105.98,118.92 -146.78,170.53 -108.57,137.32 -218.26,275.85 -308.36,426.47l-40.75 67.81c-23.62,39.05 -55.13,93.88 -72.58,136.17 -6.34,15.35 -8.59,20.4 -15.7,34.39 -142.32,280.09 -204.85,745.91 -158.51,1092.41 43.32,323.96 155.66,636.15 336.1,908.07 8.76,13.2 15.35,22.48 24.22,34.23l53.67 71.6c5.28,6.48 8.48,8.98 13.72,15.5 6.66,8.24 6.72,9.83 15.03,18.37l60.59 64.67c41.15,41.15 81.1,83.38 125.44,120.88l142.39 108.12c27.08,18.02 48.1,32.03 76.34,48.91 52.1,31.17 103.32,60.12 158.58,87.76 257.97,129.04 536.11,200.03 823.89,232.42 82.34,9.26 193.19,32.11 277.19,5.8 111.22,-34.85 18.61,-59.49 -14.79,-101.2 -10.56,-13.2 -19.57,-24.33 -28.65,-38.15 -7.55,-11.5 -19.16,-29.31 -25,-41.8 -33.39,-71.48 -37.57,-147.56 -37.57,-229.64l45.12 71.79c50.24,80.35 113.31,161.48 179.21,229.94 147.68,153.43 329.28,280.23 528.96,356.17 282.42,107.42 602.57,120.74 869.54,-37.11 67.06,-39.64 39.39,-57.05 -1.61,-91.82l-98.35 -93.7c-31.53,-31.15 -58.42,-67.01 -87.55,-100.34 -15.92,-18.2 -26.98,-35.53 -41.41,-54.62 -33.91,-44.87 -64.78,-96.46 -91.03,-146.95l-42.62 -99.33c-77.31,-208.71 -87.04,-379.95 -87.04,-610.2 0,-131.5 23.94,-262.57 48.32,-373.36 59.17,-268.88 174.82,-515.51 295.43,-756.71l210.15 -424.47c71.01,-142.01 137.5,-285.26 197.02,-433.42 52.46,-130.56 89.12,-269.38 117.81,-408.27 5.24,-25.37 16.4,-62.85 16.4,-92.15l4.16 0c0,122.43 -14.32,229.23 -35.8,344.13 -19.62,104.97 -49.28,202.35 -76.92,303.01 -13.32,48.5 -30.12,96.64 -45.4,142.49 -44.17,132.57 -104.86,283.31 -164.76,411.4 -81.7,174.75 -152.35,351.95 -216.23,543.64 -60.03,180.13 -124.73,439.62 -124.73,639.33 0,291.33 43.28,530.32 207.01,765.79 68.71,98.82 168.09,198.73 269.72,264.71 49.22,31.95 99.26,64.31 153.18,88.96 9.86,4.51 17.22,7.73 28.37,13.39 212.84,107.69 510.05,153.09 752.91,153.09 101.24,0 205.97,-14.35 292.87,-28.62 46.83,-7.7 89.51,-17.71 129.74,-28.91 212.75,-59.32 409.31,-181.01 542.47,-346.84 41.23,-51.32 84.85,-103.9 120.25,-159.49 82.57,-129.61 153.35,-258.64 193.16,-412.22 41.78,-161.13 59.3,-391.59 19.98,-560.37 35.39,25.93 95.31,190.86 111.21,239.5 72.57,222.13 55.03,508.16 -16.74,723.39 -9.78,29.34 -19.1,50.74 -29.2,79.36 -18.4,52.01 -42.55,106.81 -71.22,154.24 -6.55,10.87 -15.58,22.29 -17.57,36.78 -4.84,35.24 26.31,30.46 45.06,29.51 13.52,-0.68 5.92,1.7 21.07,-0.99l134.62 -32.42c89.95,-22.36 168.79,-45.26 254.99,-74.85l241.13 -92.87c127.43,-54.61 248.14,-115.21 360.44,-190.7 12.47,-8.38 20.72,-12.75 33.2,-21.08 12.68,-8.45 21.63,-15.55 34.42,-24.02 60.68,-40.16 166.37,-119.93 216.93,-171.36l139.41 -140.33c16.61,-20.81 33.54,-38.57 49.5,-59.05 16.6,-21.28 32.01,-41.11 48.93,-63.79 16.53,-22.17 31.4,-43.27 46.27,-66.46 29.74,-46.39 56.97,-90.12 81.54,-139.74 6.76,-13.64 11.35,-22.62 18.12,-36.15 45.06,-90.03 79.42,-187.59 102.43,-285.87 6.86,-29.34 12.92,-63.41 18.92,-93.8 56.04,-283.99 6.74,-583.54 -81.86,-851.21 -20.96,-63.32 -47.29,-123.85 -74.3,-184.58l-58.45 -133.6c-84.34,-167.34 -178.34,-328.01 -291.34,-476.88l-304.18 -372.19c-5.63,-6.74 -10.26,-10.7 -16.51,-16.89 -43.64,-43.26 -82.02,-85.77 -125.22,-129.47l-133.61 -125.25c-12.81,-12.95 -21.12,-17.17 -33.51,-29.11 -12.49,-12.02 -18.91,-20.13 -32.28,-30.35 -44.76,-34.18 -143.48,-131.66 -206.99,-181.28l-67.53 -57.74c-7.91,-7.54 -7.35,-6.54 -15.96,-13.26l-140.53 -118.33c-7.5,-6.67 -8.85,-9.16 -17.49,-15.91 -65.59,-51.26 -148.97,-132.68 -207,-177.12l-303.73 -276.6c-13.41,-13.49 -18.8,-17.36 -33.22,-29.41l-163.01 -158.47c-44.14,-44.13 -85.69,-85.05 -129.52,-129.35l-178.08 -206.03c-75.91,-97.23 -146.07,-199.11 -205.56,-307.99 -8.38,-15.32 -15.09,-25.62 -22.31,-40.31l-108.56 -212.94c-7.04,-14.07 -14.47,-27.99 -20.28,-42.32 -47.05,-116.22 -83.41,-167.44 -132.68,-318.26 -21.25,-65.05 -36.69,-136.61 -48.68,-210.17 -5.51,-33.85 -9.8,-80.09 -14.33,-115.09 -6.15,-47.6 -9.25,-193.19 -9.34,-249.52 -0.03,-25.82 -4.42,-32.36 -4.46,-58.17l4.18 -213.21c0.04,-27.28 4.32,-40.24 4.2,-70.95 -0.21,-55.34 25.2,-312.79 33.12,-351.06 12.64,-61.16 -3.1,-55.16 -56.27,-76.49 -89.85,-36.03 -165.46,-85.37 -239.18,-144.92l-80.87 -73.61c-9.15,-9.04 -11.27,-9.63 -20.54,-17.03l-58.84 -53.9c-9.04,-8.46 -11.92,-8.79 -20.84,-16.73 -61.16,-54.49 -127,-110.91 -198.09,-152.62 -65.96,-38.69 -126.79,-76.41 -199.36,-105.42 -39.79,-15.92 -72.17,-26.35 -117.63,-36.86 -39.06,-9.05 -106.05,-26.36 -106.05,26.72z"/>
  <path class="fil1" d="M13459.81 17299.04l836.13 0 0 239.25 -60.44 0c-42.82,0 -70.52,2.52 -85.63,10.07 -15.11,7.56 -25.19,20.15 -32.74,35.26 -7.56,17.63 -12.59,47.85 -12.59,93.19l0 536.43 -251.85 0 -65.48 -123.41c-75.55,50.37 -156.15,88.15 -239.26,115.85 -83.1,25.19 -168.73,37.78 -256.88,37.78 -158.66,0 -299.7,-37.78 -428.14,-115.85 -128.44,-75.55 -231.7,-181.33 -307.25,-319.84 -73.04,-136 -110.82,-289.63 -110.82,-458.37 0,-168.73 35.26,-319.84 110.82,-450.8 73.03,-133.48 176.29,-239.26 309.77,-314.81 133.48,-78.07 279.55,-115.85 433.18,-115.85 75.55,0 151.1,10.07 226.66,30.22 75.55,17.63 138.51,42.82 193.92,75.56l45.33 -75.56 171.26 0 153.63 566.66 -224.15 75.55c-78.07,-125.92 -138.51,-209.03 -183.85,-254.36 -45.33,-45.34 -95.7,-80.59 -153.62,-105.78 -57.93,-25.18 -113.33,-37.78 -168.74,-37.78 -78.07,0 -151.11,20.15 -219.11,65.48 -68,45.34 -120.88,110.82 -158.66,198.96 -40.3,85.63 -60.44,191.41 -60.44,314.81 0,133.48 22.66,251.85 65.48,350.07 42.81,100.74 98.22,173.77 168.73,221.62 70.52,47.86 146.07,70.52 229.18,70.52 60.45,0 115.85,-10.07 168.74,-35.26 52.89,-22.66 88.15,-50.37 108.3,-80.59 20.14,-27.7 30.22,-68 30.22,-118.37l0 -62.96c0,-42.81 -2.52,-70.52 -10.08,-83.11 -7.55,-15.11 -20.14,-27.7 -35.25,-35.26 -15.12,-7.55 -45.34,-10.07 -88.15,-10.07l-98.22 0 0 -239.25z"/>
  <path id="_1" class="fil1" d="M15035.95 16498.16l385.33 0 513.77 1324.72c27.7,70.51 52.89,113.33 75.55,128.44 20.15,17.63 60.45,25.18 118.37,25.18l0 236.74 -810.95 0 0 -236.74 50.37 -2.51c42.82,0 75.56,-5.04 93.19,-17.63 17.62,-12.6 27.7,-25.19 27.7,-42.82 0,-15.11 -7.56,-45.33 -22.67,-90.66l-50.37 -156.15 -523.84 0 -62.96 173.78c-15.11,35.26 -20.15,60.44 -20.15,70.51 0,15.11 5.04,25.19 12.59,37.78 10.08,10.07 25.19,17.63 47.85,22.67 12.6,2.52 52.89,5.03 115.85,5.03l0 236.74 -664.87 0 0 -236.74c42.81,0 73.03,-5.03 93.18,-12.59 20.15,-7.55 35.26,-17.63 47.85,-32.74 12.6,-15.11 27.71,-42.81 42.82,-83.11l531.39 -1349.9zm-52.88 924.28l342.51 0 -168.74 -473.47 -173.77 473.47z"/>
  <path id="_2" class="fil1" d="M16222.57 16498.16l1057.76 0c68,0 143.56,5.04 224.15,17.63 80.59,12.59 153.62,40.3 219.1,80.59 62.96,42.82 115.85,95.7 151.11,158.67 35.26,65.48 52.89,135.99 52.89,216.58 0,130.96 -45.33,236.74 -138.52,317.33 -93.18,80.59 -203.99,133.48 -329.92,158.67l352.59 410.51 15.11 17.63c22.67,27.7 42.81,47.85 62.96,62.96 17.63,12.59 37.78,22.66 55.41,27.7 20.15,7.56 45.33,10.07 78.07,10.07l75.56 0 0 236.74 -549.03 0 -551.55 -737.91 -143.55 0 0 339.99c0,60.45 2.52,98.22 10.07,113.33 7.56,15.11 17.63,27.71 30.23,35.26 15.11,7.56 45.33,12.59 88.14,12.59l78.08 0 0 236.74 -838.66 0 0 -236.74 75.56 0c40.29,0 70.52,-5.03 85.63,-12.59 17.63,-10.07 30.22,-22.66 37.77,-40.29 5.04,-10.08 7.56,-40.3 7.56,-90.67l0 -967.09c0,-37.78 -5.04,-62.96 -10.07,-80.59 -5.04,-15.11 -15.12,-25.19 -30.23,-30.22 -20.14,-10.08 -42.81,-12.6 -67.99,-12.6l-32.74 0 -65.49 0 0 -244.29zm632.14 282.07l0 443.25 254.37 0c100.74,0 176.29,-10.07 224.14,-27.7 50.37,-17.63 88.15,-45.33 113.33,-80.59 25.19,-32.74 37.78,-75.56 37.78,-123.41 0,-45.33 -12.59,-85.63 -35.26,-115.85 -25.18,-32.74 -57.92,-57.92 -100.74,-73.03 -42.81,-15.11 -113.33,-22.67 -211.55,-22.67l-282.07 0z"/>
  <path id="_3" class="fil1" d="M18196.64 16498.16l838.65 0 0 236.74 -73.04 0c-42.81,0 -67.99,2.52 -78.07,7.55 -20.15,7.56 -35.26,20.15 -42.81,35.26 -10.08,17.63 -12.6,45.33 -12.6,80.59l0 982.21c0,37.77 0,62.96 5.04,70.51 2.52,10.08 10.08,17.63 22.67,22.67 10.07,5.04 32.74,7.56 65.48,7.56 110.81,0 198.96,-15.12 264.44,-42.82 68,-27.7 128.44,-75.55 181.33,-138.51 52.89,-62.97 100.74,-148.59 138.51,-259.41l226.67 78.08 -226.67 634.65 -1309.6 0 0 -236.74 83.11 0c32.74,0 57.92,-5.03 75.55,-15.11 17.63,-7.55 30.22,-20.14 37.78,-35.26 7.55,-15.11 12.59,-42.81 12.59,-80.59l0 -969.61c0,-42.81 -5.04,-70.51 -12.59,-88.14 -7.56,-20.15 -20.15,-32.74 -32.74,-40.3 -15.11,-7.55 -37.78,-12.59 -73.04,-12.59l-90.66 0 0 -236.74z"/>
  <path id="_4" class="fil1" d="M19793.77 16498.16l836.13 0 0 236.74 -75.55 0c-45.34,0 -73.04,5.04 -88.15,12.59 -15.11,7.56 -25.19,20.15 -32.74,35.26 -5.04,17.63 -10.07,50.37 -10.07,98.22l0 949.46c0,50.37 2.51,83.11 10.07,98.22 5.04,15.11 15.11,25.19 27.7,32.74 17.63,10.08 42.82,15.11 78.08,15.11l90.66 0 0 236.74 -836.13 0 0 -236.74 68 0c47.85,0 80.59,-5.03 95.7,-10.07 12.59,-7.56 25.18,-20.15 32.74,-35.26 5.04,-15.11 10.07,-45.33 10.07,-88.15l0 -954.5c0,-52.88 -5.03,-88.14 -10.07,-105.77 -7.56,-15.11 -20.15,-27.7 -35.26,-37.78 -12.59,-7.55 -40.3,-10.07 -85.63,-10.07l-75.55 0 0 -236.74z"/>
  <path id="_5" class="fil1" d="M22133.01 16498.16l173.77 0 168.74 614.51 -229.18 68c-75.55,-146.07 -146.07,-251.85 -214.07,-312.29 -93.18,-85.63 -193.92,-125.93 -304.74,-125.93 -78.07,0 -153.62,20.15 -221.62,65.48 -70.52,42.82 -125.92,108.3 -166.22,196.44 -40.29,85.63 -60.44,186.37 -60.44,302.22 0,176.29 47.85,327.4 141.03,453.33 90.67,128.44 214.07,191.4 365.18,191.4 95.7,0 188.89,-27.7 277.03,-83.11 110.81,-68 206.52,-158.66 284.59,-274.51l191.4 143.55c-123.4,168.74 -236.73,284.59 -339.99,352.58 -156.15,100.74 -332.44,153.63 -528.88,153.63 -161.18,0 -307.25,-40.29 -438.21,-115.85 -130.96,-78.07 -234.22,-186.36 -312.29,-327.4 -78.08,-138.51 -115.85,-289.62 -115.85,-455.84 0,-163.7 37.77,-312.29 113.33,-448.29 75.55,-133.48 178.81,-239.25 309.77,-314.81 130.96,-75.55 277.03,-113.33 435.69,-113.33 163.71,0 307.26,35.26 430.66,103.26l40.3 -73.04z"/>
  <path id="_6" class="fil1" d="M24851.7 16498.16l173.77 0 168.74 614.51 -229.18 68c-75.55,-146.07 -146.07,-251.85 -214.07,-312.29 -93.18,-85.63 -193.92,-125.93 -304.74,-125.93 -78.07,0 -153.62,20.15 -221.62,65.48 -70.52,42.82 -125.92,108.3 -166.22,196.44 -40.29,85.63 -60.44,186.37 -60.44,302.22 0,176.29 47.85,327.4 141.03,453.33 90.67,128.44 214.07,191.4 365.18,191.4 95.7,0 188.89,-27.7 277.03,-83.11 110.81,-68 206.52,-158.66 284.59,-274.51l191.4 143.55c-123.4,168.74 -236.73,284.59 -339.99,352.58 -156.15,100.74 -332.44,153.63 -528.88,153.63 -161.18,0 -307.25,-40.29 -438.21,-115.85 -130.96,-78.07 -234.22,-186.36 -312.29,-327.4 -78.08,-138.51 -115.85,-289.62 -115.85,-455.84 0,-163.7 37.77,-312.29 113.33,-448.29 75.55,-133.48 178.81,-239.25 309.77,-314.81 130.96,-75.55 277.03,-113.33 435.69,-113.33 163.71,0 307.26,35.26 430.66,103.26l40.3 -73.04z"/>
  <path id="_7" class="fil1" d="M26311.57 16467.94c272,0 491.11,83.11 659.84,249.33 168.74,166.22 254.37,377.77 254.37,637.17 0,176.29 -40.3,329.92 -115.85,465.92 -78.07,133.48 -183.85,239.25 -319.85,312.29 -135.99,73.03 -299.7,110.81 -491.1,110.81 -254.36,0 -460.88,-70.52 -622.06,-209.03 -196.44,-168.74 -292.14,-392.88 -292.14,-674.95 0,-261.92 85.62,-475.99 254.36,-642.21 171.26,-166.22 395.4,-249.33 672.43,-249.33zm5.04 274.51c-130.96,0 -234.22,47.85 -312.29,146.07 -95.7,120.89 -143.55,279.55 -143.55,476 0,193.92 45.33,347.54 133.48,460.88 78.07,95.7 181.33,143.55 309.77,143.55 128.44,0 231.7,-47.85 307.25,-143.55 93.18,-115.85 138.52,-272 138.52,-463.4 0,-136 -20.15,-251.85 -60.45,-345.03 -37.77,-90.67 -90.66,-161.19 -156.14,-206.52 -68,-45.33 -138.52,-68 -216.59,-68z"/>
  <path id="_8" class="fil1" d="M27739.13 17775.03c62.96,0 118.37,22.66 163.7,67.99 42.81,45.34 65.48,98.23 65.48,161.19 0,62.96 -22.67,115.85 -65.48,161.18 -45.33,45.33 -100.74,68 -163.7,68 -62.96,0 -118.37,-22.67 -161.18,-68 -45.33,-45.33 -68,-98.22 -68,-161.18 0,-62.96 22.67,-115.85 68,-161.19 42.81,-45.33 98.22,-67.99 161.18,-67.99z"/>
  <path class="fil2" d="M19729.33 25019.89c-40.52,0 -62.17,-61.1 -71.63,-91.19 -2.57,-8.18 -6.8,-18.2 -17.43,-19.74 -21.52,-3.12 -3.56,-2.34 -11.13,2.38 -17.39,8.43 -14.9,29.36 -16.6,50.21 -23.91,292.42 75.04,278.26 75.04,617.81 -47.23,-12.6 -100.3,-91.04 -129.34,-129.51 -33.13,-43.86 -92.21,-92.99 -133.03,-130l-10.59 -10.3c-4.34,-4.72 -5.48,-6.38 -9.87,-10.99 -31.61,-33.2 -93.84,-76.8 -60.65,6.37 14.68,36.82 17.82,82.31 17.82,124.13 -130.52,-87.41 -168.45,-78.69 -322.53,-111.69 -16.69,-3.57 -136.73,-42.12 -136.73,-9.39 0,18.7 20.51,27.57 33.44,37.54 30.94,23.87 83.91,76.84 106.19,106.74 42.86,57.52 81.65,108.74 81.65,206.43 0,115.34 -84.36,72.32 -150.3,87.68 -0.43,19.18 -6.83,20.46 0.89,36.35 3.9,8 13.74,19.8 19.41,26.85 109.24,135.86 376.17,199.28 393.03,262.46l-139.15 52.89c-31.06,17.15 -53.02,44.26 -77.19,69.14 -15.51,15.97 -10.88,11.17 -9.11,32.44 32.23,7.52 68.41,0 104.38,0 14.39,0 16.17,3.1 29.22,4.18 -18.88,81.05 -100.1,129.28 -128.95,205.06 -3.12,8.19 -11.06,31.8 -10.67,42.08 1.8,46.79 74.69,8.6 96.34,1.84 23.94,-7.47 214.46,-61.18 214.46,-19.35 0,42.16 -24.69,85.6 -45.93,116.9 -5.56,8.2 -32.76,50.11 -4.17,50.11 23.46,0 111.82,-59.63 141.93,-75.18 128.63,-66.42 280.09,-231.67 396.66,-258.83 0.42,18.88 4.18,16.59 4.18,37.57 0,126.61 -3.92,192.17 -49.45,305.45 -40.22,100.09 -116.62,211.02 -220.07,251.72 -15.87,6.24 -41.71,10.5 -42.84,27.97 -1.33,20.84 28.8,15.81 46.4,19.01 34.88,6.37 66.07,24.86 72.78,60.82 4.49,24.04 0.19,44.81 26.17,44.81 14.43,0 18.78,-17.43 25.78,-28.5l52.57 -64.33c88.41,-99.18 154.55,-203.15 176.96,-340.76 5.23,-32.07 8.47,-62.37 13.72,-99.01 2.72,-18.95 0.97,-36.29 3.5,-54.96 6.35,-46.9 0.43,-106.74 -2.05,-155.57 127.04,-0.05 235.1,101.13 310.45,158.03 43.95,33.17 94.13,63.91 141.57,92.23l69.63 47.28c11.43,8.54 22.71,16 33.31,25.13 11.72,10.08 47.17,45.25 47.17,7.12 0,-37.41 -194.7,-279.37 106.79,-152.71 12.48,5.24 135.36,71.22 135.36,31.63 0,-49.23 -44.77,-110.67 -67.43,-141.33 -8.87,-11.97 -111.42,-146.75 -62,-146.75 46.44,0 137.78,58.69 137.78,20.87 0,-18.87 -9.72,-23.49 -19.04,-35.24 -75.7,-95.53 -182.8,-76.97 -223.11,-160.99l69.4 -22.45c64.19,-21.19 130.82,-54.27 185.33,-90.21 63.86,-42.13 74.3,-62.52 119.9,-109.75 132.59,-137.3 34.63,-82.37 -36.45,-82.37 -67.63,0 -82.64,-52.47 -75.59,-113.07 14.67,-125.97 104.66,-186.65 169.23,-269.26 8.93,-11.44 13.97,-15.7 22.71,-27.38 18.98,-25.36 29.78,-35.83 29.78,-70.44 -4.9,-1.29 -11.38,-4.17 -12.52,-4.17 -68.1,0 -310.18,154.48 -400.81,154.48 -38.92,0 -45.93,-9.82 -45.93,-50.09 0,-51.49 26.37,-58.71 16.7,-100.22 -26.05,-6.06 -33.87,5.11 -56.7,18.47 -38.81,22.7 -65.36,47.52 -96.78,78.57 -16.27,16.09 -25.01,30.53 -39.57,48.1 -12.42,15 -23.39,31.85 -34.9,48.6 -23.3,33.87 -50.15,66.24 -82.24,93.11 -9.95,8.34 -12.94,10.27 -22.92,19.33 -30.4,27.59 -21.78,-19.83 -21.78,-38.96 0,-161.43 87.68,-256.15 87.68,-400.82l-4 -208.93c-1.17,-20.2 -0.98,-45.75 -21.05,-45.75 -19.46,0 -27.25,72.06 -35.05,90.2 -35.08,81.8 -148.31,63.24 -211.96,-22.72 -26.19,-35.39 -46.87,-90.41 -64.96,-135.46 -29.81,-74.26 -47.78,-151.55 -73.65,-226.94 -6.8,-19.77 -15.92,-68.32 -40.24,-68.32 -25.28,0 -34.67,124.07 -40.87,151.18 -23.43,102.33 -47.8,200.27 -112.3,280.18 -23.96,29.7 -64.96,82.18 -114.05,82.18z"/>
  <path class="fil1" d="M14435.83 24983.94l1186.23 0 162.9 449.02 -183.78 66.83c-31.33,-73.1 -68.92,-133.66 -110.69,-177.52 -41.77,-45.95 -87.71,-75.18 -137.83,-89.8 -50.13,-14.62 -110.69,-20.89 -177.52,-20.89l-217.2 0 0 355.04 71.01 0c54.3,0 89.8,-4.18 108.6,-12.53 18.79,-8.36 33.41,-20.89 41.77,-37.6 6.26,-16.7 10.44,-48.03 10.44,-98.15l0 -54.3 181.69 0 0 601.47 -181.69 0 0 -60.57c0,-41.76 -4.18,-73.09 -14.62,-91.89 -8.36,-18.79 -22.97,-31.32 -39.68,-37.59 -16.71,-8.35 -54.3,-10.44 -112.78,-10.44l-64.74 0 0 325.8c0,35.5 2.09,56.38 6.27,62.65 2.08,8.35 8.35,14.62 18.79,18.79 10.44,4.18 31.33,6.27 64.74,6.27l119.04 0c87.72,0 162.9,-12.53 225.56,-39.68 60.56,-25.06 114.86,-66.83 162.89,-123.22 48.04,-56.39 85.63,-123.22 110.69,-202.58l185.87 64.74 -185.87 528.38 -1230.09 0 0 -196.31 35.5 0c48.04,0 79.36,-4.18 96.07,-10.45 16.71,-6.26 27.15,-18.79 35.51,-35.5 2.08,-10.44 4.17,-39.68 4.17,-87.71l0 -774.81c0,-41.77 -2.09,-68.92 -8.35,-81.45 -6.27,-14.62 -14.62,-22.98 -27.15,-29.24 -12.53,-6.27 -35.5,-10.44 -73.1,-10.44l-62.65 0 0 -196.32z"/>
  <path id="_1_0" class="fil1" d="M17011.22 24983.94l123.22 476.17 -190.05 54.3c-62.65,-112.78 -135.75,-196.32 -215.11,-248.53 -79.36,-52.21 -164.99,-79.36 -256.88,-79.36 -58.47,0 -104.42,12.53 -137.83,35.5 -33.42,22.98 -50.13,50.13 -50.13,79.37 0,33.41 14.62,64.74 45.95,93.98 29.24,27.14 85.63,54.29 164.99,75.18l273.58 79.36c152.46,43.86 258.97,102.33 323.71,173.34 64.74,73.1 96.07,158.72 96.07,254.79 0,123.22 -48.04,227.64 -146.19,311.18 -108.6,93.98 -246.44,142.01 -407.25,142.01 -77.27,0 -146.19,-10.44 -208.84,-29.24 -62.66,-18.79 -129.49,-52.21 -198.4,-98.15l-43.86 102.33 -152.46 0 -100.24 -551.35 190.04 -45.94c43.86,112.77 114.87,204.66 208.85,279.85 96.07,75.18 200.49,112.77 313.26,112.77 50.13,0 93.98,-6.26 127.4,-18.79 33.41,-12.53 58.48,-31.33 75.18,-54.3 16.71,-22.98 25.06,-45.95 25.06,-71.01 0,-41.77 -18.79,-75.18 -58.47,-104.42 -39.68,-29.24 -110.69,-58.48 -210.93,-87.72l-236 -68.91c-37.59,-10.45 -85.62,-29.24 -146.19,-58.48 -62.65,-27.15 -108.6,-56.39 -142.01,-87.72 -33.42,-29.23 -60.57,-68.91 -83.54,-116.95 -20.88,-48.03 -31.33,-98.15 -31.33,-152.45 0,-75.19 20.89,-144.11 62.66,-208.85 41.77,-62.65 104.42,-114.86 187.96,-154.54 83.53,-37.59 177.51,-58.48 279.85,-58.48 123.22,0 233.9,31.33 332.06,96.07l39.68 -71.01 146.19 0z"/>
  <path id="_2_1" class="fil1" d="M17416.73 24935.91l135.75 0 14.62 48.03 801.96 0 16.7 -48.03 135.75 0 177.52 499.14 -190.05 64.74c-41.77,-81.45 -73.09,-135.75 -91.89,-160.81 -35.5,-50.13 -77.27,-89.81 -123.22,-116.96 -35.5,-22.97 -71,-33.41 -104.42,-33.41 -16.71,0 -29.24,4.18 -35.5,12.53 -4.18,6.27 -8.36,25.06 -8.36,52.21l0 818.67c0,48.03 2.09,77.27 6.27,89.8 2.09,12.53 8.35,22.98 16.71,29.24 8.35,8.35 18.79,12.53 33.41,14.62 14.62,2.09 52.21,4.18 114.87,4.18l0 196.31 -693.37 0 0 -196.31 41.77 0c45.95,0 75.19,-4.18 87.72,-8.36 12.53,-6.26 22.97,-16.7 29.23,-31.32 8.36,-14.62 10.45,-45.95 10.45,-91.9l0 -835.37c0,-25.06 -2.09,-39.68 -8.36,-45.95 -4.17,-6.26 -16.7,-8.35 -33.41,-8.35 -35.51,0 -75.19,12.53 -119.04,39.68 -43.86,27.15 -81.45,64.74 -116.96,112.78 -12.53,18.79 -41.76,71 -85.62,158.72l-187.96 -64.74 175.43 -499.14z"/>
  <path class="fil1" d="M21549.51 25547.82l-206.75 18.8c-6.27,-35.51 -10.45,-68.92 -10.45,-102.34 0,-98.15 22.98,-181.69 68.92,-254.79 45.95,-73.09 116.96,-131.57 213.02,-179.6 98.16,-48.04 204.67,-71.01 321.62,-71.01 108.6,0 206.76,20.89 292.39,62.65 87.71,39.68 154.54,93.98 198.4,158.73 43.85,64.74 66.83,133.66 66.83,206.75 0,73.1 -16.71,139.93 -48.04,202.58 -33.41,71.01 -91.89,139.93 -169.16,206.76 -79.36,64.74 -235.99,171.25 -474.08,315.35l342.51 0c54.3,0 89.8,-2.09 104.42,-8.35 16.71,-6.27 29.24,-16.71 39.68,-33.42 10.44,-16.71 20.88,-45.94 27.15,-87.71l8.35 -48.04 198.41 0 -93.98 522.11 -133.66 0 -12.54 -50.12 -939.79 0 0 -196.31c137.83,-89.81 313.26,-223.47 526.28,-398.9 108.6,-89.8 181.7,-167.07 217.2,-231.81 27.15,-48.04 39.68,-98.16 39.68,-150.37 0,-60.56 -25.06,-110.69 -75.18,-152.46 -50.12,-41.76 -116.95,-62.65 -200.49,-62.65 -62.66,0 -114.87,10.44 -160.81,33.42 -45.95,22.97 -81.45,56.38 -106.51,98.15 -27.15,41.77 -39.68,85.63 -39.68,133.66 0,16.71 2.09,39.68 6.26,68.92z"/>
  <path id="_1_2" class="fil1" d="M23316.68 24958.88c127.4,0 236,27.15 327.89,83.54 89.8,54.3 162.9,135.75 213.02,238.08 52.21,104.42 77.27,235.99 77.27,396.8 0,179.61 -22.97,319.54 -71.01,417.69 -52.21,110.69 -125.3,194.23 -217.19,250.62 -91.9,56.38 -204.67,85.62 -336.24,85.62 -131.57,0 -240.17,-27.15 -329.98,-83.54 -89.8,-54.3 -160.81,-135.74 -213.02,-242.26 -52.21,-106.51 -77.27,-242.25 -77.27,-409.33 0,-167.07 25.06,-302.82 77.27,-407.25 52.21,-106.51 125.31,-187.95 217.2,-244.34 91.89,-56.39 202.58,-85.63 332.06,-85.63zm265.23 737.22c0,-187.96 -27.15,-321.62 -83.53,-405.16 -48.04,-73.09 -112.78,-108.6 -192.14,-108.6 -73.1,0 -135.75,37.6 -183.78,114.87 -50.13,77.27 -75.19,208.84 -75.19,398.89 0,187.96 25.06,321.62 75.19,396.8 50.12,77.28 112.77,114.87 190.05,114.87 75.18,0 139.92,-39.68 192.13,-116.95 52.21,-79.37 77.27,-210.94 77.27,-394.72z"/>
  <path id="_2_3" class="fil1" d="M24306.95 25547.82l-206.75 18.8c-6.27,-35.51 -10.45,-68.92 -10.45,-102.34 0,-98.15 22.98,-181.69 68.92,-254.79 45.95,-73.09 116.96,-131.57 213.02,-179.6 98.16,-48.04 204.67,-71.01 321.62,-71.01 108.6,0 206.76,20.89 292.39,62.65 87.71,39.68 154.54,93.98 198.4,158.73 43.85,64.74 66.83,133.66 66.83,206.75 0,73.1 -16.71,139.93 -48.04,202.58 -33.41,71.01 -91.89,139.93 -169.16,206.76 -79.36,64.74 -235.99,171.25 -474.08,315.35l342.51 0c54.3,0 89.8,-2.09 104.42,-8.35 16.71,-6.27 29.24,-16.71 39.68,-33.42 10.44,-16.71 20.88,-45.94 27.15,-87.71l8.35 -48.04 198.41 0 -93.98 522.11 -133.66 0 -12.54 -50.12 -939.79 0 0 -196.31c137.83,-89.81 313.26,-223.47 526.28,-398.9 108.6,-89.8 181.7,-167.07 217.2,-231.81 27.15,-48.04 39.68,-98.16 39.68,-150.37 0,-60.56 -25.06,-110.69 -75.18,-152.46 -50.12,-41.76 -116.95,-62.65 -200.49,-62.65 -62.66,0 -114.87,10.44 -160.81,33.42 -45.95,22.97 -81.45,56.38 -106.51,98.15 -27.15,41.77 -39.68,85.63 -39.68,133.66 0,16.71 2.09,39.68 6.26,68.92z"/>
  <path id="_3_4" class="fil1" d="M25685.67 25547.82l-206.75 18.8c-6.27,-35.51 -10.45,-68.92 -10.45,-102.34 0,-98.15 22.98,-181.69 68.92,-254.79 45.95,-73.09 116.96,-131.57 213.02,-179.6 98.16,-48.04 204.67,-71.01 321.62,-71.01 108.6,0 206.76,20.89 292.39,62.65 87.71,39.68 154.54,93.98 198.4,158.73 43.85,64.74 66.83,133.66 66.83,206.75 0,73.1 -16.71,139.93 -48.04,202.58 -33.41,71.01 -91.89,139.93 -169.16,206.76 -79.36,64.74 -235.99,171.25 -474.08,315.35l342.51 0c54.3,0 89.8,-2.09 104.42,-8.35 16.71,-6.27 29.24,-16.71 39.68,-33.42 10.44,-16.71 20.88,-45.94 27.15,-87.71l8.35 -48.04 198.41 0 -93.98 522.11 -133.66 0 -12.54 -50.12 -939.79 0 0 -196.31c137.83,-89.81 313.26,-223.47 526.28,-398.9 108.6,-89.8 181.7,-167.07 217.2,-231.81 27.15,-48.04 39.68,-98.16 39.68,-150.37 0,-60.56 -25.06,-110.69 -75.18,-152.46 -50.12,-41.76 -116.95,-62.65 -200.49,-62.65 -62.66,0 -114.87,10.44 -160.81,33.42 -45.95,22.97 -81.45,56.38 -106.51,98.15 -27.15,41.77 -39.68,85.63 -39.68,133.66 0,16.71 2.09,39.68 6.26,68.92z"/>
  <path class="fil2" d="M23424.46 24657.99c133.4,24.96 208.8,34.27 323.44,93.24 135.21,69.52 149.84,99.56 239.91,181.31 14.32,-7.71 41.46,-43.44 86.51,-73.71 111.58,-74.98 169.41,-121.2 328.65,-166.09 151.23,-42.64 356.23,-52.02 513.12,-15.31 23.47,5.49 42.71,13.04 65.6,16.93 18.64,-15.5 254.41,-135.38 297.49,-160.25 57.7,-33.28 120.6,-65.74 175.41,-103.96 10.36,-7.23 16.43,-10.04 18.84,-26.09 4.17,-27.68 -54.5,-126.24 -68.84,-155.19 -50.85,-102.67 -106.21,-202.98 -167.31,-299.8l-471.48 -682.57c-46.2,-62.37 -271.01,-320.21 -316.82,-374.71 -14.31,-17.03 -29,-31.93 -42.45,-49.14 -101.83,-130.3 -291.55,-312.81 -406.12,-427.37 -89.74,-89.72 -182.47,-201.83 -280.88,-277.84 -11.04,-8.51 -14.11,-12.96 -23.61,-22.19l-169.56 -155.59c-16.3,-16.66 -30.7,-27.33 -48.04,-43.56 -10.47,-9.79 -14.75,-10.76 -25.28,-20.51l-325.63 -278.9c-68.22,-55.54 -134.72,-106.99 -203.61,-162.75l-312.61 -241.52c-88.66,-66.45 -176.18,-132.5 -268.53,-194.04 -167.04,-111.32 -331.89,-229.74 -501.99,-336.09 -38.52,-24.1 -74.31,-45.31 -112.67,-70.52l-229.14 -141.83c-41.17,-24.76 -76.32,-45.68 -118.5,-69.26l-325.24 -178.54c-12.54,-7 -15.26,-9.86 -29.01,-16.79 -23.21,-11.68 -36.64,-20.58 -59.64,-31.96l-62.5 -33.68c-80.65,-45.07 -163.57,-83.97 -245.84,-125.1 -121.45,-60.71 -250.57,-126.97 -376.21,-177.95 -21.98,-8.92 -42.54,-18.75 -63.61,-27.99 -22.73,-9.96 -43.62,-18.73 -67.3,-28.87 -436.4,-186.99 -795.87,-302.63 -1247.05,-415.44 -48.67,-12.18 -103.88,-20.66 -152.78,-34.99 -302.63,-88.72 -781.19,-164.56 -1093.66,-197.88 -86.83,-9.26 -172.59,-8.65 -258.4,-20.99l-217.34 -11.65c-22.82,-0.54 -22.82,-4.23 -45.59,-4.79 -117.73,-2.88 -237.61,-14.04 -357.38,-13.6 -36.3,0.13 -53.82,-4.84 -86.9,-4.7 -30.59,0.12 -61.27,0.31 -91.86,0.26 -30.94,-0.04 -50.9,-4.82 -86.86,-4.73 -73.6,0.16 -202.13,2.68 -267.58,-7.23 -45.72,-6.91 -135.24,-2.04 -185.96,-1.82l-177.26 -5.94c-53.88,-7.39 -123.97,-0.04 -184.47,-3.31l-173.87 -9.34c-64.94,-0.08 -120.21,-0.99 -183.38,-4.4l-173.35 -9.84c-68.04,-7.54 -152.97,-5.05 -221.2,-12.39 -15.05,-1.62 -28.57,0.11 -43.86,-1.94 -27.63,-3.71 -55.1,-2.17 -88.42,-3.17l-351.26 -19.72c-65.64,-8.95 -140.31,-4.16 -177.94,-9.85 -71.4,-10.78 -450.58,-28.06 -524.2,-29.97l-256.48 -18.32c-112.06,-2.91 -493.39,-55.75 -580.19,-70.17 -347.83,-57.8 -576.62,-102.39 -923.76,-189.15 -196.97,-49.22 -388.18,-103.08 -581.48,-160.47 -95.77,-28.43 -188.6,-56.04 -282.86,-83.52 -48.11,-14.03 -95.81,-27.04 -142.02,-41.18 -47.67,-14.58 -93.35,-31.13 -140.82,-46.95l-730.13 -286.59c-12.15,-5.18 -20.13,-9.92 -30.67,-15.12 -11.94,-5.91 -21.77,-8.96 -35.2,-15.18 -83.34,-38.61 -162.01,-82.65 -238.77,-132.2 -46.95,-30.29 -93.88,-57.13 -136.93,-92.06l-236.28 -180.47c-17.12,-12.78 -37.19,-32.34 -58.21,-37.96 0,134.09 65.31,314.97 97.98,446.96 12.53,50.61 26.9,94.19 40.39,142.8 38.61,139.09 88.91,277.51 134.7,414.82 45.5,136.43 98.28,264.9 151.55,397.99l276.07 639.83c64.59,145.26 141.6,281.42 212.26,424.29 11.48,23.23 20.68,36.47 32.08,59.51l163.1 294.85c77.47,134.35 162.04,266.22 242.11,399.02 68.5,113.62 143.62,221.7 218.87,330.69 89.43,129.52 254.76,360.77 350.99,468.75l41.52 50.07c83.62,98.82 173.66,193.9 254.44,295.13 14.27,17.88 30.06,28.22 44.62,46.97 55.58,71.64 33.69,45.54 227.8,-50.72 22.27,-11.04 38.89,-19.35 61.13,-30.46l180.09 -94.7c20.6,-10.29 39.25,-19.35 61.14,-30.45l120.56 -62.63c207.52,-111.74 632.76,-286.52 833.35,-352.83l204.97 -69.81c47.93,-15.98 89.43,-30.12 137.34,-45.86 24.16,-7.93 48.38,-13.48 71.62,-19.98l360.9 -97.09c211.23,-52.8 703.04,-148.11 921.24,-177.93 51.98,-7.1 110.97,-14.93 161.89,-21.31l337.59 -28.81c20.7,-0.99 64.89,-5.32 83.71,-7.9 38.32,-5.23 211.99,-5.39 257.87,-12.34 41.19,-6.23 688.76,-6.69 728.22,-0.71 58.2,8.8 116.12,4.86 172.08,11.14 88.68,9.94 234.85,12.98 342.13,24.25 218.01,22.94 432.96,50.42 646.5,86.29 352.85,59.29 695.26,142.97 1038.7,239.11 139.86,39.15 277.49,87.42 416.01,133.56 219.44,73.1 693.07,259.72 911.6,370.75 122.25,62.11 250.15,111.69 367.07,182.5 18.53,11.23 38.09,20.53 56.05,30.96 56.74,32.97 123.24,62.73 178.69,96.1 38.59,23.24 74.92,45.61 113.34,69.85 38.9,24.54 74.76,44.17 113.54,69.66 139.21,91.52 303.65,182.52 451.61,281.14 164.86,109.89 318.29,230.59 476.07,348.27l591.34 503.22 563.23 581.67c52.98,53.46 168.38,184.53 214.25,243.72l201.43 256.52c7.57,9.92 11.85,14.1 20.37,25.42 39.27,52.2 81.26,103.26 117.08,157.7 12.34,18.75 25.85,34.52 36.63,54.98z"/>
  <path class="fil2" d="M21862.68 24657.05c180.55,-2.75 297.66,6.29 452.16,70.83 64.73,27.03 126.92,57.04 173.02,92.68 57.39,44.36 83.91,59.78 135.23,116.46 8.63,9.54 0.73,3.06 10.6,9.61 20.26,-22.22 35.19,-38.28 58.29,-59.5 41.99,-38.57 85.4,-75.18 134.69,-103.38 17.26,-9.87 64.26,-32.57 74.88,-43.36 -19.62,-35.18 -72.5,-99.84 -99.34,-133.43 -9.23,-11.55 -16.96,-20.83 -26.67,-32.87l-80.48 -98.12c-18.65,-20.91 -34.13,-40.44 -52.36,-62.13l-81.92 -96.67c-11.4,-14.69 -15.58,-18.72 -28.31,-31.24l-167.92 -184.71c-24.94,-32.28 -210.99,-217.1 -235.09,-241.19 -41.08,-41.07 -80.18,-75.58 -121.37,-116.77 -10,-10 -17.2,-18.09 -27.42,-27.53 -91.54,-84.65 -184.19,-171.67 -282.88,-248.37l-97.57 -81.03c-74.02,-62.91 -155.16,-121.04 -232.24,-179.94l-135.41 -102.73c-47.56,-34.4 -92.22,-65.05 -138.64,-99.5 -194.33,-144.2 -406.45,-263.99 -613.6,-389.37 -73.65,-44.59 -151.5,-83.84 -226.72,-125.92 -115.98,-64.9 -235.22,-122.08 -354.25,-181.58 -285.32,-142.64 -714.45,-317.76 -1005.14,-414.61 -60.59,-20.19 -116.41,-40.28 -177.46,-60.69 -119.06,-39.82 -240.09,-74.89 -365.98,-110.31 -58.84,-16.55 -124.88,-33.4 -185.12,-48.46 -33.24,-8.31 -62.19,-17.06 -94.25,-24.83l-286.93 -65.72c-234.23,-46.82 -471.89,-86.83 -708.74,-120.23 -34.81,-4.9 -71.45,-11.39 -104.94,-14.13 -73.9,-6.04 -143.58,-18.32 -215.03,-23.13l-554.02 -32.22c-39.83,0.05 -83.09,1.15 -115.76,-3.32 -117.54,-16.11 -552.89,12.13 -695.08,12.32 -89.24,0.13 -336.29,32.95 -434.81,41.5 -211.64,18.38 -407.83,55.3 -609.66,95.66 -66.81,13.35 -130.84,28.38 -196.18,41.97 -191.32,39.79 -374.52,94.97 -561.79,148.09 -31.78,9.02 -60.45,20.37 -89.5,29.58 -32.01,10.16 -59.45,18.17 -90.52,28.56 -231.61,77.37 -456.47,170.56 -678.45,269.57 -187.04,83.43 -371.33,176.82 -547.59,281.35 -31.06,18.42 -47.91,22.28 -70.64,48.41 6.79,29.2 25.56,41.6 44.64,60.69 34.84,34.8 100.68,98.71 130.08,135.54 10.56,13.24 13.15,17 25.63,29.32 44.1,43.55 111.41,125.46 151.09,164.9l103.12 112.13c51.03,51.33 48.96,28.65 137.73,-15.7 220.53,-110.18 444.77,-204.72 675.69,-290.66 351.12,-130.68 625.24,-208.33 989.92,-297 235.84,-57.35 477.45,-97.78 719.91,-131.96 105.97,-14.94 276.32,-38.62 383.94,-42 100.51,-3.16 199.56,-18.97 302.34,-18.26 37.59,0.26 63.59,-4.66 105.27,-4.64 135.61,0.07 284.94,-15.55 417.46,-0.67 29.62,3.33 73.64,0.46 104.83,0.51 25.16,0.04 29.46,3.64 50.2,4.76 17.78,0.96 37.23,-0.71 55.13,-0.18l98.68 6.67c19.91,3 31.24,2.29 52.48,2.47 48.19,0.42 198.6,17.27 243.4,22.25 371.17,41.24 728.88,103.05 1089.22,193.15 27.87,6.96 55.31,12.87 84.07,21.28 30.27,8.85 56.54,13.98 87.02,22.89 304.6,89 581.46,177.99 876.43,296.01 123.5,49.41 323.43,139.11 445.58,200.17 120.8,60.39 232.51,118.09 348.33,187.5l403.63 237.54c310.98,188.17 588.26,396.39 866.16,631.39l283.83 251.99c68.38,65.8 151.92,139 215.14,210.78 10.62,12.06 12.89,17.58 25.16,29.8l105.45 109.79c12.49,12.35 14.53,16.65 25.36,29.6 16.04,19.2 35.32,34.23 52.51,52.81 10.88,11.74 13.21,18 25.05,29.91 10.06,10.12 18.27,17.02 26.43,27.62z"/>
  <path class="fil2" d="M19714.63 24374.05c16.39,-8.19 18.43,-26.92 31.36,-46.5 11.16,-16.91 125.71,-66.41 147.82,-76.73 20.83,-9.71 87.83,-46.22 104.96,-47.19 15.52,-0.86 99.42,21.98 120.37,26.8 46.35,10.67 59.03,36.94 92.22,58.91 26.21,17.37 54.94,53.54 70.16,81.39 39.7,72.66 50.75,141.52 80.03,217.15 76.84,-32.01 69.62,-20.42 147.06,8.89 25.46,9.64 47.86,17.77 73.37,27.37 76.76,28.87 40.93,6.25 103.35,98.33 94.92,140.03 39.55,110.65 66.29,235.79 41.89,2.8 77.17,12.63 115.39,21.7 49.61,11.77 62.57,23.85 109.92,5.87 43.11,-16.36 61.51,-19.7 109.19,-27.49 178.38,-29.18 69.23,46.06 163.87,-42.91l43.29 -39.15c16.39,-13.74 27.29,-20.52 46.84,-35.48 7.79,-5.96 15.6,-11.1 24.53,-16.79l23.32 -19.51c-84.23,-93.63 -181.04,-176.97 -266.12,-262.16l-379.3 -330.54c-35.26,-27.68 -64.6,-50.78 -100.79,-77.83l-147.83 -113.22c-18.48,-13.65 -34.39,-23.91 -53.7,-37.87 -211.25,-152.81 -539.67,-333.56 -769.41,-471.71l-232.51 -124.72c-40.28,-20.3 -81.31,-37.22 -123.41,-55.2 -83.52,-35.68 -158.58,-73.95 -242.74,-109.91 -85.24,-36.4 -165.21,-69.57 -252.6,-104.62 -77.9,-31.26 -433.93,-155.44 -528.35,-181.52 -42.52,-11.74 -88.03,-29.94 -132.82,-41.21 -45.44,-11.45 -92.53,-24.74 -140.3,-38.32 -95.04,-26.99 -192.45,-47.16 -287.58,-69.66 -48.39,-11.45 -92.91,-19.71 -142.81,-31.22 -135.49,-31.22 -308.39,-58.57 -449,-82.26 -102.83,-17.32 -206.98,-29.64 -310.33,-42.33 -84.73,-10.41 -254.45,-19.7 -326.98,-30.27l-336.29 -16.36c-114.73,0 -232.24,-8.33 -352.82,-4.73 -27.38,0.82 -48.08,4.91 -82.31,4.69l-206.74 13.11c-14.91,1.64 -30.1,-0.28 -44.89,0.91 -106.14,8.5 -222.91,15.37 -327.41,29.83 -107.83,14.92 -204.24,27.45 -308.12,44.53 -145.5,23.94 -445.59,76.99 -590.55,119.34l-279.07 78.16c-45.78,12.99 -87.32,27.27 -131.9,42.14 -175.07,58.35 -282.22,100.72 -450.37,172.48 -74.94,31.98 -169.38,80.46 -242.13,110.5l-121.02 57.6c-23.77,11.87 -43.98,13.75 -50.38,41.22 14.53,21.69 50.73,41.44 75.12,57.69 82.04,54.69 161.47,112.16 237.74,174.43l233.01 179.16c41.23,28.32 48.28,28.92 96.92,7.01 126.65,-57.05 264.1,-103.13 400.88,-148.7 137.06,-45.67 275.42,-88.72 423.78,-125.79 146.14,-36.53 293.53,-69.46 449.62,-95.39 82.15,-13.66 154.68,-23.85 238.76,-36.05 62.12,-9.01 311.45,-35.63 376.81,-35.38 36.27,0.13 98.2,-3.48 129.62,-7.79 38.67,-5.29 91.59,-4.53 131.72,-5.68l334.34 -9.45c24.35,0.72 34.48,4.95 63.91,4.79l389.41 18.22c44.67,2.12 82.98,4.93 126.89,10.49 80.31,10.18 163.45,19.89 243.79,31.01 378.68,52.45 757.92,138.51 1116.06,257.91 71.44,23.82 133.54,46 204.98,69.81l492.91 194.06 279.38 132.8c168.61,84.22 282.48,149.79 438.8,248.17l242.69 151.17c5.19,3.86 6.3,4.9 10.1,8.21z"/>
  <path class="fil2" d="M23012.26 20857.19c3.53,15.13 8.5,21.84 20.97,34 0.67,0.66 1.66,1.58 2.35,2.21 67.94,63.6 140.56,118.96 206.76,177.95 8.22,7.33 9.67,10.05 19.18,17.45 44.27,34.44 328.61,285.84 336.99,285.84 13.78,0 193.52,-69.77 231.64,-84.37 128.99,-49.42 271.28,-90.53 406.91,-128.92 669.65,-189.5 1594.6,-281.26 2274.36,-281.26 55.86,0 240.79,-3.24 273.55,1.25 48.88,6.7 113.38,-1.85 165.46,3.99l160.97 8.5c65.76,-0.67 377.57,26.34 470.41,37.96 96.67,12.09 202.48,22.07 301.05,37.88 159.91,25.64 420.6,69.34 570.49,107.33 140.32,35.55 260.62,66.24 396.74,111.63 171.84,57.28 126.2,70.31 235.31,-93.32 31.94,-47.89 61.62,-94.71 94.35,-143.79 32.5,-48.74 62.25,-90.43 95.27,-138.28 101.92,-147.66 167.64,-150.76 -23,-214.21 -48.67,-16.2 -98.23,-34.84 -144.68,-47.68 -48.89,-13.5 -97.2,-27.44 -145.03,-42.76 -117.82,-37.7 -415.41,-105.37 -537.69,-126.38l-578.37 -90.3c-117.67,-16.8 -383.18,-29.94 -523.44,-44.48 -113.79,-11.81 -250.78,-18.17 -362.61,-17.53 -35.61,0.21 -53.86,-4.79 -91.53,-4.65l-458.04 -0.02c-104.54,-0.54 -268.77,13.47 -375.69,13.61 -66.15,0.08 -282.15,25.82 -361.58,27.71 -119.64,2.86 -240.14,24.38 -357.18,32.14 -139.5,9.22 -560.77,79.79 -683.24,99.92 -420.1,69.01 -1046.6,228.05 -1439.42,378.78 -33.37,12.81 -60.37,22.69 -92.87,35.37 -29.07,11.35 -73.62,22.4 -88.39,44.43z"/>
  <path class="fil2" d="M17264.31 24630.49l514.02 1.11 15.52 47.33 356.93 -0.14c7.5,-15.65 9.64,-40.22 24.96,-48.22l554.18 0c16.97,8.77 30.97,68.01 38.73,89.46l97.88 276.38c90.02,-8.05 124.96,-5.14 209.96,15.59 90.24,22.02 100,39.45 148.76,-36.97l81.69 1.09c3.82,-120.27 13.88,-114.71 53.03,-210.28 17.04,-41.59 20.43,-23.18 38.73,-48.35l-526.77 -293.09 -283.98 -128.2c-49.13,-19.36 -94.33,-40.46 -145.26,-60.85 -74.6,-29.84 -219.37,-87.16 -299.5,-112.67 -54.05,-17.21 -104.47,-33.03 -155.79,-50.3 -376.97,-126.8 -969.29,-251.29 -1364.69,-284.08l-384.31 -27.89c-31.36,-1.7 -68.88,-0.1 -100.84,0.09 -58.53,0.32 -128.42,-10.82 -198.14,-1.32l-534.75 33.17c-70.99,1.85 -253.53,30.26 -320.49,41.31 -340.32,56.24 -611.39,139.66 -923.38,258.23 -20.66,7.84 -20.15,8.54 -29.24,25.72 11.42,17.04 13.95,16.22 33.58,25.96l416.71 251.92c52.13,31.1 101.64,58.36 153.37,89.37l191.61 111.02c28.25,13.85 113.64,-14.86 147.08,-21.49 65.57,-12.99 133.89,-26.05 206.46,-36.28 69.9,-9.85 139.84,-18.95 215.21,-27.5 34.36,-3.91 71.78,-4.99 110.05,-9.04l320.58 -13.77c50.41,-5.42 78.43,0.73 142.7,0.73l178.78 4.42c26.51,0.04 31.24,4.22 54.66,4.89 249.14,7.13 700.43,69.63 937.41,125.13 1.05,0.25 10.4,2.4 11.14,2.62l13.41 4.9z"/>
  <path class="fil2" d="M24015.29 21750.14c13.29,25.11 3.85,13.36 21.35,29.03l237.07 216.32 214.39 243.57c9.78,9.84 15.59,14.38 24.48,25.89l35.33 37.98c3.01,2.59 12.46,10.34 15.47,12.34 13.44,8.94 13.74,6.57 35.08,-0.09 15.31,-4.77 25.24,-7.11 39.74,-10.92l322.4 -85.21c229.03,-58.15 641.24,-112.97 873.64,-138.53 63.35,-6.97 127.77,-2.5 189.76,-11.76 63.62,-9.5 130.02,-0.75 193.62,-7.89 136.82,-15.36 540.32,-11.37 683.34,0.42 40.54,3.34 94.67,-0.18 156.74,8.15 34.93,4.68 68.28,3.31 103.83,6.09l296.02 33.73c284.52,43.97 377.64,60.38 635.96,133.46 133.19,37.67 77.95,44.51 198.47,-90.67l230.07 -269.12c46.85,-60.62 107.09,-117.71 146.56,-192.31 -38.41,-25.73 -50.75,-29.89 -103.48,-43.07 -42.47,-10.62 -75.79,-22.45 -118.16,-32.98l-243.69 -58.58c-282.77,-71.82 -782.61,-132.25 -1055.49,-153.62l-211.1 -13.31c-24.43,-2.75 -52.37,1.12 -76.95,-0.91 -122.29,-10.13 -257.35,-8.93 -384.97,-8.93 -615.42,0 -1317.47,77.81 -1908.08,212.44 -161.41,36.79 -267.47,63.01 -422.6,108.67 -74.2,21.84 -68.51,9.45 -128.8,49.81z"/>
  <path class="fil2" d="M24967.95 22757.58c0,17.54 98.66,125.61 114.58,146.45 110.21,144.4 178.58,227.63 272.78,382.1 9.32,15.26 16.66,26.17 24.61,39.5 10.04,16.81 17.82,26.23 27.71,40.99 8.64,-0.2 52.15,-5.01 61.37,-7.34 18.42,-4.66 33.7,-10.76 53.12,-15.57 192.71,-47.68 283.78,-59.9 480.52,-82.8 288.53,-33.59 601.92,-29.26 885.71,8.17 41.64,5.48 181.78,27.94 208.43,19.11 21.27,-7.03 74.39,-56.74 100.28,-78.64l469.64 -418.8c15.72,-13.85 48.47,-45.09 53.84,-65.23 -20.52,-30.64 -110.22,-35.24 -147.35,-40.42 -152.8,-21.33 -350.37,-54.61 -503.43,-69.07 -113.76,-10.73 -231.57,-24.91 -352.33,-27.8l-370.89 -13.83c-96.74,0 -464.31,12.36 -556.18,25.49 -59.79,8.55 -119.72,13.3 -177.02,19.92 -120.4,13.92 -225.51,31.94 -337.97,51.32l-241.41 51.72c-25.64,5.04 -66.01,6.61 -66.01,34.73z"/>
  <path class="fil2" d="M25783.19 23801.64c-77.43,0 -42.22,37.63 -0.89,101.64l120.12 200.44c6.93,12.39 17.65,32.21 36.49,32.21 32.3,0 153.78,-82.11 195.01,-107.26 22.51,-13.72 39.12,-26.28 61.26,-39.5 40.76,-24.32 79.64,-53.7 122.4,-79.1 44.15,-26.23 86.07,-50.06 128.85,-77.24 13.77,-8.75 58.33,-35.54 22.37,-47.72l-296.3 7.38c-93.04,0 -206.54,8.34 -293.28,9 -23.25,0.18 -27.43,5.03 -45.38,4.51 -16.27,-0.46 -26.62,-4.36 -50.65,-4.36z"/>
  <path class="fil1" d="M8944.24 12218.26l410.87 -1184.89c93.23,-268.85 211.19,-469.62 348.25,-596.84 141.54,-129.39 311.4,-211.79 514.05,-249.34 198.17,-35.39 417.9,-14.98 650.23,65.59 162.63,56.39 299.46,133.59 412.79,224.94 112.19,94.67 204.18,204.65 273.7,336.58 70.66,128.61 111.32,257.97 126.44,385.92 11.06,96.78 0.65,223.3 -24.58,381.87 -29.71,160.74 -57.87,284.82 -88.94,374.43l-362.54 1045.5 -311.98 -108.18 27.62 -79.66c21.86,-63.05 30.19,-108.51 28.28,-135.19 -3.05,-23.37 -17.21,-46.87 -39.16,-69.36 -17.61,-13.54 -58.45,-35.14 -128.16,-59.31l-1234.68 -428.13c-69.69,-24.17 -118.46,-33.64 -140.68,-33.91 -23.37,3.05 -42.4,15.05 -59.26,31.51 -18.02,19.78 -39.61,60.62 -62.63,127l-27.62 79.66 -312 -108.19zm648.36 -700.99l1407.27 487.98c46.47,16.11 77.48,23.15 89.74,19.97 18.9,-0.89 33.47,-10.71 45.85,-25.01 12.4,-14.29 29.53,-52.97 51.39,-116.03 62.15,-179.23 80.62,-328.98 62.04,-446.97 -18.58,-117.99 -80.57,-228.72 -178.19,-333.21 -98.77,-101.17 -233.3,-185 -399.25,-242.54 -162.63,-56.4 -315.71,-76.02 -459.23,-58.87 -142.37,13.85 -250.66,58.1 -329.22,123.81 -79.71,69.03 -148.85,182.63 -204.09,341.95l-86.31 248.92z"/>
  <path id="_1_5" class="fil1" d="M10770.95 8139.78c218.96,-309.83 490.01,-492.53 815.2,-550.92 325.18,-58.41 635.09,14.35 930.58,223.17 200.82,141.92 343.38,311.5 437.47,507.04 89.2,196.39 124.54,402.03 98.26,615.74 -26.29,213.72 -115.03,430.61 -269.11,648.64 -204.77,289.74 -451.35,468.22 -738.89,540.32 -350.35,87.94 -682.72,16.51 -1004.03,-210.56 -298.36,-210.85 -473.28,-480.72 -526.78,-806.74 -51.48,-328.89 34.29,-651.12 257.3,-966.69zm316.75 215.25c-105.42,149.17 -134.04,305.32 -85,473.32 60.66,206.33 202.88,388.57 426.65,546.71 220.9,156.11 432.4,228.14 632.45,218.96 171.86,-11.89 309.5,-90.99 412.9,-237.3 103.4,-146.32 132.01,-302.46 83.81,-465.56 -56.95,-199.41 -198.33,-376.75 -416.36,-530.83 -154.91,-109.48 -303.1,-179.79 -441.69,-208.9 -133.68,-29.96 -256.58,-26.48 -360.94,11.62 -106.38,40.96 -188.97,103.04 -251.82,191.98z"/>
  <path id="_2_6" class="fil1" d="M12079.96 6508.99l864.64 -602.55 188.8 270.93c-57.64,40.17 -90.21,67.14 -99.74,78.06 -12.4,12.92 -17.9,29.6 -16.51,50.04 -3.49,19.56 0.78,37.99 10.83,52.41 10.04,14.4 40.78,40.09 84.44,78.16l973.28 837.51 -275.57 -886.98 -297.09 -229.71c-6.89,-3.75 -17.82,-13.27 -35.63,-26.55 -43.67,-38.07 -83.05,-57.73 -123.05,-59.83 -37.11,-4.1 -77.73,11.35 -125.84,40.6l-188.8 -270.92 818.52 -570.41 188.8 270.93 -63.41 44.19c-49,34.14 -76.68,61.99 -83.07,83.57 -10.13,28.47 -4.71,54.66 13.37,80.6 12.05,17.29 46.8,48.74 96.5,95.47l864.1 742.3 -391.44 -1071.69c-28.9,-78.34 -48.37,-124.72 -56.41,-136.24 -16.07,-23.06 -36.76,-34.33 -62.09,-33.81 -22.44,-1.49 -58.16,14.85 -107.16,48.99l-72.05 50.21 -188.8 -270.92 746.47 -520.19 188.8 270.92c-51.88,36.15 -88.21,70.03 -103.24,97.63 -17.03,24.71 -22.27,54.06 -23.49,89.16 1.65,33.11 16.49,91.27 43.65,179.39l599.16 1787.57 -423.67 295.25 -776 -628.16 303.33 957.55 -443.85 309.3 -1486.5 -1199.18c-66.37,-52.23 -110.91,-85.42 -139.38,-95.56 -26.46,-7.24 -56.68,-7.59 -87.77,-3.05 -33.97,6.55 -73.44,29.77 -125.33,65.93l-188.8 -270.92z"/>
  <path id="_3_7" class="fil1" d="M15375.36 4337.91l928.75 -290.36 1086.72 1121.45 -254.72 -814.75c-22.01,-70.41 -38.99,-112.95 -54.29,-126.56 -18.44,-23.69 -37.09,-36.26 -60.36,-40.03 -19.9,-4.82 -58.88,0.01 -112.53,16.79l-110.65 34.59 -98.53 -315.18 942.16 -294.55 98.53 315.18 -103.94 32.49c-53.63,16.77 -88.42,35 -108.74,52.4 -19.29,20.75 -27.46,41.71 -31.23,64.97 -0.41,22.21 7.55,71.25 28.52,138.31l552.42 1766.97 -469.41 146.75 -1374.49 -1417.95 367.93 1176.87c20.96,67.06 41.3,108.55 54.3,126.56 11.94,14.68 33.95,26.19 57.21,29.97 23.26,3.77 62.24,-1.05 115.89,-17.83l110.65 -34.59 98.53 315.17 -948.87 296.65 -98.53 -315.17 97.24 -30.4c56.99,-17.82 91.78,-36.06 109.79,-49.06 16.98,-16.34 28.5,-38.35 31.23,-64.96 6.07,-27.67 2.29,-63.29 -12.39,-110.23l-408.81 -1307.62c-15.72,-50.29 -33.95,-85.09 -51.35,-105.41 -20.75,-19.28 -39.4,-31.85 -59.31,-36.67 -23.27,-3.77 -55.53,-1.03 -99.12,12.59l-124.06 38.79 -98.54 -315.18z"/>
  <path id="_4_8" class="fil1" d="M20111.46 3361.68l963.74 134.48 503.09 1478.35 117.98 -845.45c10.2,-73.06 13.03,-118.78 5.02,-137.62 -6.55,-29.3 -18.04,-48.63 -37.46,-61.99 -15.94,-12.86 -53.24,-25.16 -108.91,-32.92l-114.81 -16.03 45.63 -327.05 977.66 136.43 -45.64 327.05 -107.85 -15.05c-55.66,-7.77 -94.9,-6.15 -120.71,0.89 -26.31,10.51 -42.65,25.97 -56,45.38 -9.87,19.91 -23.63,67.65 -33.34,137.23l-255.86 1833.55 -487.09 -67.98 -636.52 -1869.4 -170.41 1221.21c-9.71,69.59 -9.06,115.79 -5.01,137.63 4.52,18.37 19.5,38.19 38.91,51.54 19.42,13.35 56.72,25.66 112.39,33.43l114.82 16.02 -45.64 327.04 -984.62 -137.4 45.64 -327.04 100.9 14.08c59.15,8.25 98.39,6.63 120.23,2.58 22.33,-7.52 42.16,-22.49 56,-45.39 17.31,-22.41 29.12,-56.23 35.91,-104.94l189.35 -1356.89c7.28,-52.19 5.67,-91.44 -1.37,-117.25 -10.51,-26.29 -22,-45.63 -37.95,-58.49 -19.42,-13.35 -49.75,-24.68 -94.99,-30.99l-128.73 -17.96 45.64 -327.05z"/>
  <path id="_5_9" class="fil1" d="M24233.07 4221.87c354.58,134.94 598.99,351.98 736.5,652.39 137.51,300.41 144.19,618.67 15.5,956.84 -87.47,229.83 -216.22,410.12 -382.18,549.92 -168.01,135.28 -358.37,220.7 -571.91,248.45 -213.52,27.73 -445.68,-4.23 -695.2,-99.19 -331.6,-126.19 -565.84,-320.58 -707.24,-581.12 -172.39,-317.43 -185.94,-657.12 -46.01,-1024.84 129.95,-341.45 347.78,-578.04 650.22,-711.02 305.73,-131.73 639.16,-128.87 1000.32,8.57zm-129.63 360.36c-170.73,-64.97 -329.08,-53.82 -479.58,35.49 -184.74,110.12 -325.84,293.23 -423.3,549.32 -96.21,252.8 -113.32,475.57 -54.63,667.04 54.3,163.5 165.17,277.11 332.61,340.83 167.45,63.73 325.8,52.57 471.77,-34.71 178.95,-104.8 315.52,-285.87 410.47,-535.4 67.47,-177.28 98.69,-338.31 92.38,-479.78 -4.26,-136.93 -38.23,-255.1 -101.1,-346.69 -66.16,-92.83 -146.84,-157.37 -248.62,-196.1z"/>
  <path id="_6_10" class="fil1" d="M26048.77 5170.84l1162.12 909.04c74.71,58.43 153.38,128.91 231.11,211.99 77.71,83.1 134.15,176.31 171.46,276.86 32.38,101.14 45.03,204.7 29.66,304.17 -17.54,102.25 -58.77,194.87 -128.03,283.41 -112.55,143.88 -253.25,221.13 -424.9,229.6 -171.63,8.46 -338.83,-28.67 -498.82,-109.22l34.58 754.03 1.45 32.36c1.09,49.91 5.91,89.36 15.07,123.28 8.54,28.99 22.02,57.37 37.06,78.05 15.65,25.62 41.15,50.04 77.11,78.17l83.01 64.93 -203.45 260.09 -603.19 -471.84 28.2 -1284.72 -157.71 -123.36 -292.2 373.54c-51.94,66.41 -81.64,110.07 -86.33,133.17 -4.69,23.1 -4.44,45.58 2.9,64.7 10.11,21.29 38.99,52.81 86.02,89.6l85.78 67.1 -203.45 260.09 -921.4 -720.74 203.45 -260.09 83.01 64.93c44.27,34.63 81.8,55.06 104.9,59.75 28.02,4.08 52.69,1.07 76.14,-11.81 14.19,-6.74 42.92,-37.78 86.21,-93.12l831.12 -1062.51c32.47,-41.51 48.58,-73.5 58.2,-97.2 7.45,-20.92 5.04,-40.65 -7.23,-59.17 -13.49,-28.39 -36.22,-50.63 -63.89,-72.28l-35.97 -28.14 -71.93 -56.27 209.94 -268.39zm452.09 853.16l-380.93 486.98 279.46 218.6c110.68,86.58 202.35,140.44 270.07,162.2 70.49,23.92 135.8,25.95 193.77,8.85 55.81,-14.33 106.44,-50.54 147.57,-103.11 38.95,-49.81 59.75,-104.91 60.82,-157.58 0.47,-57.62 -13.86,-113.43 -47.91,-166.83 -34.06,-53.39 -105.04,-122.29 -212.95,-206.7l-309.9 -242.41z"/>
  <path id="_7_11" class="fil1" d="M28684.55 7389.04l130.55 187.34 -52.23 66.37 771.25 1106.74 82.36 -23.14 130.55 187.34 -518.11 725 -272.11 -200c72.23,-135.97 117.04,-231.43 133.54,-281.47 35.03,-97.2 49.62,-193 42.9,-282.53 -2.43,-71.08 -22.17,-130.11 -54.31,-176.23 -16.06,-23.05 -33.87,-36.34 -51.44,-36.94 -12.65,0.25 -42.61,12.57 -80.08,38.68l-1129.79 787.32c-66.29,46.19 -104.63,77.19 -117.91,95.01 -15.29,14.93 -23.67,33.62 -24.28,51.17 -3.5,19.56 0.78,38 11.96,60.18 11.18,22.18 44.44,76.07 104.7,162.54l-270.92 188.79 -666.81 -956.87 270.92 -188.79 40.17 57.64c44.18,63.41 78.07,99.74 95.89,113.01 20.69,11.28 45.14,15.64 71.34,10.23 28.21,-2.54 73.45,-29.78 136.86,-73.97l1152.85 -803.39c34.58,-24.1 52.75,-41.04 55.37,-55.71 4.63,-11.79 -4.54,-31.09 -20.6,-54.14 -34.15,-49 -89.61,-91.71 -169.25,-126.13 -79.64,-34.41 -167.67,-50.14 -268.1,-52.94 -38,0.79 -138.17,10.65 -301.39,34.48l-91.42 -321.66 857.54 -237.93z"/>
  <path id="_8_12" class="fil1" d="M30219.44 9756.48l348.01 1113.15 -315.17 98.54 -32.5 -103.94c-17.82,-57 -36.05,-91.79 -52.4,-108.76 -19.7,-15.92 -41.71,-27.45 -63.91,-27.86 -23.27,-3.77 -71.26,7.56 -141.66,29.57l-399 124.74 259.96 831.51 429.17 -134.17c50.29,-15.73 86.13,-30.61 100.79,-42.56 23.68,-18.44 39.6,-38.14 43.37,-61.41 -0.63,-25.56 -7.55,-71.25 -29.57,-141.66l-27.25 -87.17 315.18 -98.53 349.06 1116.51 -315.18 98.53 -29.35 -93.88c-19.92,-63.71 -39.19,-101.84 -55.54,-118.82 -16.35,-16.97 -35,-29.54 -57.22,-29.96 -23.27,-3.77 -74.6,8.6 -148.36,31.66l-1237.22 386.8c-77.12,24.11 -125.31,46.54 -142.29,62.88 -20.32,17.4 -31.85,39.41 -35.61,62.68 -0.42,22.2 8.59,74.6 32.7,151.71l19.92 63.71 -315.17 98.53 -349.06 -1116.51 315.17 -98.53 23.06 73.76c20.96,67.06 42.35,111.9 59.75,132.23 18.44,23.67 40.44,35.2 63.71,38.97 22.21,0.41 74.6,-8.6 151.72,-32.71l482.81 -150.95 -259.96 -831.51 -482.81 150.95c-77.12,24.11 -123.01,42.13 -141.04,55.12 -23.67,18.45 -35.2,40.46 -37.91,67.07 0.63,25.57 7.54,71.26 29.56,141.66l24.1 77.11 -315.16 98.54 -348.01 -1113.15 315.16 -98.53 23.06 73.76c19.92,63.7 40.26,105.19 58.7,128.87 17.4,20.33 39.4,31.85 62.67,35.62 23.26,3.77 67.9,-6.51 131.6,-26.43l1240.56 -387.84c80.47,-25.16 129.72,-44.23 150.05,-61.63 20.32,-17.4 32.89,-36.05 36.66,-59.31 3.77,-23.27 -1.06,-62.24 -18.88,-119.24l-31.44 -100.58 315.17 -98.54z"/>
 </g>
</svg>
