<svg xmlns="http://www.w3.org/2000/svg" version="1.1" xmlns:xlink="http://www.w3.org/1999/xlink" xmlns:svgjs="http://svgjs.dev/svgjs" viewBox="0 0 17.882871043164545 3.394736277539547"><g transform="matrix(1,0,0,1,3.190850177652472,0.6547739226831257)"><rect width="17.882871043164545" height="3.394736277539547" x="-3.1908501776524725" y="-0.6547739226831257" fill="#f2eedf"></rect><g><path d=" M 0.10693359375 0.010986328125 L 0.303955078125 0.010986328125 Q 0.3486328125 0.010986328125 0.3966064453125 0.0135498046875 Q 0.444580078125 0.01611328125 0.4903564453125 0.029296875 Q 0.5361328125 0.04248046875 0.5767822265625 0.0699462890625 Q 0.617431640625 0.097412109375 0.648193359375 0.1468505859375 Q 0.678955078125 0.1962890625 0.6968994140625 0.2713623046875 Q 0.71484375 0.346435546875 0.71484375 0.454833984375 L 0.71484375 0.818115234375 Q 0.71484375 0.926513671875 0.6968994140625 1.001953125 Q 0.678955078125 1.077392578125 0.648193359375 1.12646484375 Q 0.617431640625 1.175537109375 0.5767822265625 1.2030029296875 Q 0.5361328125 1.23046875 0.4903564453125 1.24365234375 Q 0.444580078125 1.2568359375 0.3966064453125 1.2593994140625 Q 0.3486328125 1.261962890625 0.303955078125 1.261962890625 L 0.10693359375 1.261962890625 L 0.10693359375 0.010986328125 Z M 0.344970703125 1.12939453125 Q 0.396240234375 1.12939453125 0.4295654296875 1.1162109375 Q 0.462890625 1.10302734375 0.4822998046875 1.0697021484375 Q 0.501708984375 1.036376953125 0.509033203125 0.9788818359375 Q 0.516357421875 0.92138671875 0.516357421875 0.83349609375 L 0.516357421875 0.4453125 Q 0.516357421875 0.357421875 0.509033203125 0.2999267578125 Q 0.501708984375 0.242431640625 0.4822998046875 0.2091064453125 Q 0.462890625 0.17578125 0.4295654296875 0.16259765625 Q 0.396240234375 0.1494140625 0.344970703125 0.1494140625 L 0.296630859375 0.1494140625 L 0.296630859375 1.12939453125 L 0.344970703125 1.12939453125 Z M 1.168212890625 1.27294921875 Q 1.13818359375 1.27294921875 1.10302734375 1.2681884765625 Q 1.06787109375 1.263427734375 1.033447265625 1.248046875 Q 0.9990234375 1.232666015625 0.9671630859375 1.2044677734375 Q 0.935302734375 1.17626953125 0.9107666015625 1.130126953125 Q 0.88623046875 1.083984375 0.87158203125 1.0162353515625 Q 0.85693359375 0.948486328125 0.85693359375 0.854736328125 L 0.85693359375 0.41162109375 Q 0.85693359375 0.317138671875 0.8719482421875 0.2501220703125 Q 0.886962890625 0.18310546875 0.911865234375 0.1373291015625 Q 0.936767578125 0.091552734375 0.9686279296875 0.064453125 Q 1.00048828125 0.037353515625 1.0352783203125 0.0230712890625 Q 1.070068359375 0.0087890625 1.1044921875 0.00439453125 Q 1.138916015625 0 1.168212890625 0 Q 1.196044921875 0 1.2301025390625 0.0040283203125 Q 1.26416015625 0.008056640625 1.2982177734375 0.0216064453125 Q 1.332275390625 0.03515625 1.364501953125 0.0618896484375 Q 1.396728515625 0.088623046875 1.421630859375 0.1343994140625 Q 1.446533203125 0.18017578125 1.4615478515625 0.2479248046875 Q 1.4765625 0.315673828125 1.4765625 0.41162109375 L 1.4765625 0.854736328125 Q 1.4765625 0.94775390625 1.461181640625 1.0147705078125 Q 1.44580078125 1.081787109375 1.4208984375 1.1282958984375 Q 1.39599609375 1.1748046875 1.3634033203125 1.2030029296875 Q 1.330810546875 1.231201171875 1.2967529296875 1.2469482421875 Q 1.2626953125 1.2626953125 1.22900390625 1.267822265625 Q 1.1953125 1.27294921875 1.168212890625 1.27294921875 Z M 1.168212890625 1.130126953125 Q 1.196044921875 1.130126953125 1.2169189453125 1.12060546875 Q 1.23779296875 1.111083984375 1.2513427734375 1.087646484375 Q 1.264892578125 1.064208984375 1.2718505859375 1.0257568359375 Q 1.27880859375 0.9873046875 1.27880859375 0.9287109375 L 1.27880859375 0.359619140625 Q 1.27880859375 0.299560546875 1.2718505859375 0.25927734375 Q 1.264892578125 0.218994140625 1.2513427734375 0.1944580078125 Q 1.23779296875 0.169921875 1.2169189453125 0.15966796875 Q 1.196044921875 0.1494140625 1.168212890625 0.1494140625 Q 1.1396484375 0.1494140625 1.118408203125 0.15966796875 Q 1.09716796875 0.169921875 1.083251953125 0.1944580078125 Q 1.0693359375 0.218994140625 1.0623779296875 0.25927734375 Q 1.055419921875 0.299560546875 1.055419921875 0.359619140625 L 1.055419921875 0.9287109375 Q 1.055419921875 0.9873046875 1.0623779296875 1.0257568359375 Q 1.0693359375 1.064208984375 1.083251953125 1.087646484375 Q 1.09716796875 1.111083984375 1.118408203125 1.12060546875 Q 1.1396484375 1.130126953125 1.168212890625 1.130126953125 Z M 1.58349609375 0.010986328125 L 1.76513671875 0.010986328125 L 1.849365234375 0.766845703125 L 1.85888671875 0.943359375 L 1.877197265625 0.943359375 L 1.894775390625 0.744873046875 L 2.029541015625 0.010986328125 L 2.18115234375 0.010986328125 L 2.31005859375 0.744873046875 L 2.32470703125 0.943359375 L 2.34375 0.943359375 L 2.3525390625 0.766845703125 L 2.429443359375 0.010986328125 L 2.61181640625 0.010986328125 L 2.436767578125 1.261962890625 L 2.244140625 1.261962890625 L 2.140869140625 0.66064453125 L 2.108642578125 0.399169921875 L 2.093994140625 0.399169921875 L 2.0625 0.66064453125 L 1.9541015625 1.261962890625 L 1.763671875 1.261962890625 L 1.58349609375 0.010986328125 Z M 2.75390625 0.010986328125 L 2.90771484375 0.010986328125 L 3.2109375 0.84814453125 L 3.21533203125 0.84814453125 Q 3.213134765625 0.81884765625 3.20947265625 0.782958984375 Q 3.205810546875 0.7470703125 3.202880859375 0.7012939453125 Q 3.199951171875 0.655517578125 3.19775390625 0.59765625 Q 3.195556640625 0.539794921875 3.195556640625 0.46728515625 L 3.195556640625 0.010986328125 L 3.365478515625 0.010986328125 L 3.365478515625 1.261962890625 L 3.210205078125 1.261962890625 L 2.908447265625 0.44677734375 L 2.902587890625 0.44677734375 Q 2.90478515625 0.479736328125 2.908447265625 0.5181884765625 Q 2.912109375 0.556640625 2.9150390625 0.608642578125 Q 2.91796875 0.66064453125 2.920166015625 0.7298583984375 Q 2.92236328125 0.799072265625 2.92236328125 0.894287109375 L 2.92236328125 1.261962890625 L 2.75390625 1.261962890625 L 2.75390625 0.010986328125 Z M 3.914794921875 0.010986328125 L 4.068603515625 0.010986328125 L 4.371826171875 0.84814453125 L 4.376220703125 0.84814453125 Q 4.3740234375 0.81884765625 4.370361328125 0.782958984375 Q 4.36669921875 0.7470703125 4.36376953125 0.7012939453125 Q 4.36083984375 0.655517578125 4.358642578125 0.59765625 Q 4.3564453125 0.539794921875 4.3564453125 0.46728515625 L 4.3564453125 0.010986328125 L 4.5263671875 0.010986328125 L 4.5263671875 1.261962890625 L 4.37109375 1.261962890625 L 4.0693359375 0.44677734375 L 4.0634765625 0.44677734375 Q 4.065673828125 0.479736328125 4.0693359375 0.5181884765625 Q 4.072998046875 0.556640625 4.075927734375 0.608642578125 Q 4.078857421875 0.66064453125 4.0810546875 0.7298583984375 Q 4.083251953125 0.799072265625 4.083251953125 0.894287109375 L 4.083251953125 1.261962890625 L 3.914794921875 1.261962890625 L 3.914794921875 0.010986328125 Z M 5.0244140625 1.27294921875 Q 4.994384765625 1.27294921875 4.959228515625 1.2681884765625 Q 4.924072265625 1.263427734375 4.8896484375 1.248046875 Q 4.855224609375 1.232666015625 4.8233642578125 1.2044677734375 Q 4.79150390625 1.17626953125 4.7669677734375 1.130126953125 Q 4.742431640625 1.083984375 4.727783203125 1.0162353515625 Q 4.713134765625 0.948486328125 4.713134765625 0.854736328125 L 4.713134765625 0.41162109375 Q 4.713134765625 0.317138671875 4.7281494140625 0.2501220703125 Q 4.7431640625 0.18310546875 4.76806640625 0.1373291015625 Q 4.79296875 0.091552734375 4.8248291015625 0.064453125 Q 4.856689453125 0.037353515625 4.8914794921875 0.0230712890625 Q 4.92626953125 0.0087890625 4.960693359375 0.00439453125 Q 4.9951171875 0 5.0244140625 0 Q 5.05224609375 0 5.0863037109375 0.0040283203125 Q 5.120361328125 0.008056640625 5.1544189453125 0.0216064453125 Q 5.1884765625 0.03515625 5.220703125 0.0618896484375 Q 5.2529296875 0.088623046875 5.27783203125 0.1343994140625 Q 5.302734375 0.18017578125 5.3177490234375 0.2479248046875 Q 5.332763671875 0.315673828125 5.332763671875 0.41162109375 L 5.332763671875 0.854736328125 Q 5.332763671875 0.94775390625 5.3173828125 1.0147705078125 Q 5.302001953125 1.081787109375 5.277099609375 1.1282958984375 Q 5.252197265625 1.1748046875 5.2196044921875 1.2030029296875 Q 5.18701171875 1.231201171875 5.1529541015625 1.2469482421875 Q 5.118896484375 1.2626953125 5.085205078125 1.267822265625 Q 5.051513671875 1.27294921875 5.0244140625 1.27294921875 Z M 5.0244140625 1.130126953125 Q 5.05224609375 1.130126953125 5.0731201171875 1.12060546875 Q 5.093994140625 1.111083984375 5.1075439453125 1.087646484375 Q 5.12109375 1.064208984375 5.1280517578125 1.0257568359375 Q 5.135009765625 0.9873046875 5.135009765625 0.9287109375 L 5.135009765625 0.359619140625 Q 5.135009765625 0.299560546875 5.1280517578125 0.25927734375 Q 5.12109375 0.218994140625 5.1075439453125 0.1944580078125 Q 5.093994140625 0.169921875 5.0731201171875 0.15966796875 Q 5.05224609375 0.1494140625 5.0244140625 0.1494140625 Q 4.995849609375 0.1494140625 4.974609375 0.15966796875 Q 4.953369140625 0.169921875 4.939453125 0.1944580078125 Q 4.925537109375 0.218994140625 4.9185791015625 0.25927734375 Q 4.91162109375 0.299560546875 4.91162109375 0.359619140625 L 4.91162109375 0.9287109375 Q 4.91162109375 0.9873046875 4.9185791015625 1.0257568359375 Q 4.925537109375 1.064208984375 4.939453125 1.087646484375 Q 4.953369140625 1.111083984375 4.974609375 1.12060546875 Q 4.995849609375 1.130126953125 5.0244140625 1.130126953125 Z M 5.51953125 0.010986328125 L 5.725341796875 0.010986328125 Q 5.760498046875 0.010986328125 5.8026123046875 0.013916015625 Q 5.8447265625 0.016845703125 5.8868408203125 0.0281982421875 Q 5.928955078125 0.03955078125 5.9681396484375 0.062255859375 Q 6.00732421875 0.0849609375 6.0377197265625 0.12451171875 Q 6.068115234375 0.1640625 6.08642578125 0.2237548828125 Q 6.104736328125 0.283447265625 6.104736328125 0.368408203125 L 6.104736328125 0.39990234375 Q 6.104736328125 0.542724609375 6.063720703125 0.6324462890625 Q 6.022705078125 0.72216796875 5.94287109375 0.76171875 L 6.1435546875 1.261962890625 L 5.94287109375 1.261962890625 L 5.776611328125 0.7939453125 L 5.70556640625 0.7939453125 L 5.70556640625 1.261962890625 L 5.51953125 1.261962890625 L 5.51953125 0.010986328125 Z M 5.734130859375 0.656982421875 Q 5.783935546875 0.656982421875 5.818359375 0.64599609375 Q 5.852783203125 0.635009765625 5.8740234375 0.6090087890625 Q 5.895263671875 0.5830078125 5.90478515625 0.5401611328125 Q 5.914306640625 0.497314453125 5.914306640625 0.434326171875 L 5.914306640625 0.33544921875 Q 5.914306640625 0.287109375 5.905517578125 0.251953125 Q 5.896728515625 0.216796875 5.8758544921875 0.194091796875 Q 5.85498046875 0.17138671875 5.820556640625 0.160400390625 Q 5.7861328125 0.1494140625 5.734130859375 0.1494140625 L 5.70556640625 0.1494140625 L 5.70556640625 0.656982421875 L 5.734130859375 0.656982421875 Z M 6.41015625 0.160400390625 L 6.208740234375 0.160400390625 L 6.208740234375 0.010986328125 L 6.800537109375 0.010986328125 L 6.800537109375 0.160400390625 L 6.599853515625 0.160400390625 L 6.599853515625 1.261962890625 L 6.41015625 1.261962890625 L 6.41015625 0.160400390625 Z M 6.93603515625 0.010986328125 L 7.125732421875 0.010986328125 L 7.125732421875 0.53466796875 L 7.3505859375 0.53466796875 L 7.3505859375 0.010986328125 L 7.540283203125 0.010986328125 L 7.540283203125 1.261962890625 L 7.3505859375 1.261962890625 L 7.3505859375 0.68408203125 L 7.125732421875 0.68408203125 L 7.125732421875 1.261962890625 L 6.93603515625 1.261962890625 L 6.93603515625 0.010986328125 Z M 8.34375 1.273681640625 Q 8.32177734375 1.273681640625 8.29248046875 1.2689208984375 Q 8.26318359375 1.26416015625 8.2320556640625 1.248779296875 Q 8.200927734375 1.2333984375 8.1708984375 1.2052001953125 Q 8.140869140625 1.177001953125 8.1170654296875 1.1304931640625 Q 8.09326171875 1.083984375 8.07861328125 1.0162353515625 Q 8.06396484375 0.948486328125 8.06396484375 0.854736328125 L 8.06396484375 0.41162109375 Q 8.06396484375 0.317138671875 8.079345703125 0.2501220703125 Q 8.0947265625 0.18310546875 8.120361328125 0.1373291015625 Q 8.14599609375 0.091552734375 8.1793212890625 0.064453125 Q 8.212646484375 0.037353515625 8.24853515625 0.0230712890625 Q 8.284423828125 0.0087890625 8.319580078125 0.00439453125 Q 8.354736328125 0 8.384765625 0 Q 8.4609375 0 8.5133056640625 0.0208740234375 Q 8.565673828125 0.041748046875 8.5982666015625 0.0780029296875 Q 8.630859375 0.1142578125 8.6451416015625 0.16259765625 Q 8.659423828125 0.2109375 8.659423828125 0.26513671875 Q 8.659423828125 0.305419921875 8.6546630859375 0.3394775390625 Q 8.64990234375 0.37353515625 8.641845703125 0.41455078125 L 8.490234375 0.41455078125 L 8.490234375 0.355224609375 Q 8.490234375 0.1494140625 8.379638671875 0.1494140625 Q 8.349609375 0.1494140625 8.32763671875 0.15966796875 Q 8.3056640625 0.169921875 8.291015625 0.1944580078125 Q 8.2763671875 0.218994140625 8.2694091796875 0.25927734375 Q 8.262451171875 0.299560546875 8.262451171875 0.359619140625 L 8.262451171875 0.926513671875 Q 8.262451171875 0.985107421875 8.2694091796875 1.02392578125 Q 8.2763671875 1.062744140625 8.2906494140625 1.086181640625 Q 8.304931640625 1.109619140625 8.3265380859375 1.1195068359375 Q 8.34814453125 1.12939453125 8.378173828125 1.12939453125 Q 8.40966796875 1.12939453125 8.432373046875 1.1129150390625 Q 8.455078125 1.096435546875 8.4697265625 1.06787109375 Q 8.484375 1.039306640625 8.4913330078125 1.00048828125 Q 8.498291015625 0.961669921875 8.498291015625 0.916259765625 L 8.498291015625 0.7529296875 L 8.40087890625 0.7529296875 L 8.40087890625 0.62841796875 L 8.682861328125 0.62841796875 L 8.682861328125 1.261962890625 L 8.556884765625 1.261962890625 L 8.536376953125 1.143310546875 Q 8.50048828125 1.212890625 8.4539794921875 1.2432861328125 Q 8.407470703125 1.273681640625 8.34375 1.273681640625 Z M 9.0029296875 0.010986328125 L 9.22119140625 0.010986328125 L 9.45263671875 1.261962890625 L 9.2607421875 1.261962890625 L 9.226318359375 1.037841796875 L 8.997802734375 1.037841796875 L 8.96484375 1.261962890625 L 8.772216796875 1.261962890625 L 9.0029296875 0.010986328125 Z M 9.204345703125 0.89501953125 L 9.116455078125 0.271728515625 L 9.1083984375 0.271728515625 L 9.019775390625 0.89501953125 L 9.204345703125 0.89501953125 Z M 9.580810546875 0.010986328125 L 9.78662109375 0.010986328125 Q 9.82177734375 0.010986328125 9.8638916015625 0.013916015625 Q 9.906005859375 0.016845703125 9.9481201171875 0.0281982421875 Q 9.990234375 0.03955078125 10.0294189453125 0.062255859375 Q 10.068603515625 0.0849609375 10.0989990234375 0.12451171875 Q 10.12939453125 0.1640625 10.147705078125 0.2237548828125 Q 10.166015625 0.283447265625 10.166015625 0.368408203125 L 10.166015625 0.39990234375 Q 10.166015625 0.542724609375 10.125 0.6324462890625 Q 10.083984375 0.72216796875 10.004150390625 0.76171875 L 10.204833984375 1.261962890625 L 10.004150390625 1.261962890625 L 9.837890625 0.7939453125 L 9.766845703125 0.7939453125 L 9.766845703125 1.261962890625 L 9.580810546875 1.261962890625 L 9.580810546875 0.010986328125 Z M 9.79541015625 0.656982421875 Q 9.84521484375 0.656982421875 9.879638671875 0.64599609375 Q 9.9140625 0.635009765625 9.935302734375 0.6090087890625 Q 9.95654296875 0.5830078125 9.966064453125 0.5401611328125 Q 9.9755859375 0.497314453125 9.9755859375 0.434326171875 L 9.9755859375 0.33544921875 Q 9.9755859375 0.287109375 9.966796875 0.251953125 Q 9.9580078125 0.216796875 9.9371337890625 0.194091796875 Q 9.916259765625 0.17138671875 9.8818359375 0.160400390625 Q 9.847412109375 0.1494140625 9.79541015625 0.1494140625 L 9.766845703125 0.1494140625 L 9.766845703125 0.656982421875 L 9.79541015625 0.656982421875 Z M 10.355712890625 0.010986328125 L 10.54541015625 0.010986328125 L 10.54541015625 1.112548828125 L 10.803955078125 1.112548828125 L 10.803955078125 1.261962890625 L 10.355712890625 1.261962890625 L 10.355712890625 0.010986328125 Z M 10.931396484375 0.010986328125 L 11.12109375 0.010986328125 L 11.12109375 1.261962890625 L 10.931396484375 1.261962890625 L 10.931396484375 0.010986328125 Z M 11.61181640625 1.27294921875 Q 11.58251953125 1.27294921875 11.5484619140625 1.2681884765625 Q 11.514404296875 1.263427734375 11.4803466796875 1.248046875 Q 11.4462890625 1.232666015625 11.4151611328125 1.2044677734375 Q 11.384033203125 1.17626953125 11.3602294921875 1.130126953125 Q 11.33642578125 1.083984375 11.3221435546875 1.0162353515625 Q 11.307861328125 0.948486328125 11.307861328125 0.854736328125 L 11.307861328125 0.41162109375 Q 11.307861328125 0.317138671875 11.322509765625 0.2501220703125 Q 11.337158203125 0.18310546875 11.361328125 0.1373291015625 Q 11.385498046875 0.091552734375 11.4169921875 0.064453125 Q 11.448486328125 0.037353515625 11.482177734375 0.0230712890625 Q 11.515869140625 0.0087890625 11.5491943359375 0.00439453125 Q 11.58251953125 0 11.611083984375 0 Q 11.685791015625 0 11.7359619140625 0.0208740234375 Q 11.7861328125 0.041748046875 11.8165283203125 0.0780029296875 Q 11.846923828125 0.1142578125 11.8597412109375 0.16259765625 Q 11.87255859375 0.2109375 11.87255859375 0.26513671875 Q 11.87255859375 0.305419921875 11.8685302734375 0.3394775390625 Q 11.864501953125 0.37353515625 11.8564453125 0.41455078125 L 11.70263671875 0.41455078125 L 11.70263671875 0.350830078125 Q 11.70263671875 0.24755859375 11.679931640625 0.1962890625 Q 11.6572265625 0.14501953125 11.61328125 0.14501953125 Q 11.5869140625 0.14501953125 11.567138671875 0.1552734375 Q 11.54736328125 0.16552734375 11.5341796875 0.1900634765625 Q 11.52099609375 0.214599609375 11.5140380859375 0.2548828125 Q 11.507080078125 0.295166015625 11.507080078125 0.355224609375 L 11.507080078125 0.926513671875 Q 11.507080078125 0.985107421875 11.5125732421875 1.02392578125 Q 11.51806640625 1.062744140625 11.530517578125 1.086181640625 Q 11.54296875 1.109619140625 11.5631103515625 1.1195068359375 Q 11.583251953125 1.12939453125 11.61181640625 1.12939453125 Q 11.630126953125 1.12939453125 11.64697265625 1.1209716796875 Q 11.663818359375 1.112548828125 11.6766357421875 1.0946044921875 Q 11.689453125 1.07666015625 11.6971435546875 1.0491943359375 Q 11.704833984375 1.021728515625 11.704833984375 0.984375 L 11.704833984375 0.862060546875 L 11.87841796875 0.862060546875 L 11.87841796875 0.977783203125 Q 11.87841796875 1.128662109375 11.8095703125 1.200439453125 Q 11.74072265625 1.272216796875 11.61181640625 1.27294921875 Z M 12.6328125 1.27294921875 Q 12.603515625 1.27294921875 12.5694580078125 1.2681884765625 Q 12.535400390625 1.263427734375 12.5013427734375 1.248046875 Q 12.46728515625 1.232666015625 12.4361572265625 1.2044677734375 Q 12.405029296875 1.17626953125 12.3812255859375 1.130126953125 Q 12.357421875 1.083984375 12.3431396484375 1.0162353515625 Q 12.328857421875 0.948486328125 12.328857421875 0.854736328125 L 12.328857421875 0.41162109375 Q 12.328857421875 0.317138671875 12.343505859375 0.2501220703125 Q 12.358154296875 0.18310546875 12.38232421875 0.1373291015625 Q 12.406494140625 0.091552734375 12.43798828125 0.064453125 Q 12.469482421875 0.037353515625 12.503173828125 0.0230712890625 Q 12.536865234375 0.0087890625 12.5701904296875 0.00439453125 Q 12.603515625 0 12.632080078125 0 Q 12.706787109375 0 12.7569580078125 0.0208740234375 Q 12.80712890625 0.041748046875 12.8375244140625 0.0780029296875 Q 12.867919921875 0.1142578125 12.8807373046875 0.16259765625 Q 12.8935546875 0.2109375 12.8935546875 0.26513671875 Q 12.8935546875 0.305419921875 12.8895263671875 0.3394775390625 Q 12.885498046875 0.37353515625 12.87744140625 0.41455078125 L 12.7236328125 0.41455078125 L 12.7236328125 0.350830078125 Q 12.7236328125 0.24755859375 12.700927734375 0.1962890625 Q 12.67822265625 0.14501953125 12.63427734375 0.14501953125 Q 12.60791015625 0.14501953125 12.588134765625 0.1552734375 Q 12.568359375 0.16552734375 12.55517578125 0.1900634765625 Q 12.5419921875 0.214599609375 12.5350341796875 0.2548828125 Q 12.528076171875 0.295166015625 12.528076171875 0.355224609375 L 12.528076171875 0.926513671875 Q 12.528076171875 0.985107421875 12.5335693359375 1.02392578125 Q 12.5390625 1.062744140625 12.551513671875 1.086181640625 Q 12.56396484375 1.109619140625 12.5841064453125 1.1195068359375 Q 12.604248046875 1.12939453125 12.6328125 1.12939453125 Q 12.651123046875 1.12939453125 12.66796875 1.1209716796875 Q 12.684814453125 1.112548828125 12.6976318359375 1.0946044921875 Q 12.71044921875 1.07666015625 12.7181396484375 1.0491943359375 Q 12.725830078125 1.021728515625 12.725830078125 0.984375 L 12.725830078125 0.862060546875 L 12.8994140625 0.862060546875 L 12.8994140625 0.977783203125 Q 12.8994140625 1.128662109375 12.83056640625 1.200439453125 Q 12.76171875 1.272216796875 12.6328125 1.27294921875 Z M 13.3330078125 1.27294921875 Q 13.302978515625 1.27294921875 13.267822265625 1.2681884765625 Q 13.232666015625 1.263427734375 13.1982421875 1.248046875 Q 13.163818359375 1.232666015625 13.1319580078125 1.2044677734375 Q 13.10009765625 1.17626953125 13.0755615234375 1.130126953125 Q 13.051025390625 1.083984375 13.036376953125 1.0162353515625 Q 13.021728515625 0.948486328125 13.021728515625 0.854736328125 L 13.021728515625 0.41162109375 Q 13.021728515625 0.317138671875 13.0367431640625 0.2501220703125 Q 13.0517578125 0.18310546875 13.07666015625 0.1373291015625 Q 13.1015625 0.091552734375 13.1334228515625 0.064453125 Q 13.165283203125 0.037353515625 13.2000732421875 0.0230712890625 Q 13.23486328125 0.0087890625 13.269287109375 0.00439453125 Q 13.3037109375 0 13.3330078125 0 Q 13.36083984375 0 13.3948974609375 0.0040283203125 Q 13.428955078125 0.008056640625 13.4630126953125 0.0216064453125 Q 13.4970703125 0.03515625 13.529296875 0.0618896484375 Q 13.5615234375 0.088623046875 13.58642578125 0.1343994140625 Q 13.611328125 0.18017578125 13.6263427734375 0.2479248046875 Q 13.641357421875 0.315673828125 13.641357421875 0.41162109375 L 13.641357421875 0.854736328125 Q 13.641357421875 0.94775390625 13.6259765625 1.0147705078125 Q 13.610595703125 1.081787109375 13.585693359375 1.1282958984375 Q 13.560791015625 1.1748046875 13.5281982421875 1.2030029296875 Q 13.49560546875 1.231201171875 13.4615478515625 1.2469482421875 Q 13.427490234375 1.2626953125 13.393798828125 1.267822265625 Q 13.360107421875 1.27294921875 13.3330078125 1.27294921875 Z M 13.3330078125 1.130126953125 Q 13.36083984375 1.130126953125 13.3817138671875 1.12060546875 Q 13.402587890625 1.111083984375 13.4161376953125 1.087646484375 Q 13.4296875 1.064208984375 13.4366455078125 1.0257568359375 Q 13.443603515625 0.9873046875 13.443603515625 0.9287109375 L 13.443603515625 0.359619140625 Q 13.443603515625 0.299560546875 13.4366455078125 0.25927734375 Q 13.4296875 0.218994140625 13.4161376953125 0.1944580078125 Q 13.402587890625 0.169921875 13.3817138671875 0.15966796875 Q 13.36083984375 0.1494140625 13.3330078125 0.1494140625 Q 13.304443359375 0.1494140625 13.283203125 0.15966796875 Q 13.261962890625 0.169921875 13.248046875 0.1944580078125 Q 13.234130859375 0.218994140625 13.2271728515625 0.25927734375 Q 13.22021484375 0.299560546875 13.22021484375 0.359619140625 L 13.22021484375 0.9287109375 Q 13.22021484375 0.9873046875 13.2271728515625 1.0257568359375 Q 13.234130859375 1.064208984375 13.248046875 1.087646484375 Q 13.261962890625 1.111083984375 13.283203125 1.12060546875 Q 13.304443359375 1.130126953125 13.3330078125 1.130126953125 Z M 13.787841796875 1.130859375 Q 13.787841796875 1.05322265625 13.818603515625 1.01953125 Q 13.849365234375 0.98583984375 13.902099609375 0.98583984375 Q 13.95703125 0.98583984375 13.987060546875 1.021728515625 Q 14.01708984375 1.0576171875 14.01708984375 1.130859375 Q 14.01708984375 1.1982421875 13.9866943359375 1.2352294921875 Q 13.956298828125 1.272216796875 13.9013671875 1.272216796875 Q 13.849365234375 1.272216796875 13.818603515625 1.236328125 Q 13.787841796875 1.200439453125 13.787841796875 1.130859375 Z" fill="#595959" fill-rule="nonzero"></path></g><g><path d=" M 0.08589311079545454 1.9024158824573862 L 0.08655894886363635 2.020602139559659 Q 0.08655894886363635 2.0365822531960225 0.08655894886363635 2.0479015003551138 Q 0.08689186789772727 2.052895285866477 0.08689186789772727 2.056557395241477 Q 0.17078746448863635 2.056557395241477 0.1984197443181818 2.05389404296875 Q 0.22705078124999997 2.0508977716619317 0.2317116477272727 2.0522294477982954 Q 0.23637251420454544 2.053561123934659 0.23970170454545453 2.056557395241477 Q 0.2463600852272727 2.0625499378551138 0.2463600852272727 2.0697076970880683 Q 0.2463600852272727 2.0768654563210225 0.24003462357954544 2.0820257013494317 Q 0.23370916193181818 2.087185946377841 0.22238991477272727 2.086520108309659 Q 0.16779119318181818 2.082192160866477 0.12384588068181818 2.08502197265625 Q 0.07990056818181818 2.0878517844460225 0.07457386363636363 2.08868408203125 Q 0.06924715909090909 2.089516379616477 0.06508567116477272 2.08868408203125 Q 0.06092418323863636 2.0878517844460225 0.057594992897727265 2.0851884321732954 Q 0.04993785511363636 2.07952880859375 0.05060369318181818 2.06854248046875 Q 0.055597478693181816 1.9723288796164773 0.055597478693181816 1.8556407581676135 Q 0.055597478693181816 1.73895263671875 0.055763938210227265 1.7088234641335227 Q 0.05593039772727272 1.6786942915482954 0.05593039772727272 1.6537253639914773 Q 0.055264559659090905 1.6001253995028408 0.05359996448863636 1.5779862837357954 Q 0.051935369318181816 1.55584716796875 0.05443226207386363 1.5515192205255683 Q 0.05692915482954545 1.5471912730823862 0.06059126420454545 1.5451937588778408 Q 0.06558504971590909 1.5428633256392046 0.0732421875 1.5441950017755683 Q 0.08722478693181818 1.5465254350142046 0.1101962002840909 1.5465254350142046 Q 0.1544744318181818 1.5465254350142046 0.17062100497159088 1.5446943803267046 Q 0.186767578125 1.5428633256392046 0.1914284446022727 1.5443614612926138 Q 0.19608931107954544 1.5458595969460227 0.19908558238636362 1.54852294921875 Q 0.2057439630681818 1.5538496537642046 0.2057439630681818 1.5615067915482954 Q 0.2057439630681818 1.5691639293323862 0.19975142045454544 1.57415771484375 Q 0.1937588778409091 1.5791515003551138 0.18343838778409088 1.5786521218039773 Q 0.1731178977272727 1.5781527432528408 0.16146573153409088 1.5773204456676138 Q 0.1498135653409091 1.5764881480823862 0.1364968039772727 1.5758223100142046 Q 0.10853160511363635 1.5748235529119317 0.087890625 1.5764881480823862 Q 0.087890625 1.6054521040482954 0.08755770596590909 1.6340831409801138 Q 0.08722478693181818 1.6680408824573862 0.08689186789772727 1.7029973810369319 Q 0.08589311079545454 1.7968805486505681 0.08589311079545454 1.84149169921875 Q 0.12750799005681818 1.84149169921875 0.1471502130681818 1.8394941850142046 Q 0.16845703125 1.8371637517755681 0.1739501953125 1.84149169921875 Q 0.179443359375 1.8458196466619319 0.179443359375 1.8531438654119319 Q 0.179443359375 1.8714544122869319 0.14515269886363635 1.87078857421875 Q 0.13816139914772727 1.8704556551846592 0.1325017755681818 1.8704556551846592 L 0.10553533380681818 1.8701227361505681 L 0.08589311079545454 1.8701227361505681 L 0.08589311079545454 1.9024158824573862 Z M 0.30162464488636365 1.9323785955255681 Q 0.31327681107954547 1.9323785955255681 0.31627308238636365 1.9413674094460227 Q 0.3192693536931818 1.9503562233664773 0.3192693536931818 1.9709972034801135 Q 0.3192693536931818 1.99163818359375 0.3249289772727273 2.009615811434659 Q 0.3305886008522727 2.0275934392755683 0.340576171875 2.0399114435369317 Q 0.3608842329545454 2.064547452059659 0.39683948863636365 2.064547452059659 Q 0.43279474431818177 2.064547452059659 0.4541015625 2.0380803888494317 Q 0.4754083806818182 2.0116133256392046 0.4754083806818182 1.9620083895596592 Q 0.4754083806818182 1.8957575017755681 0.41914506392045453 1.8441550514914773 Q 0.40316495028409094 1.8295066139914773 0.3863525390625 1.8151910955255681 Q 0.36954012784090906 1.8008755770596592 0.3535600142045454 1.7855613014914773 Q 0.3375799005681818 1.7702470259232954 0.3249289772727273 1.7516035600142046 Q 0.2972966974431818 1.7106545188210227 0.2972966974431818 1.65838623046875 Q 0.2972966974431818 1.6047862659801138 0.3289240056818182 1.5718272816051138 Q 0.36021839488636365 1.5392012162642046 0.4074928977272727 1.5392012162642046 Q 0.44810901988636365 1.5392012162642046 0.47407670454545453 1.5665005770596592 Q 0.5030406605113636 1.5977949662642046 0.5007102272727273 1.6530595259232954 Q 0.5003773082386364 1.6557228781960227 0.5005437677556818 1.6587191495028408 Q 0.5007102272727273 1.6617154208096592 0.4998779296875 1.6700383966619319 Q 0.4990456321022727 1.6783613725142046 0.4928866299715909 1.6848532936789773 Q 0.48672762784090906 1.69134521484375 0.47956986860795453 1.69134521484375 Q 0.472412109375 1.69134521484375 0.46741832386363635 1.6848532936789773 Q 0.4624245383522727 1.6783613725142046 0.4640891335227273 1.6677079634232954 Q 0.46841708096590906 1.6434048739346592 0.46841708096590906 1.63092041015625 Q 0.46841708096590906 1.6184359463778408 0.46392267400568177 1.60711669921875 Q 0.45942826704545453 1.5957974520596592 0.45110529119318177 1.5871415571732954 Q 0.4331276633522727 1.5688310102982954 0.40449662642045453 1.5688310102982954 Q 0.3728693181818182 1.5688310102982954 0.35289417613636365 1.5904707475142046 Q 0.33092151988636365 1.61444091796875 0.33092151988636365 1.6493974165482954 Q 0.33092151988636365 1.6843539151278408 0.33857865767045453 1.7058271928267046 Q 0.3462357954545454 1.7273004705255681 0.35872025923295453 1.7446122602982954 Q 0.37120472301136365 1.7619240500710227 0.3871848366477273 1.7762395685369319 Q 0.40316495028409094 1.7905550870028408 0.4196444424715909 1.8045376864346592 Q 0.4361239346590909 1.8185202858664773 0.45210404829545453 1.8333351828835227 Q 0.4680841619318182 1.8481500799005681 0.4807350852272727 1.8661277077414773 Q 0.5083673650568181 1.9067438299005681 0.5083673650568181 1.9596779563210227 Q 0.5083673650568181 2.0216008966619317 0.4764071377840909 2.0585549094460225 Q 0.44477982954545453 2.0951760031960225 0.391845703125 2.0951760031960225 Q 0.3425736860795454 2.0951760031960225 0.3116122159090909 2.057223233309659 Q 0.2823153409090909 2.0216008966619317 0.2823153409090909 1.97698974609375 Q 0.2823153409090909 1.9323785955255681 0.30162464488636365 1.9323785955255681 Z M 0.6551846590909091 1.5468583540482954 Q 0.6645063920454546 1.5468583540482954 0.7750355113636364 1.5441950017755683 Q 0.7903497869318181 1.5441950017755683 0.7960094105113636 1.55584716796875 Q 0.7973410866477273 1.5591763583096592 0.7973410866477273 1.5635043057528408 Q 0.7973410866477273 1.5678322531960227 0.7923473011363636 1.57232666015625 Q 0.787353515625 1.5768210671164773 0.7737038352272727 1.5764881480823862 Q 0.7600541548295454 1.5761552290482954 0.7472367720170454 1.5754893909801138 Q 0.7344193892045454 1.5748235529119317 0.7234330610795454 1.5744906338778408 Q 0.7037908380681819 1.5738247958096592 0.6898082386363636 1.57415771484375 Q 0.6871448863636364 1.6507290926846592 0.6871448863636364 1.7402843128551138 Q 0.6871448863636364 1.8361649946732954 0.6873113458806819 1.8716208718039773 Q 0.6874778053977273 1.9070767489346592 0.6881436434659091 1.9393698952414773 Q 0.6891424005681819 2.0219338156960225 0.6901411576704546 2.0618840997869317 Q 0.6904740767045454 2.0732033469460225 0.6849809126420454 2.0786965110085225 Q 0.6794877485795454 2.0841896750710225 0.6729958274147727 2.0841896750710225 Q 0.66650390625 2.0841896750710225 0.6603449041193182 2.0790294300426138 Q 0.6541859019886364 2.0738691850142046 0.6541859019886364 2.0635486949573862 L 0.6538529829545454 2.019936301491477 L 0.6571821732954546 1.7019986239346592 Q 0.6571821732954546 1.6131092418323862 0.6548517400568182 1.57415771484375 Q 0.63720703125 1.5738247958096592 0.6129039417613636 1.5754893909801138 Q 0.5842729048295454 1.5774869051846592 0.5714555220170455 1.5783192027698862 Q 0.5586381392045455 1.5791515003551138 0.5533114346590909 1.57415771484375 Q 0.5479847301136364 1.5691639293323862 0.5479847301136364 1.5626720081676138 Q 0.5479847301136364 1.5561800870028408 0.5533114346590909 1.5498546253551138 Q 0.5586381392045455 1.5435291637073862 0.5704567649147727 1.5440285422585227 Q 0.582275390625 1.5445279208096592 0.5909312855113636 1.54486083984375 Q 0.5995871803977273 1.5451937588778408 0.6060791015625 1.5455266779119317 Q 0.6125710227272727 1.5458595969460227 0.6175648082386364 1.5461925159801138 Q 0.62255859375 1.5465254350142046 0.6277188387784091 1.54669189453125 Q 0.6328790838068182 1.5468583540482954 0.6395374644886364 1.5468583540482954 L 0.6551846590909091 1.5468583540482954 Z M 2.1370072798295454 1.6886818625710227 Q 2.1370072798295454 1.5764881480823862 2.069424715909091 1.5764881480823862 Q 2.032470703125 1.5764881480823862 2.0146595348011367 1.6087812943892046 Q 1.996848366477273 1.6410744406960227 1.99951171875 1.7036632191051138 Q 1.99951171875 1.7179787375710227 1.9875266335227273 1.7223066850142046 Q 1.9841974431818183 1.7233054421164773 1.9790371981534092 1.7233054421164773 Q 1.973876953125 1.7233054421164773 1.9683837890625 1.7178122780539773 Q 1.962890625 1.7123191139914773 1.9625577059659092 1.7013327858664773 Q 1.960227272727273 1.6247614080255681 1.9945179332386365 1.5831465287642046 Q 2.0244806463068183 1.5461925159801138 2.0740855823863638 1.5461925159801138 Q 2.149325284090909 1.5461925159801138 2.1656383167613638 1.62542724609375 Q 2.1709650213068183 1.65106201171875 2.1709650213068183 1.6795265891335227 Q 2.1709650213068183 1.7079911665482954 2.163474343039773 1.7307961203835227 Q 2.1559836647727275 1.75360107421875 2.1436656605113638 1.7759066495028408 Q 2.13134765625 1.7982122247869319 2.1157004616477275 1.8201848810369319 Q 2.1000532670454546 1.8421575372869319 2.0835737748579546 1.8639637340198862 Q 2.0670942826704546 1.8857699307528408 2.051447088068182 1.9077425870028408 Q 2.035799893465909 1.9297152432528408 2.0234818892045454 1.9520208185369319 Q 1.996182528409091 2.0012928355823862 1.996182528409091 2.0435735529119317 Q 1.996182528409091 2.0522294477982954 1.9991787997159092 2.05389404296875 Q 2.0021750710227275 2.0555586381392046 2.014825994318182 2.0550592595880683 Q 2.0274769176136362 2.0545598810369317 2.0454545454545454 2.0532282049005683 Q 2.0634321732954546 2.0518965287642046 2.0817427201704546 2.050564852627841 Q 2.125022194602273 2.0479015003551138 2.1416681463068183 2.049233176491477 Q 2.16796875 2.0508977716619317 2.16796875 2.0678766424005683 Q 2.16796875 2.0742021040482954 2.1633078835227275 2.0793623490767046 Q 2.1586470170454546 2.0845225941051138 2.149658203125 2.0845225941051138 L 2.0704234730113638 2.083523837002841 Q 2.015158913352273 2.083523837002841 1.993186257102273 2.0856878107244317 Q 1.971213600852273 2.0878517844460225 1.9643887606534092 2.08319091796875 Q 1.9575639204545456 2.078530051491477 1.9575639204545456 2.0665449662642046 Q 1.9575639204545456 2.0012928355823862 2.004172585227273 1.9273848100142046 Q 2.0241477272727275 1.8957575017755681 2.0472856001420454 1.8659612482244319 Q 2.0704234730113638 1.8361649946732954 2.0903986150568183 1.8068681196732954 Q 2.1370072798295454 1.73895263671875 2.1370072798295454 1.6886818625710227 Z M 2.378373579545455 2.0928455699573862 Q 2.2851562500000004 2.0928455699573862 2.265181107954546 1.9227239435369319 Q 2.2588556463068183 1.8687910600142046 2.2588556463068183 1.8042047674005681 Q 2.2588556463068183 1.7396184747869319 2.266512784090909 1.6915116743607954 Q 2.2741699218750004 1.6434048739346592 2.289817116477273 1.6104458895596592 Q 2.3221102627840913 1.5421974875710227 2.3843661221590913 1.5421974875710227 Q 2.448286576704546 1.5421974875710227 2.477583451704546 1.6077825372869319 Q 2.5052157315340913 1.6703713156960227 2.505881569602273 1.8008755770596592 Q 2.506880326704546 2.0116133256392046 2.4356356534090913 2.072537508877841 Q 2.411332563920455 2.0928455699573862 2.378373579545455 2.0928455699573862 Z M 2.3780406605113638 2.0628828568892046 Q 2.4742542613636367 2.0628828568892046 2.4742542613636367 1.8032060102982954 Q 2.4742542613636367 1.6570545543323862 2.4426269531250004 1.6057850230823862 Q 2.421320134943182 1.5714943625710227 2.3843661221590913 1.5714943625710227 Q 2.290815873579546 1.5714943625710227 2.290815873579546 1.8065352006392046 Q 2.290815873579546 2.0079512162642046 2.341086647727273 2.049233176491477 Q 2.3573996803977275 2.0628828568892046 2.3780406605113638 2.0628828568892046 Z M 2.7715509588068183 1.6886818625710227 Q 2.7715509588068183 1.5764881480823862 2.7039683948863638 1.5764881480823862 Q 2.667014382102273 1.5764881480823862 2.649203213778409 1.6087812943892046 Q 2.6313920454545454 1.6410744406960227 2.634055397727273 1.7036632191051138 Q 2.634055397727273 1.7179787375710227 2.6220703125 1.7223066850142046 Q 2.618741122159091 1.7233054421164773 2.613580877130682 1.7233054421164773 Q 2.608420632102273 1.7233054421164773 2.602927468039773 1.7178122780539773 Q 2.597434303977273 1.7123191139914773 2.597101384943182 1.7013327858664773 Q 2.5947709517045454 1.6247614080255681 2.629061612215909 1.5831465287642046 Q 2.659024325284091 1.5461925159801138 2.7086292613636362 1.5461925159801138 Q 2.7838689630681817 1.5461925159801138 2.8001819957386362 1.62542724609375 Q 2.805508700284091 1.65106201171875 2.805508700284091 1.6795265891335227 Q 2.805508700284091 1.7079911665482954 2.7980180220170454 1.7307961203835227 Q 2.79052734375 1.75360107421875 2.7782093394886362 1.7759066495028408 Q 2.765891335227273 1.7982122247869319 2.750244140625 1.8201848810369319 Q 2.7345969460227275 1.8421575372869319 2.7181174538352275 1.8639637340198862 Q 2.7016379616477275 1.8857699307528408 2.6859907670454546 1.9077425870028408 Q 2.670343572443182 1.9297152432528408 2.6580255681818183 1.9520208185369319 Q 2.6307262073863638 2.0012928355823862 2.6307262073863638 2.0435735529119317 Q 2.6307262073863638 2.0522294477982954 2.633722478693182 2.05389404296875 Q 2.63671875 2.0555586381392046 2.6493696732954546 2.0550592595880683 Q 2.662020596590909 2.0545598810369317 2.6799982244318183 2.0532282049005683 Q 2.6979758522727275 2.0518965287642046 2.7162863991477275 2.050564852627841 Q 2.7595658735795454 2.0479015003551138 2.776211825284091 2.049233176491477 Q 2.802512428977273 2.0508977716619317 2.802512428977273 2.0678766424005683 Q 2.802512428977273 2.0742021040482954 2.7978515625 2.0793623490767046 Q 2.7931906960227275 2.0845225941051138 2.784201882102273 2.0845225941051138 L 2.7049671519886362 2.083523837002841 Q 2.6497025923295454 2.083523837002841 2.6277299360795454 2.0856878107244317 Q 2.6057572798295454 2.0878517844460225 2.598932439630682 2.08319091796875 Q 2.5921075994318183 2.078530051491477 2.5921075994318183 2.0665449662642046 Q 2.5921075994318183 2.0012928355823862 2.6387162642045454 1.9273848100142046 Q 2.65869140625 1.8957575017755681 2.6818292791193183 1.8659612482244319 Q 2.7049671519886362 1.8361649946732954 2.724942294034091 1.8068681196732954 Q 2.7715509588068183 1.73895263671875 2.7715509588068183 1.6886818625710227 Z M 3.0628551136363638 1.6886818625710227 Q 3.0628551136363638 1.5764881480823862 2.995272549715909 1.5764881480823862 Q 2.9583185369318183 1.5764881480823862 2.9405073686079546 1.6087812943892046 Q 2.922696200284091 1.6410744406960227 2.9253595525568183 1.7036632191051138 Q 2.9253595525568183 1.7179787375710227 2.9133744673295454 1.7223066850142046 Q 2.9100452769886362 1.7233054421164773 2.9048850319602275 1.7233054421164773 Q 2.8997247869318183 1.7233054421164773 2.8942316228693183 1.7178122780539773 Q 2.8887384588068183 1.7123191139914773 2.8884055397727275 1.7013327858664773 Q 2.886075106534091 1.6247614080255681 2.9203657670454546 1.5831465287642046 Q 2.9503284801136362 1.5461925159801138 2.9999334161931817 1.5461925159801138 Q 3.0751731178977275 1.5461925159801138 3.0914861505681817 1.62542724609375 Q 3.0968128551136362 1.65106201171875 3.0968128551136362 1.6795265891335227 Q 3.0968128551136362 1.7079911665482954 3.089322176846591 1.7307961203835227 Q 3.0818314985795454 1.75360107421875 3.0695134943181817 1.7759066495028408 Q 3.0571954900568183 1.7982122247869319 3.0415482954545454 1.8201848810369319 Q 3.025901100852273 1.8421575372869319 3.009421608664773 1.8639637340198862 Q 2.992942116477273 1.8857699307528408 2.977294921875 1.9077425870028408 Q 2.9616477272727275 1.9297152432528408 2.9493297230113638 1.9520208185369319 Q 2.922030362215909 2.0012928355823862 2.922030362215909 2.0435735529119317 Q 2.922030362215909 2.0522294477982954 2.9250266335227275 2.05389404296875 Q 2.9280229048295454 2.0555586381392046 2.940673828125 2.0550592595880683 Q 2.9533247514204546 2.0545598810369317 2.9713023792613638 2.0532282049005683 Q 2.989280007102273 2.0518965287642046 3.007590553977273 2.050564852627841 Q 3.050870028409091 2.0479015003551138 3.0675159801136362 2.049233176491477 Q 3.0938165838068183 2.0508977716619317 3.0938165838068183 2.0678766424005683 Q 3.0938165838068183 2.0742021040482954 3.0891557173295454 2.0793623490767046 Q 3.084494850852273 2.0845225941051138 3.0755060369318183 2.0845225941051138 L 2.9962713068181817 2.083523837002841 Q 2.941006747159091 2.083523837002841 2.919034090909091 2.0856878107244317 Q 2.897061434659091 2.0878517844460225 2.8902365944602275 2.08319091796875 Q 2.8834117542613638 2.078530051491477 2.8834117542613638 2.0665449662642046 Q 2.8834117542613638 2.0012928355823862 2.930020419034091 1.9273848100142046 Q 2.9499955610795454 1.8957575017755681 2.9731334339488638 1.8659612482244319 Q 2.9962713068181817 1.8361649946732954 3.0162464488636362 1.8068681196732954 Q 3.0628551136363638 1.73895263671875 3.0628551136363638 1.6886818625710227 Z" fill="#595959" fill-rule="nonzero"></path></g><g clip-path="url(&quot;#SvgjsClipPath1023&quot;)"><path d=" M -1.3591109527283534 -0.042618832878861444 C -1.3836116635941023 -0.04568142173707926 -1.4083726945128006 -0.04787882924285238 -1.4333940454844474 -0.04921105539617614 C -1.4533008730628694 -0.05032890032942632 -1.4733302041956189 -0.05088782279605142 -1.4934820388826975 -0.05088782279605142 C -1.4985812493316322 -0.05088782279605142 -1.5036804597805666 -0.05088782279605142 -1.508710761980191 -0.05070406746455779 C -1.5336785176468188 -0.05042843446731812 -1.5584854873983904 -0.04930293306192373 -1.582993854736285 -0.047258654999062746 C -2.1502754096379735 -0.0005986361303753976 -2.586919176543658 0.4733969586473781 -2.586964077765397 1.0425942160866462 C -2.5872854261416585 1.2391860983600995 -2.5343329349503088 1.432191618269822 -2.4337351007165813 1.6010955767435366 C -2.420458778016192 1.6234677883528428 -2.406332586907658 1.6453806116333984 -2.3913794968074047 1.6666502912537273 C -2.2085953026417164 1.9300548002752482 -1.9192774077716062 2.0998104750479314 -1.6001749782308932 2.1308851668546627 L -1.6001749782308932 2.1308851668546627 C -1.5916303553164621 2.131803943512131 -1.5829938547362865 2.1325619342545385 -1.5743573541561091 2.133182108498329 L -1.5741735988246155 2.133182108498329 C -1.5475290757581124 2.135134508895443 -1.5207697056094276 2.136145163218657 -1.4935739165484452 2.136145163218657 C -1.4582622670131833 2.136145163218657 -1.423432975223092 2.1344760522909256 -1.3890860411781683 2.1311378304354687 C -1.376269106806523 2.130012329030074 -1.3636588971828072 2.128634164043876 -1.3510257181426555 2.1268655189782546 C -1.1980319184206245 2.106997643757026 -1.0510348982536024 2.054728034252718 -0.9198438327940441 1.9735446642636776 L -0.9198438327940441 1.973544664263679 L -0.9196600774625521 1.973544664263679 C -0.9093468094824995 1.967228074743604 -0.8991483885846319 1.9607277298920336 -0.8890188759360729 1.9538598743774778 L -0.8890188759360729 1.9538598743774778 C -0.7675165545592844 1.8731933004535994 -0.6633558132064121 1.7690637963900804 -0.5826527995041633 1.6475856756113174 C -0.5674164199345255 1.624830640394751 -0.5531141299666444 1.601493713295124 -0.53974592960052 1.5775748943124361 C -0.447993815735543 1.4143125941964294 -0.399953015987903 1.2301245477331504 -0.40027563299723967 1.04284687966745 C -0.40015229589206314 0.49089626501008377 -0.8113645415065569 0.025376499510585848 -1.359110952728164 -0.04261883287883969 Z M -1.3591109527283534 0.03223849528814901 C -0.8589047186302587 0.09947907632596117 -0.4829257053342544 0.5221796858631945 -0.4744668480875873 1.0268142269946763 L -0.8844709314816177 1.0268142269946763 L -0.8844709314816177 0.7441296189089424 C -0.8844709314816162 0.7342790683513437 -0.8883840474542934 0.7248319706989692 -0.8953494385519922 0.7178665796012706 C -0.9023148296496908 0.710901188503572 -0.9117619273020667 0.7069880725308946 -0.9216124778596655 0.7069880725308946 L -1.3591109527283534 0.7069880725308946 Z M -1.508710761980191 0.023601994707973334 C -1.5036804597805666 0.023418239376481256 -1.4985812493316322 0.023418239376481256 -1.4934820388826975 0.023418239376481256 C -1.4733148912513274 0.023418239376481256 -1.4532855601185777 0.02400013125954209 -1.4333940454844474 0.025163915025665298 L -1.4333940454844474 0.7069880725308977 L -1.508710761980191 0.7069880725308977 Z M -0.9587540242377115 0.78127116528699 L -0.9587540242377115 0.8462746138026828 L -1.9988551393216585 0.8462746138026828 L -1.9988551393216585 0.78127116528699 Z M -0.9587540242377115 0.920580675975214 L -0.9587540242377115 1.0269061046604224 L -1.0081842084093608 1.0269061046604224 L -1.0081842084093608 0.920580675975214 Z M -1.0825591788312023 0.920580675975214 L -1.0825591788312023 1.0269061046604224 L -1.13221905716722 1.0269061046604224 L -1.13221905716722 0.920580675975214 Z M -1.2064332416740033 0.920580675975214 L -1.2064332416740033 1.0269061046604224 L -1.255932334094963 1.0269061046604224 L -1.255932334094963 0.920580675975214 Z M -1.3302154268510584 0.920580675975214 L -1.3302154268510584 1.0269061046604224 L -1.3797145192720182 1.0269061046604224 L -1.3797145192720182 0.920580675975214 Z M -1.4539976120281135 0.920580675975214 L -1.4539976120281135 1.0269061046604224 L -1.5035885821148192 1.0269061046604224 L -1.5035885821148192 0.920580675975214 Z M -1.5778946442873518 0.920580675975214 L -1.5778946442873518 1.0269061046604224 L -1.62739373670831 1.0269061046604224 L -1.62739373670831 0.920580675975214 Z M -1.701676829464407 1.0269061046604224 L -1.7511759218853649 1.0269061046604224 L -1.7511759218853649 0.920580675975214 L -1.701676829464407 0.920580675975214 Z M -1.8254590146414618 0.920580675975214 L -1.8254590146414618 1.0269061046604224 L -1.8750499847281676 1.0269061046604224 L -1.8750499847281676 0.920580675975214 Z M -1.9493560469006987 0.920580675975214 L -1.9493560469006987 1.0269061046604224 L -1.9988551393216585 1.0269061046604224 L -1.9988551393216585 0.920580675975214 Z M -1.5829938547362865 0.027391948420018353 L -1.5829938547362865 0.7069880725308946 L -2.035996685699706 0.7069880725308946 C -2.0458472362573064 0.7069880725308946 -2.05529433390968 0.710901188503572 -2.0622597250073795 0.7178665796012722 C -2.069225116105078 0.7248319706989708 -2.0731382320777554 0.7342790683513437 -2.0731382320777554 0.7441296189089424 L -2.0731382320777554 1.0269061046604209 L -2.5124742602613734 1.0269061046604209 C -2.5038745434958027 0.5050504242205412 -2.102851998527785 0.073811951322714 -1.5829938547362912 0.027391948420018353 Z M -2.5109582787765543 1.1011891974165162 L -2.104858996176753 1.1011891974165162 L -2.3876814207611075 1.5310618260282396 C -2.460380498982076 1.3987806045950042 -2.5025200678876947 1.2518925375306214 -2.511004217609428 1.1011891974165178 Z M -2.3451880003533216 1.6016468427380361 L -2.0158754769012104 1.1011891974165162 L -1.9689948979540268 1.1011891974165162 L -2.244926497607387 1.7304363606982782 C -2.2817757512077197 1.6902775956062162 -2.315320663571971 1.6472076795021744 -2.3452339391861963 1.6016468427380361 Z M -2.188605488504744 1.7871937887132168 L -1.8877061331847564 1.1011891974165162 L -1.8373801417720779 1.1011891974165162 L -2.0608955331170242 1.8886956399467303 C -2.106145620377012 1.8583585048139792 -2.148869985357569 1.8244140659702024 -2.1886514273376196 1.7871937887132137 Z M -0.901330483146112 1.8716063941178693 L -1.016476167742988 1.4661502551782961 C -1.0156580518491816 1.513973558156668 -1.0218489347181108 1.561658833454587 -1.0348517008922997 1.6076877992608731 L -1.0348517008922997 1.6076877992608731 C -1.0378147556126274 1.6180699754902343 -1.041053443330193 1.6283602740538479 -1.0446826111271832 1.638420878453098 L -0.966402839911112 1.9145132640215143 C -1.00904726386828 1.940496635313904 -1.053579590058243 1.9632465116071567 -1.0996254552436273 1.9825716449232809 L -1.0996254552436258 1.9825716449232809 L -1.1324028124987136 1.7887557090309087 C -1.147424515389783 1.805875068436109 -1.1636847687518497 1.821866620727508 -1.1810520365115154 1.836601003468432 C -1.1864498493741285 1.8411948867557586 -1.1918246928203011 1.8455131370458473 -1.1974062610144047 1.8498773261688088 L -1.1703712578684786 2.0092161679897824 C -1.2250402739721935 2.027560050656554 -1.2811852022897061 2.0411697780108264 -1.338185814354573 2.0498950044990725 L -1.34353768838431 1.927881464387639 C -1.3616095488998112 1.9339245275301282 -1.3800158210205553 1.9389172288428809 -1.3986642878322462 1.942834554487891 C -1.4047971220208293 1.9441208418083435 -1.4109299562094122 1.9452463432137395 -1.4170398209815593 1.9462569975369506 L -1.4123081211956106 2.058531505079248 C -1.439059834872151 2.060675317280001 -1.4661178074345145 2.06176253632467 -1.4934820388826975 2.0617931622132515 C -1.510846917708798 2.0617931622132515 -1.5282117965348985 2.0613337738845177 -1.5453929200295053 2.060483905476362 L -1.540799036742177 1.9525276482241527 L -1.540799036742177 1.9515169939009416 C -1.5417178133996436 1.9515169939009416 -1.5427514371392905 1.9515169939009416 -1.543670213796757 1.951333238569448 L -1.5442214797912364 1.951333238569448 L -1.5584395485655174 1.9508508808242786 L -1.5589908145599967 1.9496564711695725 C -1.5715321159344022 1.9479797037696989 -1.5838896619773157 1.9457516703753441 -1.5961323609380442 1.942765646238581 C -1.6023570727923748 1.9412726341701994 -1.608489906980958 1.93968774443607 -1.6145078940873576 1.937942068786886 L -1.6146916494188495 1.942765646238581 L -1.619285532706178 2.053914652375483 C -1.6765705566960338 2.046857226621574 -1.7331447971820655 2.034899943519661 -1.7883863765127246 2.0181742404000724 L -1.763326743180349 1.8700444738001776 L -1.7610298015366843 1.8561250074395736 C -1.7737393881413597 1.8444881527240566 -1.7856205270300052 1.8319776511811037 -1.7965864581806041 1.8186848586478506 C -1.8007668919720738 1.8135856481989159 -1.8048554480977956 1.8083026824184891 -1.8087602488920225 1.8029048695558776 C -1.813951337006703 1.7957613810440836 -1.8189586697898918 1.7883192901186111 -1.8235066142443452 1.7808082909438299 L -1.8273195373728277 1.8029048695558776 L -1.8596375062991806 1.9935510259799927 C -1.9064130308368523 1.9755455177948777 -1.9517677839120924 1.9540467352300108 -1.995317849190414 1.9292366599574 L -1.8977207987511289 1.5854534041502046 L -1.8977207987511289 1.584442749826992 L -1.848864849990398 1.413044964376782 L -1.848864849990398 1.413044964376782 L -1.7603636884600231 1.101281075082264 L -1.7085446849789627 1.101281075082264 L -1.7604555661257693 1.4075552738484258 L -1.7604555661257693 1.407922784511413 C -1.7356422520488946 1.409089913262279 -1.7110133806677434 1.4127919404917582 -1.6869534335285212 1.418971073817437 L -1.6862184122025483 1.414882517691715 L -1.6331820296503459 1.101281075082264 L -1.5794106257721707 1.101281075082264 L -1.5939962052094372 1.4465573429578409 C -1.5878633710208545 1.4495203976781685 -1.5817535062487071 1.4527820548121715 -1.5758044273916179 1.4561126201954833 C -1.5723590149261228 1.4580650205925967 -1.5689136024606263 1.460017420989713 -1.5654911594115668 1.4621535767183185 C -1.5608972761242386 1.4647491207756589 -1.556487148168404 1.4676432672466762 -1.5521229590454422 1.4706063219670023 C -1.549527414988102 1.4661502551782946 -1.5468170238485783 1.4617860660553328 -1.5440377244597443 1.4574218769323712 C -1.5362033007876275 1.4450593684803354 -1.5277075821767068 1.4331285578678878 -1.5185876110479475 1.4216814649569576 L -1.5175769567247364 1.3983675072737694 L -1.5175769567247364 1.3983675072737694 L -1.505127533016077 1.1013729527480098 L -1.4525735082090436 1.1013729527480098 L -1.442903383889218 1.3312279030294696 L -1.4423521178947387 1.3450095528914543 C -1.4364949167033954 1.3402778531055055 -1.430476929596996 1.3358217863167994 -1.4243440954084128 1.3312279030294696 C -1.407017937973213 1.3185551903917176 -1.3888705773650312 1.3070452365176064 -1.3700214255357583 1.2967737783745081 L -1.3703889361987456 1.2872874093861761 L -1.3781755683707666 1.1013729527480098 L -1.3244041644925912 1.1013729527480098 L -1.2978515190918358 1.2582310975938265 L -1.296932742434369 1.2639964211194221 L -1.296932742434369 1.2639964211194221 C -1.291075541243026 1.261952143056561 -1.2852183400516826 1.2600916203251937 -1.279384108276775 1.2582310975938265 C -1.2615338410535013 1.252623822025265 -1.243353134975685 1.2481285082018034 -1.224946591321937 1.2447710195619557 L -1.2255208267328537 1.2416931177594448 L -1.2492022950790294 1.1013729527480098 L -1.197383291597969 1.1013729527480098 L -1.1590243661487794 1.2366857849762578 C -1.1558545866805239 1.2366857849762578 -1.1526158989629582 1.2366857849762578 -1.1494461194947012 1.2368695403077514 L -1.1484354651714903 1.2368695403077514 C -1.14583992111415 1.2366857849762578 -1.143152499391062 1.2366857849762578 -1.140533985917286 1.2366857849762578 L -1.140533985917286 1.2366857849762578 C -1.1346078764766323 1.2366857849762578 -1.1286664540916889 1.2367776626420055 -1.1227097187624522 1.2369614179734976 L -1.0813647691764992 1.2386381853733728 L -1.1204127771187888 1.1013729527480098 L -1.0699949080403626 1.1013729527480098 L -0.7779158086320441 1.7674860294105783 C -0.8162064123597803 1.8054520373057112 -0.857493508412742 1.8402714617537261 -0.9013764219789864 1.8716063941178693 Z M -0.7221690349403167 1.7085235374177223 L -0.9884075408574153 1.1012810750822624 L -0.9415729007431046 1.1012810750822624 L -0.627144559141936 1.5791597840465652 C -0.6554598694648663 1.6246622491416551 -0.687285019182085 1.6678842430143648 -0.722329820855373 1.708431659751978 Z M -0.5859374260546035 1.5066453363560912 L -0.8525434426346878 1.1012810750822624 L -0.47584501307378746 1.1012810750822624 C -0.4838324533610665 1.2425984923336584 -0.521393290831182 1.3806658707342199 -0.5860982119696598 1.506553458690345 Z" fill="#595959" transform="matrix(1,0,0,1,0,0)" fill-rule="nonzero"></path><path d=" M -1.7465360997651653 0.2822146543681058 C -1.7345393434547995 0.28222075183119877 -1.723032191664454 0.27745775917506793 -1.7145492028294558 0.2689747703400712 C -1.706066213994459 0.2604917815050729 -1.7013032213383281 0.2489846297147273 -1.7013093188014228 0.23698787340436017 C -1.7013093191736235 0.21200981132021657 -1.7215580390288845 0.19176109206841538 -1.7465361004390973 0.1917610924406177 C -1.7715089098226515 0.19177376577981078 -1.791750207389716 0.21201506334687542 -1.7917628807289092 0.23698787340436173 C -1.791762880356707 0.26196593548850533 -1.7715141605014475 0.28221465474030655 -1.7465360990912329 0.2822146543681042 Z" fill="#595959" transform="matrix(1,0,0,1,0,0)" fill-rule="nonzero"></path><path d=" M -2.2538616006012404 0.8834161601807301 C -2.2538616006012404 0.9083942238599358 -2.2741103178857793 0.928642941144475 -2.299088381564985 0.928642941144475 C -2.3240664452441906 0.928642941144475 -2.34431516252873 0.9083942238599358 -2.34431516252873 0.8834161601807301 C -2.34431516252873 0.8584380965015246 -2.3240664452441906 0.8381893792169854 -2.299088381564985 0.8381893792169854 C -2.2741103178857793 0.8381893792169854 -2.2538616006012404 0.8584380965015246 -2.2538616006012404 0.8834161601807301 Z" fill="#595959" transform="matrix(1,0,0,1,0,0)" fill-rule="nonzero"></path><path d=" M -2.1133576802583107 0.44130083260827846 C -2.1253504572504025 0.4413008310600344 -2.1368517059012127 0.44606651472695663 -2.1453297255956048 0.45454884235818394 C -2.1538077452899973 0.4630311699894143 -2.1585675856963684 0.4745348381281771 -2.158561491805621 0.486527613572024 C -2.158574215240889 0.5115168612522548 -2.1383468797763454 0.5317955873048791 -2.113357680258321 0.5318462722015141 C -2.0883595064059817 0.5318082457100933 -2.0681181937987736 0.5115258131179042 -2.068130899294564 0.486527613572024 C -2.0681248018314737 0.47453085726165234 -2.072887794487605 0.4630237054713051 -2.081370783322604 0.4545407166363099 C -2.089853772157601 0.4460577278013147 -2.101360923947949 0.44129473514518547 -2.1133576802583147 0.44130083260827846 Z" fill="#595959" transform="matrix(1,0,0,1,0,0)" fill-rule="nonzero"></path><path d=" M -1.2110730637942062 0.19176109244061615 C -1.236051125204419 0.1917610924406177 -1.2562998447579488 0.21200981199414887 -1.2562998447579488 0.23698787340436173 C -1.2563059422210416 0.2489846297147304 -1.2515429495649109 0.2604917815050791 -1.243059960729911 0.2689747703400728 C -1.2345769718949142 0.2774577591750695 -1.223069820104567 0.28222075183119877 -1.2110730637942015 0.2822146543681042 C -1.1990622646795257 0.2822390542135312 -1.187535038307789 0.2774848772212265 -1.1790334897636603 0.2690005644572195 C -1.1705319412195334 0.26051625169321085 -1.1657543803806922 0.24899869730303664 -1.1657544051647146 0.23698787340436017 C -1.165760487151224 0.22497892526980545 -1.170540006112508 0.21346492314555088 -1.1790402280360288 0.20498193431259598 C -1.1875404499595514 0.19649894547964422 -1.199064128046547 0.19174280315987133 -1.2110730637942015 0.19176109244061615 Z" fill="#595959" transform="matrix(1,0,0,1,0,0)" fill-rule="nonzero"></path><path d=" M -0.6585207819943864 0.9286429411444745 C -0.6465158230756098 0.9286612290015773 -0.6349956258498848 0.923908238130341 -0.6264960651290548 0.9154302170970933 C -0.6179965044082232 0.9069521960638488 -0.613214297225116 0.895444096272853 -0.6132021233648948 0.8834391295971646 C -0.6132082053514072 0.8714301814626115 -0.6179877243126912 0.8599161793383554 -0.6264879462362123 0.851433190505402 C -0.6349881681597331 0.8429502016724487 -0.646511846246729 0.8381940593526773 -0.6585207819943848 0.8382123486334222 C -0.6705175383047535 0.8382062511703292 -0.6820246900951006 0.84296924382646 -0.6905076789300975 0.8514522326614568 C -0.6989906677650957 0.8599352214964551 -0.7037536604212251 0.8714423732868007 -0.703747562958132 0.8834391295971677 C -0.7037475645057731 0.895431906591529 -0.6989818808382744 0.906933155242099 -0.6904995532066198 0.915411174936066 C -0.6820172255749637 0.9238891946300329 -0.6705135574359615 0.9286490350358251 -0.6585207819921146 0.928642941144473 Z" fill="#595959" transform="matrix(1,0,0,1,0,0)" fill-rule="nonzero"></path><path d=" M -0.844251483301059 0.5318922110343856 C -0.8192279306164518 0.5318795376702457 -0.7989454980357074 0.5115971050895013 -0.7989328246715659 0.4865735524048955 C -0.7989389066580783 0.4745646042703392 -0.8037184256193624 0.4630506021460846 -0.8122186475428832 0.4545676133131298 C -0.8207188694664043 0.44608462448017644 -0.8322425475533999 0.4413284821604051 -0.8442514833010559 0.4413467714411499 C -0.8562482396114246 0.44134067397805693 -0.8677553914017717 0.4461036666341877 -0.8762383802367686 0.45458665546918453 C -0.8847213690717668 0.46306964430418285 -0.8894843617278962 0.4745767960945284 -0.8894782642648031 0.4865735524048955 C -0.8894909697605935 0.5115717519507804 -0.8692496571533839 0.531854184542968 -0.8442514833010544 0.5318922110343871 Z" fill="#595959" transform="matrix(1,0,0,1,0,0)" fill-rule="nonzero"></path><path d=" M -1.1374331146983363 1.3120025014720016 C -1.1383518913558028 1.3120025014720016 -1.139385515095451 1.3120025014720016 -1.1403961694186637 1.3120025014720016 C -1.1583911582794533 1.311992548860329 -1.176362818163692 1.31329762454607 -1.194167573296839 1.3159073022662315 C -1.2002085298196743 1.3167342012579506 -1.2062494863425128 1.3176529779154156 -1.2122904428653483 1.3187784793208115 C -1.2307154715190642 1.3222496214036332 -1.2488691755419143 1.3270317599263544 -1.2666131127380027 1.3330884257608384 C -1.2724473445129103 1.335017856741516 -1.2783045457042521 1.337062134804377 -1.2840698692298493 1.3393820458644776 C -1.3063499027951493 1.3479267925284846 -1.3278265503696616 1.358434515232264 -1.3482464187538201 1.3707812381333655 C -1.3543715964702587 1.3744104059303541 -1.3604048965209499 1.3782386420031278 -1.366346318905895 1.3822659463516853 C -1.3855263333971988 1.3950658613569005 -1.4035770955165876 1.4094818808273013 -1.4203014781155638 1.4253565715868224 L -1.4203014781155638 1.4253565715868224 C -1.4264343123041454 1.4312137727781657 -1.4323604217447974 1.437162851635255 -1.4381257452703962 1.4433875634895856 C -1.4538301355091532 1.4602433211736725 -1.4679758124059585 1.4784866316498222 -1.4803894715138142 1.4978939886937306 C -1.4848455383025219 1.5047848136247255 -1.4890259720939898 1.5119972103858281 -1.4929078034717824 1.5192555459798087 C -1.4972719925947442 1.5271340558175757 -1.501360548720466 1.5352192904032735 -1.5050815941832008 1.543396402654716 C -1.5070339945803157 1.5473930811146919 -1.508802639645937 1.5514816372404139 -1.5104794070458123 1.5556620710318818 C -1.516145245468185 1.5691543147459956 -1.521037998327277 1.5829583196776034 -1.5251338947323891 1.5970070206178348 C -1.5254095277296273 1.5980176749410475 -1.5258000078090503 1.5990512986806957 -1.5260756408062899 1.6001538306696546 C -1.5441652423031935 1.66363044574383 -1.5469673876187346 1.730488373581484 -1.534252753057734 1.7952560538824789 C -1.5303701933292482 1.8149830589247895 -1.5249952096843213 1.8343867498829691 -1.5181741615520856 1.8532997692178697 C -1.5153029844975057 1.8613850038035644 -1.5120413273635027 1.8693783607235164 -1.5086188843144435 1.8772568705612849 C -1.5070339945803157 1.8772568705612849 -1.5053572271804405 1.8772568705612849 -1.5037723374463128 1.8772568705612849 L -1.5028535607888462 1.8772568705612849 C -1.5002580167315058 1.8772568705612849 -1.4976624726741656 1.8772568705612849 -1.4950439592003895 1.8772568705612849 C -1.4775591236543972 1.8772476253377797 -1.4600943247444937 1.8760735856922535 -1.442765567390596 1.873742549846478 C -1.4352545682158147 1.8727089261068282 -1.427812477290342 1.871445608202813 -1.4203933557813084 1.8701133820494877 C -1.4141686439269778 1.868918972394783 -1.408035809738395 1.8675178379921475 -1.401902975549812 1.8660248259237657 C -1.40171922021832 1.8660248259237657 -1.4016273425525723 1.8660248259237657 -1.4015354648868263 1.8660248259237657 L -1.4015354648868263 1.8660248259237657 C -1.3829620610422435 1.861562042267556 -1.364719188253512 1.8558213317728263 -1.3469371620169304 1.8488437024291589 C -1.3407124501626015 1.8464319137033123 -1.3346714936397661 1.8438363696459719 -1.328561628867619 1.8411489479228855 C -1.2856039272663544 1.8220057730951458 -1.246276223972521 1.7955852650534465 -1.212313412281781 1.763052932038308 C -1.2069155994191725 1.7579307521729375 -1.2016326336387457 1.7525559087267648 -1.196510453773374 1.7469743405326612 L -1.196510453773374 1.7469743405326612 C -1.1857343309189017 1.7354679719212884 -1.1757140445091596 1.7232763677060665 -1.1665123959071233 1.7104759378148404 C -1.1607700417979634 1.7024213291177241 -1.1552956642138956 1.6941599956726798 -1.150089263154925 1.6856919374797046 C -1.145081930371738 1.6773310698967687 -1.1402353835036074 1.66869456931659 -1.1358711943806443 1.6599661910706667 C -1.1066772560039626 1.6018237323970494 -1.0915997466326255 1.537618409348646 -1.0918617924880423 1.4725587223641188 L -1.0918617924880423 1.4725587223641188 C -1.0918808378794784 1.4173460388937587 -1.103354673210144 1.362737778308464 -1.125557926400626 1.3121862568034175 C -1.129439757778386 1.3120025014720016 -1.1334364362383618 1.3119106238062541 -1.1374331146983363 1.3120025014720016 Z" fill="#aabda0" transform="matrix(1,0,0,1,0,0)" fill-rule="nonzero"></path><path d=" M -1.7176405738878717 1.4890967021984987 C -1.7206265980246336 1.488430589121836 -1.7235896527449612 1.4878793231273566 -1.7265756768817244 1.4874199347986234 C -1.7295617010184876 1.4869605464698916 -1.7322261533251369 1.4864092804754123 -1.7351202997961557 1.4860188003959893 C -1.7357145134330332 1.4858308705225667 -1.7363346523364394 1.4857378496870561 -1.7369578531110856 1.485743167398748 C -1.7381752321822277 1.4855594120672575 -1.7393926112533697 1.4853756567357623 -1.7405870209080758 1.485283779070018 C -1.7409844360393474 1.485176100304715 -1.7413929081141584 1.4851144441424806 -1.7418043999792179 1.4851000237385243 C -1.7418922753837776 1.4850616717677523 -1.741992157571898 1.4850616717677523 -1.7420800329764576 1.4851000237385243 C -1.7425394213051892 1.4851000237385243 -1.7429069319681765 1.4851000237385243 -1.7433663202969083 1.4851000237385243 C -1.7435250483452234 1.4850636437447184 -1.7436899499937653 1.4850636437447184 -1.7438486780420788 1.4851000237385243 L -1.746719855096659 1.4848243907412846 L -1.746719855096659 1.4848243907412846 C -1.7478223870856175 1.4848243907412846 -1.7490167967403223 1.4845487577440448 -1.7500733898964078 1.484456880078299 C -1.7520028208770855 1.484250155330368 -1.7539552212742004 1.484066399998876 -1.755815744005568 1.4839745223331282 C -1.7561587262413836 1.4839281696201 -1.7565063855094003 1.4839281696201 -1.7568493677452162 1.4839745223331282 C -1.757246201469893 1.4839289722285662 -1.757646943675247 1.4839289722285662 -1.7580437773999225 1.4839745223331282 C -1.7585097082171308 1.483928903026646 -1.758978980985348 1.483928903026646 -1.7594449118025581 1.4839745223331282 C -1.7602098460171502 1.4839277930517565 -1.7609769192316294 1.4839277930517565 -1.7617418534462215 1.4839745223331282 C -1.7622931194407023 1.4839745223331282 -1.7629362631009275 1.4839745223331282 -1.7636023761775903 1.4837907670016361 L -1.7643373975035632 1.4837907670016361 C -1.7652019270419266 1.483743272269685 -1.7660684120225403 1.483743272269685 -1.7669329415609036 1.4837907670016361 L -1.7672085745581434 1.4837907670016361 C -1.7691609749552566 1.4837907670016361 -1.7711133753523716 1.4836070116701425 -1.773065775749485 1.4836070116701425 L -1.7766949435464752 1.4836070116701425 C -1.786033253986096 1.483589548436856 -1.7953653989814424 1.4840879785311019 -1.8046487233498665 1.4851000237385243 C -1.827532908124386 1.5483292401149955 -1.8281891428036885 1.6174688296601296 -1.8065092460812338 1.681121023608812 C -1.795572137284137 1.7138077047004239 -1.7787928154924022 1.7442377363357098 -1.7569871842438367 1.7709314418760764 C -1.7541849154385656 1.7743768543415714 -1.7513137383839856 1.7777074197248848 -1.7483506836636595 1.7809690768588877 C -1.7116342465421877 1.8210712478347855 -1.664553431810902 1.8502513374647955 -1.6123028301094386 1.8652898045977944 L -1.6145997717531035 1.8583989796668012 C -1.6181140924679105 1.8470520879471004 -1.6212838719361657 1.8356362879780923 -1.6237875383277602 1.8239448550118413 C -1.6252805503961416 1.8176282654917664 -1.62665871538234 1.8113116759716898 -1.6277842167877346 1.8049950864516133 C -1.6284273604479613 1.8020320317312872 -1.6289786264424406 1.798954129928778 -1.6294609841876082 1.7959910752084502 C -1.6304716385108207 1.7899501186856148 -1.6314133845847232 1.783909162162778 -1.632148405910696 1.777868205639941 C -1.6326077942394295 1.774905150919615 -1.632975304902415 1.771942096199289 -1.6332509378996547 1.7688641943967782 C -1.6340089286420652 1.7628232378739428 -1.6345601946365442 1.7567133731017956 -1.6349277052995301 1.7506724165789602 C -1.6361450843706704 1.7357193264787063 -1.6365125950336576 1.7208121752113272 -1.636236962036418 1.7058131462782018 C -1.636236962036418 1.704228256544074 -1.636236962036418 1.7026663362263823 -1.636236962036418 1.7010814464922546 L -1.636236962036418 1.6992209237608855 C -1.636236962036418 1.6974522786952644 -1.636053206704926 1.6955917559638969 -1.636053206704926 1.6937312332325296 C -1.6353870936282633 1.6798117668719257 -1.6342845616393047 1.665984178177068 -1.6324240389079359 1.6521336200657741 C -1.6322402835764436 1.6504568526659005 -1.63205652824495 1.6487111770167149 -1.6317808952477089 1.6470344096168412 C -1.6312066598367938 1.642578342828132 -1.6304716385108207 1.6380303983736781 -1.6297366171848493 1.633574331584969 C -1.629369106521862 1.631277389941304 -1.6288867487766931 1.6287277847168369 -1.6284273604479598 1.6263159959909916 C -1.6260079152499658 1.6127640402933734 -1.622945326391748 1.5993039622615028 -1.6192395938733048 1.5859357618953782 C -1.6186883278788256 1.5836388202517133 -1.6181140924679087 1.5815715727724167 -1.617379071141936 1.579343539378062 C -1.6166440498159629 1.577115505983709 -1.616161692070794 1.5748874725893542 -1.6154266707448226 1.5727283474443101 C -1.6146916494188495 1.5705692222992658 -1.6139336586764408 1.5677210146611216 -1.6131297291011575 1.5652173482695289 C -1.6123257995258742 1.5627136818779361 -1.6115448393670282 1.56021001548634 -1.6106260627095632 1.5577982267604935 C -1.6097072860520998 1.5553864380346483 -1.6088574176439434 1.5524004138978835 -1.607846763320731 1.5497129921747972 C -1.606629384249589 1.5461757020435545 -1.605320127512701 1.542661381328749 -1.603941962526501 1.5392159688632525 C -1.632892117288362 1.5184088050117492 -1.665307676283848 1.5029087548490803 -1.6996784902344189 1.493437921905029 C -1.705581630258635 1.491784123921585 -1.7116225867814707 1.4903829895189509 -1.7176405738878717 1.4890967021984987 Z" fill="#aabda0" transform="matrix(1,0,0,1,0,0)" fill-rule="nonzero"></path></g></g><defs><clipPath id="SvgjsClipPath1023"><path d=" M -2.586964077765398 -0.05088782279605142 h 2.1869640777653983 v 2.1869640777653983 h -2.1869640777653983 Z"></path></clipPath></defs></svg>